G04*
G04 #@! TF.GenerationSoftware,Altium Limited,Altium Designer,21.2.2 (38)*
G04*
G04 Layer_Color=16711935*
%FSLAX25Y25*%
%MOIN*%
G70*
G04*
G04 #@! TF.SameCoordinates,0CC3C9D5-6B2F-423D-8AA3-22EEB0D6369A*
G04*
G04*
G04 #@! TF.FilePolarity,Positive*
G04*
G01*
G75*
%ADD10C,0.00787*%
D10*
X414579Y143339D02*
X424421D01*
X414579D02*
Y160661D01*
X424421D01*
Y143339D02*
Y160661D01*
X523799Y100461D02*
X550201D01*
Y120539D01*
X523799D02*
X550201D01*
X523799Y100461D02*
Y120539D01*
X523299Y65461D02*
X549701D01*
Y85539D01*
X523299D02*
X549701D01*
X523299Y65461D02*
Y85539D01*
X514579Y53661D02*
X524421D01*
Y36339D02*
Y53661D01*
X514579Y36339D02*
X524421D01*
X514579D02*
Y53661D01*
X367079Y22839D02*
Y40161D01*
Y22839D02*
X376921D01*
Y40161D01*
X367079D02*
X376921D01*
X389921Y113839D02*
Y131161D01*
X380079D02*
X389921D01*
X380079Y113839D02*
Y131161D01*
Y113839D02*
X389921D01*
X389421Y77339D02*
Y94661D01*
X379579D02*
X389421D01*
X379579Y77339D02*
Y94661D01*
Y77339D02*
X389421D01*
X390921Y42339D02*
Y59661D01*
X381079D02*
X390921D01*
X381079Y42339D02*
Y59661D01*
Y42339D02*
X390921D01*
X424579Y17839D02*
Y35161D01*
Y17839D02*
X434421D01*
Y35161D01*
X424579D02*
X434421D01*
X425079Y63839D02*
Y81161D01*
Y63839D02*
X434921D01*
Y81161D01*
X425079D02*
X434921D01*
X424579Y106339D02*
Y123661D01*
Y106339D02*
X434421D01*
Y123661D01*
X424579D02*
X434421D01*
X269933Y146040D02*
X288067D01*
X269933Y136960D02*
Y146040D01*
Y136960D02*
X288067D01*
Y146040D01*
X269433Y159040D02*
X287567D01*
X269433Y149960D02*
Y159040D01*
Y149960D02*
X287567D01*
Y159040D01*
M02*
