G04*
G04 #@! TF.GenerationSoftware,Altium Limited,Altium Designer,21.2.2 (38)*
G04*
G04 Layer_Physical_Order=1*
G04 Layer_Color=255*
%FSLAX25Y25*%
%MOIN*%
G70*
G04*
G04 #@! TF.SameCoordinates,0CC3C9D5-6B2F-423D-8AA3-22EEB0D6369A*
G04*
G04*
G04 #@! TF.FilePolarity,Positive*
G04*
G01*
G75*
%ADD14C,0.01000*%
%ADD16R,0.04213X0.07165*%
%ADD17R,0.04724X0.02362*%
%ADD18R,0.06905X0.07111*%
G04:AMPARAMS|DCode=19|XSize=73.78mil|YSize=21.34mil|CornerRadius=10.67mil|HoleSize=0mil|Usage=FLASHONLY|Rotation=90.000|XOffset=0mil|YOffset=0mil|HoleType=Round|Shape=RoundedRectangle|*
%AMROUNDEDRECTD19*
21,1,0.07378,0.00000,0,0,90.0*
21,1,0.05244,0.02134,0,0,90.0*
1,1,0.02134,0.00000,0.02622*
1,1,0.02134,0.00000,-0.02622*
1,1,0.02134,0.00000,-0.02622*
1,1,0.02134,0.00000,0.02622*
%
%ADD19ROUNDEDRECTD19*%
%ADD20R,0.02134X0.07378*%
%ADD21R,0.05315X0.05709*%
%ADD22R,0.07111X0.06905*%
%ADD23R,0.03740X0.06693*%
%ADD42O,0.07874X0.05118*%
%ADD43C,0.11811*%
%ADD58R,0.05512X0.05512*%
%ADD59C,0.05512*%
%ADD60C,0.06000*%
%ADD61C,0.08268*%
%ADD62C,0.06791*%
%ADD63C,0.07677*%
%ADD64C,0.06102*%
G04:AMPARAMS|DCode=65|XSize=61.02mil|YSize=61.02mil|CornerRadius=1.83mil|HoleSize=0mil|Usage=FLASHONLY|Rotation=180.000|XOffset=0mil|YOffset=0mil|HoleType=Round|Shape=RoundedRectangle|*
%AMROUNDEDRECTD65*
21,1,0.06102,0.05736,0,0,180.0*
21,1,0.05736,0.06102,0,0,180.0*
1,1,0.00366,-0.02868,0.02868*
1,1,0.00366,0.02868,0.02868*
1,1,0.00366,0.02868,-0.02868*
1,1,0.00366,-0.02868,-0.02868*
%
%ADD65ROUNDEDRECTD65*%
%ADD66C,0.08150*%
%ADD67R,0.08150X0.08150*%
%ADD68R,0.04449X0.04449*%
%ADD69C,0.04449*%
%ADD70C,0.04724*%
%ADD71C,0.06496*%
%ADD72C,0.04528*%
%ADD73R,0.04528X0.04528*%
%ADD74R,0.07677X0.07677*%
%ADD75C,0.08858*%
%ADD76R,0.08858X0.08858*%
%ADD77R,0.04724X0.04724*%
%ADD78C,0.05020*%
%ADD79R,0.05020X0.05020*%
%ADD80C,0.06260*%
%ADD81C,0.06201*%
%ADD82R,0.06201X0.06201*%
%ADD83R,0.07677X0.07677*%
%ADD84C,0.05000*%
G36*
X216500Y214896D02*
X215389Y213785D01*
X214819Y213842D01*
X214690Y214064D01*
X214064Y214690D01*
X213298Y215133D01*
X212500Y215347D01*
Y212000D01*
Y208653D01*
X213298Y208867D01*
X214064Y209310D01*
X214690Y209936D01*
X215054Y210566D01*
X215862D01*
X216000Y210594D01*
X216500Y210183D01*
Y188256D01*
X216005D01*
X215050Y188000D01*
X214194Y187505D01*
X213494Y186806D01*
X213000Y185950D01*
X212744Y184994D01*
Y184005D01*
X213000Y183050D01*
X213494Y182194D01*
X214194Y181494D01*
X215050Y181000D01*
X216005Y180744D01*
X216500D01*
Y173500D01*
X217500D01*
X252538Y138462D01*
X252347Y138000D01*
X253000D01*
X241962Y149038D01*
X242153Y149500D01*
X297833D01*
X297631Y163454D01*
X298061Y163884D01*
X298729Y165041D01*
X298750Y165120D01*
X299250D01*
X299271Y165041D01*
X299939Y163884D01*
X300884Y162939D01*
X302041Y162271D01*
X303332Y161925D01*
X303500D01*
Y167000D01*
Y172075D01*
X303332D01*
X302041Y171729D01*
X300884Y171061D01*
X299939Y170116D01*
X299271Y168959D01*
X299250Y168880D01*
X298750D01*
X298729Y168959D01*
X298061Y170116D01*
X297527Y170650D01*
X297491Y173144D01*
X297842Y173500D01*
X311500D01*
Y139000D01*
Y138000D01*
X257500D01*
X257997Y40157D01*
X257623Y40002D01*
X257497Y40000D01*
X245000D01*
Y138000D01*
X199000D01*
Y161925D01*
X199075D01*
Y164381D01*
X199575Y164515D01*
X199939Y163884D01*
X200884Y162939D01*
X202041Y162271D01*
X203332Y161925D01*
X203500D01*
Y167000D01*
Y172075D01*
X203332D01*
X202041Y171729D01*
X200884Y171061D01*
X199939Y170116D01*
X199575Y169485D01*
X199075Y169619D01*
Y172075D01*
X199000D01*
Y173500D01*
X199653D01*
X199462Y173962D01*
X207500Y182000D01*
Y217500D01*
X216500D01*
Y214896D01*
D02*
G37*
G36*
X134000Y180148D02*
X133971Y180000D01*
Y178054D01*
X133553Y177428D01*
X133392Y176622D01*
Y171378D01*
X133553Y170571D01*
X134000Y169902D01*
Y168500D01*
X113700D01*
X113635Y168745D01*
X113210Y169480D01*
X112610Y170080D01*
X111874Y170505D01*
X111054Y170724D01*
X110205D01*
X109385Y170505D01*
X108650Y170080D01*
X108050Y169480D01*
X107625Y168745D01*
X107560Y168500D01*
X106500D01*
Y213000D01*
X134000D01*
Y180148D01*
D02*
G37*
G36*
X168500Y139500D02*
Y120653D01*
Y39500D01*
X155500D01*
X155500Y133000D01*
X155500Y133000D01*
X139020Y149480D01*
Y151114D01*
X139461Y151350D01*
X139693Y151194D01*
X140000Y151133D01*
Y155763D01*
Y160393D01*
X139693Y160332D01*
X139461Y160177D01*
X139020Y160413D01*
Y161060D01*
X146500Y161500D01*
X168500Y139500D01*
D02*
G37*
G36*
X533000Y121000D02*
X555653Y101832D01*
X555415Y101378D01*
X554961Y101500D01*
X554039D01*
X553149Y101261D01*
X552351Y100801D01*
X551699Y100149D01*
X551238Y99351D01*
X551000Y98461D01*
Y97539D01*
X551238Y96649D01*
X551699Y95851D01*
X552351Y95199D01*
X553149Y94739D01*
X554039Y94500D01*
X554961D01*
X555851Y94739D01*
X556649Y95199D01*
X557301Y95851D01*
X557761Y96649D01*
X558000Y97539D01*
Y98461D01*
X557761Y99351D01*
X557714Y99433D01*
X558104Y99759D01*
X572000Y88000D01*
X585000Y87500D01*
Y75000D01*
X565442D01*
X545221Y95221D01*
X544890Y95442D01*
X544500Y95520D01*
X522500D01*
Y121000D01*
Y130500D01*
X533000D01*
Y121000D01*
D02*
G37*
G36*
X378000Y171000D02*
X378000Y90095D01*
X377538Y89904D01*
X374946Y92496D01*
X374902Y92526D01*
X375261Y93149D01*
X375489Y94000D01*
X372000D01*
Y94500D01*
X371500D01*
Y97989D01*
X370649Y97761D01*
X370026Y97402D01*
X369996Y97446D01*
X364500Y102942D01*
Y119402D01*
X364520Y119500D01*
Y133944D01*
X368130D01*
Y138500D01*
X368630D01*
Y139000D01*
X373083D01*
Y143055D01*
X370160D01*
Y146832D01*
X373278D01*
Y150887D01*
X368825D01*
Y151887D01*
X373278D01*
Y155943D01*
X370660D01*
Y159444D01*
X373583D01*
Y163500D01*
X369130D01*
Y164000D01*
X368630D01*
Y168555D01*
X364991D01*
X364678Y168555D01*
X364520Y168990D01*
Y170500D01*
X364924Y171000D01*
X378000Y171000D01*
D02*
G37*
G36*
X20161Y313000D02*
Y312863D01*
X20491Y311632D01*
X21128Y310529D01*
X22029Y309628D01*
X23132Y308991D01*
X24363Y308661D01*
X25637D01*
X26868Y308991D01*
X27971Y309628D01*
X28872Y310529D01*
X29509Y311632D01*
X29839Y312863D01*
Y313000D01*
X102500Y313000D01*
Y311500D01*
X102500D01*
Y235500D01*
D01*
Y224500D01*
X92000Y214000D01*
X69500D01*
Y212000D01*
X45000Y187500D01*
X45000Y117000D01*
X108000D01*
X108000Y136968D01*
X108023Y136984D01*
X108032Y136985D01*
X108575Y136761D01*
X108739Y136149D01*
X109199Y135351D01*
X109851Y134699D01*
X110649Y134239D01*
X111539Y134000D01*
X112461D01*
X113351Y134239D01*
X114149Y134699D01*
X114801Y135351D01*
X115261Y136149D01*
X115500Y137039D01*
Y137961D01*
X115261Y138851D01*
X114801Y139649D01*
X114149Y140301D01*
X113351Y140761D01*
X112461Y141000D01*
X111567D01*
X111466Y141110D01*
X111267Y141420D01*
X128000Y161500D01*
X137583Y161500D01*
X137729Y161411D01*
X138000Y161060D01*
Y160413D01*
X138029Y160266D01*
X138044Y160117D01*
X138068Y160072D01*
X138078Y160022D01*
X138161Y159898D01*
X138231Y159766D01*
X138270Y159734D01*
X138299Y159692D01*
X138553Y159192D01*
X138392Y158385D01*
Y153141D01*
X138553Y152335D01*
X138299Y151835D01*
X138270Y151793D01*
X138231Y151761D01*
X138161Y151629D01*
X138078Y151504D01*
X138068Y151455D01*
X138044Y151410D01*
X138029Y151261D01*
X138000Y151114D01*
Y149480D01*
X138078Y149090D01*
X138299Y148759D01*
X139500Y147558D01*
Y58500D01*
X108000Y58500D01*
X92000Y58500D01*
Y59500D01*
X56000Y95500D01*
X55500Y95000D01*
X7000D01*
X7000Y313000D01*
X20161D01*
D02*
G37*
G36*
X570000Y69000D02*
X585000D01*
Y56000D01*
X565500Y56000D01*
X542500Y79000D01*
Y78500D01*
X522500D01*
Y94500D01*
X544500D01*
X570000Y69000D01*
D02*
G37*
G36*
X516500Y68864D02*
X540234Y50500D01*
X562272D01*
X562310Y50436D01*
X562936Y49810D01*
X563702Y49367D01*
X564557Y49138D01*
X565443D01*
X566298Y49367D01*
X567064Y49810D01*
X567690Y50436D01*
X567728Y50500D01*
X585000D01*
Y35500D01*
X533000Y35500D01*
X516500Y52000D01*
X499000D01*
Y70000D01*
X516500D01*
Y68864D01*
D02*
G37*
G36*
X363500Y168555D02*
X360370D01*
Y164000D01*
Y159444D01*
X363500D01*
Y155943D01*
X360064D01*
Y151387D01*
Y146832D01*
X363500D01*
Y143055D01*
X359870D01*
Y138500D01*
Y133944D01*
X363500D01*
Y119500D01*
X362500Y118500D01*
X347500D01*
X369275Y96725D01*
X369199Y96649D01*
X368739Y95851D01*
X368500Y94961D01*
Y94039D01*
X368739Y93149D01*
X369199Y92351D01*
X369851Y91699D01*
X370649Y91238D01*
X371539Y91000D01*
X372461D01*
X373351Y91238D01*
X374149Y91699D01*
X374225Y91775D01*
X378000Y88000D01*
Y41000D01*
X380344D01*
X380513Y40500D01*
X379958Y40074D01*
X379387Y39330D01*
X379029Y38464D01*
X378906Y37535D01*
X379029Y36606D01*
X379387Y35741D01*
X379958Y34997D01*
X380701Y34427D01*
X381567Y34068D01*
X382496Y33946D01*
X385252D01*
X386181Y34068D01*
X387047Y34427D01*
X387790Y34997D01*
X388361Y35741D01*
X388719Y36606D01*
X388842Y37535D01*
X388719Y38464D01*
X388361Y39330D01*
X387790Y40074D01*
X387235Y40500D01*
X387405Y41000D01*
X414323D01*
X414441Y40968D01*
X415559D01*
X415677Y41000D01*
X510500D01*
X525500Y30000D01*
Y12500D01*
X418291D01*
X417608Y13183D01*
X416640Y13742D01*
X415559Y14031D01*
X414441D01*
X413360Y13742D01*
X412392Y13183D01*
X411709Y12500D01*
X378000D01*
Y12000D01*
X363931D01*
X363554Y12500D01*
X363748Y13224D01*
Y14343D01*
X363458Y15423D01*
X362899Y16392D01*
X362108Y17183D01*
X361140Y17742D01*
X360059Y18032D01*
X358941D01*
X357860Y17742D01*
X356892Y17183D01*
X356101Y16392D01*
X355541Y15423D01*
X355252Y14343D01*
Y13224D01*
X355446Y12500D01*
X355069Y12000D01*
X334806D01*
X334502Y12397D01*
X334600Y12763D01*
Y13843D01*
X334321Y14886D01*
X333781Y15821D01*
X333018Y16584D01*
X332083Y17124D01*
X331040Y17403D01*
X329960D01*
X328917Y17124D01*
X327982Y16584D01*
X327219Y15821D01*
X326679Y14886D01*
X326400Y13843D01*
Y12763D01*
X326498Y12397D01*
X326193Y12000D01*
X274000D01*
Y121000D01*
Y134000D01*
X347500D01*
Y150688D01*
X347505Y150694D01*
X348000Y151550D01*
X348256Y152506D01*
Y153495D01*
X348000Y154450D01*
X347505Y155306D01*
X347500Y155312D01*
Y170500D01*
X363500D01*
Y168555D01*
D02*
G37*
%LPC*%
G36*
X211500Y215347D02*
X210702Y215133D01*
X209936Y214690D01*
X209310Y214064D01*
X208867Y213298D01*
X208653Y212500D01*
X211500D01*
Y215347D01*
D02*
G37*
G36*
Y211500D02*
X208653D01*
X208867Y210702D01*
X209310Y209936D01*
X209936Y209310D01*
X210702Y208867D01*
X211500Y208653D01*
Y211500D01*
D02*
G37*
G36*
X214668Y172075D02*
X213332D01*
X212041Y171729D01*
X210884Y171061D01*
X209939Y170116D01*
X209271Y168959D01*
X209250Y168880D01*
X208750D01*
X208729Y168959D01*
X208061Y170116D01*
X207116Y171061D01*
X205959Y171729D01*
X204668Y172075D01*
X204500D01*
Y167000D01*
Y161925D01*
X204668D01*
X205959Y162271D01*
X207116Y162939D01*
X208061Y163884D01*
X208729Y165041D01*
X208750Y165120D01*
X209250D01*
X209271Y165041D01*
X209939Y163884D01*
X210884Y162939D01*
X212041Y162271D01*
X213332Y161925D01*
X214668D01*
X215959Y162271D01*
X217116Y162939D01*
X218061Y163884D01*
X218729Y165041D01*
X219075Y166332D01*
Y167668D01*
X218729Y168959D01*
X218061Y170116D01*
X217116Y171061D01*
X215959Y171729D01*
X214668Y172075D01*
D02*
G37*
G36*
X304668D02*
X304500D01*
Y167500D01*
X309075D01*
Y167668D01*
X308729Y168959D01*
X308061Y170116D01*
X307116Y171061D01*
X305959Y171729D01*
X304668Y172075D01*
D02*
G37*
G36*
X309075Y166500D02*
X304500D01*
Y161925D01*
X304668D01*
X305959Y162271D01*
X307116Y162939D01*
X308061Y163884D01*
X308729Y165041D01*
X309075Y166332D01*
Y166500D01*
D02*
G37*
G36*
X251676Y133189D02*
X251500D01*
Y128555D01*
X256134D01*
Y128731D01*
X255784Y130037D01*
X255108Y131207D01*
X254152Y132163D01*
X252982Y132839D01*
X251676Y133189D01*
D02*
G37*
G36*
X250500D02*
X250324D01*
X249018Y132839D01*
X247848Y132163D01*
X246892Y131207D01*
X246216Y130037D01*
X245866Y128731D01*
Y128555D01*
X250500D01*
Y133189D01*
D02*
G37*
G36*
X256134Y127555D02*
X251500D01*
Y122921D01*
X251676D01*
X252982Y123271D01*
X254152Y123947D01*
X255108Y124903D01*
X255784Y126074D01*
X256134Y127379D01*
Y127555D01*
D02*
G37*
G36*
X250500D02*
X245866D01*
Y127379D01*
X246216Y126074D01*
X246892Y124903D01*
X247848Y123947D01*
X249018Y123271D01*
X250324Y122921D01*
X250500D01*
Y127555D01*
D02*
G37*
G36*
X251676Y113504D02*
X251500D01*
Y108870D01*
X256134D01*
Y109046D01*
X255784Y110352D01*
X255108Y111522D01*
X254152Y112478D01*
X252982Y113154D01*
X251676Y113504D01*
D02*
G37*
G36*
X250500D02*
X250324D01*
X249018Y113154D01*
X247848Y112478D01*
X246892Y111522D01*
X246216Y110352D01*
X245866Y109046D01*
Y108870D01*
X250500D01*
Y113504D01*
D02*
G37*
G36*
X256134Y107870D02*
X251500D01*
Y103236D01*
X251676D01*
X252982Y103586D01*
X254152Y104262D01*
X255108Y105218D01*
X255784Y106388D01*
X256134Y107694D01*
Y107870D01*
D02*
G37*
G36*
X250500D02*
X245866D01*
Y107694D01*
X246216Y106388D01*
X246892Y105218D01*
X247848Y104262D01*
X249018Y103586D01*
X250324Y103236D01*
X250500D01*
Y107870D01*
D02*
G37*
G36*
X251676Y93819D02*
X251500D01*
Y89185D01*
X256134D01*
Y89361D01*
X255784Y90667D01*
X255108Y91837D01*
X254152Y92793D01*
X252982Y93469D01*
X251676Y93819D01*
D02*
G37*
G36*
X250500D02*
X250324D01*
X249018Y93469D01*
X247848Y92793D01*
X246892Y91837D01*
X246216Y90667D01*
X245866Y89361D01*
Y89185D01*
X250500D01*
Y93819D01*
D02*
G37*
G36*
X256134Y88185D02*
X251500D01*
Y83551D01*
X251676D01*
X252982Y83901D01*
X254152Y84577D01*
X255108Y85533D01*
X255784Y86703D01*
X256134Y88009D01*
Y88185D01*
D02*
G37*
G36*
X250500D02*
X245866D01*
Y88009D01*
X246216Y86703D01*
X246892Y85533D01*
X247848Y84577D01*
X249018Y83901D01*
X250324Y83551D01*
X250500D01*
Y88185D01*
D02*
G37*
G36*
X251676Y74134D02*
X251500D01*
Y69500D01*
X256134D01*
Y69676D01*
X255784Y70982D01*
X255108Y72152D01*
X254152Y73108D01*
X252982Y73784D01*
X251676Y74134D01*
D02*
G37*
G36*
X250500D02*
X250324D01*
X249018Y73784D01*
X247848Y73108D01*
X246892Y72152D01*
X246216Y70982D01*
X245866Y69676D01*
Y69500D01*
X250500D01*
Y74134D01*
D02*
G37*
G36*
X256134Y68500D02*
X251500D01*
Y63866D01*
X251676D01*
X252982Y64216D01*
X254152Y64892D01*
X255108Y65848D01*
X255784Y67018D01*
X256134Y68324D01*
Y68500D01*
D02*
G37*
G36*
X250500D02*
X245866D01*
Y68324D01*
X246216Y67018D01*
X246892Y65848D01*
X247848Y64892D01*
X249018Y64216D01*
X250324Y63866D01*
X250500D01*
Y68500D01*
D02*
G37*
G36*
X251676Y54449D02*
X251500D01*
Y49815D01*
X256134D01*
Y49991D01*
X255784Y51297D01*
X255108Y52467D01*
X254152Y53423D01*
X252982Y54099D01*
X251676Y54449D01*
D02*
G37*
G36*
X250500D02*
X250324D01*
X249018Y54099D01*
X247848Y53423D01*
X246892Y52467D01*
X246216Y51297D01*
X245866Y49991D01*
Y49815D01*
X250500D01*
Y54449D01*
D02*
G37*
G36*
X256134Y48815D02*
X251500D01*
Y44181D01*
X251676D01*
X252982Y44531D01*
X254152Y45207D01*
X255108Y46163D01*
X255784Y47333D01*
X256134Y48639D01*
Y48815D01*
D02*
G37*
G36*
X250500D02*
X245866D01*
Y48639D01*
X246216Y47333D01*
X246892Y46163D01*
X247848Y45207D01*
X249018Y44531D01*
X250324Y44181D01*
X250500D01*
Y48815D01*
D02*
G37*
G36*
X111130Y200704D02*
Y198000D01*
X113834D01*
X113635Y198745D01*
X113210Y199480D01*
X112610Y200080D01*
X111874Y200505D01*
X111130Y200704D01*
D02*
G37*
G36*
X110130D02*
X109385Y200505D01*
X108650Y200080D01*
X108050Y199480D01*
X107625Y198745D01*
X107426Y198000D01*
X110130D01*
Y200704D01*
D02*
G37*
G36*
X130500Y198989D02*
Y196000D01*
X133490D01*
X133262Y196851D01*
X132801Y197649D01*
X132149Y198301D01*
X131351Y198761D01*
X130500Y198989D01*
D02*
G37*
G36*
X129500D02*
X128649Y198761D01*
X127851Y198301D01*
X127199Y197649D01*
X126739Y196851D01*
X126511Y196000D01*
X129500D01*
Y198989D01*
D02*
G37*
G36*
X113834Y197000D02*
X111130D01*
Y194296D01*
X111874Y194495D01*
X112610Y194920D01*
X113210Y195520D01*
X113635Y196255D01*
X113834Y197000D01*
D02*
G37*
G36*
X110130D02*
X107426D01*
X107625Y196255D01*
X108050Y195520D01*
X108650Y194920D01*
X109385Y194495D01*
X110130Y194296D01*
Y197000D01*
D02*
G37*
G36*
X133490Y195000D02*
X130500D01*
Y192010D01*
X131351Y192238D01*
X132149Y192699D01*
X132801Y193351D01*
X133262Y194149D01*
X133490Y195000D01*
D02*
G37*
G36*
X129500D02*
X126511D01*
X126739Y194149D01*
X127199Y193351D01*
X127851Y192699D01*
X128649Y192238D01*
X129500Y192010D01*
Y195000D01*
D02*
G37*
G36*
X111054Y190724D02*
X110205D01*
X109385Y190505D01*
X108650Y190080D01*
X108050Y189480D01*
X107625Y188745D01*
X107405Y187925D01*
Y187075D01*
X107625Y186255D01*
X108050Y185520D01*
X108650Y184920D01*
X109385Y184495D01*
X110205Y184276D01*
X111054D01*
X111874Y184495D01*
X112610Y184920D01*
X113210Y185520D01*
X113635Y186255D01*
X113854Y187075D01*
Y187925D01*
X113635Y188745D01*
X113210Y189480D01*
X112610Y190080D01*
X111874Y190505D01*
X111054Y190724D01*
D02*
G37*
G36*
X131000Y178630D02*
Y174500D01*
X132608D01*
Y176622D01*
X132447Y177428D01*
X131990Y178112D01*
X131307Y178569D01*
X131000Y178630D01*
D02*
G37*
G36*
X130000D02*
X129693Y178569D01*
X129010Y178112D01*
X128553Y177428D01*
X128392Y176622D01*
Y174500D01*
X130000D01*
Y178630D01*
D02*
G37*
G36*
X111054Y180724D02*
X110205D01*
X109385Y180505D01*
X108650Y180080D01*
X108050Y179480D01*
X107625Y178745D01*
X107405Y177925D01*
Y177076D01*
X107625Y176255D01*
X108050Y175520D01*
X108650Y174920D01*
X109385Y174495D01*
X110205Y174276D01*
X111054D01*
X111874Y174495D01*
X112610Y174920D01*
X113210Y175520D01*
X113635Y176255D01*
X113854Y177076D01*
Y177925D01*
X113635Y178745D01*
X113210Y179480D01*
X112610Y180080D01*
X111874Y180505D01*
X111054Y180724D01*
D02*
G37*
G36*
X132608Y173500D02*
X131000D01*
Y169370D01*
X131307Y169431D01*
X131990Y169888D01*
X132447Y170571D01*
X132608Y171378D01*
Y173500D01*
D02*
G37*
G36*
X130000D02*
X128392D01*
Y171378D01*
X128553Y170571D01*
X129010Y169888D01*
X129693Y169431D01*
X130000Y169370D01*
Y173500D01*
D02*
G37*
G36*
X146000Y160393D02*
Y156263D01*
X147608D01*
Y158385D01*
X147447Y159192D01*
X146990Y159876D01*
X146307Y160332D01*
X146000Y160393D01*
D02*
G37*
G36*
X141000D02*
Y156263D01*
X142608D01*
Y158385D01*
X142447Y159192D01*
X141990Y159876D01*
X141307Y160332D01*
X141000Y160393D01*
D02*
G37*
G36*
X145000D02*
X144693Y160332D01*
X144010Y159876D01*
X143553Y159192D01*
X143392Y158385D01*
Y156263D01*
X145000D01*
Y160393D01*
D02*
G37*
G36*
X147608Y155263D02*
X146000D01*
Y151133D01*
X146307Y151194D01*
X146990Y151651D01*
X147447Y152335D01*
X147608Y153141D01*
Y155263D01*
D02*
G37*
G36*
X142608D02*
X141000D01*
Y151133D01*
X141307Y151194D01*
X141990Y151651D01*
X142447Y152335D01*
X142608Y153141D01*
Y155263D01*
D02*
G37*
G36*
X145000D02*
X143392D01*
Y153141D01*
X143553Y152335D01*
X144010Y151651D01*
X144693Y151194D01*
X145000Y151133D01*
Y155263D01*
D02*
G37*
G36*
X163093Y133189D02*
X162917D01*
Y128555D01*
X167551D01*
Y128731D01*
X167201Y130037D01*
X166525Y131207D01*
X165570Y132163D01*
X164399Y132839D01*
X163093Y133189D01*
D02*
G37*
G36*
X161917D02*
X161741D01*
X160436Y132839D01*
X159265Y132163D01*
X158309Y131207D01*
X158176Y130977D01*
X157633Y130037D01*
X157283Y128731D01*
Y128555D01*
X161917D01*
Y133189D01*
D02*
G37*
G36*
X167551Y127555D02*
X162917D01*
Y122921D01*
X163093D01*
X164399Y123271D01*
X165281Y123780D01*
D01*
X165570Y123947D01*
X166525Y124903D01*
X167201Y126074D01*
X167551Y127379D01*
Y127555D01*
D02*
G37*
G36*
X161917D02*
X157283D01*
Y127379D01*
X157633Y126074D01*
X158309Y124903D01*
X159265Y123947D01*
X160436Y123271D01*
X161741Y122921D01*
X161917D01*
Y127555D01*
D02*
G37*
G36*
X163093Y113504D02*
X162917D01*
Y108870D01*
X167551D01*
Y109046D01*
X167201Y110352D01*
X166525Y111522D01*
X165570Y112478D01*
X164399Y113154D01*
X163093Y113504D01*
D02*
G37*
G36*
X161917D02*
X161741D01*
X160436Y113154D01*
X159265Y112478D01*
X158309Y111522D01*
X157633Y110352D01*
X157283Y109046D01*
Y108870D01*
X161917D01*
Y113504D01*
D02*
G37*
G36*
X167551Y107870D02*
X162917D01*
Y103236D01*
X163093D01*
X164399Y103586D01*
X165570Y104262D01*
X166525Y105218D01*
X167201Y106388D01*
X167551Y107694D01*
Y107870D01*
D02*
G37*
G36*
X161917D02*
X157283D01*
Y107694D01*
X157633Y106388D01*
X158309Y105218D01*
X159265Y104262D01*
X160436Y103586D01*
X161741Y103236D01*
X161917D01*
Y107870D01*
D02*
G37*
G36*
X163093Y93819D02*
X162917D01*
Y89185D01*
X167551D01*
Y89361D01*
X167201Y90667D01*
X166525Y91837D01*
X165570Y92793D01*
X164399Y93469D01*
X163093Y93819D01*
D02*
G37*
G36*
X161917D02*
X161741D01*
X160436Y93469D01*
X159265Y92793D01*
X158309Y91837D01*
X157633Y90667D01*
X157283Y89361D01*
Y89185D01*
X161917D01*
Y93819D01*
D02*
G37*
G36*
X167551Y88185D02*
X162917D01*
Y83551D01*
X163093D01*
X164399Y83901D01*
X165570Y84577D01*
X166525Y85533D01*
X167201Y86703D01*
X167551Y88009D01*
Y88185D01*
D02*
G37*
G36*
X161917D02*
X157283D01*
Y88009D01*
X157633Y86703D01*
X158309Y85533D01*
X159265Y84577D01*
X160436Y83901D01*
X161741Y83551D01*
X161917D01*
Y88185D01*
D02*
G37*
G36*
X163093Y74134D02*
X162917D01*
Y69500D01*
X167551D01*
Y69676D01*
X167201Y70982D01*
X166525Y72152D01*
X165570Y73108D01*
X164399Y73784D01*
X163093Y74134D01*
D02*
G37*
G36*
X161917D02*
X161741D01*
X160436Y73784D01*
X159265Y73108D01*
X158309Y72152D01*
X157633Y70982D01*
X157283Y69676D01*
Y69500D01*
X161917D01*
Y74134D01*
D02*
G37*
G36*
X167551Y68500D02*
X162917D01*
Y63866D01*
X163093D01*
X164399Y64216D01*
X165570Y64892D01*
X166525Y65848D01*
X167201Y67018D01*
X167551Y68324D01*
Y68500D01*
D02*
G37*
G36*
X161917D02*
X157283D01*
Y68324D01*
X157633Y67018D01*
X158309Y65848D01*
X159265Y64892D01*
X160436Y64216D01*
X161741Y63866D01*
X161917D01*
Y68500D01*
D02*
G37*
G36*
X163093Y54449D02*
X162917D01*
Y49815D01*
X167551D01*
Y49991D01*
X167201Y51297D01*
X166525Y52467D01*
X165570Y53423D01*
X164399Y54099D01*
X163093Y54449D01*
D02*
G37*
G36*
X161917D02*
X161741D01*
X160436Y54099D01*
X159265Y53423D01*
X158309Y52467D01*
X157633Y51297D01*
X157283Y49991D01*
Y49815D01*
X161917D01*
Y54449D01*
D02*
G37*
G36*
X167551Y48815D02*
X162917D01*
Y44181D01*
X163093D01*
X164399Y44531D01*
X165570Y45207D01*
X166525Y46163D01*
X167201Y47333D01*
X167551Y48639D01*
Y48815D01*
D02*
G37*
G36*
X161917D02*
X157283D01*
Y48639D01*
X157633Y47333D01*
X158309Y46163D01*
X159265Y45207D01*
X160436Y44531D01*
X161741Y44181D01*
X161917D01*
Y48815D01*
D02*
G37*
G36*
X528000Y128990D02*
Y126000D01*
X530990D01*
X530761Y126851D01*
X530301Y127649D01*
X529649Y128301D01*
X528851Y128761D01*
X528000Y128990D01*
D02*
G37*
G36*
X527000D02*
X526149Y128761D01*
X525351Y128301D01*
X524699Y127649D01*
X524238Y126851D01*
X524011Y126000D01*
X527000D01*
Y128990D01*
D02*
G37*
G36*
X530990Y125000D02*
X528000D01*
Y122011D01*
X528851Y122239D01*
X529649Y122699D01*
X530301Y123351D01*
X530761Y124149D01*
X530990Y125000D01*
D02*
G37*
G36*
X527000D02*
X524011D01*
X524238Y124149D01*
X524699Y123351D01*
X525351Y122699D01*
X526149Y122239D01*
X527000Y122011D01*
Y125000D01*
D02*
G37*
G36*
X579137Y86839D02*
X579000D01*
Y82500D01*
X583339D01*
Y82637D01*
X583009Y83868D01*
X582372Y84971D01*
X581471Y85872D01*
X580368Y86509D01*
X579137Y86839D01*
D02*
G37*
G36*
X578000D02*
X577863D01*
X576632Y86509D01*
X575529Y85872D01*
X574628Y84971D01*
X573991Y83868D01*
X573661Y82637D01*
Y82500D01*
X578000D01*
Y86839D01*
D02*
G37*
G36*
X565443Y85862D02*
X564557D01*
X563702Y85633D01*
X562936Y85190D01*
X562310Y84564D01*
X561867Y83798D01*
X561638Y82943D01*
Y82057D01*
X561867Y81202D01*
X562310Y80436D01*
X562936Y79810D01*
X563702Y79367D01*
X564557Y79138D01*
X565443D01*
X566298Y79367D01*
X567064Y79810D01*
X567690Y80436D01*
X568133Y81202D01*
X568362Y82057D01*
Y82943D01*
X568133Y83798D01*
X567690Y84564D01*
X567064Y85190D01*
X566298Y85633D01*
X565443Y85862D01*
D02*
G37*
G36*
X583339Y81500D02*
X579000D01*
Y77161D01*
X579137D01*
X580368Y77491D01*
X581471Y78128D01*
X582372Y79029D01*
X583009Y80132D01*
X583339Y81363D01*
Y81500D01*
D02*
G37*
G36*
X578000D02*
X573661D01*
Y81363D01*
X573991Y80132D01*
X574628Y79029D01*
X575529Y78128D01*
X576632Y77491D01*
X577863Y77161D01*
X578000D01*
Y81500D01*
D02*
G37*
G36*
X373583Y168555D02*
X369630D01*
Y164500D01*
X373583D01*
Y168555D01*
D02*
G37*
G36*
X373083Y138000D02*
X369130D01*
Y133944D01*
X373083D01*
Y138000D01*
D02*
G37*
G36*
X372500Y97989D02*
Y95000D01*
X375489D01*
X375261Y95851D01*
X374801Y96649D01*
X374149Y97301D01*
X373351Y97761D01*
X372500Y97989D01*
D02*
G37*
G36*
X84500Y309754D02*
Y306500D01*
X87754D01*
X87500Y307450D01*
X87006Y308306D01*
X86306Y309005D01*
X85450Y309500D01*
X84500Y309754D01*
D02*
G37*
G36*
X83500D02*
X82550Y309500D01*
X81694Y309005D01*
X80994Y308306D01*
X80500Y307450D01*
X80246Y306500D01*
X83500D01*
Y309754D01*
D02*
G37*
G36*
X63961Y309500D02*
X63039D01*
X62149Y309261D01*
X61351Y308801D01*
X60699Y308149D01*
X60238Y307351D01*
X60000Y306461D01*
Y305539D01*
X60238Y304649D01*
X60699Y303851D01*
X61351Y303199D01*
X62149Y302738D01*
X63039Y302500D01*
X63961D01*
X64851Y302738D01*
X65649Y303199D01*
X66301Y303851D01*
X66761Y304649D01*
X67000Y305539D01*
Y306461D01*
X66761Y307351D01*
X66301Y308149D01*
X65649Y308801D01*
X64851Y309261D01*
X63961Y309500D01*
D02*
G37*
G36*
X87754Y305500D02*
X84500D01*
Y302246D01*
X85450Y302500D01*
X86306Y302994D01*
X87006Y303694D01*
X87500Y304550D01*
X87754Y305500D01*
D02*
G37*
G36*
X83500D02*
X80246D01*
X80500Y304550D01*
X80994Y303694D01*
X81694Y302994D01*
X82550Y302500D01*
X83500Y302246D01*
Y305500D01*
D02*
G37*
G36*
X58579Y287896D02*
X57421D01*
X56303Y287596D01*
X55301Y287017D01*
X54483Y286199D01*
X53904Y285197D01*
X53604Y284079D01*
Y282921D01*
X53904Y281803D01*
X54483Y280801D01*
X55301Y279983D01*
X56303Y279404D01*
X57421Y279104D01*
X58579D01*
X59697Y279404D01*
X60699Y279983D01*
X61517Y280801D01*
X62096Y281803D01*
X62396Y282921D01*
Y284079D01*
X62096Y285197D01*
X61517Y286199D01*
X60699Y287017D01*
X59697Y287596D01*
X58579Y287896D01*
D02*
G37*
G36*
Y277896D02*
X57421D01*
X56303Y277596D01*
X55301Y277017D01*
X54483Y276199D01*
X53904Y275197D01*
X53604Y274079D01*
Y272921D01*
X53904Y271803D01*
X54483Y270801D01*
X55301Y269983D01*
X56303Y269404D01*
X57421Y269104D01*
X58579D01*
X59697Y269404D01*
X60699Y269983D01*
X61517Y270801D01*
X62096Y271803D01*
X62396Y272921D01*
Y274079D01*
X62096Y275197D01*
X61517Y276199D01*
X60699Y277017D01*
X59697Y277596D01*
X58579Y277896D01*
D02*
G37*
G36*
Y267896D02*
X57421D01*
X56303Y267596D01*
X55301Y267017D01*
X54483Y266199D01*
X53904Y265197D01*
X53604Y264079D01*
Y262921D01*
X53904Y261803D01*
X54483Y260801D01*
X55301Y259983D01*
X56303Y259404D01*
X57421Y259104D01*
X58579D01*
X59697Y259404D01*
X60699Y259983D01*
X61517Y260801D01*
X62096Y261803D01*
X62396Y262921D01*
Y264079D01*
X62096Y265197D01*
X61517Y266199D01*
X60699Y267017D01*
X59697Y267596D01*
X58579Y267896D01*
D02*
G37*
G36*
X20079D02*
X18921D01*
X17803Y267596D01*
X16801Y267017D01*
X15983Y266199D01*
X15404Y265197D01*
X15104Y264079D01*
Y262921D01*
X15404Y261803D01*
X15983Y260801D01*
X16801Y259983D01*
X17803Y259404D01*
X18921Y259104D01*
X20079D01*
X21197Y259404D01*
X22199Y259983D01*
X23017Y260801D01*
X23596Y261803D01*
X23896Y262921D01*
Y264079D01*
X23596Y265197D01*
X23017Y266199D01*
X22199Y267017D01*
X21197Y267596D01*
X20079Y267896D01*
D02*
G37*
G36*
X58579Y257896D02*
X57421D01*
X56303Y257596D01*
X55301Y257017D01*
X54483Y256199D01*
X53904Y255197D01*
X53604Y254079D01*
Y252921D01*
X53904Y251803D01*
X54483Y250801D01*
X55301Y249983D01*
X56303Y249404D01*
X57421Y249104D01*
X58579D01*
X59697Y249404D01*
X60699Y249983D01*
X61517Y250801D01*
X62096Y251803D01*
X62396Y252921D01*
Y254079D01*
X62096Y255197D01*
X61517Y256199D01*
X60699Y257017D01*
X59697Y257596D01*
X58579Y257896D01*
D02*
G37*
G36*
X20079D02*
X18921D01*
X17803Y257596D01*
X16801Y257017D01*
X15983Y256199D01*
X15404Y255197D01*
X15104Y254079D01*
Y252921D01*
X15404Y251803D01*
X15983Y250801D01*
X16801Y249983D01*
X17803Y249404D01*
X18921Y249104D01*
X20079D01*
X21197Y249404D01*
X22199Y249983D01*
X23017Y250801D01*
X23596Y251803D01*
X23896Y252921D01*
Y254079D01*
X23596Y255197D01*
X23017Y256199D01*
X22199Y257017D01*
X21197Y257596D01*
X20079Y257896D01*
D02*
G37*
G36*
Y247896D02*
X18921D01*
X17803Y247596D01*
X16801Y247017D01*
X15983Y246199D01*
X15404Y245197D01*
X15104Y244079D01*
Y242921D01*
X15404Y241803D01*
X15983Y240801D01*
X16801Y239983D01*
X17803Y239404D01*
X18921Y239104D01*
X20079D01*
X21197Y239404D01*
X22199Y239983D01*
X23017Y240801D01*
X23596Y241803D01*
X23896Y242921D01*
Y244079D01*
X23596Y245197D01*
X23017Y246199D01*
X22199Y247017D01*
X21197Y247596D01*
X20079Y247896D01*
D02*
G37*
G36*
X58579Y237896D02*
X57421D01*
X56303Y237596D01*
X55301Y237017D01*
X54483Y236199D01*
X53904Y235197D01*
X53604Y234079D01*
Y232921D01*
X53904Y231803D01*
X54483Y230801D01*
X55301Y229983D01*
X56303Y229404D01*
X57421Y229104D01*
X58579D01*
X59697Y229404D01*
X60699Y229983D01*
X61517Y230801D01*
X62096Y231803D01*
X62396Y232921D01*
Y234079D01*
X62096Y235197D01*
X61517Y236199D01*
X60699Y237017D01*
X59697Y237596D01*
X58579Y237896D01*
D02*
G37*
G36*
X20079D02*
X18921D01*
X17803Y237596D01*
X16801Y237017D01*
X15983Y236199D01*
X15404Y235197D01*
X15104Y234079D01*
Y232921D01*
X15404Y231803D01*
X15983Y230801D01*
X16801Y229983D01*
X17803Y229404D01*
X18921Y229104D01*
X20079D01*
X21197Y229404D01*
X22199Y229983D01*
X23017Y230801D01*
X23596Y231803D01*
X23896Y232921D01*
Y234079D01*
X23596Y235197D01*
X23017Y236199D01*
X22199Y237017D01*
X21197Y237596D01*
X20079Y237896D01*
D02*
G37*
G36*
X58579Y227896D02*
X58500D01*
Y224000D01*
X62396D01*
Y224079D01*
X62096Y225197D01*
X61517Y226199D01*
X60699Y227017D01*
X59697Y227596D01*
X58579Y227896D01*
D02*
G37*
G36*
X57500D02*
X57421D01*
X56303Y227596D01*
X55301Y227017D01*
X54483Y226199D01*
X53904Y225197D01*
X53604Y224079D01*
Y224000D01*
X57500D01*
Y227896D01*
D02*
G37*
G36*
X62396Y223000D02*
X58500D01*
Y219104D01*
X58579D01*
X59697Y219404D01*
X60699Y219983D01*
X61517Y220801D01*
X62096Y221803D01*
X62396Y222921D01*
Y223000D01*
D02*
G37*
G36*
X57500D02*
X53604D01*
Y222921D01*
X53904Y221803D01*
X54483Y220801D01*
X55301Y219983D01*
X56303Y219404D01*
X57421Y219104D01*
X57500D01*
Y223000D01*
D02*
G37*
G36*
X58579Y217896D02*
X57421D01*
X56303Y217596D01*
X55301Y217017D01*
X54483Y216199D01*
X53904Y215197D01*
X53604Y214079D01*
Y212921D01*
X53904Y211803D01*
X54483Y210801D01*
X55301Y209983D01*
X56303Y209404D01*
X57421Y209104D01*
X58579D01*
X59697Y209404D01*
X60699Y209983D01*
X61517Y210801D01*
X62096Y211803D01*
X62396Y212921D01*
Y214079D01*
X62096Y215197D01*
X61517Y216199D01*
X60699Y217017D01*
X59697Y217596D01*
X58579Y217896D01*
D02*
G37*
G36*
X20079D02*
X18921D01*
X17803Y217596D01*
X16801Y217017D01*
X15983Y216199D01*
X15404Y215197D01*
X15104Y214079D01*
Y212921D01*
X15404Y211803D01*
X15983Y210801D01*
X16801Y209983D01*
X17803Y209404D01*
X18921Y209104D01*
X20079D01*
X21197Y209404D01*
X22199Y209983D01*
X23017Y210801D01*
X23596Y211803D01*
X23896Y212921D01*
Y214079D01*
X23596Y215197D01*
X23017Y216199D01*
X22199Y217017D01*
X21197Y217596D01*
X20079Y217896D01*
D02*
G37*
G36*
Y207896D02*
X20000D01*
Y204000D01*
X23896D01*
Y204079D01*
X23596Y205197D01*
X23017Y206199D01*
X22199Y207017D01*
X21197Y207596D01*
X20079Y207896D01*
D02*
G37*
G36*
X19000D02*
X18921D01*
X17803Y207596D01*
X16801Y207017D01*
X15983Y206199D01*
X15404Y205197D01*
X15104Y204079D01*
Y204000D01*
X19000D01*
Y207896D01*
D02*
G37*
G36*
X23896Y203000D02*
X20000D01*
Y199104D01*
X20079D01*
X21197Y199404D01*
X22199Y199983D01*
X23017Y200801D01*
X23596Y201803D01*
X23896Y202921D01*
Y203000D01*
D02*
G37*
G36*
X19000D02*
X15104D01*
Y202921D01*
X15404Y201803D01*
X15983Y200801D01*
X16801Y199983D01*
X17803Y199404D01*
X18921Y199104D01*
X19000D01*
Y203000D01*
D02*
G37*
G36*
X20079Y197896D02*
X18921D01*
X17803Y197596D01*
X16801Y197017D01*
X15983Y196199D01*
X15404Y195197D01*
X15104Y194079D01*
Y192921D01*
X15404Y191803D01*
X15983Y190801D01*
X16801Y189983D01*
X17803Y189404D01*
X18921Y189104D01*
X20079D01*
X21197Y189404D01*
X22199Y189983D01*
X23017Y190801D01*
X23596Y191803D01*
X23896Y192921D01*
Y194079D01*
X23596Y195197D01*
X23017Y196199D01*
X22199Y197017D01*
X21197Y197596D01*
X20079Y197896D01*
D02*
G37*
G36*
X19945Y177396D02*
X18787D01*
X17670Y177096D01*
X16667Y176517D01*
X15849Y175699D01*
X15270Y174697D01*
X14970Y173579D01*
Y172421D01*
X15270Y171303D01*
X15849Y170301D01*
X16667Y169483D01*
X17670Y168904D01*
X18787Y168604D01*
X19945D01*
X21063Y168904D01*
X22065Y169483D01*
X22884Y170301D01*
X23462Y171303D01*
X23762Y172421D01*
Y173579D01*
X23462Y174697D01*
X22884Y175699D01*
X22065Y176517D01*
X21063Y177096D01*
X19945Y177396D01*
D02*
G37*
G36*
Y167396D02*
X18787D01*
X17670Y167096D01*
X16667Y166517D01*
X15849Y165699D01*
X15270Y164697D01*
X14970Y163579D01*
Y162421D01*
X15270Y161303D01*
X15849Y160301D01*
X16667Y159483D01*
X17670Y158904D01*
X18787Y158604D01*
X19945D01*
X21063Y158904D01*
X22065Y159483D01*
X22884Y160301D01*
X23462Y161303D01*
X23762Y162421D01*
Y163579D01*
X23462Y164697D01*
X22884Y165699D01*
X22065Y166517D01*
X21063Y167096D01*
X19945Y167396D01*
D02*
G37*
G36*
X136000Y160393D02*
Y156263D01*
X137608D01*
Y158385D01*
X137447Y159192D01*
X136990Y159876D01*
X136307Y160332D01*
X136000Y160393D01*
D02*
G37*
G36*
X132567Y160452D02*
X131000D01*
Y156263D01*
X132567D01*
Y160452D01*
D02*
G37*
G36*
X130000D02*
X128433D01*
Y156263D01*
X130000D01*
Y160452D01*
D02*
G37*
G36*
X135000Y160393D02*
X134693Y160332D01*
X134010Y159876D01*
X133553Y159192D01*
X133392Y158385D01*
Y156263D01*
X135000D01*
Y160393D01*
D02*
G37*
G36*
X137608Y155263D02*
X136000D01*
Y151133D01*
X136307Y151194D01*
X136990Y151651D01*
X137447Y152335D01*
X137608Y153141D01*
Y155263D01*
D02*
G37*
G36*
X135000D02*
X133392D01*
Y153141D01*
X133553Y152335D01*
X134010Y151651D01*
X134693Y151194D01*
X135000Y151133D01*
Y155263D01*
D02*
G37*
G36*
X132567D02*
X131000D01*
Y151074D01*
X132567D01*
Y155263D01*
D02*
G37*
G36*
X130000D02*
X128433D01*
Y151074D01*
X130000D01*
Y155263D01*
D02*
G37*
G36*
X19945Y157396D02*
X18787D01*
X17670Y157096D01*
X16667Y156517D01*
X15849Y155699D01*
X15270Y154697D01*
X14970Y153579D01*
Y152421D01*
X15270Y151303D01*
X15849Y150301D01*
X16667Y149483D01*
X17670Y148904D01*
X18787Y148604D01*
X19945D01*
X21063Y148904D01*
X22065Y149483D01*
X22884Y150301D01*
X23462Y151303D01*
X23762Y152421D01*
Y153579D01*
X23462Y154697D01*
X22884Y155699D01*
X22065Y156517D01*
X21063Y157096D01*
X19945Y157396D01*
D02*
G37*
G36*
Y147396D02*
X18787D01*
X17670Y147096D01*
X16667Y146517D01*
X15849Y145699D01*
X15270Y144697D01*
X14970Y143579D01*
Y142421D01*
X15270Y141303D01*
X15849Y140301D01*
X16667Y139483D01*
X17670Y138904D01*
X18787Y138604D01*
X19945D01*
X21063Y138904D01*
X22065Y139483D01*
X22884Y140301D01*
X23462Y141303D01*
X23762Y142421D01*
Y143579D01*
X23462Y144697D01*
X22884Y145699D01*
X22065Y146517D01*
X21063Y147096D01*
X19945Y147396D01*
D02*
G37*
G36*
X133756Y126098D02*
X130500D01*
Y122843D01*
X133756D01*
Y126098D01*
D02*
G37*
G36*
X129500D02*
X126244D01*
Y122843D01*
X129500D01*
Y126098D01*
D02*
G37*
G36*
X19945Y127396D02*
X18787D01*
X17670Y127096D01*
X16667Y126517D01*
X15849Y125699D01*
X15270Y124697D01*
X14970Y123579D01*
Y122421D01*
X15270Y121303D01*
X15849Y120301D01*
X16667Y119483D01*
X17670Y118904D01*
X18787Y118604D01*
X19945D01*
X21063Y118904D01*
X22065Y119483D01*
X22884Y120301D01*
X23462Y121303D01*
X23762Y122421D01*
Y123579D01*
X23462Y124697D01*
X22884Y125699D01*
X22065Y126517D01*
X21063Y127096D01*
X19945Y127396D01*
D02*
G37*
G36*
X133756Y121843D02*
X130500D01*
Y118587D01*
X133756D01*
Y121843D01*
D02*
G37*
G36*
X129500D02*
X126244D01*
Y118587D01*
X129500D01*
Y121843D01*
D02*
G37*
G36*
X19945Y117396D02*
X19866D01*
Y113500D01*
X23762D01*
Y113579D01*
X23462Y114697D01*
X22884Y115699D01*
X22065Y116517D01*
X21063Y117096D01*
X19945Y117396D01*
D02*
G37*
G36*
X18866D02*
X18787D01*
X17670Y117096D01*
X16667Y116517D01*
X15849Y115699D01*
X15270Y114697D01*
X14970Y113579D01*
Y113500D01*
X18866D01*
Y117396D01*
D02*
G37*
G36*
X69500Y114754D02*
Y111500D01*
X72754D01*
X72500Y112450D01*
X72005Y113306D01*
X71306Y114005D01*
X70450Y114500D01*
X69500Y114754D01*
D02*
G37*
G36*
X68500D02*
X67550Y114500D01*
X66694Y114005D01*
X65995Y113306D01*
X65500Y112450D01*
X65246Y111500D01*
X68500D01*
Y114754D01*
D02*
G37*
G36*
X23762Y112500D02*
X19866D01*
Y108604D01*
X19945D01*
X21063Y108904D01*
X22065Y109483D01*
X22884Y110301D01*
X23462Y111303D01*
X23762Y112421D01*
Y112500D01*
D02*
G37*
G36*
X18866D02*
X14970D01*
Y112421D01*
X15270Y111303D01*
X15849Y110301D01*
X16667Y109483D01*
X17670Y108904D01*
X18787Y108604D01*
X18866D01*
Y112500D01*
D02*
G37*
G36*
X72754Y110500D02*
X69500D01*
Y107246D01*
X70450Y107500D01*
X71306Y107994D01*
X72005Y108694D01*
X72500Y109550D01*
X72754Y110500D01*
D02*
G37*
G36*
X68500D02*
X65246D01*
X65500Y109550D01*
X65995Y108694D01*
X66694Y107994D01*
X67550Y107500D01*
X68500Y107246D01*
Y110500D01*
D02*
G37*
G36*
X69715Y105417D02*
X69500D01*
Y100488D01*
X74429D01*
Y100703D01*
X74059Y102084D01*
X73344Y103322D01*
X72334Y104333D01*
X71096Y105047D01*
X69715Y105417D01*
D02*
G37*
G36*
X68500D02*
X68285D01*
X66904Y105047D01*
X65666Y104333D01*
X64656Y103322D01*
X63941Y102084D01*
X63571Y100703D01*
Y100488D01*
X68500D01*
Y105417D01*
D02*
G37*
G36*
X108100Y103797D02*
X104500D01*
Y100197D01*
X108100D01*
Y103797D01*
D02*
G37*
G36*
X103500D02*
X99900D01*
Y100197D01*
X103500D01*
Y103797D01*
D02*
G37*
G36*
X130494Y106413D02*
X129506D01*
X128550Y106157D01*
X127694Y105663D01*
X126995Y104964D01*
X126500Y104107D01*
X126244Y103152D01*
Y102163D01*
X126500Y101208D01*
X126995Y100351D01*
X127694Y99652D01*
X128550Y99158D01*
X129506Y98902D01*
X130494D01*
X131450Y99158D01*
X132306Y99652D01*
X133005Y100351D01*
X133500Y101208D01*
X133756Y102163D01*
Y103152D01*
X133500Y104107D01*
X133005Y104964D01*
X132306Y105663D01*
X131450Y106157D01*
X130494Y106413D01*
D02*
G37*
G36*
X19945Y107396D02*
X18787D01*
X17670Y107096D01*
X16667Y106517D01*
X15849Y105699D01*
X15270Y104697D01*
X14970Y103579D01*
Y102421D01*
X15270Y101303D01*
X15849Y100301D01*
X16667Y99483D01*
X17670Y98904D01*
X18787Y98604D01*
X19945D01*
X21063Y98904D01*
X22065Y99483D01*
X22884Y100301D01*
X23462Y101303D01*
X23762Y102421D01*
Y103579D01*
X23462Y104697D01*
X22884Y105699D01*
X22065Y106517D01*
X21063Y107096D01*
X19945Y107396D01*
D02*
G37*
G36*
X108100Y99197D02*
X104500D01*
Y95596D01*
X108100D01*
Y99197D01*
D02*
G37*
G36*
X103500D02*
X99900D01*
Y95596D01*
X103500D01*
Y99197D01*
D02*
G37*
G36*
X74429Y99488D02*
X69500D01*
Y94559D01*
X69715D01*
X71096Y94929D01*
X72334Y95644D01*
X73344Y96655D01*
X74059Y97893D01*
X74429Y99273D01*
Y99488D01*
D02*
G37*
G36*
X68500D02*
X63571D01*
Y99273D01*
X63941Y97893D01*
X64656Y96655D01*
X65666Y95644D01*
X66904Y94929D01*
X68285Y94559D01*
X68500D01*
Y99488D01*
D02*
G37*
G36*
X132886Y68657D02*
X132843D01*
Y65028D01*
X136472D01*
Y65071D01*
X136191Y66122D01*
X135647Y67063D01*
X134878Y67832D01*
X133937Y68376D01*
X132886Y68657D01*
D02*
G37*
G36*
X131843D02*
X131799D01*
X130748Y68376D01*
X129807Y67832D01*
X129038Y67063D01*
X128494Y66122D01*
X128213Y65071D01*
Y65028D01*
X131843D01*
Y68657D01*
D02*
G37*
G36*
X136472Y64028D02*
X132843D01*
Y60398D01*
X132886D01*
X133937Y60679D01*
X134878Y61223D01*
X135647Y61992D01*
X136191Y62933D01*
X136472Y63984D01*
Y64028D01*
D02*
G37*
G36*
X131843D02*
X128213D01*
Y63984D01*
X128494Y62933D01*
X129038Y61992D01*
X129807Y61223D01*
X130748Y60679D01*
X131799Y60398D01*
X131843D01*
Y64028D01*
D02*
G37*
G36*
X528000Y93989D02*
Y91000D01*
X530990D01*
X530761Y91851D01*
X530301Y92649D01*
X529649Y93301D01*
X528851Y93761D01*
X528000Y93989D01*
D02*
G37*
G36*
X527000D02*
X526149Y93761D01*
X525351Y93301D01*
X524699Y92649D01*
X524238Y91851D01*
X524011Y91000D01*
X527000D01*
Y93989D01*
D02*
G37*
G36*
X530990Y90000D02*
X528000D01*
Y87011D01*
X528851Y87239D01*
X529649Y87699D01*
X530301Y88351D01*
X530761Y89149D01*
X530990Y90000D01*
D02*
G37*
G36*
X527000D02*
X524011D01*
X524238Y89149D01*
X524699Y88351D01*
X525351Y87699D01*
X526149Y87239D01*
X527000Y87011D01*
Y90000D01*
D02*
G37*
G36*
X579137Y66839D02*
X579000D01*
Y62500D01*
X583339D01*
Y62637D01*
X583009Y63868D01*
X582372Y64971D01*
X581471Y65872D01*
X580368Y66509D01*
X579137Y66839D01*
D02*
G37*
G36*
X578000D02*
X577863D01*
X576632Y66509D01*
X575529Y65872D01*
X574628Y64971D01*
X573991Y63868D01*
X573661Y62637D01*
Y62500D01*
X578000D01*
Y66839D01*
D02*
G37*
G36*
X583339Y61500D02*
X579000D01*
Y57161D01*
X579137D01*
X580368Y57491D01*
X581471Y58128D01*
X582372Y59029D01*
X583009Y60132D01*
X583339Y61363D01*
Y61500D01*
D02*
G37*
G36*
X578000D02*
X573661D01*
Y61363D01*
X573991Y60132D01*
X574628Y59029D01*
X575529Y58128D01*
X576632Y57491D01*
X577863Y57161D01*
X578000D01*
Y61500D01*
D02*
G37*
G36*
X508806Y68158D02*
X508626D01*
Y61752D01*
X515031D01*
Y61932D01*
X514766Y63266D01*
X514246Y64523D01*
X513490Y65654D01*
X512528Y66616D01*
X511397Y67372D01*
X510140Y67892D01*
X508806Y68158D01*
D02*
G37*
G36*
X507626D02*
X507446D01*
X506112Y67892D01*
X504855Y67372D01*
X503724Y66616D01*
X502762Y65654D01*
X502006Y64523D01*
X501486Y63266D01*
X501221Y61932D01*
Y61752D01*
X507626D01*
Y68158D01*
D02*
G37*
G36*
X515031Y60752D02*
X508626D01*
Y54347D01*
X508806D01*
X510140Y54612D01*
X511397Y55132D01*
X512528Y55888D01*
X513490Y56850D01*
X514246Y57981D01*
X514766Y59238D01*
X515031Y60572D01*
Y60752D01*
D02*
G37*
G36*
X507626D02*
X501221D01*
Y60572D01*
X501486Y59238D01*
X502006Y57981D01*
X502762Y56850D01*
X503724Y55888D01*
X504855Y55132D01*
X506112Y54612D01*
X507446Y54347D01*
X507626D01*
Y60752D01*
D02*
G37*
G36*
X579137Y46839D02*
X579000D01*
Y42500D01*
X583339D01*
Y42637D01*
X583009Y43868D01*
X582372Y44971D01*
X581471Y45872D01*
X580368Y46509D01*
X579137Y46839D01*
D02*
G37*
G36*
X530461Y49500D02*
X529539D01*
X528649Y49262D01*
X527851Y48801D01*
X527199Y48149D01*
X526739Y47351D01*
X526500Y46461D01*
Y45539D01*
X526739Y44649D01*
X527199Y43851D01*
X527851Y43199D01*
X528649Y42739D01*
X529539Y42500D01*
X530461D01*
X531351Y42739D01*
X532149Y43199D01*
X532801Y43851D01*
X533261Y44649D01*
X533500Y45539D01*
Y46461D01*
X533261Y47351D01*
X532801Y48149D01*
X532149Y48801D01*
X531351Y49262D01*
X530461Y49500D01*
D02*
G37*
G36*
X578000Y46839D02*
X577863D01*
X576632Y46509D01*
X575529Y45872D01*
X574628Y44971D01*
X573991Y43868D01*
X573661Y42637D01*
Y42500D01*
X578000D01*
Y46839D01*
D02*
G37*
G36*
X583339Y41500D02*
X579000D01*
Y37161D01*
X579137D01*
X580368Y37491D01*
X581471Y38128D01*
X582372Y39029D01*
X583009Y40132D01*
X583339Y41363D01*
Y41500D01*
D02*
G37*
G36*
X578000D02*
X573661D01*
Y41363D01*
X573991Y40132D01*
X574628Y39029D01*
X575529Y38128D01*
X576632Y37491D01*
X577863Y37161D01*
X578000D01*
Y41500D01*
D02*
G37*
G36*
X359370Y168555D02*
X355417D01*
Y164500D01*
X359370D01*
Y168555D01*
D02*
G37*
G36*
Y163500D02*
X355417D01*
Y159444D01*
X359370D01*
Y163500D01*
D02*
G37*
G36*
X359064Y155943D02*
X355112D01*
Y151887D01*
X359064D01*
Y155943D01*
D02*
G37*
G36*
Y150887D02*
X355112D01*
Y146832D01*
X359064D01*
Y150887D01*
D02*
G37*
G36*
X358870Y143055D02*
X354917D01*
Y139000D01*
X358870D01*
Y143055D01*
D02*
G37*
G36*
Y138000D02*
X354917D01*
Y133944D01*
X358870D01*
Y138000D01*
D02*
G37*
G36*
X281039Y132583D02*
X278433D01*
Y128500D01*
X281039D01*
Y132583D01*
D02*
G37*
G36*
X277433D02*
X274827D01*
Y128500D01*
X277433D01*
Y132583D01*
D02*
G37*
G36*
X305000Y129990D02*
Y127000D01*
X307990D01*
X307762Y127851D01*
X307301Y128649D01*
X306649Y129301D01*
X305851Y129762D01*
X305000Y129990D01*
D02*
G37*
G36*
X304000D02*
X303149Y129762D01*
X302351Y129301D01*
X301699Y128649D01*
X301238Y127851D01*
X301010Y127000D01*
X304000D01*
Y129990D01*
D02*
G37*
G36*
X287000D02*
Y127000D01*
X289989D01*
X289761Y127851D01*
X289301Y128649D01*
X288649Y129301D01*
X287851Y129762D01*
X287000Y129990D01*
D02*
G37*
G36*
X286000D02*
X285149Y129762D01*
X284351Y129301D01*
X283699Y128649D01*
X283239Y127851D01*
X283011Y127000D01*
X286000D01*
Y129990D01*
D02*
G37*
G36*
X281039Y127500D02*
X278433D01*
Y123417D01*
X281039D01*
Y127500D01*
D02*
G37*
G36*
X277433D02*
X274827D01*
Y123417D01*
X277433D01*
Y127500D01*
D02*
G37*
G36*
X307990Y126000D02*
X305000D01*
Y123011D01*
X305851Y123239D01*
X306649Y123699D01*
X307301Y124351D01*
X307762Y125149D01*
X307990Y126000D01*
D02*
G37*
G36*
X304000D02*
X301010D01*
X301238Y125149D01*
X301699Y124351D01*
X302351Y123699D01*
X303149Y123239D01*
X304000Y123011D01*
Y126000D01*
D02*
G37*
G36*
X289989D02*
X287000D01*
Y123011D01*
X287851Y123239D01*
X288649Y123699D01*
X289301Y124351D01*
X289761Y125149D01*
X289989Y126000D01*
D02*
G37*
G36*
X286000D02*
X283011D01*
X283239Y125149D01*
X283699Y124351D01*
X284351Y123699D01*
X285149Y123239D01*
X286000Y123011D01*
Y126000D01*
D02*
G37*
G36*
X290010Y114195D02*
X287000D01*
Y111185D01*
X290010D01*
Y114195D01*
D02*
G37*
G36*
X286000D02*
X282990D01*
Y111185D01*
X286000D01*
Y114195D01*
D02*
G37*
G36*
X290010Y110185D02*
X287000D01*
Y107175D01*
X290010D01*
Y110185D01*
D02*
G37*
G36*
X286000D02*
X282990D01*
Y107175D01*
X286000D01*
Y110185D01*
D02*
G37*
G36*
X334600Y92600D02*
X331000D01*
Y89000D01*
X334600D01*
Y92600D01*
D02*
G37*
G36*
X330000D02*
X326400D01*
Y89000D01*
X330000D01*
Y92600D01*
D02*
G37*
G36*
X286962Y94510D02*
X286038D01*
X285145Y94271D01*
X284345Y93809D01*
X283691Y93155D01*
X283229Y92355D01*
X282990Y91462D01*
Y90538D01*
X283229Y89645D01*
X283691Y88845D01*
X284345Y88191D01*
X285145Y87729D01*
X286038Y87490D01*
X286962D01*
X287855Y87729D01*
X288655Y88191D01*
X289309Y88845D01*
X289771Y89645D01*
X290010Y90538D01*
Y91462D01*
X289771Y92355D01*
X289309Y93155D01*
X288655Y93809D01*
X287855Y94271D01*
X286962Y94510D01*
D02*
G37*
G36*
X334600Y88000D02*
X331000D01*
Y84400D01*
X334600D01*
Y88000D01*
D02*
G37*
G36*
X330000D02*
X326400D01*
Y84400D01*
X330000D01*
Y88000D01*
D02*
G37*
G36*
X359500Y76490D02*
Y73500D01*
X362490D01*
X362262Y74351D01*
X361801Y75149D01*
X361149Y75801D01*
X360351Y76262D01*
X359500Y76490D01*
D02*
G37*
G36*
X358500D02*
X357649Y76262D01*
X356851Y75801D01*
X356199Y75149D01*
X355738Y74351D01*
X355510Y73500D01*
X358500D01*
Y76490D01*
D02*
G37*
G36*
X362490Y72500D02*
X359500D01*
Y69511D01*
X360351Y69739D01*
X361149Y70199D01*
X361801Y70851D01*
X362262Y71649D01*
X362490Y72500D01*
D02*
G37*
G36*
X358500D02*
X355510D01*
X355738Y71649D01*
X356199Y70851D01*
X356851Y70199D01*
X357649Y69739D01*
X358500Y69511D01*
Y72500D01*
D02*
G37*
G36*
X359544Y66130D02*
X359500D01*
Y62500D01*
X363130D01*
Y62544D01*
X362848Y63594D01*
X362305Y64536D01*
X361536Y65305D01*
X360594Y65848D01*
X359544Y66130D01*
D02*
G37*
G36*
X358500D02*
X358456D01*
X357406Y65848D01*
X356464Y65305D01*
X355695Y64536D01*
X355152Y63594D01*
X354870Y62544D01*
Y62500D01*
X358500D01*
Y66130D01*
D02*
G37*
G36*
X363130Y61500D02*
X359500D01*
Y57870D01*
X359544D01*
X360594Y58152D01*
X361536Y58695D01*
X362305Y59464D01*
X362848Y60406D01*
X363130Y61456D01*
Y61500D01*
D02*
G37*
G36*
X358500D02*
X354870D01*
Y61456D01*
X355152Y60406D01*
X355695Y59464D01*
X356464Y58695D01*
X357406Y58152D01*
X358456Y57870D01*
X358500D01*
Y61500D01*
D02*
G37*
G36*
X360059Y53465D02*
X358941D01*
X357860Y53175D01*
X356892Y52616D01*
X356101Y51825D01*
X355541Y50856D01*
X355252Y49776D01*
Y48657D01*
X355541Y47577D01*
X356101Y46608D01*
X356892Y45817D01*
X357860Y45258D01*
X358941Y44969D01*
X360059D01*
X361140Y45258D01*
X362108Y45817D01*
X362899Y46608D01*
X363458Y47577D01*
X363748Y48657D01*
Y49776D01*
X363458Y50856D01*
X362899Y51825D01*
X362108Y52616D01*
X361140Y53175D01*
X360059Y53465D01*
D02*
G37*
G36*
X508806Y38157D02*
X508626D01*
Y31752D01*
X515031D01*
Y31932D01*
X514766Y33266D01*
X514246Y34523D01*
X513490Y35654D01*
X512528Y36616D01*
X511397Y37372D01*
X510140Y37892D01*
X508806Y38157D01*
D02*
G37*
G36*
X507626D02*
X507446D01*
X506112Y37892D01*
X504855Y37372D01*
X503724Y36616D01*
X502762Y35654D01*
X502006Y34523D01*
X501486Y33266D01*
X501221Y31932D01*
Y31752D01*
X507626D01*
Y38157D01*
D02*
G37*
G36*
X349701Y36602D02*
X348614D01*
X347563Y36321D01*
X346622Y35777D01*
X345853Y35008D01*
X345309Y34067D01*
X345028Y33016D01*
Y31929D01*
X345309Y30878D01*
X345853Y29937D01*
X346622Y29168D01*
X347563Y28624D01*
X348614Y28343D01*
X349701D01*
X350752Y28624D01*
X351693Y29168D01*
X352195Y29669D01*
X352462Y29937D01*
X353006Y30878D01*
X353287Y31929D01*
Y33016D01*
X353006Y34067D01*
X352462Y35008D01*
X351693Y35777D01*
X350752Y36321D01*
X349701Y36602D01*
D02*
G37*
G36*
X524173Y30083D02*
X521567D01*
Y26000D01*
X524173D01*
Y30083D01*
D02*
G37*
G36*
X520567D02*
X517961D01*
Y26000D01*
X520567D01*
Y30083D01*
D02*
G37*
G36*
X385252Y33054D02*
X382496D01*
X381567Y32932D01*
X380701Y32573D01*
X379958Y32003D01*
X379387Y31259D01*
X379029Y30394D01*
X378906Y29465D01*
X379029Y28536D01*
X379387Y27670D01*
X379958Y26926D01*
X380701Y26356D01*
X381567Y25997D01*
X382496Y25875D01*
X385252D01*
X386181Y25997D01*
X387047Y26356D01*
X387790Y26926D01*
X388361Y27670D01*
X388719Y28536D01*
X388842Y29465D01*
X388719Y30394D01*
X388361Y31259D01*
X387790Y32003D01*
X387047Y32573D01*
X386181Y32932D01*
X385252Y33054D01*
D02*
G37*
G36*
X515031Y30752D02*
X508626D01*
Y24347D01*
X508806D01*
X510140Y24612D01*
X511397Y25132D01*
X512528Y25888D01*
X513490Y26850D01*
X514246Y27981D01*
X514766Y29238D01*
X515031Y30572D01*
Y30752D01*
D02*
G37*
G36*
X507626D02*
X501221D01*
Y30572D01*
X501486Y29238D01*
X502006Y27981D01*
X502762Y26850D01*
X503724Y25888D01*
X504855Y25132D01*
X506112Y24612D01*
X507446Y24347D01*
X507626D01*
Y30752D01*
D02*
G37*
G36*
X524173Y25000D02*
X521567D01*
Y20917D01*
X524173D01*
Y25000D01*
D02*
G37*
G36*
X520567D02*
X517961D01*
Y20917D01*
X520567D01*
Y25000D01*
D02*
G37*
%LPD*%
D14*
X532433Y26000D02*
X539500D01*
X531933Y25500D02*
X532433Y26000D01*
X267000Y118500D02*
Y129933D01*
X267067Y130000D01*
X282551Y302988D02*
X311064Y331500D01*
X362500D01*
X32000Y333500D02*
X81500Y383000D01*
X284500D01*
X25000Y333500D02*
X32000D01*
X135500Y180000D02*
X139000Y183500D01*
X135500Y174000D02*
Y180000D01*
X151870Y270000D02*
X223370Y341500D01*
X134000Y270000D02*
X151870D01*
X279240Y284500D02*
X286936D01*
X236740Y242000D02*
X279240Y284500D01*
X286936D02*
X292551Y290115D01*
X287929Y265429D02*
X288000Y265500D01*
X267449Y265429D02*
X287929D01*
X260002Y257982D02*
X267449Y265429D01*
X260002Y251077D02*
Y257982D01*
X252555Y243630D02*
X260002Y251077D01*
X247500Y243630D02*
X252555D01*
X250555Y237556D02*
X272500Y259500D01*
X250555Y237322D02*
Y237556D01*
X247603Y234370D02*
X250555Y237322D01*
X247500Y234370D02*
X247603D01*
X384000Y341500D02*
X388000Y345500D01*
X223370Y341500D02*
X384000D01*
X552551Y203551D02*
Y417449D01*
X508000Y462000D02*
X552551Y417449D01*
X549500Y200500D02*
X552551Y203551D01*
X540000Y200500D02*
Y201055D01*
X542551Y203606D01*
Y417449D01*
X498000Y462000D02*
X542551Y417449D01*
X282551Y300115D02*
Y302988D01*
X276115Y296551D02*
X278988D01*
X282551Y300115D01*
X272551Y290115D02*
Y292987D01*
X276115Y296551D01*
X246414Y266414D02*
X248850D01*
X272551Y290115D01*
X222000Y242000D02*
X246414Y266414D01*
X292551Y290115D02*
Y292987D01*
X297012Y297449D01*
X303449D01*
X308000Y302000D01*
X232000Y242000D02*
X236740D01*
X462000Y246000D02*
X508000Y292000D01*
X358000Y246000D02*
X462000D01*
X121421Y421260D02*
X365177D01*
X368676Y407760D02*
X472551Y303885D01*
X120921Y407760D02*
X368676D01*
X365177Y421260D02*
X482551Y303885D01*
X366740Y393260D02*
X468000Y292000D01*
X120921Y393260D02*
X366740D01*
X101817Y405201D02*
X102357D01*
X104916Y407760D02*
X111079D01*
X102357Y405201D02*
X104916Y407760D01*
X102400Y419201D02*
X104458Y421260D01*
X111579D01*
X101317Y419201D02*
X102400D01*
X105342Y393260D02*
X111079D01*
X102000Y391000D02*
X103082D01*
X105342Y393260D01*
X128880Y400620D02*
X129000Y400500D01*
X120921Y400740D02*
X121041Y400620D01*
X128880D01*
Y415120D02*
X129000Y415000D01*
X120921Y415240D02*
X121041Y415120D01*
X128880D01*
X121541Y428620D02*
X129380D01*
X121421Y428740D02*
X121541Y428620D01*
X129380D02*
X129500Y428500D01*
X482551Y297449D02*
Y303885D01*
Y297449D02*
X488000Y292000D01*
X472551Y297449D02*
X478000Y292000D01*
X472551Y297449D02*
Y303885D01*
X31000Y437000D02*
X65602D01*
X77602Y425000D01*
X111579D01*
X68602Y417000D02*
X74102Y411500D01*
X111079D01*
X31000Y417000D02*
X68602D01*
X31000Y397000D02*
X111079D01*
X212000Y212000D02*
X212095Y212095D01*
X247397Y243630D02*
X247500D01*
X215862Y212095D02*
X247397Y243630D01*
X212095Y212095D02*
X215862D01*
X402182Y56402D02*
Y56666D01*
X488000Y142484D01*
X400016Y54500D02*
X400279D01*
X402182Y56402D01*
X488000Y142484D02*
Y188000D01*
X479000Y166481D02*
Y188000D01*
X432690Y120171D02*
X479000Y166481D01*
X429173Y120171D02*
X432690D01*
X407608Y98606D02*
X429173Y120171D01*
X407608Y95714D02*
Y98606D01*
X401394Y89500D02*
X407608Y95714D01*
X400016Y89500D02*
X401394D01*
X458481Y188000D02*
X470000D01*
X400016Y129534D02*
X458481Y188000D01*
X400016Y124500D02*
Y129534D01*
X175215Y176561D02*
X175654Y177000D01*
X145500Y174000D02*
Y176037D01*
X146024Y176561D01*
X175215D01*
X175654Y179672D02*
X185252Y189271D01*
Y210500D01*
X175654Y177000D02*
Y179672D01*
X199492Y210500D02*
X200992Y212000D01*
X191748Y210500D02*
X199492D01*
X200992Y212000D02*
X202000D01*
X372000Y94500D02*
Y94688D01*
X368630Y138397D02*
Y138500D01*
Y151192D01*
X382496Y180500D02*
X383874D01*
X369130Y164000D02*
Y164103D01*
X368630Y151192D02*
X368825Y151387D01*
X369130Y151692D02*
Y164000D01*
X368825Y151387D02*
X369130Y151692D01*
X79370Y157618D02*
X89012Y147976D01*
Y146500D02*
Y147976D01*
X79370Y157618D02*
Y167500D01*
X172137Y200363D02*
X173000Y199500D01*
X159951Y241049D02*
Y259451D01*
Y241049D02*
X160000Y241000D01*
X159902Y259500D02*
X159951Y259451D01*
X247500Y227500D02*
Y234370D01*
X232000Y212000D02*
X247500Y227500D01*
X84000Y336000D02*
Y343000D01*
X69000Y151000D02*
Y167130D01*
X79370Y177500D01*
X74965Y151000D02*
X77988Y147976D01*
X69000Y151000D02*
X74965D01*
X77988Y146500D02*
Y147976D01*
X69000Y141000D02*
Y151000D01*
X79370Y187500D02*
Y197500D01*
X24000Y65000D02*
X25506D01*
D16*
X521067Y25500D02*
D03*
X531933D02*
D03*
X277933Y128000D02*
D03*
X267067D02*
D03*
D17*
X111079Y400740D02*
D03*
Y397000D02*
D03*
Y393260D02*
D03*
X120921D02*
D03*
Y400740D02*
D03*
X111579Y428740D02*
D03*
Y425000D02*
D03*
Y421260D02*
D03*
X121421D02*
D03*
Y428740D02*
D03*
X111079Y415240D02*
D03*
Y411500D02*
D03*
Y407760D02*
D03*
X120921D02*
D03*
Y415240D02*
D03*
D18*
X359870Y164000D02*
D03*
X369130D02*
D03*
X359564Y151387D02*
D03*
X368825D02*
D03*
X359370Y138500D02*
D03*
X368630D02*
D03*
D19*
X130500Y174000D02*
D03*
X135500D02*
D03*
X140500D02*
D03*
X145500D02*
D03*
Y155763D02*
D03*
X140500D02*
D03*
X135500D02*
D03*
D20*
X130500D02*
D03*
D21*
X191748Y210500D02*
D03*
X185252D02*
D03*
D22*
X247500Y234370D02*
D03*
Y243630D02*
D03*
D23*
X89012Y146500D02*
D03*
X77988D02*
D03*
D42*
X383874Y187500D02*
D03*
Y180500D02*
D03*
Y173500D02*
D03*
Y166500D02*
D03*
Y159500D02*
D03*
Y152500D02*
D03*
Y145500D02*
D03*
Y138500D02*
D03*
Y107535D02*
D03*
Y99465D02*
D03*
Y72535D02*
D03*
Y64465D02*
D03*
Y37535D02*
D03*
Y29465D02*
D03*
X400016Y124500D02*
D03*
Y117500D02*
D03*
Y89500D02*
D03*
Y82500D02*
D03*
Y54500D02*
D03*
Y47500D02*
D03*
D43*
X175654Y177000D02*
D03*
X225654D02*
D03*
X254000D02*
D03*
X325260D02*
D03*
X508126Y182748D02*
D03*
Y167000D02*
D03*
Y151252D02*
D03*
Y121252D02*
D03*
Y91252D02*
D03*
Y61252D02*
D03*
Y31252D02*
D03*
D58*
X130000Y122343D02*
D03*
D59*
Y102657D02*
D03*
X433500Y174500D02*
D03*
Y144500D02*
D03*
X450000Y173500D02*
D03*
Y143500D02*
D03*
X439500Y211500D02*
D03*
X409500D02*
D03*
X500500Y200000D02*
D03*
X470500D02*
D03*
X509000Y209000D02*
D03*
X479000D02*
D03*
X84000Y373000D02*
D03*
Y343000D02*
D03*
Y336000D02*
D03*
Y306000D02*
D03*
X358000Y234500D02*
D03*
Y204500D02*
D03*
X417500Y222000D02*
D03*
X447500D02*
D03*
X401000Y200500D02*
D03*
X431000D02*
D03*
X488000Y218000D02*
D03*
X518000D02*
D03*
X173000Y229500D02*
D03*
Y199500D02*
D03*
X282000Y185500D02*
D03*
X312000D02*
D03*
X253000Y220000D02*
D03*
Y190000D02*
D03*
X268000Y247000D02*
D03*
Y217000D02*
D03*
X153000Y214000D02*
D03*
Y184000D02*
D03*
X186500Y184500D02*
D03*
X216500D02*
D03*
X160000Y241000D02*
D03*
X190000D02*
D03*
X340500Y197000D02*
D03*
X370500D02*
D03*
X344500Y183000D02*
D03*
Y153000D02*
D03*
X69000Y141000D02*
D03*
Y111000D02*
D03*
Y181000D02*
D03*
Y151000D02*
D03*
D60*
X17500Y17500D02*
D03*
Y482500D02*
D03*
X580000Y17500D02*
D03*
X582500Y482500D02*
D03*
D61*
X251000Y128055D02*
D03*
Y108370D02*
D03*
Y88685D02*
D03*
Y69000D02*
D03*
Y49315D02*
D03*
X162417D02*
D03*
Y69000D02*
D03*
Y88685D02*
D03*
Y108370D02*
D03*
Y128055D02*
D03*
D62*
X58000Y283500D02*
D03*
Y273500D02*
D03*
Y263500D02*
D03*
Y253500D02*
D03*
Y233500D02*
D03*
Y223500D02*
D03*
Y213500D02*
D03*
X19500Y263500D02*
D03*
Y253500D02*
D03*
Y243500D02*
D03*
Y233500D02*
D03*
Y213500D02*
D03*
Y203500D02*
D03*
Y193500D02*
D03*
X19366Y103000D02*
D03*
Y113000D02*
D03*
Y123000D02*
D03*
Y143000D02*
D03*
Y153000D02*
D03*
Y163000D02*
D03*
Y173000D02*
D03*
D63*
X31000Y377000D02*
D03*
Y397000D02*
D03*
Y417000D02*
D03*
Y437000D02*
D03*
Y457000D02*
D03*
X25000Y353500D02*
D03*
Y333500D02*
D03*
Y313500D02*
D03*
X578500Y42000D02*
D03*
Y62000D02*
D03*
Y82000D02*
D03*
X227000Y20000D02*
D03*
X24000Y64500D02*
D03*
D64*
X558000Y302000D02*
D03*
X548000D02*
D03*
X538000D02*
D03*
X528000D02*
D03*
X518000D02*
D03*
X508000D02*
D03*
X498000D02*
D03*
X488000D02*
D03*
X478000D02*
D03*
X468000D02*
D03*
X558000Y292000D02*
D03*
X548000D02*
D03*
X538000D02*
D03*
X528000D02*
D03*
X518000D02*
D03*
X508000D02*
D03*
X498000D02*
D03*
X488000D02*
D03*
X478000D02*
D03*
X468000D02*
D03*
X548000Y472000D02*
D03*
X538000D02*
D03*
X528000D02*
D03*
X518000D02*
D03*
X508000D02*
D03*
X498000D02*
D03*
X488000D02*
D03*
X478000D02*
D03*
X468000D02*
D03*
X558000Y462000D02*
D03*
X548000D02*
D03*
X538000D02*
D03*
X528000D02*
D03*
X518000D02*
D03*
X508000D02*
D03*
X498000D02*
D03*
X488000D02*
D03*
X478000D02*
D03*
X468000D02*
D03*
X218000Y302000D02*
D03*
X238000D02*
D03*
X228000D02*
D03*
X238000Y292000D02*
D03*
X248000Y302000D02*
D03*
X268000D02*
D03*
X258000D02*
D03*
X278000D02*
D03*
X298000D02*
D03*
X288000D02*
D03*
X218000Y292000D02*
D03*
X228000D02*
D03*
X258000D02*
D03*
X248000D02*
D03*
X268000D02*
D03*
X288000D02*
D03*
X278000D02*
D03*
X298000D02*
D03*
X308000Y302000D02*
D03*
Y292000D02*
D03*
X218000Y472000D02*
D03*
X248000D02*
D03*
X258000D02*
D03*
X228000D02*
D03*
X238000D02*
D03*
X218000Y462000D02*
D03*
X228000D02*
D03*
X238000D02*
D03*
X248000D02*
D03*
X258000D02*
D03*
X288000Y472000D02*
D03*
X268000D02*
D03*
X278000D02*
D03*
X298000D02*
D03*
X288000Y462000D02*
D03*
X298000D02*
D03*
X268000D02*
D03*
X278000D02*
D03*
X308000D02*
D03*
D65*
X558000Y472000D02*
D03*
X308000D02*
D03*
D66*
X304000Y167000D02*
D03*
X294000D02*
D03*
X214000D02*
D03*
X204000D02*
D03*
D67*
X284000D02*
D03*
X194000D02*
D03*
D68*
X79370Y197500D02*
D03*
X330130Y247500D02*
D03*
D69*
X79370Y187500D02*
D03*
Y177500D02*
D03*
Y167500D02*
D03*
X110630D02*
D03*
Y177500D02*
D03*
Y187500D02*
D03*
Y197500D02*
D03*
X298870Y247500D02*
D03*
Y237500D02*
D03*
Y227500D02*
D03*
Y217500D02*
D03*
X330130D02*
D03*
Y227500D02*
D03*
Y237500D02*
D03*
D70*
X565000Y52500D02*
D03*
Y82500D02*
D03*
Y101500D02*
D03*
Y131500D02*
D03*
X358000Y276000D02*
D03*
Y246000D02*
D03*
X222000Y242000D02*
D03*
X212000D02*
D03*
X202000D02*
D03*
Y212000D02*
D03*
X212000D02*
D03*
X222000D02*
D03*
X232000D02*
D03*
D71*
X359500Y49216D02*
D03*
Y13783D02*
D03*
X415000Y45217D02*
D03*
Y9783D02*
D03*
X415000Y90716D02*
D03*
Y55283D02*
D03*
Y134716D02*
D03*
Y99283D02*
D03*
D72*
X164000Y167000D02*
D03*
X268000Y169524D02*
D03*
D73*
X164000Y205976D02*
D03*
X268000Y208500D02*
D03*
D74*
X247000Y20000D02*
D03*
D75*
X159902Y259500D02*
D03*
X69000Y11012D02*
D03*
Y99988D02*
D03*
D76*
X272500Y259500D02*
D03*
D77*
X232000Y242000D02*
D03*
D78*
X286500Y91000D02*
D03*
D79*
Y110685D02*
D03*
D80*
X349158Y32472D02*
D03*
X359000Y62000D02*
D03*
X122500Y35000D02*
D03*
X132343Y64528D02*
D03*
D81*
X330500Y13303D02*
D03*
X104000Y24500D02*
D03*
D82*
X330500Y88500D02*
D03*
X104000Y99697D02*
D03*
D83*
X24000Y44500D02*
D03*
D84*
X138000Y251500D02*
D03*
X539500Y26000D02*
D03*
X267000Y118500D02*
D03*
X530000Y264500D02*
D03*
X292000Y256500D02*
D03*
X112000Y137500D02*
D03*
X63000Y324000D02*
D03*
X63500Y336857D02*
D03*
X139000Y183500D02*
D03*
X134000Y270000D02*
D03*
X287929Y265429D02*
D03*
X282000Y247000D02*
D03*
X152250Y228750D02*
D03*
X112000Y152500D02*
D03*
X110000Y263000D02*
D03*
X63500Y306000D02*
D03*
X304500Y126500D02*
D03*
X286500D02*
D03*
X362500Y331500D02*
D03*
X388000Y345500D02*
D03*
X549500Y200500D02*
D03*
X540000D02*
D03*
X284500Y383000D02*
D03*
X101317Y419201D02*
D03*
X101817Y405201D02*
D03*
X102000Y391000D02*
D03*
X129500Y428500D02*
D03*
X129000Y415000D02*
D03*
X400500Y229000D02*
D03*
X409000Y239500D02*
D03*
X470000Y228000D02*
D03*
X478500Y240000D02*
D03*
X488000Y188000D02*
D03*
X479000D02*
D03*
X470000D02*
D03*
X527500Y125500D02*
D03*
Y90500D02*
D03*
X554500Y98000D02*
D03*
X255000Y163500D02*
D03*
X551500Y63000D02*
D03*
X530000Y46000D02*
D03*
X130000Y195500D02*
D03*
X129000Y400500D02*
D03*
X488000Y246500D02*
D03*
X417500Y250500D02*
D03*
X372000Y94500D02*
D03*
X359000Y73000D02*
D03*
M02*
