G04*
G04 #@! TF.GenerationSoftware,Altium Limited,Altium Designer,21.2.2 (38)*
G04*
G04 Layer_Color=16711935*
%FSLAX25Y25*%
%MOIN*%
G70*
G04*
G04 #@! TF.SameCoordinates,0CC3C9D5-6B2F-423D-8AA3-22EEB0D6369A*
G04*
G04*
G04 #@! TF.FilePolarity,Positive*
G04*
G01*
G75*
%ADD10C,0.00787*%
%ADD11C,0.00394*%
D10*
X155528Y137898D02*
X257890D01*
X155528Y39472D02*
Y137898D01*
Y39472D02*
X257890D01*
Y137898D01*
X45402Y205587D02*
X81622D01*
Y291413D01*
X45402D02*
X81622D01*
X45402Y205587D02*
Y291413D01*
X165220Y141126D02*
X336087D01*
Y204118D01*
X165220D02*
X336087D01*
X165220Y141126D02*
Y204118D01*
X6902Y185626D02*
X43122D01*
Y271453D01*
X6902D02*
X43122D01*
X6902Y185626D02*
Y271453D01*
X4528Y303500D02*
X43110D01*
Y363500D01*
X4528D02*
X43110D01*
X4528Y303500D02*
Y363500D01*
X560390Y92000D02*
X598972D01*
X560390Y32000D02*
Y92000D01*
Y32000D02*
X598972D01*
Y92000D01*
X6768Y95087D02*
Y180913D01*
X42988D01*
Y95087D02*
Y180913D01*
X6768Y95087D02*
X42988D01*
X343055Y80701D02*
X365102D01*
Y13772D02*
Y80701D01*
X343055Y13772D02*
X365102D01*
X343055D02*
Y80701D01*
X116398Y83228D02*
X138445D01*
Y16299D02*
Y83228D01*
X116398Y16299D02*
X138445D01*
X116398D02*
Y83228D01*
X50496Y7468D02*
Y103532D01*
X87504D01*
Y7468D02*
Y103532D01*
X50496Y7468D02*
X87504D01*
D11*
X149685Y112500D02*
G03*
X149685Y112500I-19685J0D01*
G01*
X341748Y40500D02*
G03*
X341748Y40500I-15748J0D01*
G01*
X306185Y100842D02*
G03*
X306185Y100842I-19685J0D01*
G01*
X520201Y28650D02*
X532799D01*
Y22350D02*
Y28650D01*
X520201Y22350D02*
X532799D01*
X520201D02*
Y28650D01*
X266201Y124850D02*
X278799D01*
X266201D02*
Y131150D01*
X278799D01*
Y124850D02*
Y131150D01*
X440673Y78988D02*
X444512Y82827D01*
X440673Y61173D02*
Y78988D01*
Y61173D02*
X462327D01*
Y78988D01*
X458488Y82827D02*
X462327Y78988D01*
X444512Y82827D02*
X458488D01*
X112850Y402709D02*
X119150D01*
Y391291D02*
Y402709D01*
X112850Y391291D02*
X119150D01*
X112850D02*
Y402709D01*
Y398969D02*
X116591Y402709D01*
X3441Y467000D02*
X56197D01*
Y367000D02*
Y467000D01*
X3441Y367000D02*
X56197D01*
X3441D02*
Y467000D01*
X113350Y430709D02*
X119650D01*
Y419291D02*
Y430709D01*
X113350Y419291D02*
X119650D01*
X113350D02*
Y430709D01*
Y426968D02*
X117091Y430709D01*
X272996Y174697D02*
X277996Y179697D01*
X272996Y160681D02*
Y179697D01*
Y160681D02*
X315004D01*
Y179697D01*
X272996D02*
X315004D01*
X182996Y174697D02*
X187996Y179697D01*
X182996Y160681D02*
Y179697D01*
Y160681D02*
X225004D01*
Y179697D01*
X182996D02*
X225004D01*
X82008Y202500D02*
X107992D01*
Y162500D02*
Y202500D01*
X82008Y162500D02*
X107992D01*
X82008D02*
Y202500D01*
Y197500D02*
X87008Y202500D01*
X112850Y417209D02*
X119150D01*
Y405791D02*
Y417209D01*
X112850Y405791D02*
X119150D01*
X112850D02*
Y417209D01*
Y413469D02*
X116591Y417209D01*
X406146Y218150D02*
Y226850D01*
X411854Y218150D02*
Y226850D01*
X406146D02*
X411854D01*
X406146Y218150D02*
X411854D01*
X467646Y207650D02*
Y216350D01*
X473354Y207650D02*
Y216350D01*
X467646D02*
X473354D01*
X467646Y207650D02*
X473354D01*
X475646Y216650D02*
Y225350D01*
X481354Y216650D02*
Y225350D01*
X475646D02*
X481354D01*
X475646Y216650D02*
X481354D01*
X354146Y21264D02*
X364854D01*
X354146D02*
Y41736D01*
X364854Y21264D02*
Y41736D01*
X354146D02*
X364854D01*
X409646Y17264D02*
X420354D01*
X409646D02*
Y37736D01*
X420354Y17264D02*
Y37736D01*
X409646D02*
X420354D01*
X409646Y62764D02*
X420354D01*
X409646D02*
Y83236D01*
X420354Y62764D02*
Y83236D01*
X409646D02*
X420354D01*
X409646Y106764D02*
X420354D01*
X409646D02*
Y127236D01*
X420354Y106764D02*
Y127236D01*
X409646D02*
X420354D01*
X444012Y36827D02*
X457988D01*
X461827Y32988D01*
Y15173D02*
Y32988D01*
X440173Y15173D02*
X461827D01*
X440173D02*
Y32988D01*
X444012Y36827D01*
X443012Y125827D02*
X456988D01*
X460827Y121988D01*
Y104173D02*
Y121988D01*
X439173Y104173D02*
X460827D01*
X439173D02*
Y121988D01*
X443012Y125827D01*
X414646Y230150D02*
X420354D01*
X414646Y238850D02*
X420354D01*
Y230150D02*
Y238850D01*
X414646Y230150D02*
Y238850D01*
X398146Y208650D02*
X403854D01*
X398146Y217350D02*
X403854D01*
Y208650D02*
Y217350D01*
X398146Y208650D02*
Y217350D01*
X485146Y225650D02*
X490854D01*
X485146Y234350D02*
X490854D01*
Y225650D02*
Y234350D01*
X485146Y225650D02*
Y234350D01*
X164000Y167000D02*
Y179795D01*
Y193181D02*
Y205976D01*
X160803Y189984D02*
X164000Y193181D01*
X160803D02*
X167201D01*
Y179795D02*
Y193181D01*
X160803Y179795D02*
X167201D01*
X160803D02*
Y193181D01*
X268000Y169524D02*
Y182319D01*
Y195705D02*
Y208500D01*
X264803Y192508D02*
X268000Y195705D01*
X264803D02*
X271201D01*
Y182319D02*
Y195705D01*
X264803Y182319D02*
X271201D01*
X264803D02*
Y195705D01*
X192850Y207646D02*
Y213354D01*
X184150Y207646D02*
Y213354D01*
Y207646D02*
X192850D01*
X184150Y213354D02*
X192850D01*
X217000Y35945D02*
X257000D01*
X217000Y4055D02*
Y35945D01*
Y4055D02*
X257000D01*
Y35945D01*
X159902Y259500D02*
X199764D01*
X232638D02*
X272500D01*
X222697Y249559D02*
X232638Y259500D01*
Y249559D02*
Y269441D01*
X199764D02*
X232638D01*
X199764Y249559D02*
Y269441D01*
Y249559D02*
X232638D01*
X237591Y206410D02*
Y247590D01*
X196409Y206410D02*
X237591D01*
X196409D02*
Y247590D01*
X237591D01*
X232591D02*
X237591Y242590D01*
X322492Y252500D02*
X327492Y247500D01*
Y212500D02*
Y252500D01*
X301508Y212500D02*
X327492D01*
X301508D02*
Y252500D01*
X327492D01*
X350807Y217457D02*
X364193D01*
X350807Y224543D02*
X364193D01*
X350807Y217457D02*
Y224543D01*
X364193Y217457D02*
Y224543D01*
X330500Y13303D02*
Y37713D01*
Y64091D02*
Y88500D01*
Y64091D02*
X336602Y57988D01*
X324398Y64091D02*
X336602D01*
X324398Y37713D02*
Y64091D01*
Y37713D02*
X336602D01*
Y64091D01*
X104000Y24500D02*
Y48909D01*
Y75287D02*
Y99697D01*
Y75287D02*
X110102Y69185D01*
X97898Y75287D02*
X110102D01*
X97898Y48909D02*
Y75287D01*
Y48909D02*
X110102D01*
Y75287D01*
X39945Y34500D02*
Y74500D01*
X8055D02*
X39945D01*
X8055Y34500D02*
Y74500D01*
Y34500D02*
X39945D01*
X76807Y142957D02*
X90193D01*
X76807Y150043D02*
X90193D01*
Y142957D02*
Y150043D01*
X76807Y142957D02*
Y150043D01*
M02*
