G04*
G04 #@! TF.GenerationSoftware,Altium Limited,Altium Designer,21.2.2 (38)*
G04*
G04 Layer_Color=32896*
%FSLAX25Y25*%
%MOIN*%
G70*
G04*
G04 #@! TF.SameCoordinates,0CC3C9D5-6B2F-423D-8AA3-22EEB0D6369A*
G04*
G04*
G04 #@! TF.FilePolarity,Positive*
G04*
G01*
G75*
%ADD11C,0.00394*%
D11*
X417531Y152000D02*
X421468D01*
X419500Y150031D02*
Y153969D01*
X535032Y110500D02*
X538969D01*
X537000Y108531D02*
Y112469D01*
X534531Y75500D02*
X538469D01*
X536500Y73532D02*
Y77469D01*
X517531Y45000D02*
X521468D01*
X519500Y43031D02*
Y46968D01*
X372000Y29531D02*
Y33468D01*
X370031Y31500D02*
X373969D01*
X385000Y120531D02*
Y124469D01*
X383032Y122500D02*
X386968D01*
X384500Y84031D02*
Y87968D01*
X382531Y86000D02*
X386469D01*
X386000Y49031D02*
Y52969D01*
X384032Y51000D02*
X387968D01*
X429500Y24532D02*
Y28468D01*
X427531Y26500D02*
X431468D01*
X430000Y70531D02*
Y74468D01*
X428031Y72500D02*
X431968D01*
X429500Y113031D02*
Y116969D01*
X427531Y115000D02*
X431468D01*
X277031Y141500D02*
X280968D01*
X279000Y139532D02*
Y143468D01*
X276532Y154500D02*
X280469D01*
X278500Y152532D02*
Y156468D01*
M02*
