M48
;Layer_Color=9474304
;FILE_FORMAT=2:5
INCH,LZ
;TYPE=PLATED
T8F00S00C0.03543
;TYPE=NON_PLATED
%
G90
G05
T08
G00X0385252Y0029465
M15
G01X0382496
M16
G00X0385252Y0037535
M15
G01X0382496
M16
G00X0401394Y00475
M15
G01X0398638
M16
G00X0401394Y00545
M15
G01X0398638
M16
G00X0385252Y0064465
M15
G01X0382496
M16
G00X0385252Y0072535
M15
G01X0382496
M16
G00X0401394Y00825
M15
G01X0398638
M16
G00X0401394Y00895
M15
G01X0398638
M16
G00X0385252Y0099465
M15
G01X0382496
M16
G00X0385252Y0107535
M15
G01X0382496
M16
G00X0401394Y01175
M15
G01X0398638
M16
G00X0401394Y01245
M15
G01X0398638
M16
G00X0385252Y01385
M15
G01X0382496
M16
G00X0385252Y01455
M15
G01X0382496
M16
G00X0385252Y01525
M15
G01X0382496
M16
G00X0385252Y01595
M15
G01X0382496
M16
G00X0385252Y01665
M15
G01X0382496
M16
G00X0385252Y01735
M15
G01X0382496
M16
G00X0385252Y01805
M15
G01X0382496
M16
G00X0385252Y01875
M15
G01X0382496
M16
M17
M30
