G04*
G04 #@! TF.GenerationSoftware,Altium Limited,Altium Designer,21.2.2 (38)*
G04*
G04 Layer_Color=8388736*
%FSLAX25Y25*%
%MOIN*%
G70*
G04*
G04 #@! TF.SameCoordinates,0CC3C9D5-6B2F-423D-8AA3-22EEB0D6369A*
G04*
G04*
G04 #@! TF.FilePolarity,Positive*
G04*
G01*
G75*
%ADD10C,0.00787*%
G36*
X446017Y108978D02*
X446051D01*
X446093Y108974D01*
X446139Y108970D01*
X446236Y108958D01*
X446335Y108943D01*
X446435Y108924D01*
X446523Y108893D01*
X446527D01*
X446535Y108889D01*
X446547Y108885D01*
X446562Y108878D01*
X446600Y108855D01*
X446654Y108824D01*
X446712Y108782D01*
X446773Y108728D01*
X446831Y108659D01*
X446888Y108582D01*
Y108578D01*
X446896Y108571D01*
X446900Y108559D01*
X446911Y108540D01*
X446919Y108521D01*
X446931Y108494D01*
X446946Y108459D01*
X446957Y108425D01*
X446969Y108386D01*
X446984Y108340D01*
X446996Y108294D01*
X447003Y108240D01*
X447019Y108125D01*
X447026Y107995D01*
Y107960D01*
X447023Y107937D01*
Y107906D01*
X447019Y107872D01*
X447015Y107833D01*
X447011Y107791D01*
X446996Y107699D01*
X446977Y107603D01*
X446946Y107503D01*
X446907Y107415D01*
Y107411D01*
X446900Y107403D01*
X446896Y107396D01*
X446884Y107380D01*
X446858Y107338D01*
X446815Y107292D01*
X446765Y107238D01*
X446708Y107188D01*
X446635Y107138D01*
X446554Y107096D01*
X446550D01*
X446543Y107092D01*
X446531Y107088D01*
X446512Y107081D01*
X446489Y107073D01*
X446458Y107065D01*
X446424Y107058D01*
X446385Y107050D01*
X446343Y107038D01*
X446297Y107031D01*
X446243Y107023D01*
X446189Y107015D01*
X446128Y107008D01*
X446063Y107004D01*
X445994Y107000D01*
X445921D01*
X444461D01*
Y107334D01*
X445921D01*
X445924D01*
X445936D01*
X445951D01*
X445974D01*
X446001D01*
X446032Y107338D01*
X446105Y107342D01*
X446182Y107349D01*
X446262Y107357D01*
X446339Y107372D01*
X446374Y107380D01*
X446404Y107392D01*
X446412Y107396D01*
X446431Y107403D01*
X446458Y107419D01*
X446493Y107442D01*
X446531Y107468D01*
X446573Y107507D01*
X446612Y107549D01*
X446646Y107603D01*
X446650Y107611D01*
X446658Y107630D01*
X446673Y107660D01*
X446685Y107703D01*
X446700Y107756D01*
X446715Y107818D01*
X446723Y107887D01*
X446727Y107964D01*
Y107998D01*
X446723Y108025D01*
Y108056D01*
X446719Y108091D01*
X446708Y108167D01*
X446685Y108256D01*
X446658Y108340D01*
X446616Y108421D01*
X446593Y108459D01*
X446562Y108490D01*
X446558D01*
X446554Y108498D01*
X446543Y108505D01*
X446527Y108513D01*
X446508Y108528D01*
X446485Y108540D01*
X446454Y108555D01*
X446420Y108571D01*
X446378Y108582D01*
X446332Y108597D01*
X446281Y108613D01*
X446220Y108624D01*
X446155Y108632D01*
X446086Y108640D01*
X446005Y108647D01*
X445921D01*
X444461D01*
Y108981D01*
X445921D01*
X445924D01*
X445936D01*
X445955D01*
X445982D01*
X446017Y108978D01*
D02*
G37*
D10*
X379543Y19598D02*
Y194402D01*
X514425D01*
Y19598D02*
Y194402D01*
X379543Y19598D02*
X514425D01*
M02*
