G04*
G04 #@! TF.GenerationSoftware,Altium Limited,Altium Designer,21.2.2 (38)*
G04*
G04 Layer_Color=32896*
%FSLAX25Y25*%
%MOIN*%
G70*
G04*
G04 #@! TF.SameCoordinates,0CC3C9D5-6B2F-423D-8AA3-22EEB0D6369A*
G04*
G04*
G04 #@! TF.FilePolarity,Positive*
G04*
G01*
G75*
%ADD10C,0.00787*%
%ADD13C,0.00984*%
%ADD14C,0.01000*%
%ADD15C,0.00700*%
%ADD95C,0.01575*%
%ADD96C,0.00600*%
%ADD97R,0.10698X0.03736*%
D10*
X444512Y82827D02*
X447169D01*
X440673Y78988D02*
X444512Y82827D01*
X458488D02*
X462327Y78988D01*
X455831Y82827D02*
X458488D01*
X440673Y61173D02*
Y78988D01*
Y61173D02*
X447169D01*
X455831D02*
X462327D01*
Y78988D01*
X462000Y287250D02*
Y306750D01*
Y287250D02*
X564000D01*
Y306750D01*
X462000D02*
X564000D01*
X462000Y476750D02*
X564000D01*
Y457250D02*
Y476750D01*
X462000Y457250D02*
X564000D01*
X462000D02*
Y476750D01*
X212000Y287250D02*
Y306750D01*
X314000D01*
X212000Y287250D02*
X314000D01*
Y306750D01*
X212000Y457250D02*
Y476750D01*
X314000D01*
X212000Y457250D02*
X314000D01*
Y476750D01*
X433500Y169500D02*
X436500D01*
Y149500D02*
Y169500D01*
X430500Y149500D02*
X436500D01*
X430500D02*
Y169500D01*
X433500D01*
Y148600D02*
Y149500D01*
Y169500D02*
Y170400D01*
X450000Y168500D02*
X453000D01*
Y148500D02*
Y168500D01*
X447000Y148500D02*
X453000D01*
X447000D02*
Y168500D01*
X450000D01*
Y147600D02*
Y148500D01*
Y168500D02*
Y169400D01*
X415957Y149539D02*
Y154461D01*
X423043Y149539D02*
Y154461D01*
X533539Y100854D02*
X540461D01*
Y120146D01*
X533539D02*
X540461D01*
X533539Y100854D02*
Y120146D01*
X533039Y65854D02*
X539961D01*
Y85146D01*
X533039D02*
X539961D01*
X533039Y65854D02*
Y85146D01*
X434500Y208500D02*
Y211500D01*
X414500Y208500D02*
X434500D01*
X414500D02*
Y214500D01*
X434500D01*
Y211500D02*
Y214500D01*
X413600Y211500D02*
X414500D01*
X434500D02*
X435400D01*
X495500Y197000D02*
Y200000D01*
X475500Y197000D02*
X495500D01*
X475500D02*
Y203000D01*
X495500D01*
Y200000D02*
Y203000D01*
X474600Y200000D02*
X475500D01*
X495500D02*
X496400D01*
X504000Y206000D02*
Y209000D01*
X484000Y206000D02*
X504000D01*
X484000D02*
Y212000D01*
X504000D01*
Y209000D02*
Y212000D01*
X483100Y209000D02*
X484000D01*
X504000D02*
X504900D01*
X572500Y45000D02*
Y90000D01*
X557500Y45000D02*
X572500D01*
X557500D02*
Y90000D01*
X572500D01*
Y94000D02*
Y139000D01*
X557500Y94000D02*
X572500D01*
X557500D02*
Y139000D01*
X572500D01*
X523043Y42539D02*
Y47461D01*
X515957Y42539D02*
Y47461D01*
X442500Y222000D02*
X443400D01*
X421600D02*
X422500D01*
X442500D02*
Y225000D01*
X422500D02*
X442500D01*
X422500Y219000D02*
Y225000D01*
Y219000D02*
X442500D01*
Y222000D01*
X426000Y200500D02*
X426900D01*
X405100D02*
X406000D01*
X426000D02*
Y203500D01*
X406000D02*
X426000D01*
X406000Y197500D02*
Y203500D01*
Y197500D02*
X426000D01*
Y200500D01*
X513000Y218000D02*
X513900D01*
X492100D02*
X493000D01*
X513000D02*
Y221000D01*
X493000D02*
X513000D01*
X493000Y215000D02*
Y221000D01*
Y215000D02*
X513000D01*
Y218000D01*
X354146Y41736D02*
X364854D01*
X354146Y21264D02*
Y41736D01*
Y21264D02*
X364854D01*
Y41736D01*
X409646Y37736D02*
X420354D01*
X409646Y17264D02*
Y37736D01*
Y17264D02*
X420354D01*
Y37736D01*
X409646Y83236D02*
X420354D01*
X409646Y62764D02*
Y83236D01*
Y62764D02*
X420354D01*
Y83236D01*
X409646Y127236D02*
X420354D01*
X409646Y106764D02*
Y127236D01*
Y106764D02*
X420354D01*
Y127236D01*
X368457Y29039D02*
Y33961D01*
X375543Y29039D02*
Y33961D01*
X388543Y120039D02*
Y124961D01*
X381457Y120039D02*
Y124961D01*
X388043Y83539D02*
Y88461D01*
X380957Y83539D02*
Y88461D01*
X389543Y48539D02*
Y53461D01*
X382457Y48539D02*
Y53461D01*
X425957Y24039D02*
Y28961D01*
X433043Y24039D02*
Y28961D01*
X426457Y70039D02*
Y74961D01*
X433543Y70039D02*
Y74961D01*
X425957Y112539D02*
Y117461D01*
X433043Y112539D02*
Y117461D01*
X461827Y15173D02*
Y32988D01*
X455331Y15173D02*
X461827D01*
X440173D02*
X446669D01*
X440173D02*
Y32988D01*
X455331Y36827D02*
X457988D01*
X461827Y32988D01*
X440173D02*
X444012Y36827D01*
X446669D01*
X460827Y104173D02*
Y121988D01*
X454331Y104173D02*
X460827D01*
X439173D02*
X445669D01*
X439173D02*
Y121988D01*
X454331Y125827D02*
X456988D01*
X460827Y121988D01*
X439173D02*
X443012Y125827D01*
X445669D01*
X332496Y23768D02*
X342732D01*
X309268Y23768D02*
X319504D01*
X342732Y23768D02*
Y52311D01*
X332496Y57232D02*
X337811D01*
X309268Y23768D02*
Y52311D01*
X314189Y57232D02*
X319504D01*
X337811D02*
X342732Y52311D01*
X309268Y52311D02*
X314189Y57232D01*
X164000Y170642D02*
Y179795D01*
Y193181D02*
Y202335D01*
X160803Y189984D02*
X164000Y193181D01*
X160803D02*
X167197D01*
Y179795D02*
Y193181D01*
X160803Y179795D02*
X167197D01*
X160803D02*
Y193181D01*
X268000Y173165D02*
Y182319D01*
Y195705D02*
Y204858D01*
X264803Y192508D02*
X268000Y195705D01*
X264803D02*
X271197D01*
Y182319D02*
Y195705D01*
X264803Y182319D02*
X271197D01*
X264803D02*
Y195705D01*
X173000Y203600D02*
Y204500D01*
Y224500D02*
Y225400D01*
Y204500D02*
X176000D01*
Y224500D01*
X170000D02*
X176000D01*
X170000Y204500D02*
Y224500D01*
Y204500D02*
X173000D01*
X307000Y185500D02*
X307900D01*
X286100D02*
X287000D01*
X307000D02*
Y188500D01*
X287000D02*
X307000D01*
X287000Y182500D02*
Y188500D01*
Y182500D02*
X307000D01*
Y185500D01*
X253000Y194100D02*
Y195000D01*
Y215000D02*
Y215900D01*
Y195000D02*
X256000D01*
Y215000D01*
X250000D02*
X256000D01*
X250000Y195000D02*
Y215000D01*
Y195000D02*
X253000D01*
X268000Y221100D02*
Y222000D01*
Y242000D02*
Y242900D01*
Y222000D02*
X271000D01*
Y242000D01*
X265000D02*
X271000D01*
X265000Y222000D02*
Y242000D01*
Y222000D02*
X268000D01*
X153000Y188100D02*
Y189000D01*
Y209000D02*
Y209900D01*
Y189000D02*
X156000D01*
Y209000D01*
X150000D02*
X156000D01*
X150000Y189000D02*
Y209000D01*
Y189000D02*
X153000D01*
X211500Y184500D02*
X212400D01*
X190600D02*
X191500D01*
X211500D02*
Y187500D01*
X191500D02*
X211500D01*
X191500Y181500D02*
Y187500D01*
Y181500D02*
X211500D01*
Y184500D01*
X301508Y212500D02*
X327492D01*
X301508Y252500D02*
X332354D01*
X355335Y218047D02*
X359665D01*
X355335Y223953D02*
X359665D01*
X365500Y197000D02*
X366400D01*
X344600D02*
X345500D01*
X365500D02*
Y200000D01*
X345500D02*
X365500D01*
X345500Y194000D02*
Y200000D01*
Y194000D02*
X365500D01*
Y197000D01*
X344500Y157100D02*
Y158000D01*
Y178000D02*
Y178900D01*
Y158000D02*
X347500D01*
Y178000D01*
X341500D02*
X347500D01*
X341500Y158000D02*
Y178000D01*
Y158000D02*
X344500D01*
X270917Y136370D02*
X287083D01*
X270917Y146630D02*
X287083D01*
X270417Y149370D02*
X286583D01*
X270417Y159630D02*
X286583D01*
D13*
X522335Y103000D02*
G03*
X522335Y103000I-492J0D01*
G01*
X521835Y68000D02*
G03*
X521835Y68000I-492J0D01*
G01*
D14*
X351000Y43000D02*
X354999D01*
X363500Y18499D02*
X367499D01*
X365499Y20499D02*
Y16500D01*
X408500Y103499D02*
X412499D01*
X410499Y105499D02*
Y101500D01*
X409000Y59999D02*
X412999D01*
X410999Y61999D02*
Y58000D01*
X406500Y14999D02*
X410499D01*
X408499Y16999D02*
Y13000D01*
X412500Y40000D02*
X416499D01*
X412500Y129500D02*
X416499D01*
X413000Y85500D02*
X416999D01*
X444499Y172163D02*
X440501D01*
Y170164D01*
X441167Y169497D01*
X442500D01*
X443166Y170164D01*
Y172163D01*
Y170830D02*
X444499Y169497D01*
Y168165D02*
Y166165D01*
X443833Y165499D01*
X443166Y166165D01*
Y167498D01*
X442500Y168165D01*
X441834Y167498D01*
Y165499D01*
X440501Y164166D02*
X444499D01*
X442500D01*
X441834Y163499D01*
Y162167D01*
X442500Y161500D01*
X444499D01*
X441834Y160167D02*
X443833D01*
X444499Y159501D01*
Y157501D01*
X441834D01*
X444499Y156168D02*
X441834D01*
Y154169D01*
X442500Y153503D01*
X444499D01*
X441167Y151503D02*
X441834D01*
Y152170D01*
Y150837D01*
Y151503D01*
X443833D01*
X444499Y150837D01*
X147999Y207997D02*
X144001D01*
Y205998D01*
X144667Y205331D01*
X146000D01*
X146667Y205998D01*
Y207997D01*
Y206664D02*
X147999Y205331D01*
Y203332D02*
Y201999D01*
X147333Y201333D01*
X146000D01*
X145334Y201999D01*
Y203332D01*
X146000Y203998D01*
X147333D01*
X147999Y203332D01*
Y200000D02*
X145334D01*
Y198000D01*
X146000Y197334D01*
X147999D01*
X145334Y196001D02*
Y195334D01*
X146000D01*
Y196001D01*
X145334D01*
X147333D02*
Y195334D01*
X147999D01*
Y196001D01*
X147333D01*
X147999Y190003D02*
Y192669D01*
X145334Y190003D01*
X144667D01*
X144001Y190669D01*
Y192002D01*
X144667Y192669D01*
X248499Y212831D02*
X244501D01*
Y210831D01*
X245167Y210165D01*
X246500D01*
X247166Y210831D01*
Y212831D01*
Y211498D02*
X248499Y210165D01*
Y208166D02*
Y206833D01*
X247833Y206166D01*
X246500D01*
X245834Y206833D01*
Y208166D01*
X246500Y208832D01*
X247833D01*
X248499Y208166D01*
Y204833D02*
X245834D01*
Y202834D01*
X246500Y202167D01*
X248499D01*
X245834Y200834D02*
Y200168D01*
X246500D01*
Y200834D01*
X245834D01*
X247833D02*
Y200168D01*
X248499D01*
Y200834D01*
X247833D01*
X248499Y197502D02*
Y196169D01*
Y196836D01*
X244501D01*
X245167Y197502D01*
X168499Y231330D02*
X164501D01*
Y229331D01*
X165167Y228664D01*
X166500D01*
X167166Y229331D01*
Y231330D01*
Y229997D02*
X168499Y228664D01*
Y226665D02*
Y225332D01*
X167833Y224665D01*
X166500D01*
X165833Y225332D01*
Y226665D01*
X166500Y227331D01*
X167833D01*
X168499Y226665D01*
Y222666D02*
X165167D01*
X166500D01*
Y223333D01*
Y222000D01*
Y222666D01*
X165167D01*
X164501Y222000D01*
X168499Y219334D02*
X165167D01*
X166500D01*
Y220000D01*
Y218667D01*
Y219334D01*
X165167D01*
X164501Y218667D01*
X165833Y216668D02*
Y216002D01*
X166500D01*
Y216668D01*
X165833D01*
X167833D02*
Y216002D01*
X168499D01*
Y216668D01*
X167833D01*
X168499Y210670D02*
Y213336D01*
X165833Y210670D01*
X165167D01*
X164501Y211336D01*
Y212669D01*
X165167Y213336D01*
X272001Y222836D02*
X275999D01*
Y224836D01*
X275333Y225502D01*
X274000D01*
X273334Y224836D01*
Y222836D01*
Y224169D02*
X272001Y225502D01*
Y227502D02*
Y228835D01*
X272667Y229501D01*
X274000D01*
X274666Y228835D01*
Y227502D01*
X274000Y226835D01*
X272667D01*
X272001Y227502D01*
Y231500D02*
X275333D01*
X274000D01*
Y230834D01*
Y232167D01*
Y231500D01*
X275333D01*
X275999Y232167D01*
X272001Y234833D02*
X275333D01*
X274000D01*
Y234166D01*
Y235499D01*
Y234833D01*
X275333D01*
X275999Y235499D01*
X274666Y237498D02*
Y238165D01*
X274000D01*
Y237498D01*
X274666D01*
X272667D02*
Y238165D01*
X272001D01*
Y237498D01*
X272667D01*
X272001Y240831D02*
Y242163D01*
Y241497D01*
X275999D01*
X275333Y240831D01*
X208831Y189667D02*
Y193666D01*
X206832D01*
X206165Y192999D01*
Y191666D01*
X206832Y191000D01*
X208831D01*
X207498D02*
X206165Y189667D01*
X203499Y188334D02*
X202833D01*
X202167Y189001D01*
Y192333D01*
X204166D01*
X204832Y191666D01*
Y190333D01*
X204166Y189667D01*
X202167D01*
X200834D02*
X198834D01*
X198168Y190333D01*
X198834Y191000D01*
X200167D01*
X200834Y191666D01*
X200167Y192333D01*
X198168D01*
X194169Y189667D02*
X196835D01*
X194169Y192333D01*
Y192999D01*
X194835Y193666D01*
X196168D01*
X196835Y192999D01*
X303664Y190667D02*
Y194666D01*
X301665D01*
X300999Y193999D01*
Y192666D01*
X301665Y192000D01*
X303664D01*
X302332D02*
X300999Y190667D01*
X298333Y189334D02*
X297666D01*
X297000Y190001D01*
Y193333D01*
X298999D01*
X299666Y192666D01*
Y191333D01*
X298999Y190667D01*
X297000D01*
X295667D02*
X293668D01*
X293001Y191333D01*
X293668Y192000D01*
X295001D01*
X295667Y192666D01*
X295001Y193333D01*
X293001D01*
X291668Y190667D02*
X290335D01*
X291002D01*
Y194666D01*
X291668Y193999D01*
X364497Y189001D02*
Y192999D01*
X362498D01*
X361831Y192333D01*
Y191000D01*
X362498Y190333D01*
X364497D01*
X363164D02*
X361831Y189001D01*
X357833Y192999D02*
Y189001D01*
X359832D01*
X360498Y189667D01*
Y191000D01*
X359832Y191666D01*
X357833D01*
X356500Y189001D02*
X355167D01*
X355833D01*
Y191666D01*
X356500D01*
X353167D02*
X351835Y189001D01*
X350502Y191666D01*
X347169Y189001D02*
Y192999D01*
X349169Y191000D01*
X346503D01*
X339999Y177497D02*
X336001D01*
Y175498D01*
X336667Y174831D01*
X338000D01*
X338666Y175498D01*
Y177497D01*
Y176164D02*
X339999Y174831D01*
X336001Y170833D02*
X339999D01*
Y172832D01*
X339333Y173498D01*
X338000D01*
X337334Y172832D01*
Y170833D01*
X339999Y169500D02*
Y168167D01*
Y168833D01*
X337334D01*
Y169500D01*
Y166167D02*
X339999Y164834D01*
X337334Y163502D01*
X336667Y162169D02*
X336001Y161502D01*
Y160169D01*
X336667Y159503D01*
X337334D01*
X338000Y160169D01*
Y160836D01*
Y160169D01*
X338666Y159503D01*
X339333D01*
X339999Y160169D01*
Y161502D01*
X339333Y162169D01*
X441665Y179001D02*
Y182999D01*
X439665D01*
X438999Y182333D01*
Y181000D01*
X439665Y180333D01*
X441665D01*
X440332D02*
X438999Y179001D01*
X437666D02*
X436333D01*
X436999D01*
Y182999D01*
X437666Y182333D01*
X434334Y181667D02*
X433667D01*
Y181000D01*
X434334D01*
Y181667D01*
Y179667D02*
X433667D01*
Y179001D01*
X434334D01*
Y179667D01*
X431001Y182333D02*
X430335Y182999D01*
X429002D01*
X428336Y182333D01*
Y181667D01*
X429002Y181000D01*
X428336Y180333D01*
Y179667D01*
X429002Y179001D01*
X430335D01*
X431001Y179667D01*
Y180333D01*
X430335Y181000D01*
X431001Y181667D01*
Y182333D01*
X430335Y181000D02*
X429002D01*
X453501Y214836D02*
X457499D01*
Y216835D01*
X456833Y217501D01*
X455500D01*
X454834Y216835D01*
Y214836D01*
Y216168D02*
X453501Y217501D01*
Y218834D02*
Y220167D01*
Y219501D01*
X457499D01*
X456833Y218834D01*
X456166Y222166D02*
Y222833D01*
X455500D01*
Y222166D01*
X456166D01*
X454167D02*
Y222833D01*
X453501D01*
Y222166D01*
X454167D01*
X457499Y228165D02*
X456833Y226832D01*
X455500Y225499D01*
X454167D01*
X453501Y226165D01*
Y227498D01*
X454167Y228165D01*
X454834D01*
X455500Y227498D01*
Y225499D01*
X445501Y203836D02*
X449499D01*
Y205835D01*
X448833Y206501D01*
X447500D01*
X446834Y205835D01*
Y203836D01*
Y205168D02*
X445501Y206501D01*
Y207834D02*
Y209167D01*
Y208501D01*
X449499D01*
X448833Y207834D01*
X448166Y211167D02*
Y211833D01*
X447500D01*
Y211167D01*
X448166D01*
X446167D02*
Y211833D01*
X445501D01*
Y211167D01*
X446167D01*
X449499Y217164D02*
Y214499D01*
X447500D01*
X448166Y215832D01*
Y216498D01*
X447500Y217164D01*
X446167D01*
X445501Y216498D01*
Y215165D01*
X446167Y214499D01*
X436501Y193335D02*
X440499D01*
Y195335D01*
X439833Y196001D01*
X438500D01*
X437834Y195335D01*
Y193335D01*
Y194668D02*
X436501Y196001D01*
Y197334D02*
Y198667D01*
Y198001D01*
X440499D01*
X439833Y197334D01*
X439166Y200666D02*
Y201333D01*
X438500D01*
Y200666D01*
X439166D01*
X437167D02*
Y201333D01*
X436501D01*
Y200666D01*
X437167D01*
X436501Y205998D02*
X440499D01*
X438500Y203999D01*
Y206664D01*
X525001Y209836D02*
X528999D01*
Y211835D01*
X528333Y212501D01*
X527000D01*
X526334Y211835D01*
Y209836D01*
Y211168D02*
X525001Y212501D01*
Y213834D02*
Y215167D01*
Y214501D01*
X528999D01*
X528333Y213834D01*
X527666Y217166D02*
Y217833D01*
X527000D01*
Y217166D01*
X527666D01*
X525667D02*
Y217833D01*
X525001D01*
Y217166D01*
X525667D01*
X528333Y220499D02*
X528999Y221165D01*
Y222498D01*
X528333Y223165D01*
X527666D01*
X527000Y222498D01*
Y221832D01*
Y222498D01*
X526334Y223165D01*
X525667D01*
X525001Y222498D01*
Y221165D01*
X525667Y220499D01*
X515501Y201835D02*
X519499D01*
Y203835D01*
X518833Y204501D01*
X517500D01*
X516834Y203835D01*
Y201835D01*
Y203168D02*
X515501Y204501D01*
Y205834D02*
Y207167D01*
Y206501D01*
X519499D01*
X518833Y205834D01*
X518166Y209167D02*
Y209833D01*
X517500D01*
Y209167D01*
X518166D01*
X516167D02*
Y209833D01*
X515501D01*
Y209167D01*
X516167D01*
X515501Y215164D02*
Y212499D01*
X518166Y215164D01*
X518833D01*
X519499Y214498D01*
Y213165D01*
X518833Y212499D01*
X505501Y193002D02*
X509499D01*
Y195001D01*
X508833Y195668D01*
X507500D01*
X506834Y195001D01*
Y193002D01*
Y194335D02*
X505501Y195668D01*
Y197001D02*
Y198334D01*
Y197667D01*
X509499D01*
X508833Y197001D01*
X508166Y200333D02*
Y200999D01*
X507500D01*
Y200333D01*
X508166D01*
X506167D02*
Y200999D01*
X505501D01*
Y200333D01*
X506167D01*
X505501Y203665D02*
Y204998D01*
Y204332D01*
X509499D01*
X508833Y203665D01*
X331101Y260599D02*
X332434D01*
X333100Y259932D01*
Y257266D01*
X332434Y256600D01*
X331101D01*
X330434Y257266D01*
Y259932D01*
X331101Y260599D01*
X329101Y256600D02*
Y260599D01*
X327102D01*
X326435Y259932D01*
Y258599D01*
X327102Y257933D01*
X329101D01*
X325103Y258599D02*
X322437D01*
X321104Y256600D02*
Y259266D01*
X319771Y260599D01*
X318438Y259266D01*
Y256600D01*
Y258599D01*
X321104D01*
X317105Y256600D02*
Y260599D01*
X315772Y259266D01*
X314439Y260599D01*
Y256600D01*
X313106D02*
Y260599D01*
X311107D01*
X310441Y259932D01*
Y258599D01*
X311107Y257933D01*
X313106D01*
X306442Y256600D02*
X309108D01*
X306442Y259266D01*
Y259932D01*
X307108Y260599D01*
X308441D01*
X309108Y259932D01*
X516167Y89329D02*
X520166D01*
X518167D01*
X517500Y88663D01*
Y87330D01*
X518167Y86664D01*
X520166D01*
X517500Y84664D02*
Y83331D01*
X518167Y82665D01*
X520166D01*
Y84664D01*
X519500Y85331D01*
X518833Y84664D01*
Y82665D01*
X520166Y81332D02*
Y79999D01*
Y80665D01*
X516167D01*
Y81332D01*
X520166Y78000D02*
Y76667D01*
Y77333D01*
X516167D01*
Y78000D01*
X520833Y74667D02*
Y72002D01*
X516167Y70669D02*
Y69336D01*
Y70002D01*
X520166D01*
Y70669D01*
Y69336D01*
X516167Y67336D02*
X520166D01*
Y65337D01*
X519500Y64671D01*
X518833D01*
X518167Y65337D01*
Y67336D01*
Y65337D01*
X517500Y64671D01*
X516834D01*
X516167Y65337D01*
Y67336D01*
X516667Y123829D02*
X520666D01*
X518667D01*
X518000Y123163D01*
Y121830D01*
X518667Y121164D01*
X520666D01*
X518000Y119164D02*
Y117831D01*
X518667Y117165D01*
X520666D01*
Y119164D01*
X520000Y119831D01*
X519333Y119164D01*
Y117165D01*
X520666Y115832D02*
Y114499D01*
Y115165D01*
X516667D01*
Y115832D01*
X520666Y112500D02*
Y111167D01*
Y111833D01*
X516667D01*
Y112500D01*
X521333Y109167D02*
Y106502D01*
X516667Y105169D02*
Y103836D01*
Y104502D01*
X520666D01*
Y105169D01*
Y103836D01*
Y101836D02*
X518000D01*
X516667Y100504D01*
X518000Y99171D01*
X520666D01*
X518667D01*
Y101836D01*
X349001Y26998D02*
X352999D01*
Y24998D01*
X352333Y24332D01*
X349667D01*
X349001Y24998D01*
Y26998D01*
Y22999D02*
Y20333D01*
X349667D01*
X352333Y22999D01*
X352999D01*
Y20333D01*
X350333Y19000D02*
Y18334D01*
X351000D01*
Y19000D01*
X350333D01*
X352333D02*
Y18334D01*
X352999D01*
Y19000D01*
X352333D01*
X352999Y13669D02*
X349001D01*
X351000Y15668D01*
Y13002D01*
X404501Y34498D02*
X408499D01*
Y32498D01*
X407833Y31832D01*
X405167D01*
X404501Y32498D01*
Y34498D01*
Y30499D02*
Y27833D01*
X405167D01*
X407833Y30499D01*
X408499D01*
Y27833D01*
X405833Y26500D02*
Y25834D01*
X406500D01*
Y26500D01*
X405833D01*
X407833D02*
Y25834D01*
X408499D01*
Y26500D01*
X407833D01*
X405167Y23168D02*
X404501Y22502D01*
Y21169D01*
X405167Y20502D01*
X405833D01*
X406500Y21169D01*
Y21835D01*
Y21169D01*
X407166Y20502D01*
X407833D01*
X408499Y21169D01*
Y22502D01*
X407833Y23168D01*
X404501Y78998D02*
X408499D01*
Y76998D01*
X407833Y76332D01*
X405167D01*
X404501Y76998D01*
Y78998D01*
Y74999D02*
Y72333D01*
X405167D01*
X407833Y74999D01*
X408499D01*
Y72333D01*
X405833Y71000D02*
Y70334D01*
X406500D01*
Y71000D01*
X405833D01*
X407833D02*
Y70334D01*
X408499D01*
Y71000D01*
X407833D01*
X408499Y65002D02*
Y67668D01*
X405833Y65002D01*
X405167D01*
X404501Y65669D01*
Y67002D01*
X405167Y67668D01*
X405001Y118331D02*
X408999D01*
Y116332D01*
X408333Y115665D01*
X405667D01*
X405001Y116332D01*
Y118331D01*
Y114333D02*
Y111667D01*
X405667D01*
X408333Y114333D01*
X408999D01*
Y111667D01*
X406334Y110334D02*
Y109667D01*
X407000D01*
Y110334D01*
X406334D01*
X408333D02*
Y109667D01*
X408999D01*
Y110334D01*
X408333D01*
X408999Y107002D02*
Y105669D01*
Y106335D01*
X405001D01*
X405667Y107002D01*
X177332Y191999D02*
Y188001D01*
X175333D01*
X174667Y188667D01*
Y191333D01*
X175333Y191999D01*
X177332D01*
X170668Y188001D02*
X173334D01*
X170668Y190666D01*
Y191333D01*
X171334Y191999D01*
X172667D01*
X173334Y191333D01*
X278166Y191499D02*
Y187501D01*
X276166D01*
X275500Y188167D01*
Y190833D01*
X276166Y191499D01*
X278166D01*
X274167Y187501D02*
X272834D01*
X273501D01*
Y191499D01*
X274167Y190833D01*
X552832Y58333D02*
X553498Y58999D01*
X554831D01*
X555498Y58333D01*
Y55667D01*
X554831Y55001D01*
X553498D01*
X552832Y55667D01*
X551499Y55001D02*
X549500D01*
X548833Y55667D01*
X549500Y56334D01*
X550833D01*
X551499Y57000D01*
X550833Y57666D01*
X548833D01*
X547500D02*
X546834D01*
Y57000D01*
X547500D01*
Y57666D01*
Y55667D02*
X546834D01*
Y55001D01*
X547500D01*
Y55667D01*
X541502Y55001D02*
X544168D01*
X541502Y57666D01*
Y58333D01*
X542169Y58999D01*
X543502D01*
X544168Y58333D01*
X584165Y119833D02*
X584832Y120499D01*
X586165D01*
X586831Y119833D01*
Y117167D01*
X586165Y116501D01*
X584832D01*
X584165Y117167D01*
X582833Y116501D02*
X580833D01*
X580167Y117167D01*
X580833Y117833D01*
X582166D01*
X582833Y118500D01*
X582166Y119167D01*
X580167D01*
X578834D02*
X578167D01*
Y118500D01*
X578834D01*
Y119167D01*
Y117167D02*
X578167D01*
Y116501D01*
X578834D01*
Y117167D01*
X575502Y116501D02*
X574169D01*
X574835D01*
Y120499D01*
X575502Y119833D01*
X366830Y229333D02*
X367496Y229999D01*
X368829D01*
X369496Y229333D01*
Y226667D01*
X368829Y226001D01*
X367496D01*
X366830Y226667D01*
X364830Y226001D02*
Y229333D01*
Y228000D01*
X365497D01*
X364164D01*
X364830D01*
Y229333D01*
X364164Y229999D01*
X362164Y226001D02*
X360832D01*
X361498D01*
Y228666D01*
X362164D01*
X358832Y226001D02*
X357499D01*
X358166D01*
Y229999D01*
X358832D01*
X354834Y229333D02*
Y228666D01*
X355500D01*
X354167D01*
X354834D01*
Y226667D01*
X354167Y226001D01*
X350168D02*
X351501D01*
X352168Y226667D01*
Y228000D01*
X351501Y228666D01*
X350168D01*
X349502Y228000D01*
Y227334D01*
X352168D01*
X348169Y228666D02*
Y226001D01*
Y227334D01*
X347503Y228000D01*
X346836Y228666D01*
X346170D01*
X341505Y226001D02*
X344170D01*
X341505Y228666D01*
Y229333D01*
X342171Y229999D01*
X343504D01*
X344170Y229333D01*
X300665Y142999D02*
X301332Y143666D01*
X302664D01*
X303331Y142999D01*
Y140333D01*
X302664Y139667D01*
X301332D01*
X300665Y140333D01*
X299332Y143666D02*
Y139667D01*
X297333D01*
X296666Y140333D01*
Y141000D01*
Y141666D01*
X297333Y142333D01*
X299332D01*
X295334D02*
Y140333D01*
X294667Y139667D01*
X292668D01*
Y139001D01*
X293334Y138334D01*
X294001D01*
X292668Y139667D02*
Y142333D01*
X288669Y139667D02*
X291335D01*
X288669Y142333D01*
Y142999D01*
X289335Y143666D01*
X290668D01*
X291335Y142999D01*
X299999Y156499D02*
X300665Y157166D01*
X301998D01*
X302664Y156499D01*
Y153833D01*
X301998Y153167D01*
X300665D01*
X299999Y153833D01*
X298666Y157166D02*
Y153167D01*
X296666D01*
X296000Y153833D01*
Y154500D01*
Y155166D01*
X296666Y155833D01*
X298666D01*
X294667D02*
Y153833D01*
X294001Y153167D01*
X292001D01*
Y152501D01*
X292668Y151834D01*
X293334D01*
X292001Y153167D02*
Y155833D01*
X290668Y153167D02*
X289335D01*
X290002D01*
Y157166D01*
X290668Y156499D01*
X520666Y59833D02*
X521333Y60499D01*
X522666D01*
X523332Y59833D01*
Y57167D01*
X522666Y56501D01*
X521333D01*
X520666Y57167D01*
X519334Y60499D02*
X516668D01*
Y59833D01*
X519334Y57167D01*
Y56501D01*
X376332Y44333D02*
X376998Y44999D01*
X378331D01*
X378998Y44333D01*
Y41667D01*
X378331Y41001D01*
X376998D01*
X376332Y41667D01*
X372333Y44999D02*
X373666Y44333D01*
X374999Y43000D01*
Y41667D01*
X374333Y41001D01*
X373000D01*
X372333Y41667D01*
Y42334D01*
X373000Y43000D01*
X374999D01*
X371000Y43666D02*
X370334D01*
Y43000D01*
X371000D01*
Y43666D01*
Y41667D02*
X370334D01*
Y41001D01*
X371000D01*
Y41667D01*
X367668D02*
X367002Y41001D01*
X365669D01*
X365002Y41667D01*
Y44333D01*
X365669Y44999D01*
X367002D01*
X367668Y44333D01*
Y43666D01*
X367002Y43000D01*
X365002D01*
X424332Y165833D02*
X424998Y166499D01*
X426331D01*
X426998Y165833D01*
Y163167D01*
X426331Y162501D01*
X424998D01*
X424332Y163167D01*
X420333Y166499D02*
X421666Y165833D01*
X422999Y164500D01*
Y163167D01*
X422333Y162501D01*
X421000D01*
X420333Y163167D01*
Y163833D01*
X421000Y164500D01*
X422999D01*
X419000Y165166D02*
X418334D01*
Y164500D01*
X419000D01*
Y165166D01*
Y163167D02*
X418334D01*
Y162501D01*
X419000D01*
Y163167D01*
X415668Y165833D02*
X415002Y166499D01*
X413669D01*
X413002Y165833D01*
Y165166D01*
X413669Y164500D01*
X413002Y163833D01*
Y163167D01*
X413669Y162501D01*
X415002D01*
X415668Y163167D01*
Y163833D01*
X415002Y164500D01*
X415668Y165166D01*
Y165833D01*
X415002Y164500D02*
X413669D01*
X375832Y125833D02*
X376498Y126499D01*
X377831D01*
X378498Y125833D01*
Y123167D01*
X377831Y122501D01*
X376498D01*
X375832Y123167D01*
X371833Y126499D02*
X373166Y125833D01*
X374499Y124500D01*
Y123167D01*
X373833Y122501D01*
X372500D01*
X371833Y123167D01*
Y123834D01*
X372500Y124500D01*
X374499D01*
X370500Y125166D02*
X369834D01*
Y124500D01*
X370500D01*
Y125166D01*
Y123167D02*
X369834D01*
Y122501D01*
X370500D01*
Y123167D01*
X367168Y126499D02*
X364502D01*
Y125833D01*
X367168Y123167D01*
Y122501D01*
X375332Y89333D02*
X375998Y89999D01*
X377331D01*
X377998Y89333D01*
Y86667D01*
X377331Y86001D01*
X375998D01*
X375332Y86667D01*
X371333Y89999D02*
X372666Y89333D01*
X373999Y88000D01*
Y86667D01*
X373333Y86001D01*
X372000D01*
X371333Y86667D01*
Y87334D01*
X372000Y88000D01*
X373999D01*
X370000Y88666D02*
X369334D01*
Y88000D01*
X370000D01*
Y88666D01*
Y86667D02*
X369334D01*
Y86001D01*
X370000D01*
Y86667D01*
X364002Y89999D02*
X366668D01*
Y88000D01*
X365335Y88666D01*
X364669D01*
X364002Y88000D01*
Y86667D01*
X364669Y86001D01*
X366002D01*
X366668Y86667D01*
X377332Y61333D02*
X377998Y61999D01*
X379331D01*
X379998Y61333D01*
Y58667D01*
X379331Y58001D01*
X377998D01*
X377332Y58667D01*
X373333Y61999D02*
X374666Y61333D01*
X375999Y60000D01*
Y58667D01*
X375333Y58001D01*
X374000D01*
X373333Y58667D01*
Y59334D01*
X374000Y60000D01*
X375999D01*
X372000Y60666D02*
X371334D01*
Y60000D01*
X372000D01*
Y60666D01*
Y58667D02*
X371334D01*
Y58001D01*
X372000D01*
Y58667D01*
X366669Y58001D02*
Y61999D01*
X368668Y60000D01*
X366002D01*
X433832Y40333D02*
X434498Y40999D01*
X435831D01*
X436498Y40333D01*
Y37667D01*
X435831Y37001D01*
X434498D01*
X433832Y37667D01*
X429833Y40999D02*
X431166Y40333D01*
X432499Y39000D01*
Y37667D01*
X431833Y37001D01*
X430500D01*
X429833Y37667D01*
Y38334D01*
X430500Y39000D01*
X432499D01*
X428500Y39666D02*
X427834D01*
Y39000D01*
X428500D01*
Y39666D01*
Y37667D02*
X427834D01*
Y37001D01*
X428500D01*
Y37667D01*
X425168Y40333D02*
X424502Y40999D01*
X423169D01*
X422502Y40333D01*
Y39666D01*
X423169Y39000D01*
X423835D01*
X423169D01*
X422502Y38334D01*
Y37667D01*
X423169Y37001D01*
X424502D01*
X425168Y37667D01*
X434832Y87333D02*
X435498Y87999D01*
X436831D01*
X437498Y87333D01*
Y84667D01*
X436831Y84001D01*
X435498D01*
X434832Y84667D01*
X430833Y87999D02*
X432166Y87333D01*
X433499Y86000D01*
Y84667D01*
X432833Y84001D01*
X431500D01*
X430833Y84667D01*
Y85334D01*
X431500Y86000D01*
X433499D01*
X429500Y86666D02*
X428834D01*
Y86000D01*
X429500D01*
Y86666D01*
Y84667D02*
X428834D01*
Y84001D01*
X429500D01*
Y84667D01*
X423502Y84001D02*
X426168D01*
X423502Y86666D01*
Y87333D01*
X424169Y87999D01*
X425502D01*
X426168Y87333D01*
X433666Y129833D02*
X434332Y130499D01*
X435665D01*
X436331Y129833D01*
Y127167D01*
X435665Y126501D01*
X434332D01*
X433666Y127167D01*
X429667Y130499D02*
X431000Y129833D01*
X432333Y128500D01*
Y127167D01*
X431666Y126501D01*
X430333D01*
X429667Y127167D01*
Y127833D01*
X430333Y128500D01*
X432333D01*
X428334Y129166D02*
X427667D01*
Y128500D01*
X428334D01*
Y129166D01*
Y127167D02*
X427667D01*
Y126501D01*
X428334D01*
Y127167D01*
X425002Y126501D02*
X423669D01*
X424335D01*
Y130499D01*
X425002Y129833D01*
X455332Y47833D02*
X455998Y48499D01*
X457331D01*
X457998Y47833D01*
Y45167D01*
X457331Y44501D01*
X455998D01*
X455332Y45167D01*
X453999Y47833D02*
X453333Y48499D01*
X452000D01*
X451333Y47833D01*
Y47166D01*
X452000Y46500D01*
X452666D01*
X452000D01*
X451333Y45834D01*
Y45167D01*
X452000Y44501D01*
X453333D01*
X453999Y45167D01*
X450000Y47166D02*
X449334D01*
Y46500D01*
X450000D01*
Y47166D01*
Y45167D02*
X449334D01*
Y44501D01*
X450000D01*
Y45167D01*
X446668Y47833D02*
X446002Y48499D01*
X444669D01*
X444002Y47833D01*
Y47166D01*
X444669Y46500D01*
X445335D01*
X444669D01*
X444002Y45834D01*
Y45167D01*
X444669Y44501D01*
X446002D01*
X446668Y45167D01*
X455332Y93833D02*
X455998Y94499D01*
X457331D01*
X457998Y93833D01*
Y91167D01*
X457331Y90501D01*
X455998D01*
X455332Y91167D01*
X453999Y93833D02*
X453333Y94499D01*
X452000D01*
X451333Y93833D01*
Y93166D01*
X452000Y92500D01*
X452666D01*
X452000D01*
X451333Y91834D01*
Y91167D01*
X452000Y90501D01*
X453333D01*
X453999Y91167D01*
X450000Y93166D02*
X449334D01*
Y92500D01*
X450000D01*
Y93166D01*
Y91167D02*
X449334D01*
Y90501D01*
X450000D01*
Y91167D01*
X444002Y90501D02*
X446668D01*
X444002Y93166D01*
Y93833D01*
X444669Y94499D01*
X446002D01*
X446668Y93833D01*
X453165Y136333D02*
X453832Y136999D01*
X455165D01*
X455831Y136333D01*
Y133667D01*
X455165Y133001D01*
X453832D01*
X453165Y133667D01*
X451833Y136333D02*
X451166Y136999D01*
X449833D01*
X449167Y136333D01*
Y135667D01*
X449833Y135000D01*
X450500D01*
X449833D01*
X449167Y134334D01*
Y133667D01*
X449833Y133001D01*
X451166D01*
X451833Y133667D01*
X447834Y135667D02*
X447167D01*
Y135000D01*
X447834D01*
Y135667D01*
Y133667D02*
X447167D01*
Y133001D01*
X447834D01*
Y133667D01*
X444502Y133001D02*
X443169D01*
X443835D01*
Y136999D01*
X444502Y136333D01*
X327166Y65833D02*
X327833Y66499D01*
X329166D01*
X329832Y65833D01*
Y63167D01*
X329166Y62501D01*
X327833D01*
X327166Y63167D01*
X323168Y62501D02*
X325834D01*
X323168Y65166D01*
Y65833D01*
X323834Y66499D01*
X325167D01*
X325834Y65833D01*
X421499Y246333D02*
X422165Y246999D01*
X423498D01*
X424164Y246333D01*
Y243667D01*
X423498Y243001D01*
X422165D01*
X421499Y243667D01*
X420166Y243001D02*
X418833D01*
X419499D01*
Y246999D01*
X420166Y246333D01*
X416833Y245666D02*
X416167D01*
Y245000D01*
X416833D01*
Y245666D01*
Y243667D02*
X416167D01*
Y243001D01*
X416833D01*
Y243667D01*
X410836Y246999D02*
X412168Y246333D01*
X413501Y245000D01*
Y243667D01*
X412835Y243001D01*
X411502D01*
X410836Y243667D01*
Y244334D01*
X411502Y245000D01*
X413501D01*
X407999Y235333D02*
X408665Y235999D01*
X409998D01*
X410665Y235333D01*
Y232667D01*
X409998Y232001D01*
X408665D01*
X407999Y232667D01*
X406666Y232001D02*
X405333D01*
X405999D01*
Y235999D01*
X406666Y235333D01*
X403334Y234666D02*
X402667D01*
Y234000D01*
X403334D01*
Y234666D01*
Y232667D02*
X402667D01*
Y232001D01*
X403334D01*
Y232667D01*
X397336Y235999D02*
X400001D01*
Y234000D01*
X398668Y234666D01*
X398002D01*
X397336Y234000D01*
Y232667D01*
X398002Y232001D01*
X399335D01*
X400001Y232667D01*
X400499Y225333D02*
X401165Y225999D01*
X402498D01*
X403164Y225333D01*
Y222667D01*
X402498Y222001D01*
X401165D01*
X400499Y222667D01*
X399166Y222001D02*
X397833D01*
X398499D01*
Y225999D01*
X399166Y225333D01*
X395833Y224666D02*
X395167D01*
Y224000D01*
X395833D01*
Y224666D01*
Y222667D02*
X395167D01*
Y222001D01*
X395833D01*
Y222667D01*
X390502Y222001D02*
Y225999D01*
X392501Y224000D01*
X389836D01*
X492999Y242333D02*
X493665Y242999D01*
X494998D01*
X495665Y242333D01*
Y239667D01*
X494998Y239001D01*
X493665D01*
X492999Y239667D01*
X491666Y239001D02*
X490333D01*
X490999D01*
Y242999D01*
X491666Y242333D01*
X488334Y241666D02*
X487667D01*
Y241000D01*
X488334D01*
Y241666D01*
Y239667D02*
X487667D01*
Y239001D01*
X488334D01*
Y239667D01*
X485001Y242333D02*
X484335Y242999D01*
X483002D01*
X482336Y242333D01*
Y241666D01*
X483002Y241000D01*
X483668D01*
X483002D01*
X482336Y240334D01*
Y239667D01*
X483002Y239001D01*
X484335D01*
X485001Y239667D01*
X478999Y234833D02*
X479665Y235499D01*
X480998D01*
X481665Y234833D01*
Y232167D01*
X480998Y231501D01*
X479665D01*
X478999Y232167D01*
X477666Y231501D02*
X476333D01*
X476999D01*
Y235499D01*
X477666Y234833D01*
X474333Y234166D02*
X473667D01*
Y233500D01*
X474333D01*
Y234166D01*
Y232167D02*
X473667D01*
Y231501D01*
X474333D01*
Y232167D01*
X468335Y231501D02*
X471001D01*
X468335Y234166D01*
Y234833D01*
X469002Y235499D01*
X470335D01*
X471001Y234833D01*
X470832Y224333D02*
X471499Y224999D01*
X472832D01*
X473498Y224333D01*
Y221667D01*
X472832Y221001D01*
X471499D01*
X470832Y221667D01*
X469499Y221001D02*
X468166D01*
X468833D01*
Y224999D01*
X469499Y224333D01*
X466167Y223666D02*
X465501D01*
Y223000D01*
X466167D01*
Y223666D01*
Y221667D02*
X465501D01*
Y221001D01*
X466167D01*
Y221667D01*
X462835Y221001D02*
X461502D01*
X462168D01*
Y224999D01*
X462835Y224333D01*
D15*
X205500Y285188D02*
X208499D01*
Y286687D01*
X207999Y287187D01*
X206999D01*
X206500Y286687D01*
Y285188D01*
X205500Y288187D02*
Y289187D01*
Y288687D01*
X208499D01*
X207999Y288187D01*
X205500Y292686D02*
Y290686D01*
X207499Y292686D01*
X207999D01*
X208499Y292186D01*
Y291186D01*
X207999Y290686D01*
X208345Y300239D02*
Y302238D01*
X207845D01*
X205845Y300239D01*
X205346D01*
Y303238D02*
Y304238D01*
Y303738D01*
X208345D01*
X207845Y303238D01*
X308804Y274687D02*
X309304Y274187D01*
Y273188D01*
X308804Y272688D01*
X306805D01*
X306305Y273188D01*
Y274187D01*
X306805Y274687D01*
X307805D01*
Y273688D01*
X306305Y275687D02*
X309304D01*
X306305Y277686D01*
X309304D01*
Y278686D02*
X306305D01*
Y280186D01*
X306805Y280685D01*
X308804D01*
X309304Y280186D01*
Y278686D01*
X559304Y274687D02*
X559804Y274187D01*
Y273188D01*
X559304Y272688D01*
X557305D01*
X556805Y273188D01*
Y274187D01*
X557305Y274687D01*
X558305D01*
Y273688D01*
X556805Y275687D02*
X559804D01*
X556805Y277686D01*
X559804D01*
Y278686D02*
X556805D01*
Y280186D01*
X557305Y280685D01*
X559304D01*
X559804Y280186D01*
Y278686D01*
X559499Y482497D02*
X559999Y482997D01*
Y483997D01*
X559499Y484496D01*
X558999D01*
X558499Y483997D01*
Y483497D01*
Y483997D01*
X558000Y484496D01*
X557500D01*
X557000Y483997D01*
Y482997D01*
X557500Y482497D01*
X559999Y485496D02*
X558000D01*
X557000Y486496D01*
X558000Y487496D01*
X559999D01*
X559499Y488495D02*
X559999Y488995D01*
Y489995D01*
X559499Y490494D01*
X558999D01*
X558499Y489995D01*
Y489495D01*
Y489995D01*
X558000Y490494D01*
X557500D01*
X557000Y489995D01*
Y488995D01*
X557500Y488495D01*
X559304Y448158D02*
Y446159D01*
X557805D01*
X558305Y447159D01*
Y447659D01*
X557805Y448158D01*
X556805D01*
X556305Y447659D01*
Y446659D01*
X556805Y446159D01*
X559304Y449158D02*
X557305D01*
X556305Y450158D01*
X557305Y451158D01*
X559304D01*
X548999Y445159D02*
X549499Y444660D01*
Y443660D01*
X548999Y443160D01*
X547000D01*
X546500Y443660D01*
Y444660D01*
X547000Y445159D01*
X547999D01*
Y444160D01*
X546500Y446159D02*
X549499D01*
X546500Y448158D01*
X549499D01*
Y449158D02*
X546500D01*
Y450658D01*
X547000Y451158D01*
X548999D01*
X549499Y450658D01*
Y449158D01*
X309499Y482497D02*
X309999Y482997D01*
Y483997D01*
X309499Y484496D01*
X308999D01*
X308500Y483997D01*
Y483497D01*
Y483997D01*
X308000Y484496D01*
X307500D01*
X307000Y483997D01*
Y482997D01*
X307500Y482497D01*
X309999Y485496D02*
X308000D01*
X307000Y486496D01*
X308000Y487496D01*
X309999D01*
X309499Y488495D02*
X309999Y488995D01*
Y489995D01*
X309499Y490494D01*
X308999D01*
X308500Y489995D01*
Y489495D01*
Y489995D01*
X308000Y490494D01*
X307500D01*
X307000Y489995D01*
Y488995D01*
X307500Y488495D01*
X309304Y448158D02*
Y446159D01*
X307805D01*
X308305Y447159D01*
Y447659D01*
X307805Y448158D01*
X306805D01*
X306305Y447659D01*
Y446659D01*
X306805Y446159D01*
X309304Y449158D02*
X307305D01*
X306305Y450158D01*
X307305Y451158D01*
X309304D01*
X298999Y445159D02*
X299499Y444660D01*
Y443660D01*
X298999Y443160D01*
X297000D01*
X296500Y443660D01*
Y444660D01*
X297000Y445159D01*
X298000D01*
Y444160D01*
X296500Y446159D02*
X299499D01*
X296500Y448158D01*
X299499D01*
Y449158D02*
X296500D01*
Y450658D01*
X297000Y451158D01*
X298999D01*
X299499Y450658D01*
Y449158D01*
X567500Y471500D02*
Y472500D01*
Y472000D01*
X570499D01*
X569999Y471500D01*
X567500Y462499D02*
Y460500D01*
X569499Y462499D01*
X569999D01*
X570499Y462000D01*
Y461000D01*
X569999Y460500D01*
X567500Y463499D02*
Y464499D01*
Y463999D01*
X570499D01*
X569999Y463499D01*
X456500Y470000D02*
Y471000D01*
Y470500D01*
X459499D01*
X458999Y470000D01*
Y472499D02*
X459499Y472999D01*
Y473999D01*
X458999Y474499D01*
X457000D01*
X456500Y473999D01*
Y472999D01*
X457000Y472499D01*
X458999D01*
Y459000D02*
X459499Y459500D01*
Y460499D01*
X458999Y460999D01*
X458499D01*
X458000Y460499D01*
Y460000D01*
Y460499D01*
X457500Y460999D01*
X457000D01*
X456500Y460499D01*
Y459500D01*
X457000Y459000D01*
X458999Y461999D02*
X459499Y462499D01*
Y463498D01*
X458999Y463998D01*
X457000D01*
X456500Y463498D01*
Y462499D01*
X457000Y461999D01*
X458999D01*
X568305Y291499D02*
Y289500D01*
X570305Y291499D01*
X570804D01*
X571304Y291000D01*
Y290000D01*
X570804Y289500D01*
Y292499D02*
X571304Y292999D01*
Y293999D01*
X570804Y294498D01*
X568805D01*
X568305Y293999D01*
Y292999D01*
X568805Y292499D01*
X570804D01*
X568305Y300500D02*
X571304D01*
X569805Y299000D01*
Y300999D01*
X570804Y301999D02*
X571304Y302499D01*
Y303499D01*
X570804Y303998D01*
X568805D01*
X568305Y303499D01*
Y302499D01*
X568805Y301999D01*
X570804D01*
X457000Y290000D02*
Y291000D01*
Y290500D01*
X459999D01*
X459499Y290000D01*
X457000Y292499D02*
Y293499D01*
Y292999D01*
X459999D01*
X459499Y292499D01*
Y300000D02*
X459999Y300500D01*
Y301500D01*
X459499Y301999D01*
X458999D01*
X458499Y301500D01*
Y301000D01*
Y301500D01*
X458000Y301999D01*
X457500D01*
X457000Y301500D01*
Y300500D01*
X457500Y300000D01*
X457000Y302999D02*
Y303999D01*
Y303499D01*
X459999D01*
X459499Y302999D01*
X209999Y460000D02*
Y461999D01*
X209499D01*
X207500Y460000D01*
X207000D01*
X209499Y462999D02*
X209999Y463499D01*
Y464499D01*
X209499Y464998D01*
X207500D01*
X207000Y464499D01*
Y463499D01*
X207500Y462999D01*
X209499D01*
X209999Y471999D02*
Y470000D01*
X208500D01*
X208999Y471000D01*
Y471499D01*
X208500Y471999D01*
X207500D01*
X207000Y471499D01*
Y470500D01*
X207500Y470000D01*
X209499Y472999D02*
X209999Y473499D01*
Y474499D01*
X209499Y474998D01*
X207500D01*
X207000Y474499D01*
Y473499D01*
X207500Y472999D01*
X209499D01*
X320999Y461999D02*
X320499Y461000D01*
X319499Y460000D01*
X318500D01*
X318000Y460500D01*
Y461500D01*
X318500Y461999D01*
X319000D01*
X319499Y461500D01*
Y460000D01*
X318000Y462999D02*
Y463999D01*
Y463499D01*
X320999D01*
X320499Y462999D01*
X318000Y470500D02*
X320999D01*
X319499Y469000D01*
Y470999D01*
X318000Y471999D02*
Y472999D01*
Y472499D01*
X320999D01*
X320499Y471999D01*
X219999Y315016D02*
Y317016D01*
X219499D01*
X217500Y315016D01*
X217000D01*
Y318015D02*
Y319015D01*
Y318515D01*
X219999D01*
X219499Y318015D01*
X320499Y300000D02*
X320999Y300500D01*
Y301500D01*
X320499Y301999D01*
X319999D01*
X319499Y301500D01*
X319000Y301999D01*
X318500D01*
X318000Y301500D01*
Y300500D01*
X318500Y300000D01*
X319000D01*
X319499Y300500D01*
X319999Y300000D01*
X320499D01*
X319499Y300500D02*
Y301500D01*
X320499Y302999D02*
X320999Y303499D01*
Y304499D01*
X320499Y304998D01*
X318500D01*
X318000Y304499D01*
Y303499D01*
X318500Y302999D01*
X320499D01*
X320999Y290999D02*
X320499Y290000D01*
X319499Y289000D01*
X318500D01*
X318000Y289500D01*
Y290499D01*
X318500Y290999D01*
X319000D01*
X319499Y290499D01*
Y289000D01*
X320499Y291999D02*
X320999Y292499D01*
Y293498D01*
X320499Y293998D01*
X318500D01*
X318000Y293498D01*
Y292499D01*
X318500Y291999D01*
X320499D01*
X546000Y272688D02*
X548999D01*
Y274187D01*
X548499Y274687D01*
X547500D01*
X547000Y274187D01*
Y272688D01*
X548999Y277686D02*
Y275687D01*
X547500D01*
X547999Y276687D01*
Y277186D01*
X547500Y277686D01*
X546500D01*
X546000Y277186D01*
Y276187D01*
X546500Y275687D01*
X548999Y278686D02*
Y280685D01*
X548499D01*
X546500Y278686D01*
X546000D01*
X536500Y275687D02*
X539499D01*
X536500Y277686D01*
X539499D01*
X538999Y280685D02*
X539499Y280186D01*
Y279186D01*
X538999Y278686D01*
X537000D01*
X536500Y279186D01*
Y280186D01*
X537000Y280685D01*
X526000Y275687D02*
X528999D01*
X526000Y277686D01*
X528999D01*
X528499Y280685D02*
X528999Y280186D01*
Y279186D01*
X528499Y278686D01*
X526500D01*
X526000Y279186D01*
Y280186D01*
X526500Y280685D01*
X518999Y272688D02*
X516000Y274687D01*
X518999D02*
X516000Y272688D01*
Y275687D02*
X518999D01*
Y277186D01*
X518499Y277686D01*
X517499D01*
X517000Y277186D01*
Y275687D01*
Y276687D02*
X516000Y277686D01*
X518499Y280685D02*
X518999Y280186D01*
Y279186D01*
X518499Y278686D01*
X517999D01*
X517499Y279186D01*
Y280186D01*
X517000Y280685D01*
X516500D01*
X516000Y280186D01*
Y279186D01*
X516500Y278686D01*
X516000Y281685D02*
X517999D01*
Y283185D01*
X517499Y283684D01*
X516000D01*
X506000Y272688D02*
X508999D01*
Y274187D01*
X508499Y274687D01*
X507500D01*
X507000Y274187D01*
Y272688D01*
X506000Y275687D02*
Y276687D01*
Y276187D01*
X508999D01*
X508499Y275687D01*
X508999Y280186D02*
X508499Y279186D01*
X507500Y278186D01*
X506500D01*
X506000Y278686D01*
Y279686D01*
X506500Y280186D01*
X507000D01*
X507500Y279686D01*
Y278186D01*
X496000Y272688D02*
X498999D01*
Y274187D01*
X498499Y274687D01*
X497500D01*
X497000Y274187D01*
Y272688D01*
X496000Y275687D02*
Y276687D01*
Y276187D01*
X498999D01*
X498499Y275687D01*
X498999Y278186D02*
Y280186D01*
X498499D01*
X496500Y278186D01*
X496000D01*
X486000Y272688D02*
X488999D01*
Y274187D01*
X488499Y274687D01*
X487500D01*
X487000Y274187D01*
Y272688D01*
X488499Y275687D02*
X488999Y276187D01*
Y277186D01*
X488499Y277686D01*
X487999D01*
X487500Y277186D01*
Y276687D01*
Y277186D01*
X487000Y277686D01*
X486500D01*
X486000Y277186D01*
Y276187D01*
X486500Y275687D01*
Y278686D02*
X486000Y279186D01*
Y280186D01*
X486500Y280685D01*
X488499D01*
X488999Y280186D01*
Y279186D01*
X488499Y278686D01*
X487999D01*
X487500Y279186D01*
Y280685D01*
X476000Y272688D02*
X478999D01*
Y274187D01*
X478499Y274687D01*
X477499D01*
X477000Y274187D01*
Y272688D01*
X476000Y277686D02*
Y275687D01*
X477999Y277686D01*
X478499D01*
X478999Y277186D01*
Y276187D01*
X478499Y275687D01*
Y278686D02*
X478999Y279186D01*
Y280186D01*
X478499Y280685D01*
X477999D01*
X477499Y280186D01*
Y279686D01*
Y280186D01*
X477000Y280685D01*
X476500D01*
X476000Y280186D01*
Y279186D01*
X476500Y278686D01*
X466000Y272688D02*
X468999D01*
Y274187D01*
X468499Y274687D01*
X467499D01*
X467000Y274187D01*
Y272688D01*
X468999Y277686D02*
Y275687D01*
X467499D01*
X467999Y276687D01*
Y277186D01*
X467499Y277686D01*
X466500D01*
X466000Y277186D01*
Y276187D01*
X466500Y275687D01*
Y278686D02*
X466000Y279186D01*
Y280186D01*
X466500Y280685D01*
X468499D01*
X468999Y280186D01*
Y279186D01*
X468499Y278686D01*
X467999D01*
X467499Y279186D01*
Y280685D01*
X556000Y311517D02*
X558999D01*
Y313017D01*
X558499Y313517D01*
X557500D01*
X557000Y313017D01*
Y311517D01*
X556000Y314516D02*
Y315516D01*
Y315016D01*
X558999D01*
X558499Y314516D01*
Y317016D02*
X558999Y317515D01*
Y318515D01*
X558499Y319015D01*
X556500D01*
X556000Y318515D01*
Y317515D01*
X556500Y317016D01*
X558499D01*
X546500Y312517D02*
X549499D01*
Y314017D01*
X548999Y314516D01*
X547999D01*
X547500Y314017D01*
Y312517D01*
X546500Y315516D02*
Y316516D01*
Y316016D01*
X549499D01*
X548999Y315516D01*
X546500Y318015D02*
Y319015D01*
Y318515D01*
X549499D01*
X548999Y318015D01*
X536500Y311017D02*
X539499D01*
Y312517D01*
X538999Y313017D01*
X537999D01*
X537500Y312517D01*
Y311017D01*
X538999Y314017D02*
X539499Y314516D01*
Y315516D01*
X538999Y316016D01*
X537000D01*
X536500Y315516D01*
Y314516D01*
X537000Y314017D01*
X538999D01*
Y317016D02*
X539499Y317515D01*
Y318515D01*
X538999Y319015D01*
X538499D01*
X537999Y318515D01*
X537500Y319015D01*
X537000D01*
X536500Y318515D01*
Y317515D01*
X537000Y317016D01*
X537500D01*
X537999Y317515D01*
X538499Y317016D01*
X538999D01*
X537999Y317515D02*
Y318515D01*
X526000Y311017D02*
X528999D01*
Y312517D01*
X528499Y313017D01*
X527499D01*
X527000Y312517D01*
Y311017D01*
X528499Y314017D02*
X528999Y314516D01*
Y315516D01*
X528499Y316016D01*
X526500D01*
X526000Y315516D01*
Y314516D01*
X526500Y314017D01*
X528499D01*
X526500Y317016D02*
X526000Y317515D01*
Y318515D01*
X526500Y319015D01*
X528499D01*
X528999Y318515D01*
Y317515D01*
X528499Y317016D01*
X527999D01*
X527499Y317515D01*
Y319015D01*
X516000Y311017D02*
X518999D01*
Y312517D01*
X518499Y313017D01*
X517499D01*
X517000Y312517D01*
Y311017D01*
X518499Y314017D02*
X518999Y314516D01*
Y315516D01*
X518499Y316016D01*
X516500D01*
X516000Y315516D01*
Y314516D01*
X516500Y314017D01*
X518499D01*
X516000Y318515D02*
X518999D01*
X517499Y317016D01*
Y319015D01*
X506000Y311017D02*
X508999D01*
Y312517D01*
X508499Y313017D01*
X507500D01*
X507000Y312517D01*
Y311017D01*
X508499Y314017D02*
X508999Y314516D01*
Y315516D01*
X508499Y316016D01*
X506500D01*
X506000Y315516D01*
Y314516D01*
X506500Y314017D01*
X508499D01*
X508999Y319015D02*
Y317016D01*
X507500D01*
X507999Y318015D01*
Y318515D01*
X507500Y319015D01*
X506500D01*
X506000Y318515D01*
Y317515D01*
X506500Y317016D01*
X496000Y311017D02*
X498999D01*
Y312517D01*
X498499Y313017D01*
X497500D01*
X497000Y312517D01*
Y311017D01*
X498999Y316016D02*
Y314017D01*
X497500D01*
X497999Y315016D01*
Y315516D01*
X497500Y316016D01*
X496500D01*
X496000Y315516D01*
Y314516D01*
X496500Y314017D01*
X498499Y317016D02*
X498999Y317515D01*
Y318515D01*
X498499Y319015D01*
X497999D01*
X497500Y318515D01*
X497000Y319015D01*
X496500D01*
X496000Y318515D01*
Y317515D01*
X496500Y317016D01*
X497000D01*
X497500Y317515D01*
X497999Y317016D01*
X498499D01*
X497500Y317515D02*
Y318515D01*
X486000Y311017D02*
X488999D01*
Y312517D01*
X488499Y313017D01*
X487500D01*
X487000Y312517D01*
Y311017D01*
X488499Y314017D02*
X488999Y314516D01*
Y315516D01*
X488499Y316016D01*
X487999D01*
X487500Y315516D01*
Y315016D01*
Y315516D01*
X487000Y316016D01*
X486500D01*
X486000Y315516D01*
Y314516D01*
X486500Y314017D01*
X488499Y317016D02*
X488999Y317515D01*
Y318515D01*
X488499Y319015D01*
X486500D01*
X486000Y318515D01*
Y317515D01*
X486500Y317016D01*
X488499D01*
X476000Y311517D02*
X478999D01*
Y313017D01*
X478499Y313517D01*
X477499D01*
X477000Y313017D01*
Y311517D01*
X476000Y314516D02*
Y315516D01*
Y315016D01*
X478999D01*
X478499Y314516D01*
Y317016D02*
X478999Y317515D01*
Y318515D01*
X478499Y319015D01*
X477999D01*
X477499Y318515D01*
X477000Y319015D01*
X476500D01*
X476000Y318515D01*
Y317515D01*
X476500Y317016D01*
X477000D01*
X477499Y317515D01*
X477999Y317016D01*
X478499D01*
X477499Y317515D02*
Y318515D01*
X466000Y311017D02*
X468999D01*
Y312517D01*
X468499Y313017D01*
X467499D01*
X467000Y312517D01*
Y311017D01*
X466000Y316016D02*
Y314017D01*
X467999Y316016D01*
X468499D01*
X468999Y315516D01*
Y314516D01*
X468499Y314017D01*
X468999Y319015D02*
Y317016D01*
X467499D01*
X467999Y318015D01*
Y318515D01*
X467499Y319015D01*
X466500D01*
X466000Y318515D01*
Y317515D01*
X466500Y317016D01*
X226366Y311517D02*
X229365D01*
Y313017D01*
X228865Y313517D01*
X227865D01*
X227365Y313017D01*
Y311517D01*
X226366Y314516D02*
Y315516D01*
Y315016D01*
X229365D01*
X228865Y314516D01*
X226366Y318515D02*
X229365D01*
X227865Y317016D01*
Y319015D01*
X236366Y311517D02*
X239365D01*
Y313017D01*
X238865Y313517D01*
X237865D01*
X237365Y313017D01*
Y311517D01*
X236366Y314516D02*
Y315516D01*
Y315016D01*
X239365D01*
X238865Y314516D01*
X239365Y319015D02*
Y317016D01*
X237865D01*
X238365Y318015D01*
Y318515D01*
X237865Y319015D01*
X236865D01*
X236366Y318515D01*
Y317515D01*
X236865Y317016D01*
X246366Y311017D02*
X249365D01*
Y312517D01*
X248865Y313017D01*
X247865D01*
X247365Y312517D01*
Y311017D01*
X246366Y316016D02*
Y314017D01*
X248365Y316016D01*
X248865D01*
X249365Y315516D01*
Y314516D01*
X248865Y314017D01*
X249365Y319015D02*
X248865Y318015D01*
X247865Y317016D01*
X246865D01*
X246366Y317515D01*
Y318515D01*
X246865Y319015D01*
X247365D01*
X247865Y318515D01*
Y317016D01*
X256366Y311017D02*
X259365D01*
Y312517D01*
X258865Y313017D01*
X257865D01*
X257365Y312517D01*
Y311017D01*
X258865Y314017D02*
X259365Y314516D01*
Y315516D01*
X258865Y316016D01*
X256865D01*
X256366Y315516D01*
Y314516D01*
X256865Y314017D01*
X258865D01*
Y317016D02*
X259365Y317515D01*
Y318515D01*
X258865Y319015D01*
X258365D01*
X257865Y318515D01*
Y318015D01*
Y318515D01*
X257365Y319015D01*
X256865D01*
X256366Y318515D01*
Y317515D01*
X256865Y317016D01*
X266366Y311017D02*
X269365D01*
Y312517D01*
X268865Y313017D01*
X267865D01*
X267365Y312517D01*
Y311017D01*
X268865Y314017D02*
X269365Y314516D01*
Y315516D01*
X268865Y316016D01*
X266865D01*
X266366Y315516D01*
Y314516D01*
X266865Y314017D01*
X268865D01*
X266366Y319015D02*
Y317016D01*
X268365Y319015D01*
X268865D01*
X269365Y318515D01*
Y317515D01*
X268865Y317016D01*
X275866Y311017D02*
X278865D01*
Y312517D01*
X278365Y313017D01*
X277365D01*
X276865Y312517D01*
Y311017D01*
X278365Y314017D02*
X278865Y314516D01*
Y315516D01*
X278365Y316016D01*
X276365D01*
X275866Y315516D01*
Y314516D01*
X276365Y314017D01*
X278365D01*
X278865Y317016D02*
Y319015D01*
X278365D01*
X276365Y317016D01*
X275866D01*
X286366Y311017D02*
X289365D01*
Y312517D01*
X288865Y313017D01*
X287865D01*
X287365Y312517D01*
Y311017D01*
X288865Y314017D02*
X289365Y314516D01*
Y315516D01*
X288865Y316016D01*
X286865D01*
X286366Y315516D01*
Y314516D01*
X286865Y314017D01*
X288865D01*
X289365Y319015D02*
X288865Y318015D01*
X287865Y317016D01*
X286865D01*
X286366Y317515D01*
Y318515D01*
X286865Y319015D01*
X287365D01*
X287865Y318515D01*
Y317016D01*
X296366Y312017D02*
X299365D01*
Y313517D01*
X298865Y314017D01*
X297865D01*
X297365Y313517D01*
Y312017D01*
X298865Y315016D02*
X299365Y315516D01*
Y316516D01*
X298865Y317016D01*
X296865D01*
X296366Y316516D01*
Y315516D01*
X296865Y315016D01*
X298865D01*
X296366Y318015D02*
Y319015D01*
Y318515D01*
X299365D01*
X298865Y318015D01*
X306866Y311017D02*
X309865D01*
Y312517D01*
X309365Y313017D01*
X308365D01*
X307865Y312517D01*
Y311017D01*
X309365Y314017D02*
X309865Y314516D01*
Y315516D01*
X309365Y316016D01*
X307365D01*
X306866Y315516D01*
Y314516D01*
X307365Y314017D01*
X309365D01*
Y317016D02*
X309865Y317515D01*
Y318515D01*
X309365Y319015D01*
X307365D01*
X306866Y318515D01*
Y317515D01*
X307365Y317016D01*
X309365D01*
X216000Y272688D02*
X218999D01*
Y274187D01*
X218499Y274687D01*
X217499D01*
X217000Y274187D01*
Y272688D01*
X216000Y275687D02*
Y276687D01*
Y276187D01*
X218999D01*
X218499Y275687D01*
X216000Y280186D02*
Y278186D01*
X217999Y280186D01*
X218499D01*
X218999Y279686D01*
Y278686D01*
X218499Y278186D01*
X226000Y272688D02*
X228999D01*
Y274187D01*
X228499Y274687D01*
X227500D01*
X227000Y274187D01*
Y272688D01*
X228499Y275687D02*
X228999Y276187D01*
Y277186D01*
X228499Y277686D01*
X227999D01*
X227500Y277186D01*
Y276687D01*
Y277186D01*
X227000Y277686D01*
X226500D01*
X226000Y277186D01*
Y276187D01*
X226500Y275687D01*
X226000Y280186D02*
X228999D01*
X227500Y278686D01*
Y280685D01*
X236000Y272688D02*
X238999D01*
Y274187D01*
X238499Y274687D01*
X237499D01*
X237000Y274187D01*
Y272688D01*
X238499Y275687D02*
X238999Y276187D01*
Y277186D01*
X238499Y277686D01*
X237999D01*
X237499Y277186D01*
Y276687D01*
Y277186D01*
X237000Y277686D01*
X236500D01*
X236000Y277186D01*
Y276187D01*
X236500Y275687D01*
X238499Y278686D02*
X238999Y279186D01*
Y280186D01*
X238499Y280685D01*
X237999D01*
X237499Y280186D01*
Y279686D01*
Y280186D01*
X237000Y280685D01*
X236500D01*
X236000Y280186D01*
Y279186D01*
X236500Y278686D01*
X246000Y272688D02*
X248999D01*
Y274187D01*
X248499Y274687D01*
X247499D01*
X247000Y274187D01*
Y272688D01*
X248499Y275687D02*
X248999Y276187D01*
Y277186D01*
X248499Y277686D01*
X247999D01*
X247499Y277186D01*
Y276687D01*
Y277186D01*
X247000Y277686D01*
X246500D01*
X246000Y277186D01*
Y276187D01*
X246500Y275687D01*
X246000Y278686D02*
Y279686D01*
Y279186D01*
X248999D01*
X248499Y278686D01*
X256000Y272688D02*
X258999D01*
Y274187D01*
X258499Y274687D01*
X257500D01*
X257000Y274187D01*
Y272688D01*
X256000Y277686D02*
Y275687D01*
X257999Y277686D01*
X258499D01*
X258999Y277186D01*
Y276187D01*
X258499Y275687D01*
X256000Y280186D02*
X258999D01*
X257500Y278686D01*
Y280685D01*
X268999Y272688D02*
X266000Y274687D01*
X268999D02*
X266000Y272688D01*
Y275687D02*
X268999D01*
Y277186D01*
X268499Y277686D01*
X267499D01*
X267000Y277186D01*
Y275687D01*
Y276687D02*
X266000Y277686D01*
X268499Y280685D02*
X268999Y280186D01*
Y279186D01*
X268499Y278686D01*
X267999D01*
X267499Y279186D01*
Y280186D01*
X267000Y280685D01*
X266500D01*
X266000Y280186D01*
Y279186D01*
X266500Y278686D01*
X266000Y281685D02*
X267999D01*
Y283185D01*
X267499Y283684D01*
X266000D01*
X276000Y275687D02*
X278999D01*
X276000Y277686D01*
X278999D01*
X278499Y280685D02*
X278999Y280186D01*
Y279186D01*
X278499Y278686D01*
X276500D01*
X276000Y279186D01*
Y280186D01*
X276500Y280685D01*
X286000Y275687D02*
X288999D01*
X286000Y277686D01*
X288999D01*
X288499Y280685D02*
X288999Y280186D01*
Y279186D01*
X288499Y278686D01*
X286500D01*
X286000Y279186D01*
Y280186D01*
X286500Y280685D01*
X296000Y272688D02*
X298999D01*
Y274187D01*
X298499Y274687D01*
X297499D01*
X297000Y274187D01*
Y272688D01*
X296000Y277686D02*
Y275687D01*
X297999Y277686D01*
X298499D01*
X298999Y277186D01*
Y276187D01*
X298499Y275687D01*
X298999Y278686D02*
Y280685D01*
X298499D01*
X296500Y278686D01*
X296000D01*
X286000Y443160D02*
X287999D01*
X288999Y444160D01*
X287999Y445159D01*
X286000D01*
X287499D01*
Y443160D01*
X286000Y446159D02*
X287999D01*
X288999Y447159D01*
X287999Y448158D01*
X286000D01*
X287499D01*
Y446159D01*
X288999Y451158D02*
X288499Y450158D01*
X287499Y449158D01*
X286500D01*
X286000Y449658D01*
Y450658D01*
X286500Y451158D01*
X287000D01*
X287499Y450658D01*
Y449158D01*
X256000Y444160D02*
X257999D01*
X258999Y445159D01*
X257999Y446159D01*
X256000D01*
X257500D01*
Y444160D01*
X258499Y449158D02*
X258999Y448658D01*
Y447659D01*
X258499Y447159D01*
X256500D01*
X256000Y447659D01*
Y448658D01*
X256500Y449158D01*
X256000Y450158D02*
Y451158D01*
Y450658D01*
X258999D01*
X258499Y450158D01*
X211000Y428165D02*
X212999D01*
X213999Y429165D01*
X212999Y430164D01*
X211000D01*
X212499D01*
Y428165D01*
X211000Y431164D02*
X212999D01*
X213999Y432164D01*
X212999Y433163D01*
X211000D01*
X212499D01*
Y431164D01*
X213499Y434163D02*
X213999Y434663D01*
Y435663D01*
X213499Y436162D01*
X211500D01*
X211000Y435663D01*
Y434663D01*
X211500Y434163D01*
X213499D01*
X211000Y437162D02*
X212999Y439161D01*
X213999Y440161D02*
X211000D01*
Y441661D01*
X211500Y442160D01*
X213499D01*
X213999Y441661D01*
Y440161D01*
X211000Y443160D02*
X212999D01*
X213999Y444160D01*
X212999Y445159D01*
X211000D01*
X212499D01*
Y443160D01*
X213499Y448158D02*
X213999Y447659D01*
Y446659D01*
X213499Y446159D01*
X211500D01*
X211000Y446659D01*
Y447659D01*
X211500Y448158D01*
X211000Y449158D02*
X212999D01*
X213999Y450158D01*
X212999Y451158D01*
X211000D01*
X212499D01*
Y449158D01*
X296000Y479500D02*
X298999D01*
Y481000D01*
X298499Y481499D01*
X297499D01*
X297000Y481000D01*
Y479500D01*
X298499Y484498D02*
X298999Y483998D01*
Y482999D01*
X298499Y482499D01*
X296500D01*
X296000Y482999D01*
Y483998D01*
X296500Y484498D01*
X297499D01*
Y483499D01*
X296000Y485498D02*
X297999D01*
X298999Y486498D01*
X297999Y487497D01*
X296000D01*
X297499D01*
Y485498D01*
X298499Y490496D02*
X298999Y489997D01*
Y488997D01*
X298499Y488497D01*
X296500D01*
X296000Y488997D01*
Y489997D01*
X296500Y490496D01*
X297499D01*
Y489497D01*
X296000Y491496D02*
X298999D01*
X296000Y493496D01*
X298999D01*
Y494495D02*
X296000D01*
Y495995D01*
X296500Y496494D01*
X298499D01*
X298999Y495995D01*
Y494495D01*
X286500Y482497D02*
X289499D01*
Y483997D01*
X288999Y484496D01*
X288000D01*
X287500Y483997D01*
Y482497D01*
X286500Y487496D02*
Y485496D01*
X288499Y487496D01*
X288999D01*
X289499Y486996D01*
Y485996D01*
X288999Y485496D01*
Y488495D02*
X289499Y488995D01*
Y489995D01*
X288999Y490494D01*
X288499D01*
X288000Y489995D01*
X287500Y490494D01*
X287000D01*
X286500Y489995D01*
Y488995D01*
X287000Y488495D01*
X287500D01*
X288000Y488995D01*
X288499Y488495D01*
X288999D01*
X288000Y488995D02*
Y489995D01*
X276500Y482497D02*
X279499D01*
Y483997D01*
X278999Y484496D01*
X277999D01*
X277500Y483997D01*
Y482497D01*
X276500Y487496D02*
Y485496D01*
X278499Y487496D01*
X278999D01*
X279499Y486996D01*
Y485996D01*
X278999Y485496D01*
X277000Y488495D02*
X276500Y488995D01*
Y489995D01*
X277000Y490494D01*
X278999D01*
X279499Y489995D01*
Y488995D01*
X278999Y488495D01*
X278499D01*
X277999Y488995D01*
Y490494D01*
X246500Y482497D02*
X249499D01*
Y483997D01*
X248999Y484496D01*
X248000D01*
X247500Y483997D01*
Y482497D01*
X246500Y487496D02*
Y485496D01*
X248499Y487496D01*
X248999D01*
X249499Y486996D01*
Y485996D01*
X248999Y485496D01*
X246500Y490494D02*
Y488495D01*
X248499Y490494D01*
X248999D01*
X249499Y489995D01*
Y488995D01*
X248999Y488495D01*
X226500Y485496D02*
X229499D01*
X226500Y487496D01*
X229499D01*
X228999Y490494D02*
X229499Y489995D01*
Y488995D01*
X228999Y488495D01*
X227000D01*
X226500Y488995D01*
Y489995D01*
X227000Y490494D01*
X216500Y485496D02*
X219499D01*
X216500Y487496D01*
X219499D01*
X218999Y490494D02*
X219499Y489995D01*
Y488995D01*
X218999Y488495D01*
X217000D01*
X216500Y488995D01*
Y489995D01*
X217000Y490494D01*
X466500Y482497D02*
X469499D01*
Y483997D01*
X468999Y484496D01*
X468000D01*
X467500Y483997D01*
Y482497D01*
X468999Y485496D02*
X469499Y485996D01*
Y486996D01*
X468999Y487496D01*
X468499D01*
X468000Y486996D01*
Y486496D01*
Y486996D01*
X467500Y487496D01*
X467000D01*
X466500Y486996D01*
Y485996D01*
X467000Y485496D01*
X469499Y490494D02*
Y488495D01*
X468000D01*
X468499Y489495D01*
Y489995D01*
X468000Y490494D01*
X467000D01*
X466500Y489995D01*
Y488995D01*
X467000Y488495D01*
X476500Y482497D02*
X479499D01*
Y483997D01*
X478999Y484496D01*
X477999D01*
X477500Y483997D01*
Y482497D01*
X478999Y485496D02*
X479499Y485996D01*
Y486996D01*
X478999Y487496D01*
X478499D01*
X477999Y486996D01*
Y486496D01*
Y486996D01*
X477500Y487496D01*
X477000D01*
X476500Y486996D01*
Y485996D01*
X477000Y485496D01*
X479499Y488495D02*
Y490494D01*
X478999D01*
X477000Y488495D01*
X476500D01*
X496500Y482497D02*
X499499D01*
Y483997D01*
X498999Y484496D01*
X497999D01*
X497500Y483997D01*
Y482497D01*
X499499Y487496D02*
Y485496D01*
X497999D01*
X498499Y486496D01*
Y486996D01*
X497999Y487496D01*
X497000D01*
X496500Y486996D01*
Y485996D01*
X497000Y485496D01*
X499499Y490494D02*
X498999Y489495D01*
X497999Y488495D01*
X497000D01*
X496500Y488995D01*
Y489995D01*
X497000Y490494D01*
X497500D01*
X497999Y489995D01*
Y488495D01*
X526500Y482497D02*
X529499D01*
Y483997D01*
X528999Y484496D01*
X527999D01*
X527500Y483997D01*
Y482497D01*
X526500Y486996D02*
X529499D01*
X527999Y485496D01*
Y487496D01*
X528999Y488495D02*
X529499Y488995D01*
Y489995D01*
X528999Y490494D01*
X527000D01*
X526500Y489995D01*
Y488995D01*
X527000Y488495D01*
X528999D01*
X536500Y482997D02*
X539499D01*
Y484496D01*
X538999Y484996D01*
X537999D01*
X537500Y484496D01*
Y482997D01*
X536500Y485996D02*
Y486996D01*
Y486496D01*
X539499D01*
X538999Y485996D01*
Y488495D02*
X539499Y488995D01*
Y489995D01*
X538999Y490494D01*
X538499D01*
X537999Y489995D01*
Y489495D01*
Y489995D01*
X537500Y490494D01*
X537000D01*
X536500Y489995D01*
Y488995D01*
X537000Y488495D01*
X546000Y479500D02*
X548999D01*
Y481000D01*
X548499Y481499D01*
X547500D01*
X547000Y481000D01*
Y479500D01*
X548499Y484498D02*
X548999Y483998D01*
Y482999D01*
X548499Y482499D01*
X546500D01*
X546000Y482999D01*
Y483998D01*
X546500Y484498D01*
X547500D01*
Y483499D01*
X546000Y485498D02*
X547999D01*
X548999Y486498D01*
X547999Y487497D01*
X546000D01*
X547500D01*
Y485498D01*
X548499Y490496D02*
X548999Y489997D01*
Y488997D01*
X548499Y488497D01*
X546500D01*
X546000Y488997D01*
Y489997D01*
X546500Y490496D01*
X547500D01*
Y489497D01*
X546000Y491496D02*
X548999D01*
X546000Y493496D01*
X548999D01*
Y494495D02*
X546000D01*
Y495995D01*
X546500Y496494D01*
X548499D01*
X548999Y495995D01*
Y494495D01*
X506000Y444160D02*
X507999D01*
X508999Y445159D01*
X507999Y446159D01*
X506000D01*
X507500D01*
Y444160D01*
X508999Y447159D02*
X506000D01*
Y448658D01*
X506500Y449158D01*
X507000D01*
X507500Y448658D01*
Y447159D01*
Y448658D01*
X507999Y449158D01*
X508499D01*
X508999Y448658D01*
Y447159D01*
X506000Y450158D02*
Y451158D01*
Y450658D01*
X508999D01*
X508499Y450158D01*
X516000Y443160D02*
X517999D01*
X518999Y444160D01*
X517999Y445159D01*
X516000D01*
X517499D01*
Y443160D01*
X518499Y448158D02*
X518999Y447659D01*
Y446659D01*
X518499Y446159D01*
X516500D01*
X516000Y446659D01*
Y447659D01*
X516500Y448158D01*
X516000Y451158D02*
Y449158D01*
X517999Y451158D01*
X518499D01*
X518999Y450658D01*
Y449658D01*
X518499Y449158D01*
X526000Y443160D02*
X527999D01*
X528999Y444160D01*
X527999Y445159D01*
X526000D01*
X527499D01*
Y443160D01*
X528999Y446159D02*
X526000D01*
Y447659D01*
X526500Y448158D01*
X527000D01*
X527499Y447659D01*
Y446159D01*
Y447659D01*
X527999Y448158D01*
X528499D01*
X528999Y447659D01*
Y446159D01*
X528499Y449158D02*
X528999Y449658D01*
Y450658D01*
X528499Y451158D01*
X526500D01*
X526000Y450658D01*
Y449658D01*
X526500Y449158D01*
X528499D01*
X536000Y443160D02*
X537999D01*
X538999Y444160D01*
X537999Y445159D01*
X536000D01*
X537500D01*
Y443160D01*
X536000Y446159D02*
X537999D01*
X538999Y447159D01*
X537999Y448158D01*
X536000D01*
X537500D01*
Y446159D01*
X538999Y451158D02*
Y449158D01*
X537500D01*
X537999Y450158D01*
Y450658D01*
X537500Y451158D01*
X536500D01*
X536000Y450658D01*
Y449658D01*
X536500Y449158D01*
X516500Y485496D02*
X519499D01*
X516500Y487496D01*
X519499D01*
X518999Y490494D02*
X519499Y489995D01*
Y488995D01*
X518999Y488495D01*
X517000D01*
X516500Y488995D01*
Y489995D01*
X517000Y490494D01*
X506500Y482497D02*
X508499D01*
X509499Y483497D01*
X508499Y484496D01*
X506500D01*
X508000D01*
Y482497D01*
X509499Y485496D02*
X506500D01*
Y486996D01*
X507000Y487496D01*
X507500D01*
X508000Y486996D01*
Y485496D01*
Y486996D01*
X508499Y487496D01*
X508999D01*
X509499Y486996D01*
Y485496D01*
X508999Y488495D02*
X509499Y488995D01*
Y489995D01*
X508999Y490494D01*
X508499D01*
X508000Y489995D01*
Y489495D01*
Y489995D01*
X507500Y490494D01*
X507000D01*
X506500Y489995D01*
Y488995D01*
X507000Y488495D01*
X486500Y482497D02*
X488499D01*
X489499Y483497D01*
X488499Y484496D01*
X486500D01*
X487999D01*
Y482497D01*
X488999Y487496D02*
X489499Y486996D01*
Y485996D01*
X488999Y485496D01*
X487000D01*
X486500Y485996D01*
Y486996D01*
X487000Y487496D01*
X486500Y489995D02*
X489499D01*
X487999Y488495D01*
Y490494D01*
X461000Y433000D02*
X462999D01*
X463999Y434000D01*
X462999Y434999D01*
X461000D01*
X462500D01*
Y433000D01*
X461000Y435999D02*
X462999D01*
X463999Y436999D01*
X462999Y437998D01*
X461000D01*
X462500D01*
Y435999D01*
X461000Y438998D02*
Y439998D01*
Y439498D01*
X463999D01*
X463499Y438998D01*
X461000Y441497D02*
X462999Y443497D01*
X463999Y444496D02*
X461000D01*
Y445996D01*
X461500Y446496D01*
X463499D01*
X463999Y445996D01*
Y444496D01*
X461000Y447495D02*
X462999D01*
X463999Y448495D01*
X462999Y449495D01*
X461000D01*
X462500D01*
Y447495D01*
X463499Y452494D02*
X463999Y451994D01*
Y450994D01*
X463499Y450494D01*
X461500D01*
X461000Y450994D01*
Y451994D01*
X461500Y452494D01*
X463999Y453493D02*
X461000D01*
Y454993D01*
X461500Y455493D01*
X462000D01*
X462500Y454993D01*
Y453493D01*
Y454993D01*
X462999Y455493D01*
X463499D01*
X463999Y454993D01*
Y453493D01*
D95*
X440674Y87945D02*
X462327D01*
X440174Y41945D02*
X461827D01*
X439174Y130945D02*
X460827D01*
D96*
X267000Y479933D02*
X268666D01*
X269499Y480766D01*
X268666Y481599D01*
X267000D01*
X268250D01*
Y479933D01*
X269499Y482432D02*
X267000D01*
Y483682D01*
X267417Y484098D01*
X267833D01*
X268250Y483682D01*
Y482432D01*
Y483682D01*
X268666Y484098D01*
X269083D01*
X269499Y483682D01*
Y482432D01*
X267000Y486181D02*
X269499D01*
X268250Y484932D01*
Y486598D01*
X267000Y487431D02*
X268666Y489097D01*
X269083Y491596D02*
X269499Y491180D01*
Y490346D01*
X269083Y489930D01*
X267417D01*
X267000Y490346D01*
Y491180D01*
X267417Y491596D01*
X268250D01*
Y490763D01*
X267000Y493679D02*
X269499D01*
X268250Y492429D01*
Y494095D01*
X269499Y496178D02*
Y495345D01*
X269083Y494928D01*
X267417D01*
X267000Y495345D01*
Y496178D01*
X267417Y496594D01*
X269083D01*
X269499Y496178D01*
X256500Y479933D02*
X258166D01*
X258999Y480766D01*
X258166Y481599D01*
X256500D01*
X257750D01*
Y479933D01*
X256500Y482432D02*
X258166D01*
X258999Y483265D01*
X258166Y484098D01*
X256500D01*
X257750D01*
Y482432D01*
X256500Y486181D02*
X258999D01*
X257750Y484932D01*
Y486598D01*
X256500Y487431D02*
X258166Y489097D01*
X258583Y491596D02*
X258999Y491180D01*
Y490346D01*
X258583Y489930D01*
X256916D01*
X256500Y490346D01*
Y491180D01*
X256916Y491596D01*
X257750D01*
Y490763D01*
X256500Y494095D02*
Y492429D01*
X258166Y494095D01*
X258583D01*
X258999Y493679D01*
Y492846D01*
X258583Y492429D01*
X258999Y496178D02*
Y495345D01*
X258583Y494928D01*
X256916D01*
X256500Y495345D01*
Y496178D01*
X256916Y496594D01*
X258583D01*
X258999Y496178D01*
X236500Y479933D02*
X238166D01*
X238999Y480766D01*
X238166Y481599D01*
X236500D01*
X237750D01*
Y479933D01*
X236500Y482432D02*
X238166D01*
X238999Y483265D01*
X238166Y484098D01*
X236500D01*
X237750D01*
Y482432D01*
X238583Y484932D02*
X238999Y485348D01*
Y486181D01*
X238583Y486598D01*
X238166D01*
X237750Y486181D01*
X237333Y486598D01*
X236916D01*
X236500Y486181D01*
Y485348D01*
X236916Y484932D01*
X237333D01*
X237750Y485348D01*
X238166Y484932D01*
X238583D01*
X237750Y485348D02*
Y486181D01*
X236500Y487431D02*
X238166Y489097D01*
X238583Y491596D02*
X238999Y491180D01*
Y490346D01*
X238583Y489930D01*
X236916D01*
X236500Y490346D01*
Y491180D01*
X236916Y491596D01*
X237750D01*
Y490763D01*
X238999Y494095D02*
X238583Y493262D01*
X237750Y492429D01*
X236916D01*
X236500Y492846D01*
Y493679D01*
X236916Y494095D01*
X237333D01*
X237750Y493679D01*
Y492429D01*
X238999Y496178D02*
Y495345D01*
X238583Y494928D01*
X236916D01*
X236500Y495345D01*
Y496178D01*
X236916Y496594D01*
X238583D01*
X238999Y496178D01*
X477000Y435429D02*
X478666D01*
X479499Y436262D01*
X478666Y437095D01*
X477000D01*
X478250D01*
Y435429D01*
X477000Y437928D02*
X478666D01*
X479499Y438762D01*
X478666Y439595D01*
X477000D01*
X478250D01*
Y437928D01*
X477417Y440428D02*
X477000Y440844D01*
Y441677D01*
X477417Y442094D01*
X479083D01*
X479499Y441677D01*
Y440844D01*
X479083Y440428D01*
X478666D01*
X478250Y440844D01*
Y442094D01*
X477000Y442927D02*
X478666Y444593D01*
X479083Y447092D02*
X479499Y446676D01*
Y445843D01*
X479083Y445426D01*
X477417D01*
X477000Y445843D01*
Y446676D01*
X477417Y447092D01*
X478250D01*
Y446259D01*
X479499Y449591D02*
Y447925D01*
X478250D01*
X478666Y448758D01*
Y449175D01*
X478250Y449591D01*
X477417D01*
X477000Y449175D01*
Y448342D01*
X477417Y447925D01*
X479499Y450424D02*
Y451258D01*
Y450841D01*
X477000D01*
Y450424D01*
Y451258D01*
X486500Y435429D02*
X488166D01*
X488999Y436262D01*
X488166Y437095D01*
X486500D01*
X487750D01*
Y435429D01*
X488583Y439595D02*
X488999Y439178D01*
Y438345D01*
X488583Y437928D01*
X486916D01*
X486500Y438345D01*
Y439178D01*
X486916Y439595D01*
X488583Y440428D02*
X488999Y440844D01*
Y441677D01*
X488583Y442094D01*
X486916D01*
X486500Y441677D01*
Y440844D01*
X486916Y440428D01*
X488583D01*
X486500Y442927D02*
X488166Y444593D01*
X488583Y447092D02*
X488999Y446676D01*
Y445843D01*
X488583Y445426D01*
X486916D01*
X486500Y445843D01*
Y446676D01*
X486916Y447092D01*
X487750D01*
Y446259D01*
X488583Y447925D02*
X488999Y448342D01*
Y449175D01*
X488583Y449591D01*
X488166D01*
X487750Y449175D01*
Y448758D01*
Y449175D01*
X487333Y449591D01*
X486916D01*
X486500Y449175D01*
Y448342D01*
X486916Y447925D01*
X488999Y450424D02*
Y451258D01*
Y450841D01*
X486500D01*
Y450424D01*
Y451258D01*
X497000Y435846D02*
X498666D01*
X499499Y436679D01*
X498666Y437512D01*
X497000D01*
X498250D01*
Y435846D01*
X499499Y438345D02*
X497000D01*
Y439595D01*
X497416Y440011D01*
X497833D01*
X498250Y439595D01*
Y438345D01*
Y439595D01*
X498666Y440011D01*
X499083D01*
X499499Y439595D01*
Y438345D01*
X497000Y442510D02*
Y440844D01*
X498666Y442510D01*
X499083D01*
X499499Y442094D01*
Y441261D01*
X499083Y440844D01*
X497000Y443343D02*
X498666Y445010D01*
X499083Y447509D02*
X499499Y447092D01*
Y446259D01*
X499083Y445843D01*
X497416D01*
X497000Y446259D01*
Y447092D01*
X497416Y447509D01*
X498250D01*
Y446676D01*
X497000Y448342D02*
Y449175D01*
Y448758D01*
X499499D01*
X499083Y448342D01*
X499499Y450424D02*
Y451258D01*
Y450841D01*
X497000D01*
Y450424D01*
Y451258D01*
D97*
X359505Y39868D02*
D03*
X415005Y35868D02*
D03*
X415005Y81368D02*
D03*
Y125368D02*
D03*
M02*
