G04*
G04 #@! TF.GenerationSoftware,Altium Limited,Altium Designer,21.2.2 (38)*
G04*
G04 Layer_Color=32768*
%FSLAX25Y25*%
%MOIN*%
G70*
G04*
G04 #@! TF.SameCoordinates,0CC3C9D5-6B2F-423D-8AA3-22EEB0D6369A*
G04*
G04*
G04 #@! TF.FilePolarity,Positive*
G04*
G01*
G75*
%ADD10C,0.00787*%
%ADD11C,0.00394*%
%ADD99C,0.00197*%
D10*
X379543Y19598D02*
Y194402D01*
X514425D01*
Y19598D02*
Y194402D01*
X379543Y19598D02*
X514425D01*
D11*
X130000Y110531D02*
Y114469D01*
X128032Y112500D02*
X131968D01*
X151591Y146165D02*
X261827D01*
Y35535D02*
Y146165D01*
X151591Y35535D02*
X261827D01*
X151591D02*
Y146165D01*
X451500Y70031D02*
Y73968D01*
X449532Y72000D02*
X453469D01*
X41465Y198894D02*
X85559D01*
Y295350D01*
X41465D02*
X85559D01*
X41465Y198894D02*
Y295350D01*
X161284Y208055D02*
X340024D01*
Y137189D02*
Y208055D01*
X161284Y137189D02*
X340024D01*
X161284D02*
Y208055D01*
X-496Y470937D02*
X60134D01*
X-496Y363063D02*
Y470937D01*
Y363063D02*
X60134D01*
Y470937D01*
X2965Y181689D02*
X47059D01*
Y275390D01*
X2965D02*
X47059D01*
X2965Y181689D02*
Y275390D01*
X591Y295311D02*
X47047D01*
Y367437D01*
X591D02*
X47047D01*
X591Y295311D02*
Y367437D01*
X556453Y100189D02*
X602910D01*
X556453Y28063D02*
Y100189D01*
Y28063D02*
X602910D01*
Y100189D01*
X407031Y222500D02*
X410968D01*
X409000Y220532D02*
Y224468D01*
X468532Y212000D02*
X472469D01*
X470500Y210032D02*
Y213968D01*
X476532Y221000D02*
X480469D01*
X478500Y219032D02*
Y222969D01*
X2831Y87055D02*
Y184850D01*
X46925D01*
Y87055D02*
Y184850D01*
X2831Y87055D02*
X46925D01*
X446000Y105032D02*
Y108968D01*
X444031Y107000D02*
X447968D01*
X357531Y31500D02*
X361469D01*
X359500Y29531D02*
Y33468D01*
X413031Y27500D02*
X416968D01*
X415000Y25532D02*
Y29469D01*
X413031Y73000D02*
X416968D01*
X415000Y71031D02*
Y74968D01*
X413031Y117000D02*
X416968D01*
X415000Y115032D02*
Y118968D01*
X449031Y26000D02*
X452969D01*
X451000Y24032D02*
Y27968D01*
X448032Y115000D02*
X451968D01*
X450000Y113031D02*
Y116969D01*
X326000Y38532D02*
Y42469D01*
X324031Y40500D02*
X327969D01*
X417500Y232531D02*
Y236469D01*
X415531Y234500D02*
X419468D01*
X401000Y211032D02*
Y214968D01*
X399031Y213000D02*
X402969D01*
X488000Y228031D02*
Y231968D01*
X486031Y230000D02*
X489968D01*
X186531Y210500D02*
X190469D01*
X188500Y208531D02*
Y212469D01*
X357500Y219032D02*
Y222969D01*
X355532Y221000D02*
X359469D01*
X339118Y89165D02*
X369039D01*
X339118Y9835D02*
Y89165D01*
Y9835D02*
X369039D01*
Y89165D01*
X112461Y91693D02*
X142382D01*
X112461Y12362D02*
Y91693D01*
Y12362D02*
X142382D01*
Y91693D01*
X46559Y2646D02*
Y108354D01*
X91441D01*
Y2646D02*
Y108354D01*
X46559Y2646D02*
X91441D01*
X83500Y144532D02*
Y148468D01*
X81532Y146500D02*
X85469D01*
D99*
X308154Y100842D02*
G03*
X308154Y100842I-21654J0D01*
G01*
X150079Y92421D02*
Y132579D01*
X109921Y92421D02*
X150079D01*
X109921Y132579D02*
X150079D01*
X109921Y92421D02*
Y132579D01*
X518370Y29673D02*
X534630D01*
Y21327D02*
Y29673D01*
X518370Y21327D02*
X534630D01*
X518370D02*
Y29673D01*
X264370Y123827D02*
X280630D01*
X264370D02*
Y132173D01*
X280630D01*
Y123827D02*
Y132173D01*
X439689Y86961D02*
X463311D01*
X439689Y57039D02*
X463311D01*
X439689D02*
Y86961D01*
X463311Y57039D02*
Y86961D01*
X107732Y403988D02*
X124268D01*
Y390012D02*
Y403988D01*
X107732Y390012D02*
X124268D01*
X107732D02*
Y403988D01*
X108232Y431988D02*
X124768D01*
Y418012D02*
Y431988D01*
X108232Y418012D02*
X124768D01*
X108232D02*
Y431988D01*
X272012Y159697D02*
Y180681D01*
Y159697D02*
X315988D01*
Y180681D01*
X272012D02*
X315988D01*
X182012Y159697D02*
Y180681D01*
Y159697D02*
X225988D01*
Y180681D01*
X182012D02*
X225988D01*
X75532Y203484D02*
X114469D01*
Y161516D02*
Y203484D01*
X75532Y161516D02*
X114469D01*
X75532D02*
Y203484D01*
X107732Y418488D02*
X124268D01*
Y404512D02*
Y418488D01*
X107732Y404512D02*
X124268D01*
X107732D02*
Y418488D01*
X403882Y213839D02*
Y231161D01*
X414118Y213839D02*
Y231161D01*
X403882D02*
X414118D01*
X403882Y213839D02*
X414118D01*
X465382Y203339D02*
Y220661D01*
X475618Y203339D02*
Y220661D01*
X465382D02*
X475618D01*
X465382Y203339D02*
X475618D01*
X473382Y212339D02*
Y229661D01*
X483618Y212339D02*
Y229661D01*
X473382D02*
X483618D01*
X473382Y212339D02*
X483618D01*
X353752Y52858D02*
X365248D01*
Y10142D02*
Y52858D01*
X353752Y10142D02*
Y52858D01*
Y10142D02*
X365248D01*
X409252Y48858D02*
X420748D01*
Y6142D02*
Y48858D01*
X409252Y6142D02*
Y48858D01*
Y6142D02*
X420748D01*
X409252Y94358D02*
X420748D01*
Y51642D02*
Y94358D01*
X409252Y51642D02*
Y94358D01*
Y51642D02*
X420748D01*
X409252Y138358D02*
X420748D01*
Y95642D02*
Y138358D01*
X409252Y95642D02*
Y138358D01*
Y95642D02*
X420748D01*
X462811Y11039D02*
Y40961D01*
X439189Y11039D02*
Y40961D01*
Y11039D02*
X462811D01*
X439189Y40961D02*
X462811D01*
X461811Y100039D02*
Y129961D01*
X438189Y100039D02*
Y129961D01*
Y100039D02*
X461811D01*
X438189Y129961D02*
X461811D01*
X308480Y60579D02*
X343520Y60579D01*
X308480Y20421D02*
Y60579D01*
Y20421D02*
X343520D01*
Y60579D01*
X412382Y225839D02*
X422618D01*
X412382Y243161D02*
X422618D01*
Y225839D02*
Y243161D01*
X412382Y225839D02*
Y243161D01*
X395882Y204339D02*
X406118D01*
X395882Y221661D02*
X406118D01*
Y204339D02*
Y221661D01*
X395882Y204339D02*
Y221661D01*
X482882Y221339D02*
X493118D01*
X482882Y238661D02*
X493118D01*
Y221339D02*
Y238661D01*
X482882Y221339D02*
Y238661D01*
X159425Y209224D02*
X168579D01*
Y163752D02*
Y209224D01*
X159425Y163752D02*
X168579D01*
X159425D02*
Y209224D01*
X263425Y211748D02*
X272579D01*
Y166276D02*
Y211748D01*
X263425Y166276D02*
X272579D01*
X263425D02*
Y211748D01*
X195390Y206563D02*
Y214437D01*
X181610Y206563D02*
Y214437D01*
Y206563D02*
X195390D01*
X181610Y214437D02*
X195390D01*
X216016Y36929D02*
X257984D01*
X216016Y3071D02*
Y36929D01*
Y3071D02*
X257984D01*
Y36929D01*
X277913Y248181D02*
Y270819D01*
X154488D02*
X277913D01*
X154488Y248181D02*
Y270819D01*
Y248181D02*
X277913D01*
X238575Y205425D02*
Y248575D01*
X195425Y205425D02*
X238575D01*
X195425D02*
Y248575D01*
X238575D01*
X333968Y211516D02*
Y253484D01*
X295031Y211516D02*
X333968D01*
X295031D02*
Y253484D01*
X333968D01*
X349626Y217260D02*
X365374D01*
X349626Y224740D02*
X365374D01*
X349626Y217260D02*
Y224740D01*
X365374Y217260D02*
Y224740D01*
X323020Y92587D02*
X337980D01*
X323020Y9221D02*
Y92587D01*
Y9221D02*
X337980D01*
Y92587D01*
X96520Y103784D02*
X111480D01*
X96520Y20417D02*
Y103784D01*
Y20417D02*
X111480D01*
Y103784D01*
X40929Y33516D02*
Y75484D01*
X7071D02*
X40929D01*
X7071Y33516D02*
Y75484D01*
Y33516D02*
X40929D01*
X75626Y142760D02*
X91374D01*
X75626Y150240D02*
X91374D01*
Y142760D02*
Y150240D01*
X75626Y142760D02*
Y150240D01*
M02*
