G04*
G04 #@! TF.GenerationSoftware,Altium Limited,Altium Designer,21.2.2 (38)*
G04*
G04 Layer_Physical_Order=4*
G04 Layer_Color=16711680*
%FSLAX25Y25*%
%MOIN*%
G70*
G04*
G04 #@! TF.SameCoordinates,0CC3C9D5-6B2F-423D-8AA3-22EEB0D6369A*
G04*
G04*
G04 #@! TF.FilePolarity,Positive*
G04*
G01*
G75*
%ADD14C,0.01000*%
%ADD18R,0.06905X0.07111*%
%ADD23R,0.03740X0.06693*%
%ADD42O,0.07874X0.05118*%
%ADD43C,0.11811*%
%ADD58R,0.05512X0.05512*%
%ADD59C,0.05512*%
%ADD60C,0.06000*%
%ADD61C,0.08268*%
%ADD62C,0.06791*%
%ADD63C,0.07677*%
%ADD64C,0.06102*%
G04:AMPARAMS|DCode=65|XSize=61.02mil|YSize=61.02mil|CornerRadius=1.83mil|HoleSize=0mil|Usage=FLASHONLY|Rotation=180.000|XOffset=0mil|YOffset=0mil|HoleType=Round|Shape=RoundedRectangle|*
%AMROUNDEDRECTD65*
21,1,0.06102,0.05736,0,0,180.0*
21,1,0.05736,0.06102,0,0,180.0*
1,1,0.00366,-0.02868,0.02868*
1,1,0.00366,0.02868,0.02868*
1,1,0.00366,0.02868,-0.02868*
1,1,0.00366,-0.02868,-0.02868*
%
%ADD65ROUNDEDRECTD65*%
%ADD66C,0.08150*%
%ADD67R,0.08150X0.08150*%
%ADD68R,0.04449X0.04449*%
%ADD69C,0.04449*%
%ADD70C,0.04724*%
%ADD71C,0.06496*%
%ADD72C,0.04528*%
%ADD73R,0.04528X0.04528*%
%ADD74R,0.07677X0.07677*%
%ADD75C,0.08858*%
%ADD76R,0.08858X0.08858*%
%ADD77R,0.04724X0.04724*%
%ADD78C,0.05020*%
%ADD79R,0.05020X0.05020*%
%ADD80C,0.06260*%
%ADD81C,0.06201*%
%ADD82R,0.06201X0.06201*%
%ADD83R,0.07677X0.07677*%
%ADD84C,0.05000*%
%ADD85C,0.01000*%
%ADD86R,0.06299X0.11024*%
%ADD87R,0.07087X0.03937*%
%ADD88R,0.07378X0.02134*%
G04:AMPARAMS|DCode=89|XSize=73.78mil|YSize=21.34mil|CornerRadius=10.67mil|HoleSize=0mil|Usage=FLASHONLY|Rotation=0.000|XOffset=0mil|YOffset=0mil|HoleType=Round|Shape=RoundedRectangle|*
%AMROUNDEDRECTD89*
21,1,0.07378,0.00000,0,0,0.0*
21,1,0.05244,0.02134,0,0,0.0*
1,1,0.02134,0.02622,0.00000*
1,1,0.02134,-0.02622,0.00000*
1,1,0.02134,-0.02622,0.00000*
1,1,0.02134,0.02622,0.00000*
%
%ADD89ROUNDEDRECTD89*%
%ADD90R,0.06102X0.06102*%
%ADD91R,0.09843X0.13780*%
G36*
X299500Y169355D02*
X299271Y168959D01*
X299250Y168880D01*
X298750D01*
X298729Y168959D01*
X298061Y170116D01*
X297116Y171061D01*
X295959Y171729D01*
X294668Y172075D01*
X294500D01*
Y167000D01*
Y161925D01*
X294668D01*
X295959Y162271D01*
X297116Y162939D01*
X298061Y163884D01*
X298729Y165041D01*
X298750Y165120D01*
X299250D01*
X299271Y165041D01*
X299500Y164645D01*
X299500Y133645D01*
X348500Y134000D01*
X351000Y131500D01*
Y118500D01*
X338000D01*
X337500Y118000D01*
X334500Y121000D01*
X279500D01*
Y133500D01*
X279500Y133500D01*
X279500D01*
Y136944D01*
X283130D01*
Y141500D01*
Y146055D01*
X279500D01*
X279500Y149944D01*
X282630D01*
Y154500D01*
Y159055D01*
X279500D01*
Y160000D01*
X288500D01*
Y161925D01*
X289075D01*
Y164381D01*
X289575Y164515D01*
X289939Y163884D01*
X290884Y162939D01*
X292041Y162271D01*
X293332Y161925D01*
X293500D01*
Y167000D01*
Y172075D01*
X293332D01*
X292041Y171729D01*
X290884Y171061D01*
X289939Y170116D01*
X289575Y169485D01*
X289075Y169619D01*
Y172075D01*
X288500D01*
Y173500D01*
X299500D01*
Y169355D01*
D02*
G37*
G36*
X260000Y162500D02*
X262500Y160000D01*
X278480D01*
Y159490D01*
X278322Y159055D01*
X278041Y159055D01*
X274370D01*
Y154500D01*
Y149944D01*
X277980D01*
X278480Y149510D01*
X278480Y146055D01*
X274870D01*
Y141500D01*
Y136944D01*
X278480D01*
Y135000D01*
X250000D01*
Y167500D01*
X260000D01*
Y162500D01*
D02*
G37*
G36*
X515500Y122140D02*
X515000Y122090D01*
X514766Y123266D01*
X514246Y124523D01*
X513490Y125654D01*
X512528Y126616D01*
X511397Y127372D01*
X510140Y127892D01*
X508806Y128157D01*
X508626D01*
Y121252D01*
Y114347D01*
X508806D01*
X510140Y114612D01*
X511397Y115132D01*
X512528Y115888D01*
X513490Y116850D01*
X514246Y117981D01*
X514766Y119238D01*
X515000Y120413D01*
X515500Y120364D01*
Y113000D01*
X518500Y110000D01*
X523632D01*
X523784Y109500D01*
X523769Y109490D01*
X523313Y108807D01*
X523251Y108500D01*
X532512D01*
X532451Y108807D01*
X531994Y109490D01*
X531980Y109500D01*
X532131Y110000D01*
X533347D01*
X533538Y109538D01*
X533500Y109500D01*
X533500Y100000D01*
X518520D01*
Y100500D01*
X518442Y100890D01*
X518221Y101221D01*
X517890Y101442D01*
X517500Y101520D01*
X500000D01*
X499500Y102020D01*
X499500Y110500D01*
Y130000D01*
X515500D01*
Y122140D01*
D02*
G37*
G36*
X533497Y130145D02*
X533354Y111026D01*
X533347Y111020D01*
X532161D01*
X532132Y111049D01*
X531994Y111510D01*
X532451Y112193D01*
X532512Y112500D01*
X523251D01*
X523313Y112193D01*
X523769Y111510D01*
X523631Y111049D01*
X523603Y111020D01*
X522500D01*
Y130500D01*
X533145D01*
X533497Y130145D01*
D02*
G37*
G36*
X533000Y86000D02*
Y76520D01*
X532031D01*
X531795Y76961D01*
X531951Y77193D01*
X532012Y77500D01*
X522752D01*
X522813Y77193D01*
X522968Y76961D01*
X522732Y76520D01*
X521500D01*
Y86000D01*
Y94500D01*
X533000D01*
Y86000D01*
D02*
G37*
G36*
X517500Y76500D02*
X518500Y75500D01*
X524169D01*
X524218Y75000D01*
X523953Y74947D01*
X523269Y74490D01*
X522813Y73807D01*
X522752Y73500D01*
X532012D01*
X531951Y73807D01*
X531494Y74490D01*
X530810Y74947D01*
X530545Y75000D01*
X530594Y75500D01*
X533000D01*
Y65000D01*
X516500D01*
Y69000D01*
X499500D01*
X499500Y100500D01*
X517500D01*
X517500Y76500D01*
D02*
G37*
G36*
X525000Y46500D02*
X514500D01*
Y36000D01*
X519500D01*
Y19500D01*
X498000D01*
X497500Y20000D01*
Y56500D01*
X503112D01*
X503724Y55888D01*
X504855Y55132D01*
X506112Y54612D01*
X507446Y54347D01*
X508806D01*
X510140Y54612D01*
X511397Y55132D01*
X512528Y55888D01*
X513140Y56500D01*
X525000D01*
X525000Y46500D01*
D02*
G37*
%LPC*%
G36*
X287583Y159055D02*
X283630D01*
Y155000D01*
X287583D01*
Y159055D01*
D02*
G37*
G36*
Y154000D02*
X283630D01*
Y149944D01*
X287583D01*
Y154000D01*
D02*
G37*
G36*
X288083Y146055D02*
X284130D01*
Y142000D01*
X288083D01*
Y146055D01*
D02*
G37*
G36*
Y141000D02*
X284130D01*
Y136944D01*
X288083D01*
Y141000D01*
D02*
G37*
G36*
X305000Y129990D02*
Y127000D01*
X307990D01*
X307762Y127851D01*
X307301Y128649D01*
X306649Y129301D01*
X305851Y129762D01*
X305000Y129990D01*
D02*
G37*
G36*
X304000D02*
X303149Y129762D01*
X302351Y129301D01*
X301699Y128649D01*
X301238Y127851D01*
X301010Y127000D01*
X304000D01*
Y129990D01*
D02*
G37*
G36*
X287000D02*
Y127000D01*
X289989D01*
X289761Y127851D01*
X289301Y128649D01*
X288649Y129301D01*
X287851Y129762D01*
X287000Y129990D01*
D02*
G37*
G36*
X286000D02*
X285149Y129762D01*
X284351Y129301D01*
X283699Y128649D01*
X283239Y127851D01*
X283011Y127000D01*
X286000D01*
Y129990D01*
D02*
G37*
G36*
X307990Y126000D02*
X305000D01*
Y123011D01*
X305851Y123239D01*
X306649Y123699D01*
X307301Y124351D01*
X307762Y125149D01*
X307990Y126000D01*
D02*
G37*
G36*
X304000D02*
X301010D01*
X301238Y125149D01*
X301699Y124351D01*
X302351Y123699D01*
X303149Y123239D01*
X304000Y123011D01*
Y126000D01*
D02*
G37*
G36*
X289989D02*
X287000D01*
Y123011D01*
X287851Y123239D01*
X288649Y123699D01*
X289301Y124351D01*
X289761Y125149D01*
X289989Y126000D01*
D02*
G37*
G36*
X286000D02*
X283011D01*
X283239Y125149D01*
X283699Y124351D01*
X284351Y123699D01*
X285149Y123239D01*
X286000Y123011D01*
Y126000D01*
D02*
G37*
G36*
X255500Y166990D02*
Y164000D01*
X258489D01*
X258261Y164851D01*
X257801Y165649D01*
X257149Y166301D01*
X256351Y166762D01*
X255500Y166990D01*
D02*
G37*
G36*
X254500D02*
X253649Y166762D01*
X252851Y166301D01*
X252199Y165649D01*
X251739Y164851D01*
X251511Y164000D01*
X254500D01*
Y166990D01*
D02*
G37*
G36*
X258489Y163000D02*
X255500D01*
Y160011D01*
X256351Y160239D01*
X257149Y160699D01*
X257801Y161351D01*
X258261Y162149D01*
X258489Y163000D01*
D02*
G37*
G36*
X254500D02*
X251511D01*
X251739Y162149D01*
X252199Y161351D01*
X252851Y160699D01*
X253649Y160239D01*
X254500Y160011D01*
Y163000D01*
D02*
G37*
G36*
X270917Y159085D02*
X270814D01*
X270666Y159055D01*
X269417D01*
Y158165D01*
X269401Y158141D01*
X269285Y157555D01*
X269401Y156970D01*
X269417Y156947D01*
Y155000D01*
X273370D01*
Y159055D01*
X271065D01*
X270917Y159085D01*
D02*
G37*
G36*
X273370Y154000D02*
X269417D01*
Y149944D01*
X273370D01*
Y154000D01*
D02*
G37*
G36*
X273870Y146055D02*
X269917D01*
Y142000D01*
X273870D01*
Y146055D01*
D02*
G37*
G36*
Y141000D02*
X269917D01*
Y136944D01*
X273870D01*
Y141000D01*
D02*
G37*
G36*
X507626Y128157D02*
X507446D01*
X506112Y127892D01*
X504855Y127372D01*
X503724Y126616D01*
X502762Y125654D01*
X502006Y124523D01*
X501486Y123266D01*
X501221Y121932D01*
Y121752D01*
X507626D01*
Y128157D01*
D02*
G37*
G36*
Y120752D02*
X501221D01*
Y120572D01*
X501486Y119238D01*
X502006Y117981D01*
X502762Y116850D01*
X503724Y115888D01*
X504855Y115132D01*
X506112Y114612D01*
X507446Y114347D01*
X507626D01*
Y120752D01*
D02*
G37*
G36*
X532512Y107500D02*
X528382D01*
Y105892D01*
X530504D01*
X531310Y106053D01*
X531994Y106510D01*
X532451Y107193D01*
X532512Y107500D01*
D02*
G37*
G36*
X527382D02*
X523251D01*
X523313Y107193D01*
X523769Y106510D01*
X524453Y106053D01*
X525260Y105892D01*
X527382D01*
Y107500D01*
D02*
G37*
G36*
X532571Y105067D02*
X528382D01*
Y103500D01*
X532571D01*
Y105067D01*
D02*
G37*
G36*
X527382D02*
X523193D01*
Y103500D01*
X527382D01*
Y105067D01*
D02*
G37*
G36*
X532571Y102500D02*
X528382D01*
Y100933D01*
X532571D01*
Y102500D01*
D02*
G37*
G36*
X527382D02*
X523193D01*
Y100933D01*
X527382D01*
Y102500D01*
D02*
G37*
G36*
X528000Y128990D02*
Y126000D01*
X530990D01*
X530761Y126851D01*
X530301Y127649D01*
X529649Y128301D01*
X528851Y128761D01*
X528000Y128990D01*
D02*
G37*
G36*
X527000D02*
X526149Y128761D01*
X525351Y128301D01*
X524699Y127649D01*
X524238Y126851D01*
X524011Y126000D01*
X527000D01*
Y128990D01*
D02*
G37*
G36*
X530990Y125000D02*
X528000D01*
Y122011D01*
X528851Y122239D01*
X529649Y122699D01*
X530301Y123351D01*
X530761Y124149D01*
X530990Y125000D01*
D02*
G37*
G36*
X527000D02*
X524011D01*
X524238Y124149D01*
X524699Y123351D01*
X525351Y122699D01*
X526149Y122239D01*
X527000Y122011D01*
Y125000D01*
D02*
G37*
G36*
X530504Y120108D02*
X528382D01*
Y118500D01*
X532512D01*
X532451Y118807D01*
X531994Y119490D01*
X531310Y119947D01*
X530504Y120108D01*
D02*
G37*
G36*
X527382D02*
X525260D01*
X524453Y119947D01*
X523769Y119490D01*
X523313Y118807D01*
X523251Y118500D01*
X527382D01*
Y120108D01*
D02*
G37*
G36*
X532512Y117500D02*
X528382D01*
Y115892D01*
X530504D01*
X531310Y116053D01*
X531994Y116510D01*
X532451Y117193D01*
X532512Y117500D01*
D02*
G37*
G36*
X527382D02*
X523251D01*
X523313Y117193D01*
X523769Y116510D01*
X524453Y116053D01*
X525260Y115892D01*
X527382D01*
Y117500D01*
D02*
G37*
G36*
X530504Y115108D02*
X528382D01*
Y113500D01*
X532512D01*
X532451Y113807D01*
X531994Y114490D01*
X531310Y114947D01*
X530504Y115108D01*
D02*
G37*
G36*
X527382D02*
X525260D01*
X524453Y114947D01*
X523769Y114490D01*
X523313Y113807D01*
X523251Y113500D01*
X527382D01*
Y115108D01*
D02*
G37*
G36*
X528000Y93989D02*
Y91000D01*
X530990D01*
X530761Y91851D01*
X530301Y92649D01*
X529649Y93301D01*
X528851Y93761D01*
X528000Y93989D01*
D02*
G37*
G36*
X527000D02*
X526149Y93761D01*
X525351Y93301D01*
X524699Y92649D01*
X524238Y91851D01*
X524011Y91000D01*
X527000D01*
Y93989D01*
D02*
G37*
G36*
X530990Y90000D02*
X528000D01*
Y87011D01*
X528851Y87239D01*
X529649Y87699D01*
X530301Y88351D01*
X530761Y89149D01*
X530990Y90000D01*
D02*
G37*
G36*
X527000D02*
X524011D01*
X524238Y89149D01*
X524699Y88351D01*
X525351Y87699D01*
X526149Y87239D01*
X527000Y87011D01*
Y90000D01*
D02*
G37*
G36*
X530003Y85108D02*
X527882D01*
Y83500D01*
X532012D01*
X531951Y83807D01*
X531494Y84490D01*
X530810Y84947D01*
X530003Y85108D01*
D02*
G37*
G36*
X526882D02*
X524760D01*
X523953Y84947D01*
X523269Y84490D01*
X522813Y83807D01*
X522752Y83500D01*
X526882D01*
Y85108D01*
D02*
G37*
G36*
X532012Y82500D02*
X527882D01*
Y80892D01*
X530003D01*
X530810Y81053D01*
X531494Y81510D01*
X531951Y82193D01*
X532012Y82500D01*
D02*
G37*
G36*
X526882D02*
X522752D01*
X522813Y82193D01*
X523269Y81510D01*
X523953Y81053D01*
X524760Y80892D01*
X526882D01*
Y82500D01*
D02*
G37*
G36*
X530003Y80108D02*
X527882D01*
Y78500D01*
X532012D01*
X531951Y78807D01*
X531494Y79490D01*
X530810Y79947D01*
X530003Y80108D01*
D02*
G37*
G36*
X526882D02*
X524760D01*
X523953Y79947D01*
X523269Y79490D01*
X522813Y78807D01*
X522752Y78500D01*
X526882D01*
Y80108D01*
D02*
G37*
G36*
X508806Y98158D02*
X508626D01*
Y91752D01*
X515031D01*
Y91932D01*
X514766Y93266D01*
X514246Y94523D01*
X513490Y95654D01*
X512528Y96616D01*
X511397Y97372D01*
X510140Y97892D01*
X508806Y98158D01*
D02*
G37*
G36*
X507626D02*
X507446D01*
X506112Y97892D01*
X504855Y97372D01*
X503724Y96616D01*
X502762Y95654D01*
X502006Y94523D01*
X501486Y93266D01*
X501221Y91932D01*
Y91752D01*
X507626D01*
Y98158D01*
D02*
G37*
G36*
X515031Y90752D02*
X508626D01*
Y84346D01*
X508806D01*
X510140Y84612D01*
X511397Y85132D01*
X512528Y85888D01*
X513490Y86850D01*
X514246Y87981D01*
X514766Y89238D01*
X515031Y90572D01*
Y90752D01*
D02*
G37*
G36*
X507626D02*
X501221D01*
Y90572D01*
X501486Y89238D01*
X502006Y87981D01*
X502762Y86850D01*
X503724Y85888D01*
X504855Y85132D01*
X506112Y84612D01*
X507446Y84346D01*
X507626D01*
Y90752D01*
D02*
G37*
G36*
X532012Y72500D02*
X527882D01*
Y70892D01*
X530003D01*
X530810Y71053D01*
X531494Y71510D01*
X531951Y72193D01*
X532012Y72500D01*
D02*
G37*
G36*
X526882D02*
X522752D01*
X522813Y72193D01*
X523269Y71510D01*
X523953Y71053D01*
X524760Y70892D01*
X526882D01*
Y72500D01*
D02*
G37*
G36*
X532071Y70067D02*
X527882D01*
Y68500D01*
X532071D01*
Y70067D01*
D02*
G37*
G36*
X526882D02*
X522692D01*
Y68500D01*
X526882D01*
Y70067D01*
D02*
G37*
G36*
X532071Y67500D02*
X527882D01*
Y65933D01*
X532071D01*
Y67500D01*
D02*
G37*
G36*
X526882D02*
X522692D01*
Y65933D01*
X526882D01*
Y67500D01*
D02*
G37*
G36*
X524043Y53874D02*
X520000D01*
Y51406D01*
X524043D01*
Y53874D01*
D02*
G37*
G36*
X519000D02*
X514957D01*
Y51406D01*
X519000D01*
Y53874D01*
D02*
G37*
G36*
X524043Y50406D02*
X520000D01*
Y47937D01*
X524043D01*
Y50406D01*
D02*
G37*
G36*
X519000D02*
X514957D01*
Y47937D01*
X519000D01*
Y50406D01*
D02*
G37*
G36*
X508806Y38157D02*
X508626D01*
Y31752D01*
X515031D01*
Y31932D01*
X514766Y33266D01*
X514246Y34523D01*
X513593Y35500D01*
D01*
X513490Y35654D01*
X512528Y36616D01*
X511397Y37372D01*
X510140Y37892D01*
X508806Y38157D01*
D02*
G37*
G36*
X507626D02*
X507446D01*
X506112Y37892D01*
X504855Y37372D01*
X503724Y36616D01*
X502762Y35654D01*
X502006Y34523D01*
X501486Y33266D01*
X501221Y31932D01*
Y31752D01*
X507626D01*
Y38157D01*
D02*
G37*
G36*
X515031Y30752D02*
X508626D01*
Y24347D01*
X508806D01*
X510140Y24612D01*
X511397Y25132D01*
X512528Y25888D01*
X513490Y26850D01*
X514000Y27613D01*
D01*
X514246Y27981D01*
X514766Y29238D01*
X515031Y30572D01*
Y30752D01*
D02*
G37*
G36*
X507626D02*
X501221D01*
Y30572D01*
X501486Y29238D01*
X502006Y27981D01*
X502762Y26850D01*
X503724Y25888D01*
X504855Y25132D01*
X506112Y24612D01*
X507446Y24347D01*
X507626D01*
Y30752D01*
D02*
G37*
%LPD*%
D14*
X527505Y287476D02*
G03*
X532524Y292495I495J4524D01*
G01*
X539000Y117894D02*
X546000Y124894D01*
X539000Y112496D02*
Y117894D01*
Y112496D02*
X543497Y108000D01*
X536500Y79497D02*
Y118222D01*
Y79497D02*
X542997Y73000D01*
X536500Y118222D02*
X544000Y125723D01*
X546118Y118000D02*
X549000D01*
X562019Y131019D01*
X564519D01*
X565000Y131500D01*
X134000Y263000D02*
Y270000D01*
X79370Y197500D02*
Y208370D01*
X134000Y263000D01*
X139000Y183500D02*
X144500Y189000D01*
Y394936D02*
X216115Y466551D01*
X144500Y189000D02*
Y394936D01*
X268000Y247000D02*
X282000D01*
X152625Y214375D02*
X153000Y214000D01*
X152250Y228750D02*
X152625Y228375D01*
Y214375D02*
Y228375D01*
X537414Y445000D02*
X538000Y445586D01*
X487500Y445000D02*
X537414D01*
X538000Y445586D02*
Y462000D01*
X388000Y345500D02*
X487500Y445000D01*
X472551Y441551D02*
Y462988D01*
X477024Y471024D02*
X478000Y472000D01*
X477024Y467460D02*
Y471024D01*
X472551Y462988D02*
X477024Y467460D01*
X362500Y331500D02*
X472551Y441551D01*
X546000Y197000D02*
X549500Y200500D01*
X544000Y125723D02*
Y196500D01*
X540000Y200500D02*
X544000Y196500D01*
X284500Y383000D02*
Y455500D01*
X278000Y462000D02*
X284500Y455500D01*
X218000Y430000D02*
Y462000D01*
X330130Y247500D02*
Y317870D01*
X218000Y430000D02*
X330130Y317870D01*
Y237500D02*
Y247500D01*
X223449Y466551D02*
X228000Y462000D01*
X216115Y466551D02*
X223449D01*
X417500Y222000D02*
Y230858D01*
X409000Y218858D02*
X409500Y218358D01*
Y211500D02*
Y218358D01*
X401000Y200500D02*
Y209358D01*
X400500Y217142D02*
Y229000D01*
Y217142D02*
X401000Y216642D01*
X409000Y226142D02*
Y239500D01*
X417500Y238142D02*
Y250500D01*
X488000Y233642D02*
Y246500D01*
X478500Y224642D02*
Y240000D01*
X470000Y216142D02*
X470500Y215642D01*
X470000Y216142D02*
Y228000D01*
X448363Y222863D02*
X450363D01*
X490064Y250500D02*
X527039Y287476D01*
X447500Y222000D02*
X448363Y222863D01*
X478000Y250500D02*
X490064D01*
X450363Y222863D02*
X478000Y250500D01*
X439500Y220019D02*
X476420Y256939D01*
X479375D01*
X512551Y290115D01*
X439500Y211500D02*
Y220019D01*
X532524Y292546D02*
X532524Y292961D01*
X537012Y297449D01*
X527454Y287476D02*
X527505D01*
X527039D02*
X527454D01*
X532524Y292546D02*
X532524Y292495D01*
X488000Y218000D02*
Y226358D01*
X479000Y209000D02*
Y216858D01*
X478500Y217358D02*
X479000Y216858D01*
X470500Y200000D02*
Y208358D01*
X488000Y188000D02*
Y218000D01*
X479000Y188000D02*
Y209000D01*
X470250Y188250D02*
Y199750D01*
X470500Y200000D01*
X470000Y188000D02*
X470250Y188250D01*
X456500Y167000D02*
X508126D01*
X429193Y156437D02*
X442130Y143500D01*
X417500Y191748D02*
Y222000D01*
X385252Y159500D02*
X417500Y191748D01*
X383874Y159500D02*
X385252D01*
Y166500D02*
X409500Y190748D01*
Y211500D01*
X383874Y166500D02*
X385252D01*
Y173500D02*
X401000Y189248D01*
Y200500D01*
X383874Y173500D02*
X385252D01*
X546000Y124894D02*
Y197000D01*
X543497Y108000D02*
X546118D01*
X542997Y73000D02*
X545618D01*
X492551Y292987D02*
X497013Y297449D01*
X492551Y278130D02*
Y292987D01*
X503449Y297449D02*
X508000Y302000D01*
X497013Y297449D02*
X503449D01*
X431000Y216579D02*
X492551Y278130D01*
X431000Y200500D02*
Y216579D01*
X512551Y290115D02*
Y292987D01*
X517013Y297449D01*
X523449D01*
X528000Y302000D01*
X537012Y297449D02*
X543449D01*
X548000Y302000D01*
X565328Y313000D02*
X567000Y311328D01*
Y258153D02*
Y311328D01*
X513591Y204744D02*
X567000Y258153D01*
X505244Y204744D02*
X513591D01*
X500500Y200000D02*
X505244Y204744D01*
X519069Y213050D02*
X565000Y258981D01*
X513050Y213050D02*
X519069D01*
X565000Y258981D02*
Y310500D01*
X509000Y209000D02*
X513050Y213050D01*
X546500Y310500D02*
X565000D01*
X518000Y218000D02*
X562586Y262586D01*
X558976Y297583D02*
X562586Y293974D01*
Y262586D02*
Y293974D01*
X558976Y297583D02*
Y301024D01*
X558000Y302000D02*
X558976Y301024D01*
X538000Y302000D02*
X546500Y310500D01*
X529000Y313000D02*
X565328D01*
X518000Y302000D02*
X529000Y313000D01*
X550696Y101045D02*
X551455D01*
X554500Y98000D01*
X546118Y103000D02*
X548740D01*
X550696Y101045D01*
X273870Y142000D02*
X274370Y141500D01*
X270917Y157555D02*
X273870Y154603D01*
Y154500D02*
Y154603D01*
X270814Y157555D02*
X270917D01*
X548240Y68000D02*
X550735Y65506D01*
Y63765D02*
X551500Y63000D01*
X545618Y68000D02*
X548240D01*
X550735Y63765D02*
Y65506D01*
X519500Y39094D02*
X520968Y40563D01*
X524563D01*
X530000Y46000D01*
X545618Y83000D02*
X545835Y82783D01*
X564717D01*
X565000Y82500D01*
X545618Y83000D02*
X546118Y83500D01*
X333630Y221000D02*
X351988D01*
X330130Y217500D02*
X333630Y221000D01*
X357988Y227500D02*
X363012Y222476D01*
Y221000D02*
Y222476D01*
X330130Y227500D02*
X357988D01*
X368981Y152500D02*
X383874D01*
X340244Y181237D02*
X368981Y152500D01*
X340244Y181237D02*
Y186744D01*
X358000Y204500D01*
X356500Y183000D02*
X370500Y197000D01*
X344500Y183000D02*
X356500D01*
X370500Y197000D02*
Y212035D01*
X358000Y234500D02*
Y246000D01*
X363012Y219524D02*
X370500Y212035D01*
X363012Y219524D02*
Y221000D01*
X392846Y146095D02*
X419500D01*
X385252Y138500D02*
X392846Y146095D01*
X383874Y138500D02*
X385252D01*
X419500Y146095D02*
X421075D01*
X422669Y144500D02*
X433500D01*
X421075Y146095D02*
X422669Y144500D01*
X450000Y173500D02*
X456500Y167000D01*
X449500Y174000D02*
X450000Y173500D01*
X434000Y174000D02*
X449500D01*
X433500Y174500D02*
X434000Y174000D01*
X442130Y143500D02*
X450000D01*
X420968Y156437D02*
X429193D01*
X419500Y157905D02*
X420968Y156437D01*
X508126Y151252D02*
Y167000D01*
Y182748D01*
X380925Y60405D02*
X384425Y56906D01*
X380815Y60405D02*
X380925D01*
X372000Y69220D02*
X380815Y60405D01*
X372000Y69220D02*
Y94500D01*
X384425Y56906D02*
X386000D01*
X372468Y94500D02*
X375062Y91905D01*
X384500D01*
X372000Y94500D02*
X372468D01*
X372000D02*
X381957Y126937D01*
X385000Y128405D01*
X326000Y17803D02*
X330500Y13303D01*
X326000Y17803D02*
Y27705D01*
Y53295D02*
X330079Y49216D01*
X359500D01*
Y48331D02*
X370425Y37405D01*
X359500Y48331D02*
Y49216D01*
X370425Y37405D02*
X372000D01*
X370425Y25594D02*
X372000D01*
X359500Y14669D02*
X370425Y25594D01*
X359500Y13783D02*
Y14669D01*
X375043Y39181D02*
X380957Y45094D01*
X386000D01*
X375043Y38874D02*
Y39181D01*
X373575Y37405D02*
X375043Y38874D01*
X372000Y37405D02*
X373575D01*
X386000Y45094D02*
X387575D01*
X389980Y47500D02*
X400016D01*
X387575Y45094D02*
X389980Y47500D01*
X384500Y80094D02*
X386075D01*
X388480Y82500D02*
X400016D01*
X386075Y80094D02*
X388480Y82500D01*
X385906Y117500D02*
X400016D01*
X385000Y116595D02*
X385906Y117500D01*
X429500Y120905D02*
X431075D01*
X433634Y123465D02*
X450000D01*
X431075Y120905D02*
X433634Y123465D01*
X447441Y109095D02*
X450000Y106535D01*
X429500Y109095D02*
X447441D01*
X424811D02*
X429500D01*
X415000Y99283D02*
X424811Y109095D01*
X415000Y133831D02*
X427925Y120905D01*
X415000Y133831D02*
Y134716D01*
X427925Y120905D02*
X429500D01*
X383874Y107535D02*
X397169D01*
X408512Y118878D01*
Y128228D01*
X415000Y134716D01*
X414910Y99374D02*
X415000Y99283D01*
X383965Y99374D02*
X414910D01*
X383874Y99465D02*
X383965Y99374D01*
X431575Y66594D02*
X434634Y63535D01*
X451500D01*
X430000Y66594D02*
X431575D01*
X430000Y78405D02*
X431575D01*
X433634Y80465D02*
X451500D01*
X431575Y78405D02*
X433634Y80465D01*
X424843Y65126D02*
X428532D01*
X415000Y55283D02*
X424843Y65126D01*
X428532D02*
X430000Y66594D01*
X416114Y90716D02*
X428425Y78405D01*
X415000Y90716D02*
X416114D01*
X428425Y78405D02*
X430000D01*
X415000Y90366D02*
Y90716D01*
X397169Y72535D02*
X415000Y90366D01*
X383874Y72535D02*
X397169D01*
X383874Y64465D02*
X397169D01*
X406351Y55283D01*
X415000D01*
X431075Y32405D02*
X433134Y34465D01*
X451000D01*
X429500Y32405D02*
X431075D01*
X429500Y20595D02*
X448350D01*
X451000Y17945D01*
Y17535D02*
Y17945D01*
X415000Y9783D02*
X424342Y19126D01*
X428031D02*
X429500Y20595D01*
X424342Y19126D02*
X428031D01*
X415114Y45217D02*
X427925Y32405D01*
X429500D01*
X415000Y45217D02*
X415114D01*
X383874Y37535D02*
X407319D01*
X415000Y45217D01*
X395319Y29465D02*
X415000Y9783D01*
X383874Y29465D02*
X395319D01*
X304000Y177500D02*
X312000Y185500D01*
X304000Y167000D02*
Y177500D01*
X230000Y220000D02*
X253000D01*
X222000Y212000D02*
X230000Y220000D01*
X253000D02*
X268000Y235000D01*
Y247000D01*
Y208500D02*
Y217000D01*
Y169524D02*
X281476D01*
X284000Y167000D01*
X268000Y169524D02*
Y175000D01*
X253000Y190000D02*
X268000Y175000D01*
X284000Y167000D02*
Y182279D01*
X282000Y184279D02*
X284000Y182279D01*
X282000Y184279D02*
Y185500D01*
X164000Y205976D02*
X169613Y200363D01*
X172137D01*
X186500Y184500D02*
X194000Y177000D01*
Y167000D02*
Y177000D01*
X164000Y167000D02*
X194000D01*
X153000Y178000D02*
Y184000D01*
Y178000D02*
X164000Y167000D01*
X168500Y229500D02*
X173000D01*
X153000Y214000D02*
X168500Y229500D01*
X189500D02*
X202000Y242000D01*
X173000Y229500D02*
X189500D01*
D18*
X283630Y141500D02*
D03*
X274370D02*
D03*
X283130Y154500D02*
D03*
X273870D02*
D03*
D23*
X351988Y221000D02*
D03*
X363012D02*
D03*
D42*
X383874Y187500D02*
D03*
Y180500D02*
D03*
Y173500D02*
D03*
Y166500D02*
D03*
Y159500D02*
D03*
Y152500D02*
D03*
Y145500D02*
D03*
Y138500D02*
D03*
Y107535D02*
D03*
Y99465D02*
D03*
Y72535D02*
D03*
Y64465D02*
D03*
Y37535D02*
D03*
Y29465D02*
D03*
X400016Y124500D02*
D03*
Y117500D02*
D03*
Y89500D02*
D03*
Y82500D02*
D03*
Y54500D02*
D03*
Y47500D02*
D03*
D43*
X175654Y177000D02*
D03*
X225654D02*
D03*
X254000D02*
D03*
X325260D02*
D03*
X508126Y182748D02*
D03*
Y167000D02*
D03*
Y151252D02*
D03*
Y121252D02*
D03*
Y91252D02*
D03*
Y61252D02*
D03*
Y31252D02*
D03*
D58*
X130000Y122343D02*
D03*
D59*
Y102657D02*
D03*
X433500Y174500D02*
D03*
Y144500D02*
D03*
X450000Y173500D02*
D03*
Y143500D02*
D03*
X439500Y211500D02*
D03*
X409500D02*
D03*
X500500Y200000D02*
D03*
X470500D02*
D03*
X509000Y209000D02*
D03*
X479000D02*
D03*
X84000Y373000D02*
D03*
Y343000D02*
D03*
Y336000D02*
D03*
Y306000D02*
D03*
X358000Y234500D02*
D03*
Y204500D02*
D03*
X417500Y222000D02*
D03*
X447500D02*
D03*
X401000Y200500D02*
D03*
X431000D02*
D03*
X488000Y218000D02*
D03*
X518000D02*
D03*
X173000Y229500D02*
D03*
Y199500D02*
D03*
X282000Y185500D02*
D03*
X312000D02*
D03*
X253000Y220000D02*
D03*
Y190000D02*
D03*
X268000Y247000D02*
D03*
Y217000D02*
D03*
X153000Y214000D02*
D03*
Y184000D02*
D03*
X186500Y184500D02*
D03*
X216500D02*
D03*
X160000Y241000D02*
D03*
X190000D02*
D03*
X340500Y197000D02*
D03*
X370500D02*
D03*
X344500Y183000D02*
D03*
Y153000D02*
D03*
X69000Y141000D02*
D03*
Y111000D02*
D03*
Y181000D02*
D03*
Y151000D02*
D03*
D60*
X17500Y17500D02*
D03*
Y482500D02*
D03*
X580000Y17500D02*
D03*
X582500Y482500D02*
D03*
D61*
X251000Y128055D02*
D03*
Y108370D02*
D03*
Y88685D02*
D03*
Y69000D02*
D03*
Y49315D02*
D03*
X162417D02*
D03*
Y69000D02*
D03*
Y88685D02*
D03*
Y108370D02*
D03*
Y128055D02*
D03*
D62*
X58000Y283500D02*
D03*
Y273500D02*
D03*
Y263500D02*
D03*
Y253500D02*
D03*
Y233500D02*
D03*
Y223500D02*
D03*
Y213500D02*
D03*
X19500Y263500D02*
D03*
Y253500D02*
D03*
Y243500D02*
D03*
Y233500D02*
D03*
Y213500D02*
D03*
Y203500D02*
D03*
Y193500D02*
D03*
X19366Y103000D02*
D03*
Y113000D02*
D03*
Y123000D02*
D03*
Y143000D02*
D03*
Y153000D02*
D03*
Y163000D02*
D03*
Y173000D02*
D03*
D63*
X31000Y377000D02*
D03*
Y397000D02*
D03*
Y417000D02*
D03*
Y437000D02*
D03*
Y457000D02*
D03*
X25000Y353500D02*
D03*
Y333500D02*
D03*
Y313500D02*
D03*
X578500Y42000D02*
D03*
Y62000D02*
D03*
Y82000D02*
D03*
X227000Y20000D02*
D03*
X24000Y64500D02*
D03*
D64*
X558000Y302000D02*
D03*
X548000D02*
D03*
X538000D02*
D03*
X528000D02*
D03*
X518000D02*
D03*
X508000D02*
D03*
X498000D02*
D03*
X488000D02*
D03*
X478000D02*
D03*
X468000D02*
D03*
X558000Y292000D02*
D03*
X548000D02*
D03*
X538000D02*
D03*
X528000D02*
D03*
X518000D02*
D03*
X508000D02*
D03*
X498000D02*
D03*
X488000D02*
D03*
X478000D02*
D03*
X468000D02*
D03*
X548000Y472000D02*
D03*
X538000D02*
D03*
X528000D02*
D03*
X518000D02*
D03*
X508000D02*
D03*
X498000D02*
D03*
X488000D02*
D03*
X478000D02*
D03*
X468000D02*
D03*
X558000Y462000D02*
D03*
X548000D02*
D03*
X538000D02*
D03*
X528000D02*
D03*
X518000D02*
D03*
X508000D02*
D03*
X498000D02*
D03*
X488000D02*
D03*
X478000D02*
D03*
X468000D02*
D03*
X218000Y302000D02*
D03*
X238000D02*
D03*
X228000D02*
D03*
X238000Y292000D02*
D03*
X248000Y302000D02*
D03*
X268000D02*
D03*
X258000D02*
D03*
X278000D02*
D03*
X298000D02*
D03*
X288000D02*
D03*
X218000Y292000D02*
D03*
X228000D02*
D03*
X258000D02*
D03*
X248000D02*
D03*
X268000D02*
D03*
X288000D02*
D03*
X278000D02*
D03*
X298000D02*
D03*
X308000Y302000D02*
D03*
Y292000D02*
D03*
X218000Y472000D02*
D03*
X248000D02*
D03*
X258000D02*
D03*
X228000D02*
D03*
X238000D02*
D03*
X218000Y462000D02*
D03*
X228000D02*
D03*
X238000D02*
D03*
X248000D02*
D03*
X258000D02*
D03*
X288000Y472000D02*
D03*
X268000D02*
D03*
X278000D02*
D03*
X298000D02*
D03*
X288000Y462000D02*
D03*
X298000D02*
D03*
X268000D02*
D03*
X278000D02*
D03*
X308000D02*
D03*
D65*
X558000Y472000D02*
D03*
X308000D02*
D03*
D66*
X304000Y167000D02*
D03*
X294000D02*
D03*
X214000D02*
D03*
X204000D02*
D03*
D67*
X284000D02*
D03*
X194000D02*
D03*
D68*
X79370Y197500D02*
D03*
X330130Y247500D02*
D03*
D69*
X79370Y187500D02*
D03*
Y177500D02*
D03*
Y167500D02*
D03*
X110630D02*
D03*
Y177500D02*
D03*
Y187500D02*
D03*
Y197500D02*
D03*
X298870Y247500D02*
D03*
Y237500D02*
D03*
Y227500D02*
D03*
Y217500D02*
D03*
X330130D02*
D03*
Y227500D02*
D03*
Y237500D02*
D03*
D70*
X565000Y52500D02*
D03*
Y82500D02*
D03*
Y101500D02*
D03*
Y131500D02*
D03*
X358000Y276000D02*
D03*
Y246000D02*
D03*
X222000Y242000D02*
D03*
X212000D02*
D03*
X202000D02*
D03*
Y212000D02*
D03*
X212000D02*
D03*
X222000D02*
D03*
X232000D02*
D03*
D71*
X359500Y49216D02*
D03*
Y13783D02*
D03*
X415000Y45217D02*
D03*
Y9783D02*
D03*
X415000Y90716D02*
D03*
Y55283D02*
D03*
Y134716D02*
D03*
Y99283D02*
D03*
D72*
X164000Y167000D02*
D03*
X268000Y169524D02*
D03*
D73*
X164000Y205976D02*
D03*
X268000Y208500D02*
D03*
D74*
X247000Y20000D02*
D03*
D75*
X159902Y259500D02*
D03*
X69000Y11012D02*
D03*
Y99988D02*
D03*
D76*
X272500Y259500D02*
D03*
D77*
X232000Y242000D02*
D03*
D78*
X286500Y91000D02*
D03*
D79*
Y110685D02*
D03*
D80*
X349158Y32472D02*
D03*
X359000Y62000D02*
D03*
X122500Y35000D02*
D03*
X132343Y64528D02*
D03*
D81*
X330500Y13303D02*
D03*
X104000Y24500D02*
D03*
D82*
X330500Y88500D02*
D03*
X104000Y99697D02*
D03*
D83*
X24000Y44500D02*
D03*
D84*
X138000Y251500D02*
D03*
X539500Y26000D02*
D03*
X267000Y118500D02*
D03*
X530000Y264500D02*
D03*
X292000Y256500D02*
D03*
X112000Y137500D02*
D03*
X63000Y324000D02*
D03*
X63500Y336857D02*
D03*
X139000Y183500D02*
D03*
X134000Y270000D02*
D03*
X287929Y265429D02*
D03*
X282000Y247000D02*
D03*
X152250Y228750D02*
D03*
X112000Y152500D02*
D03*
X110000Y263000D02*
D03*
X63500Y306000D02*
D03*
X304500Y126500D02*
D03*
X286500D02*
D03*
X362500Y331500D02*
D03*
X388000Y345500D02*
D03*
X549500Y200500D02*
D03*
X540000D02*
D03*
X284500Y383000D02*
D03*
X101317Y419201D02*
D03*
X101817Y405201D02*
D03*
X102000Y391000D02*
D03*
X129500Y428500D02*
D03*
X129000Y415000D02*
D03*
X400500Y229000D02*
D03*
X409000Y239500D02*
D03*
X470000Y228000D02*
D03*
X478500Y240000D02*
D03*
X488000Y188000D02*
D03*
X479000D02*
D03*
X470000D02*
D03*
X527500Y125500D02*
D03*
Y90500D02*
D03*
X554500Y98000D02*
D03*
X255000Y163500D02*
D03*
X551500Y63000D02*
D03*
X530000Y46000D02*
D03*
X130000Y195500D02*
D03*
X129000Y400500D02*
D03*
X488000Y246500D02*
D03*
X417500Y250500D02*
D03*
X372000Y94500D02*
D03*
X359000Y73000D02*
D03*
D85*
X532524Y292546D02*
D03*
X527454Y287476D02*
D03*
D86*
X451500Y80465D02*
D03*
Y63535D02*
D03*
X451000Y17535D02*
D03*
Y34465D02*
D03*
X450000Y106535D02*
D03*
Y123465D02*
D03*
D87*
X419500Y157905D02*
D03*
Y146095D02*
D03*
X519500Y39094D02*
D03*
Y50906D02*
D03*
X372000Y37405D02*
D03*
Y25594D02*
D03*
X385000Y116595D02*
D03*
Y128405D02*
D03*
X384500Y80094D02*
D03*
Y91905D02*
D03*
X386000Y45094D02*
D03*
Y56906D02*
D03*
X429500Y32405D02*
D03*
Y20595D02*
D03*
X430000Y78405D02*
D03*
Y66594D02*
D03*
X429500Y120905D02*
D03*
Y109095D02*
D03*
D88*
X527882Y103000D02*
D03*
X527382Y68000D02*
D03*
D89*
X527882Y108000D02*
D03*
Y113000D02*
D03*
Y118000D02*
D03*
X546118D02*
D03*
Y113000D02*
D03*
Y108000D02*
D03*
Y103000D02*
D03*
X527382Y73000D02*
D03*
Y78000D02*
D03*
Y83000D02*
D03*
X545618D02*
D03*
Y78000D02*
D03*
Y73000D02*
D03*
Y68000D02*
D03*
D90*
X409000Y226142D02*
D03*
Y218858D02*
D03*
X470500Y215642D02*
D03*
Y208358D02*
D03*
X478500Y224642D02*
D03*
Y217358D02*
D03*
X417500Y230858D02*
D03*
Y238142D02*
D03*
X401000Y209358D02*
D03*
Y216642D02*
D03*
X488000Y226358D02*
D03*
Y233642D02*
D03*
D91*
X326000Y53295D02*
D03*
Y27705D02*
D03*
M02*
