M48
;Layer_Color=9474304
;FILE_FORMAT=2:5
INCH,LZ
;TYPE=PLATED
T1F00S00C0.02756
T2F00S00C0.02800
T3F00S00C0.02874
T4F00S00C0.02953
T5F00S00C0.03150
T6F00S00C0.03346
T7F00S00C0.03543
T9F00S00C0.04016
T10F00S00C0.04134
T11F00S00C0.04173
T12F00S00C0.04528
T13F00S00C0.05118
T14F00S00C0.05433
T15F00S00C0.05512
T16F00S00C0.05906
T17F00S00C0.07087
T18F00S00C0.07874
;TYPE=NON_PLATED
T19F00S00C0.16700
%
T01
X0565Y00525
Y00825
Y01015
Y01315
X0358Y0246
Y0276
T02
X05395Y0026
X053Y0046
X05515Y0063
X05545Y0098
X05275Y00905
Y01255
X054Y02005
X05495
X0488Y0188
X0479
X047
X0372Y00945
X0359Y0073
X03045Y01265
X02865
X0267Y01185
X0255Y01635
X0139Y01835
X013Y01955
X0112Y01525
Y01375
X011Y0263
X0134Y027
X0138Y02515
X015225Y022875
X00635Y0306
X0063Y0324
X00635Y0336857
X0287929Y0265429
X0292Y02565
X0282Y0247
X03625Y03315
X0388Y03455
X04175Y02505
X0409Y02395
X04005Y0229
X047Y0228
X04785Y024
X0488Y02465
X053Y02645
X02845Y0383
X0129Y04005
Y0415
X01295Y04285
X0101317Y0419201
X0101817Y0405201
X0102Y0391
T03
X007937Y01675
Y01775
Y01875
Y01975
X011063
Y01875
Y01775
Y01675
X029887Y02175
Y02275
Y02375
Y02475
X033013
Y02375
Y02275
Y02175
T04
X0268Y0169524
Y02085
X0164Y0205976
Y0167
T05
X0222Y0212
X0232
X0212
X0202
Y0242
X0212
X0222
X0232
T06
X03705Y0197
X0401Y02005
X04095Y02115
X04395
X0431Y02005
X04335Y01745
X045Y01735
Y01435
X04335Y01445
X04705Y02
X0479Y0209
X0509
X05005Y02
X0358Y02045
X03405Y0197
X03445Y0183
Y0153
X0312Y01855
X0282
X0253Y019
X02165Y01845
X02865Y0110685
Y0091
X01865Y01845
X0173Y01995
X0153Y0184
X0069Y0181
Y0151
Y0141
Y0111
X0153Y0214
X016Y0241
X0173Y02295
X019Y0241
X0084Y0306
Y0336
Y0343
X0268Y0247
Y0217
X0253Y022
X0358Y02345
X04175Y0222
X04475
X0488Y0218
X0518
X0084Y0373
T07
X013Y0102657
Y0122343
T09
X0218Y0292
Y0302
X0228
X0238
Y0292
X0228
X0248
Y0302
X0258
X0268
X0278
X0288
X0298
Y0292
X0288
X0278
X0268
X0258
X0308
Y0302
X0468
X0478
X0488
X0498
X0508
X0518
Y0292
X0508
X0498
X0488
X0478
X0468
X0528
Y0302
X0538
X0548
X0558
Y0292
X0548
X0538
Y0462
Y0472
X0548
X0558
Y0462
X0548
X0528
Y0472
X0518
X0508
X0498
X0488
X0478
X0468
Y0462
X0478
X0488
X0498
X0508
X0518
X0308
X0298
Y0472
X0288
X0278
X0268
X0258
X0248
X0238
X0228
X0218
Y0462
X0228
X0238
X0248
X0258
X0268
X0278
X0288
X0308Y0472
T10
X0104Y00245
X03305Y0013303
Y00885
X0104Y0099697
T11
X01225Y0035
X0349158Y0032472
X0359Y0062
X0132343Y0064528
T12
X03595Y0013783
Y0049216
X0415Y0045217
X0415Y0055283
X0415Y0009783
X0415Y0090716
Y0099283
Y0134716
X0019366Y0143
Y0153
Y0163
Y0173
X00195Y01935
Y02035
X0019366Y0123
Y0113
Y0103
X00195Y02135
Y02335
Y02435
Y02535
Y02635
X0058
Y02735
Y02835
Y02535
Y02335
Y02235
Y02135
T13
X0024Y00445
X0227Y002
X0247
X05785Y0042
Y0062
Y0082
X0024Y00645
X0025Y03135
Y03335
Y03535
X0031Y0377
Y0397
Y0417
Y0437
Y0457
T14
X0214Y0167
X0284
X0294
X0304
X0204
X0194
T15
X0162417Y0049315
X0251
Y0069
Y0088685
Y010837
Y0128055
X0162417
Y010837
Y0088685
Y0069
T16
X0069Y0011012
Y0099988
X0159902Y02595
X02725
T17
X0508126Y0031252
Y0061252
Y0091252
Y0121252
Y0151252
Y0167
Y0182748
T18
X0225654Y0177
X0254
X032526
X0175654
T19
X00175Y00175
X058
X05825Y04825
X00175
M30
