G04*
G04 #@! TF.GenerationSoftware,Altium Limited,Altium Designer,21.2.2 (38)*
G04*
G04 Layer_Color=32896*
%FSLAX25Y25*%
%MOIN*%
G70*
G04*
G04 #@! TF.SameCoordinates,0CC3C9D5-6B2F-423D-8AA3-22EEB0D6369A*
G04*
G04*
G04 #@! TF.FilePolarity,Positive*
G04*
G01*
G75*
%ADD10C,0.00787*%
G36*
X371673Y167272D02*
X371696D01*
X371727Y167268D01*
X371796Y167256D01*
X371873Y167233D01*
X371953Y167202D01*
X372034Y167164D01*
X372072Y167137D01*
X372111Y167106D01*
X372115D01*
X372118Y167099D01*
X372142Y167076D01*
X372172Y167037D01*
X372211Y166988D01*
X372253Y166922D01*
X372288Y166845D01*
X372322Y166753D01*
X372341Y166649D01*
X372034Y166627D01*
Y166630D01*
Y166634D01*
X372026Y166657D01*
X372015Y166688D01*
X372003Y166726D01*
X371965Y166815D01*
X371942Y166853D01*
X371915Y166888D01*
X371911Y166895D01*
X371892Y166911D01*
X371865Y166930D01*
X371831Y166957D01*
X371784Y166980D01*
X371731Y167003D01*
X371669Y167018D01*
X371604Y167022D01*
X371577D01*
X371550Y167018D01*
X371516Y167010D01*
X371473Y167003D01*
X371427Y166988D01*
X371385Y166964D01*
X371339Y166938D01*
X371331Y166934D01*
X371316Y166918D01*
X371289Y166892D01*
X371258Y166857D01*
X371220Y166815D01*
X371182Y166761D01*
X371143Y166696D01*
X371109Y166623D01*
Y166619D01*
X371105Y166615D01*
X371101Y166600D01*
X371097Y166584D01*
X371089Y166565D01*
X371082Y166538D01*
X371074Y166507D01*
X371066Y166473D01*
X371059Y166435D01*
X371051Y166392D01*
X371043Y166342D01*
X371036Y166292D01*
X371032Y166235D01*
X371028Y166173D01*
X371024Y166108D01*
Y166043D01*
X371028Y166047D01*
X371043Y166066D01*
X371066Y166097D01*
X371101Y166135D01*
X371139Y166177D01*
X371185Y166219D01*
X371239Y166258D01*
X371297Y166292D01*
X371304Y166296D01*
X371324Y166304D01*
X371358Y166319D01*
X371400Y166335D01*
X371450Y166350D01*
X371508Y166365D01*
X371569Y166373D01*
X371635Y166377D01*
X371665D01*
X371688Y166373D01*
X371715Y166369D01*
X371746Y166365D01*
X371819Y166350D01*
X371900Y166319D01*
X371946Y166304D01*
X371988Y166281D01*
X372034Y166254D01*
X372080Y166223D01*
X372122Y166189D01*
X372165Y166147D01*
X372168Y166143D01*
X372172Y166135D01*
X372184Y166123D01*
X372199Y166104D01*
X372215Y166081D01*
X372234Y166054D01*
X372253Y166024D01*
X372276Y165989D01*
X372295Y165947D01*
X372314Y165905D01*
X372334Y165855D01*
X372349Y165805D01*
X372364Y165747D01*
X372376Y165690D01*
X372380Y165624D01*
X372383Y165559D01*
Y165555D01*
Y165548D01*
Y165536D01*
Y165521D01*
X372380Y165498D01*
Y165474D01*
X372372Y165413D01*
X372357Y165348D01*
X372341Y165271D01*
X372314Y165194D01*
X372280Y165117D01*
Y165114D01*
X372276Y165110D01*
X372268Y165098D01*
X372261Y165083D01*
X372238Y165048D01*
X372207Y165002D01*
X372165Y164952D01*
X372115Y164902D01*
X372061Y164852D01*
X371996Y164806D01*
X371988Y164803D01*
X371965Y164791D01*
X371926Y164772D01*
X371880Y164753D01*
X371819Y164733D01*
X371750Y164714D01*
X371673Y164703D01*
X371592Y164699D01*
X371577D01*
X371554Y164703D01*
X371527D01*
X371496Y164707D01*
X371458Y164714D01*
X371416Y164722D01*
X371370Y164733D01*
X371320Y164749D01*
X371266Y164768D01*
X371216Y164791D01*
X371162Y164818D01*
X371109Y164852D01*
X371055Y164891D01*
X371005Y164933D01*
X370959Y164983D01*
X370955Y164987D01*
X370947Y164998D01*
X370936Y165014D01*
X370920Y165037D01*
X370901Y165068D01*
X370882Y165106D01*
X370859Y165152D01*
X370840Y165206D01*
X370817Y165267D01*
X370794Y165336D01*
X370775Y165413D01*
X370755Y165498D01*
X370740Y165590D01*
X370728Y165693D01*
X370721Y165801D01*
X370717Y165920D01*
Y165924D01*
Y165928D01*
Y165939D01*
Y165951D01*
Y165989D01*
X370721Y166039D01*
X370725Y166100D01*
X370732Y166170D01*
X370740Y166246D01*
X370752Y166327D01*
X370763Y166415D01*
X370782Y166504D01*
X370805Y166592D01*
X370832Y166676D01*
X370863Y166765D01*
X370897Y166842D01*
X370940Y166918D01*
X370986Y166984D01*
X370990Y166988D01*
X370997Y166995D01*
X371009Y167010D01*
X371028Y167030D01*
X371055Y167053D01*
X371082Y167076D01*
X371116Y167103D01*
X371155Y167130D01*
X371197Y167156D01*
X371247Y167183D01*
X371297Y167206D01*
X371354Y167229D01*
X371416Y167249D01*
X371481Y167264D01*
X371550Y167272D01*
X371623Y167276D01*
X371650D01*
X371673Y167272D01*
D02*
G37*
G36*
X365752Y167302D02*
X365782Y167298D01*
X365821Y167295D01*
X365863Y167291D01*
X365909Y167283D01*
X366009Y167260D01*
X366117Y167226D01*
X366170Y167202D01*
X366224Y167176D01*
X366274Y167145D01*
X366324Y167110D01*
X366328Y167106D01*
X366336Y167103D01*
X366347Y167091D01*
X366366Y167076D01*
X366385Y167057D01*
X366412Y167030D01*
X366439Y167003D01*
X366466Y166972D01*
X366497Y166934D01*
X366524Y166895D01*
X366554Y166849D01*
X366585Y166799D01*
X366612Y166749D01*
X366639Y166692D01*
X366685Y166569D01*
X366355Y166492D01*
Y166496D01*
X366351Y166504D01*
X366347Y166519D01*
X366339Y166538D01*
X366328Y166561D01*
X366316Y166588D01*
X366289Y166646D01*
X366255Y166711D01*
X366209Y166780D01*
X366159Y166842D01*
X366097Y166895D01*
X366090Y166899D01*
X366067Y166914D01*
X366032Y166934D01*
X365982Y166961D01*
X365925Y166984D01*
X365852Y167003D01*
X365771Y167018D01*
X365679Y167022D01*
X365652D01*
X365633Y167018D01*
X365606D01*
X365579Y167014D01*
X365510Y167003D01*
X365433Y166988D01*
X365352Y166961D01*
X365272Y166926D01*
X365195Y166880D01*
X365191D01*
X365187Y166872D01*
X365164Y166853D01*
X365130Y166822D01*
X365088Y166780D01*
X365045Y166726D01*
X364999Y166665D01*
X364957Y166588D01*
X364922Y166504D01*
Y166500D01*
X364918Y166492D01*
X364915Y166481D01*
X364911Y166461D01*
X364903Y166442D01*
X364899Y166415D01*
X364884Y166354D01*
X364869Y166281D01*
X364857Y166200D01*
X364849Y166112D01*
X364846Y166020D01*
Y166016D01*
Y166004D01*
Y165989D01*
Y165966D01*
X364849Y165939D01*
Y165905D01*
X364853Y165870D01*
X364857Y165832D01*
X364869Y165743D01*
X364884Y165647D01*
X364907Y165551D01*
X364938Y165459D01*
Y165455D01*
X364942Y165448D01*
X364949Y165436D01*
X364957Y165421D01*
X364976Y165375D01*
X365007Y165325D01*
X365049Y165263D01*
X365099Y165206D01*
X365157Y165148D01*
X365226Y165098D01*
X365230D01*
X365233Y165094D01*
X365245Y165087D01*
X365260Y165079D01*
X365302Y165064D01*
X365356Y165041D01*
X365418Y165021D01*
X365491Y165002D01*
X365571Y164987D01*
X365656Y164983D01*
X365683D01*
X365702Y164987D01*
X365725D01*
X365756Y164991D01*
X365821Y165002D01*
X365894Y165021D01*
X365974Y165052D01*
X366051Y165091D01*
X366128Y165144D01*
X366132Y165148D01*
X366136Y165152D01*
X366159Y165175D01*
X366193Y165213D01*
X366236Y165263D01*
X366278Y165332D01*
X366324Y165413D01*
X366362Y165513D01*
X366393Y165624D01*
X366727Y165540D01*
Y165536D01*
X366723Y165521D01*
X366716Y165501D01*
X366708Y165471D01*
X366693Y165440D01*
X366677Y165398D01*
X366662Y165356D01*
X366639Y165309D01*
X366589Y165206D01*
X366520Y165102D01*
X366443Y165002D01*
X366397Y164956D01*
X366347Y164914D01*
X366343Y164910D01*
X366336Y164906D01*
X366320Y164895D01*
X366297Y164879D01*
X366270Y164864D01*
X366240Y164845D01*
X366205Y164825D01*
X366163Y164806D01*
X366117Y164787D01*
X366067Y164768D01*
X366009Y164749D01*
X365951Y164733D01*
X365825Y164707D01*
X365756Y164703D01*
X365683Y164699D01*
X365644D01*
X365614Y164703D01*
X365579D01*
X365541Y164707D01*
X365494Y164714D01*
X365448Y164718D01*
X365341Y164741D01*
X365230Y164768D01*
X365122Y164810D01*
X365068Y164833D01*
X365018Y164864D01*
X365015Y164868D01*
X365007Y164872D01*
X364995Y164883D01*
X364976Y164895D01*
X364930Y164933D01*
X364876Y164987D01*
X364811Y165052D01*
X364750Y165137D01*
X364684Y165233D01*
X364631Y165344D01*
Y165348D01*
X364627Y165359D01*
X364619Y165375D01*
X364611Y165398D01*
X364600Y165428D01*
X364588Y165463D01*
X364577Y165501D01*
X364565Y165548D01*
X364554Y165594D01*
X364542Y165647D01*
X364519Y165762D01*
X364504Y165885D01*
X364500Y166020D01*
Y166024D01*
Y166039D01*
Y166058D01*
X364504Y166085D01*
Y166120D01*
X364508Y166162D01*
X364511Y166204D01*
X364519Y166254D01*
X364538Y166362D01*
X364561Y166477D01*
X364600Y166596D01*
X364650Y166707D01*
Y166711D01*
X364657Y166719D01*
X364665Y166734D01*
X364677Y166757D01*
X364692Y166780D01*
X364711Y166807D01*
X364761Y166872D01*
X364819Y166945D01*
X364892Y167018D01*
X364980Y167091D01*
X365076Y167153D01*
X365080D01*
X365088Y167160D01*
X365103Y167168D01*
X365126Y167176D01*
X365149Y167187D01*
X365180Y167202D01*
X365218Y167214D01*
X365256Y167229D01*
X365299Y167245D01*
X365345Y167256D01*
X365448Y167283D01*
X365564Y167298D01*
X365686Y167306D01*
X365725D01*
X365752Y167302D01*
D02*
G37*
G36*
X369861Y164710D02*
Y164707D01*
X369857Y164699D01*
X369849Y164683D01*
X369841Y164660D01*
X369834Y164637D01*
X369822Y164611D01*
X369799Y164545D01*
X369768Y164476D01*
X369742Y164411D01*
X369715Y164346D01*
X369699Y164319D01*
X369688Y164296D01*
X369684Y164288D01*
X369672Y164273D01*
X369657Y164246D01*
X369634Y164211D01*
X369603Y164177D01*
X369573Y164138D01*
X369534Y164104D01*
X369496Y164073D01*
X369492Y164069D01*
X369477Y164061D01*
X369454Y164050D01*
X369423Y164038D01*
X369388Y164023D01*
X369342Y164012D01*
X369296Y164004D01*
X369242Y164000D01*
X369227D01*
X369208Y164004D01*
X369185D01*
X369154Y164008D01*
X369120Y164015D01*
X369043Y164038D01*
X369008Y164326D01*
X369012D01*
X369023Y164322D01*
X369043Y164319D01*
X369070Y164311D01*
X369123Y164299D01*
X369185Y164296D01*
X369204D01*
X369219Y164299D01*
X369246D01*
X369300Y164311D01*
X369327Y164319D01*
X369350Y164330D01*
X369354D01*
X369361Y164338D01*
X369373Y164346D01*
X369384Y164357D01*
X369419Y164388D01*
X369454Y164430D01*
Y164434D01*
X369457Y164442D01*
X369465Y164453D01*
X369477Y164476D01*
X369488Y164507D01*
X369503Y164545D01*
X369523Y164599D01*
X369546Y164660D01*
X369549Y164664D01*
X369553Y164680D01*
X369565Y164703D01*
X369576Y164737D01*
X368881Y166569D01*
X369212D01*
X369592Y165517D01*
Y165513D01*
X369596Y165509D01*
X369600Y165498D01*
X369603Y165482D01*
X369619Y165440D01*
X369638Y165386D01*
X369657Y165325D01*
X369680Y165252D01*
X369703Y165175D01*
X369726Y165094D01*
Y165098D01*
X369730Y165102D01*
Y165114D01*
X369738Y165129D01*
X369745Y165171D01*
X369761Y165221D01*
X369780Y165282D01*
X369803Y165352D01*
X369826Y165425D01*
X369853Y165501D01*
X370245Y166569D01*
X370552D01*
X369861Y164710D01*
D02*
G37*
G36*
X367403Y166365D02*
X367407Y166369D01*
X367411Y166377D01*
X367422Y166388D01*
X367438Y166404D01*
X367457Y166423D01*
X367480Y166442D01*
X367537Y166488D01*
X367606Y166534D01*
X367695Y166573D01*
X367741Y166588D01*
X367791Y166600D01*
X367845Y166607D01*
X367898Y166611D01*
X367929D01*
X367960Y166607D01*
X368002Y166604D01*
X368052Y166596D01*
X368106Y166580D01*
X368160Y166565D01*
X368217Y166542D01*
X368225Y166538D01*
X368244Y166531D01*
X368271Y166515D01*
X368305Y166492D01*
X368344Y166465D01*
X368382Y166431D01*
X368424Y166392D01*
X368463Y166350D01*
X368467Y166346D01*
X368478Y166327D01*
X368497Y166300D01*
X368520Y166266D01*
X368544Y166223D01*
X368570Y166173D01*
X368593Y166116D01*
X368616Y166051D01*
X368620Y166043D01*
X368624Y166020D01*
X368636Y165985D01*
X368647Y165939D01*
X368655Y165885D01*
X368666Y165824D01*
X368670Y165755D01*
X368674Y165682D01*
Y165678D01*
Y165663D01*
Y165636D01*
X368670Y165605D01*
X368666Y165563D01*
X368663Y165521D01*
X368655Y165467D01*
X368643Y165413D01*
X368616Y165298D01*
X368597Y165236D01*
X368574Y165175D01*
X368547Y165114D01*
X368517Y165056D01*
X368482Y165002D01*
X368440Y164952D01*
X368436Y164948D01*
X368428Y164941D01*
X368417Y164929D01*
X368398Y164914D01*
X368378Y164895D01*
X368352Y164872D01*
X368321Y164849D01*
X368282Y164825D01*
X368202Y164779D01*
X368109Y164737D01*
X368056Y164722D01*
X368002Y164710D01*
X367944Y164703D01*
X367883Y164699D01*
X367852D01*
X367829Y164703D01*
X367802Y164707D01*
X367772Y164714D01*
X367699Y164733D01*
X367660Y164745D01*
X367618Y164764D01*
X367576Y164787D01*
X367534Y164814D01*
X367495Y164845D01*
X367453Y164879D01*
X367414Y164922D01*
X367380Y164968D01*
Y164741D01*
X367092D01*
Y167264D01*
X367403D01*
Y166365D01*
D02*
G37*
G36*
X137301Y173330D02*
X134778D01*
Y173664D01*
X137005D01*
Y174904D01*
X137301D01*
Y173330D01*
D02*
G37*
G36*
Y172423D02*
X134778D01*
Y172757D01*
X137301D01*
Y172423D01*
D02*
G37*
G36*
X138000Y170081D02*
X137777D01*
Y172132D01*
X138000D01*
Y170081D01*
D02*
G37*
G36*
X137301Y169578D02*
X134778D01*
Y169889D01*
X137301D01*
Y169578D01*
D02*
G37*
G36*
Y168795D02*
X134778D01*
Y169106D01*
X137301D01*
Y168795D01*
D02*
G37*
G36*
Y168096D02*
X137297Y168092D01*
X137286Y168088D01*
X137263Y168080D01*
X137236Y168069D01*
X137201Y168057D01*
X137163Y168050D01*
X137121Y168042D01*
X137071Y168034D01*
X137078Y168026D01*
X137094Y168003D01*
X137121Y167973D01*
X137151Y167927D01*
X137190Y167877D01*
X137224Y167819D01*
X137255Y167762D01*
X137282Y167700D01*
X137286Y167692D01*
X137290Y167673D01*
X137301Y167642D01*
X137313Y167600D01*
X137324Y167546D01*
X137332Y167489D01*
X137340Y167428D01*
X137343Y167358D01*
Y167332D01*
X137340Y167308D01*
Y167285D01*
X137336Y167255D01*
X137324Y167189D01*
X137309Y167113D01*
X137282Y167040D01*
X137247Y166963D01*
X137197Y166898D01*
X137190Y166890D01*
X137171Y166871D01*
X137140Y166848D01*
X137094Y166817D01*
X137040Y166786D01*
X136979Y166763D01*
X136902Y166744D01*
X136821Y166736D01*
X136813D01*
X136798D01*
X136771Y166740D01*
X136741Y166744D01*
X136702Y166752D01*
X136660Y166759D01*
X136618Y166775D01*
X136575Y166794D01*
X136572Y166798D01*
X136556Y166805D01*
X136537Y166817D01*
X136510Y166836D01*
X136483Y166859D01*
X136452Y166890D01*
X136426Y166921D01*
X136399Y166955D01*
X136395Y166959D01*
X136387Y166974D01*
X136376Y166994D01*
X136360Y167020D01*
X136341Y167055D01*
X136326Y167090D01*
X136310Y167132D01*
X136295Y167178D01*
Y167182D01*
X136291Y167197D01*
X136287Y167216D01*
X136280Y167247D01*
X136272Y167285D01*
X136264Y167335D01*
X136257Y167389D01*
X136249Y167454D01*
Y167458D01*
X136245Y167470D01*
Y167489D01*
X136241Y167516D01*
X136238Y167546D01*
X136234Y167581D01*
X136218Y167666D01*
X136203Y167754D01*
X136188Y167846D01*
X136164Y167934D01*
X136153Y167973D01*
X136142Y168007D01*
X136138D01*
X136130D01*
X136107Y168011D01*
X136080D01*
X136068D01*
X136061D01*
X136057D01*
X136053D01*
X136030D01*
X135996Y168007D01*
X135957Y168000D01*
X135915Y167988D01*
X135869Y167973D01*
X135830Y167954D01*
X135796Y167923D01*
X135792Y167919D01*
X135781Y167900D01*
X135761Y167873D01*
X135742Y167834D01*
X135723Y167785D01*
X135704Y167723D01*
X135692Y167650D01*
X135688Y167570D01*
Y167535D01*
X135692Y167497D01*
X135696Y167447D01*
X135708Y167393D01*
X135719Y167343D01*
X135738Y167289D01*
X135765Y167247D01*
X135769Y167243D01*
X135781Y167232D01*
X135800Y167212D01*
X135827Y167189D01*
X135865Y167163D01*
X135911Y167139D01*
X135969Y167113D01*
X136034Y167093D01*
X135992Y166790D01*
X135988D01*
X135984Y166794D01*
X135961Y166798D01*
X135926Y166809D01*
X135880Y166821D01*
X135830Y166840D01*
X135781Y166863D01*
X135727Y166890D01*
X135681Y166925D01*
X135677Y166928D01*
X135661Y166944D01*
X135638Y166963D01*
X135612Y166994D01*
X135585Y167032D01*
X135554Y167082D01*
X135523Y167136D01*
X135496Y167197D01*
Y167201D01*
X135493Y167205D01*
X135489Y167216D01*
X135485Y167228D01*
X135477Y167266D01*
X135462Y167316D01*
X135450Y167378D01*
X135443Y167447D01*
X135435Y167527D01*
X135431Y167612D01*
Y167650D01*
X135435Y167692D01*
X135439Y167746D01*
X135446Y167808D01*
X135454Y167873D01*
X135469Y167934D01*
X135489Y167992D01*
X135493Y168000D01*
X135496Y168015D01*
X135512Y168042D01*
X135527Y168073D01*
X135546Y168107D01*
X135569Y168146D01*
X135596Y168176D01*
X135627Y168207D01*
X135631Y168211D01*
X135642Y168219D01*
X135658Y168230D01*
X135685Y168245D01*
X135715Y168261D01*
X135750Y168276D01*
X135792Y168291D01*
X135838Y168303D01*
X135842D01*
X135854Y168307D01*
X135873Y168311D01*
X135903Y168315D01*
X135942D01*
X135992Y168318D01*
X136049Y168322D01*
X136122D01*
X136537D01*
X136541D01*
X136556D01*
X136579D01*
X136606D01*
X136641D01*
X136679D01*
X136767Y168326D01*
X136863D01*
X136952Y168330D01*
X136994Y168334D01*
X137029D01*
X137059Y168338D01*
X137086Y168341D01*
X137090D01*
X137105Y168345D01*
X137128Y168349D01*
X137155Y168357D01*
X137186Y168368D01*
X137224Y168384D01*
X137301Y168418D01*
Y168096D01*
D02*
G37*
G36*
Y166057D02*
X136142D01*
X136138D01*
X136130D01*
X136118D01*
X136103D01*
X136065Y166053D01*
X136011Y166045D01*
X135957Y166030D01*
X135903Y166014D01*
X135850Y165988D01*
X135804Y165953D01*
X135800Y165949D01*
X135788Y165934D01*
X135769Y165911D01*
X135750Y165880D01*
X135731Y165842D01*
X135711Y165792D01*
X135700Y165738D01*
X135696Y165673D01*
Y165650D01*
X135700Y165623D01*
X135704Y165588D01*
X135715Y165550D01*
X135727Y165504D01*
X135746Y165458D01*
X135769Y165411D01*
X135773Y165408D01*
X135781Y165392D01*
X135800Y165373D01*
X135819Y165346D01*
X135850Y165319D01*
X135880Y165289D01*
X135923Y165266D01*
X135965Y165243D01*
X135969Y165239D01*
X135988Y165235D01*
X136015Y165227D01*
X136053Y165219D01*
X136103Y165208D01*
X136161Y165200D01*
X136226Y165197D01*
X136303Y165193D01*
X137301D01*
Y164882D01*
X134778D01*
Y165193D01*
X135681D01*
X135677Y165197D01*
X135669Y165204D01*
X135658Y165216D01*
X135642Y165231D01*
X135623Y165254D01*
X135600Y165277D01*
X135581Y165308D01*
X135554Y165342D01*
X135531Y165381D01*
X135512Y165419D01*
X135469Y165515D01*
X135454Y165565D01*
X135443Y165619D01*
X135435Y165676D01*
X135431Y165738D01*
Y165772D01*
X135435Y165811D01*
X135443Y165857D01*
X135450Y165911D01*
X135466Y165968D01*
X135485Y166030D01*
X135512Y166087D01*
X135516Y166095D01*
X135527Y166110D01*
X135546Y166137D01*
X135569Y166172D01*
X135600Y166206D01*
X135638Y166241D01*
X135685Y166276D01*
X135734Y166302D01*
X135742Y166306D01*
X135761Y166314D01*
X135792Y166322D01*
X135838Y166337D01*
X135896Y166349D01*
X135969Y166356D01*
X136049Y166364D01*
X136145Y166368D01*
X137301D01*
Y166057D01*
D02*
G37*
G36*
X365447Y154690D02*
X365477Y154686D01*
X365516Y154682D01*
X365558Y154678D01*
X365604Y154670D01*
X365704Y154647D01*
X365811Y154613D01*
X365865Y154590D01*
X365919Y154563D01*
X365969Y154532D01*
X366019Y154498D01*
X366023Y154494D01*
X366030Y154490D01*
X366042Y154478D01*
X366061Y154463D01*
X366080Y154444D01*
X366107Y154417D01*
X366134Y154390D01*
X366161Y154359D01*
X366192Y154321D01*
X366218Y154282D01*
X366249Y154236D01*
X366280Y154186D01*
X366307Y154137D01*
X366334Y154079D01*
X366380Y153956D01*
X366050Y153879D01*
Y153883D01*
X366046Y153891D01*
X366042Y153906D01*
X366034Y153925D01*
X366023Y153948D01*
X366011Y153975D01*
X365984Y154033D01*
X365950Y154098D01*
X365904Y154167D01*
X365854Y154229D01*
X365792Y154282D01*
X365785Y154286D01*
X365761Y154302D01*
X365727Y154321D01*
X365677Y154348D01*
X365619Y154371D01*
X365546Y154390D01*
X365466Y154405D01*
X365374Y154409D01*
X365347D01*
X365328Y154405D01*
X365301D01*
X365274Y154402D01*
X365205Y154390D01*
X365128Y154375D01*
X365047Y154348D01*
X364967Y154313D01*
X364890Y154267D01*
X364886D01*
X364882Y154259D01*
X364859Y154240D01*
X364825Y154209D01*
X364782Y154167D01*
X364740Y154113D01*
X364694Y154052D01*
X364652Y153975D01*
X364617Y153891D01*
Y153887D01*
X364613Y153879D01*
X364610Y153868D01*
X364606Y153849D01*
X364598Y153829D01*
X364594Y153803D01*
X364579Y153741D01*
X364563Y153668D01*
X364552Y153587D01*
X364544Y153499D01*
X364540Y153407D01*
Y153403D01*
Y153392D01*
Y153376D01*
Y153353D01*
X364544Y153326D01*
Y153292D01*
X364548Y153257D01*
X364552Y153219D01*
X364563Y153130D01*
X364579Y153034D01*
X364602Y152938D01*
X364633Y152846D01*
Y152842D01*
X364636Y152835D01*
X364644Y152823D01*
X364652Y152808D01*
X364671Y152762D01*
X364702Y152712D01*
X364744Y152650D01*
X364794Y152593D01*
X364851Y152535D01*
X364921Y152485D01*
X364924D01*
X364928Y152481D01*
X364940Y152474D01*
X364955Y152466D01*
X364997Y152451D01*
X365051Y152428D01*
X365113Y152409D01*
X365185Y152389D01*
X365266Y152374D01*
X365351Y152370D01*
X365377D01*
X365397Y152374D01*
X365420D01*
X365451Y152378D01*
X365516Y152389D01*
X365589Y152409D01*
X365669Y152439D01*
X365746Y152478D01*
X365823Y152531D01*
X365827Y152535D01*
X365831Y152539D01*
X365854Y152562D01*
X365888Y152601D01*
X365931Y152650D01*
X365973Y152720D01*
X366019Y152800D01*
X366057Y152900D01*
X366088Y153011D01*
X366422Y152927D01*
Y152923D01*
X366418Y152908D01*
X366410Y152889D01*
X366403Y152858D01*
X366387Y152827D01*
X366372Y152785D01*
X366357Y152743D01*
X366334Y152697D01*
X366284Y152593D01*
X366215Y152489D01*
X366138Y152389D01*
X366092Y152343D01*
X366042Y152301D01*
X366038Y152297D01*
X366030Y152293D01*
X366015Y152282D01*
X365992Y152267D01*
X365965Y152251D01*
X365934Y152232D01*
X365900Y152213D01*
X365858Y152193D01*
X365811Y152174D01*
X365761Y152155D01*
X365704Y152136D01*
X365646Y152121D01*
X365520Y152094D01*
X365451Y152090D01*
X365377Y152086D01*
X365339D01*
X365308Y152090D01*
X365274D01*
X365235Y152094D01*
X365189Y152101D01*
X365143Y152105D01*
X365036Y152128D01*
X364924Y152155D01*
X364817Y152197D01*
X364763Y152220D01*
X364713Y152251D01*
X364709Y152255D01*
X364702Y152259D01*
X364690Y152270D01*
X364671Y152282D01*
X364625Y152320D01*
X364571Y152374D01*
X364506Y152439D01*
X364444Y152524D01*
X364379Y152620D01*
X364325Y152731D01*
Y152735D01*
X364321Y152746D01*
X364314Y152762D01*
X364306Y152785D01*
X364295Y152816D01*
X364283Y152850D01*
X364272Y152889D01*
X364260Y152935D01*
X364248Y152981D01*
X364237Y153034D01*
X364214Y153150D01*
X364199Y153273D01*
X364195Y153407D01*
Y153411D01*
Y153426D01*
Y153445D01*
X364199Y153472D01*
Y153507D01*
X364202Y153549D01*
X364206Y153591D01*
X364214Y153641D01*
X364233Y153749D01*
X364256Y153864D01*
X364295Y153983D01*
X364345Y154094D01*
Y154098D01*
X364352Y154106D01*
X364360Y154121D01*
X364371Y154144D01*
X364387Y154167D01*
X364406Y154194D01*
X364456Y154259D01*
X364513Y154332D01*
X364586Y154405D01*
X364675Y154478D01*
X364771Y154540D01*
X364775D01*
X364782Y154547D01*
X364798Y154555D01*
X364821Y154563D01*
X364844Y154574D01*
X364875Y154590D01*
X364913Y154601D01*
X364951Y154617D01*
X364994Y154632D01*
X365040Y154643D01*
X365143Y154670D01*
X365259Y154686D01*
X365381Y154693D01*
X365420D01*
X365447Y154690D01*
D02*
G37*
G36*
X369555Y152097D02*
Y152094D01*
X369552Y152086D01*
X369544Y152071D01*
X369536Y152048D01*
X369529Y152024D01*
X369517Y151998D01*
X369494Y151932D01*
X369463Y151863D01*
X369436Y151798D01*
X369409Y151733D01*
X369394Y151706D01*
X369383Y151683D01*
X369379Y151675D01*
X369367Y151660D01*
X369352Y151633D01*
X369329Y151598D01*
X369298Y151564D01*
X369267Y151525D01*
X369229Y151491D01*
X369191Y151460D01*
X369187Y151456D01*
X369171Y151449D01*
X369148Y151437D01*
X369118Y151426D01*
X369083Y151410D01*
X369037Y151399D01*
X368991Y151391D01*
X368937Y151387D01*
X368922D01*
X368903Y151391D01*
X368880D01*
X368849Y151395D01*
X368814Y151402D01*
X368738Y151426D01*
X368703Y151714D01*
X368707D01*
X368718Y151710D01*
X368738Y151706D01*
X368764Y151698D01*
X368818Y151687D01*
X368880Y151683D01*
X368899D01*
X368914Y151687D01*
X368941D01*
X368995Y151698D01*
X369022Y151706D01*
X369045Y151717D01*
X369049D01*
X369056Y151725D01*
X369068Y151733D01*
X369079Y151744D01*
X369114Y151775D01*
X369148Y151817D01*
Y151821D01*
X369152Y151829D01*
X369160Y151840D01*
X369171Y151863D01*
X369183Y151894D01*
X369198Y151932D01*
X369217Y151986D01*
X369240Y152048D01*
X369244Y152051D01*
X369248Y152067D01*
X369260Y152090D01*
X369271Y152124D01*
X368576Y153956D01*
X368906D01*
X369287Y152904D01*
Y152900D01*
X369290Y152896D01*
X369294Y152885D01*
X369298Y152869D01*
X369314Y152827D01*
X369333Y152773D01*
X369352Y152712D01*
X369375Y152639D01*
X369398Y152562D01*
X369421Y152481D01*
Y152485D01*
X369425Y152489D01*
Y152501D01*
X369432Y152516D01*
X369440Y152558D01*
X369456Y152608D01*
X369475Y152670D01*
X369498Y152739D01*
X369521Y152812D01*
X369548Y152889D01*
X369939Y153956D01*
X370247D01*
X369555Y152097D01*
D02*
G37*
G36*
X371978Y154317D02*
X370972D01*
X370834Y153637D01*
X370838Y153641D01*
X370846Y153645D01*
X370857Y153653D01*
X370873Y153664D01*
X370896Y153676D01*
X370919Y153687D01*
X370980Y153718D01*
X371049Y153749D01*
X371130Y153772D01*
X371218Y153791D01*
X371310Y153799D01*
X371341D01*
X371364Y153795D01*
X371395Y153791D01*
X371426Y153787D01*
X371464Y153779D01*
X371502Y153772D01*
X371591Y153741D01*
X371637Y153726D01*
X371683Y153703D01*
X371733Y153676D01*
X371779Y153645D01*
X371825Y153611D01*
X371867Y153568D01*
X371871Y153564D01*
X371879Y153557D01*
X371890Y153545D01*
X371902Y153526D01*
X371921Y153503D01*
X371940Y153476D01*
X371959Y153445D01*
X371982Y153411D01*
X372005Y153369D01*
X372024Y153326D01*
X372044Y153276D01*
X372063Y153226D01*
X372075Y153169D01*
X372086Y153111D01*
X372094Y153046D01*
X372097Y152981D01*
Y152977D01*
Y152965D01*
Y152946D01*
X372094Y152923D01*
X372090Y152892D01*
X372086Y152858D01*
X372082Y152819D01*
X372075Y152777D01*
X372048Y152685D01*
X372013Y152589D01*
X371990Y152535D01*
X371963Y152485D01*
X371932Y152435D01*
X371898Y152389D01*
X371894Y152385D01*
X371886Y152378D01*
X371871Y152363D01*
X371852Y152343D01*
X371829Y152320D01*
X371798Y152293D01*
X371763Y152267D01*
X371721Y152240D01*
X371679Y152209D01*
X371629Y152182D01*
X371571Y152155D01*
X371514Y152132D01*
X371448Y152113D01*
X371383Y152097D01*
X371310Y152090D01*
X371234Y152086D01*
X371199D01*
X371176Y152090D01*
X371149Y152094D01*
X371114Y152097D01*
X371076Y152101D01*
X371034Y152109D01*
X370946Y152132D01*
X370853Y152167D01*
X370807Y152190D01*
X370761Y152217D01*
X370715Y152243D01*
X370673Y152278D01*
X370669Y152282D01*
X370665Y152286D01*
X370654Y152297D01*
X370638Y152313D01*
X370623Y152332D01*
X370604Y152355D01*
X370585Y152382D01*
X370562Y152412D01*
X370519Y152485D01*
X370477Y152574D01*
X370446Y152673D01*
X370435Y152731D01*
X370427Y152789D01*
X370754Y152812D01*
Y152808D01*
Y152800D01*
X370757Y152789D01*
X370761Y152773D01*
X370773Y152731D01*
X370788Y152677D01*
X370807Y152620D01*
X370838Y152562D01*
X370873Y152505D01*
X370919Y152455D01*
X370926Y152451D01*
X370942Y152435D01*
X370969Y152420D01*
X371007Y152397D01*
X371053Y152378D01*
X371107Y152359D01*
X371168Y152343D01*
X371234Y152339D01*
X371257D01*
X371272Y152343D01*
X371314Y152347D01*
X371368Y152359D01*
X371426Y152382D01*
X371491Y152409D01*
X371552Y152451D01*
X371583Y152474D01*
X371614Y152505D01*
Y152508D01*
X371621Y152512D01*
X371637Y152535D01*
X371664Y152574D01*
X371691Y152624D01*
X371717Y152689D01*
X371744Y152766D01*
X371760Y152854D01*
X371767Y152954D01*
Y152958D01*
Y152965D01*
Y152981D01*
X371763Y152996D01*
Y153019D01*
X371760Y153046D01*
X371748Y153107D01*
X371733Y153173D01*
X371706Y153242D01*
X371667Y153311D01*
X371618Y153372D01*
X371610Y153380D01*
X371591Y153395D01*
X371560Y153422D01*
X371514Y153449D01*
X371460Y153476D01*
X371391Y153503D01*
X371314Y153518D01*
X371230Y153526D01*
X371203D01*
X371176Y153522D01*
X371137Y153518D01*
X371095Y153507D01*
X371049Y153495D01*
X371003Y153476D01*
X370957Y153453D01*
X370953Y153449D01*
X370938Y153442D01*
X370915Y153426D01*
X370888Y153407D01*
X370861Y153380D01*
X370830Y153349D01*
X370800Y153315D01*
X370773Y153276D01*
X370481Y153319D01*
X370727Y154613D01*
X371978D01*
Y154317D01*
D02*
G37*
G36*
X367098Y153753D02*
X367102Y153756D01*
X367106Y153764D01*
X367117Y153776D01*
X367132Y153791D01*
X367152Y153810D01*
X367175Y153829D01*
X367232Y153875D01*
X367301Y153921D01*
X367390Y153960D01*
X367436Y153975D01*
X367486Y153987D01*
X367539Y153995D01*
X367593Y153998D01*
X367624D01*
X367655Y153995D01*
X367697Y153991D01*
X367747Y153983D01*
X367801Y153968D01*
X367854Y153952D01*
X367912Y153929D01*
X367920Y153925D01*
X367939Y153918D01*
X367966Y153902D01*
X368000Y153879D01*
X368039Y153852D01*
X368077Y153818D01*
X368119Y153779D01*
X368158Y153737D01*
X368162Y153733D01*
X368173Y153714D01*
X368192Y153687D01*
X368215Y153653D01*
X368238Y153611D01*
X368265Y153560D01*
X368288Y153503D01*
X368311Y153438D01*
X368315Y153430D01*
X368319Y153407D01*
X368331Y153372D01*
X368342Y153326D01*
X368350Y153273D01*
X368361Y153211D01*
X368365Y153142D01*
X368369Y153069D01*
Y153065D01*
Y153050D01*
Y153023D01*
X368365Y152992D01*
X368361Y152950D01*
X368357Y152908D01*
X368350Y152854D01*
X368338Y152800D01*
X368311Y152685D01*
X368292Y152624D01*
X368269Y152562D01*
X368242Y152501D01*
X368211Y152443D01*
X368177Y152389D01*
X368135Y152339D01*
X368131Y152336D01*
X368123Y152328D01*
X368112Y152316D01*
X368092Y152301D01*
X368073Y152282D01*
X368046Y152259D01*
X368016Y152236D01*
X367977Y152213D01*
X367897Y152167D01*
X367804Y152124D01*
X367751Y152109D01*
X367697Y152097D01*
X367639Y152090D01*
X367578Y152086D01*
X367547D01*
X367524Y152090D01*
X367497Y152094D01*
X367466Y152101D01*
X367393Y152121D01*
X367355Y152132D01*
X367313Y152151D01*
X367271Y152174D01*
X367228Y152201D01*
X367190Y152232D01*
X367148Y152267D01*
X367109Y152309D01*
X367075Y152355D01*
Y152128D01*
X366787D01*
Y154651D01*
X367098D01*
Y153753D01*
D02*
G37*
G36*
X365252Y141802D02*
X365283Y141798D01*
X365321Y141795D01*
X365363Y141791D01*
X365409Y141783D01*
X365509Y141760D01*
X365617Y141726D01*
X365670Y141702D01*
X365724Y141676D01*
X365774Y141645D01*
X365824Y141610D01*
X365828Y141606D01*
X365835Y141603D01*
X365847Y141591D01*
X365866Y141576D01*
X365885Y141557D01*
X365912Y141530D01*
X365939Y141503D01*
X365966Y141472D01*
X365997Y141434D01*
X366024Y141395D01*
X366054Y141349D01*
X366085Y141299D01*
X366112Y141249D01*
X366139Y141192D01*
X366185Y141069D01*
X365855Y140992D01*
Y140996D01*
X365851Y141004D01*
X365847Y141019D01*
X365839Y141038D01*
X365828Y141061D01*
X365816Y141088D01*
X365789Y141146D01*
X365755Y141211D01*
X365709Y141280D01*
X365659Y141342D01*
X365597Y141395D01*
X365590Y141399D01*
X365567Y141414D01*
X365532Y141434D01*
X365482Y141461D01*
X365425Y141484D01*
X365352Y141503D01*
X365271Y141518D01*
X365179Y141522D01*
X365152D01*
X365133Y141518D01*
X365106D01*
X365079Y141514D01*
X365010Y141503D01*
X364933Y141488D01*
X364852Y141461D01*
X364772Y141426D01*
X364695Y141380D01*
X364691D01*
X364687Y141372D01*
X364664Y141353D01*
X364630Y141322D01*
X364587Y141280D01*
X364545Y141226D01*
X364499Y141165D01*
X364457Y141088D01*
X364422Y141004D01*
Y141000D01*
X364419Y140992D01*
X364415Y140981D01*
X364411Y140961D01*
X364403Y140942D01*
X364399Y140915D01*
X364384Y140854D01*
X364369Y140781D01*
X364357Y140700D01*
X364349Y140612D01*
X364346Y140520D01*
Y140516D01*
Y140504D01*
Y140489D01*
Y140466D01*
X364349Y140439D01*
Y140405D01*
X364353Y140370D01*
X364357Y140332D01*
X364369Y140243D01*
X364384Y140147D01*
X364407Y140051D01*
X364438Y139959D01*
Y139955D01*
X364442Y139948D01*
X364449Y139936D01*
X364457Y139921D01*
X364476Y139875D01*
X364507Y139825D01*
X364549Y139763D01*
X364599Y139706D01*
X364657Y139648D01*
X364726Y139598D01*
X364730D01*
X364733Y139594D01*
X364745Y139587D01*
X364760Y139579D01*
X364803Y139564D01*
X364856Y139541D01*
X364918Y139521D01*
X364991Y139502D01*
X365071Y139487D01*
X365156Y139483D01*
X365183D01*
X365202Y139487D01*
X365225D01*
X365256Y139491D01*
X365321Y139502D01*
X365394Y139521D01*
X365475Y139552D01*
X365551Y139591D01*
X365628Y139644D01*
X365632Y139648D01*
X365636Y139652D01*
X365659Y139675D01*
X365693Y139713D01*
X365736Y139763D01*
X365778Y139832D01*
X365824Y139913D01*
X365862Y140013D01*
X365893Y140124D01*
X366227Y140040D01*
Y140036D01*
X366223Y140021D01*
X366216Y140001D01*
X366208Y139971D01*
X366193Y139940D01*
X366177Y139898D01*
X366162Y139856D01*
X366139Y139809D01*
X366089Y139706D01*
X366020Y139602D01*
X365943Y139502D01*
X365897Y139456D01*
X365847Y139414D01*
X365843Y139410D01*
X365835Y139406D01*
X365820Y139395D01*
X365797Y139379D01*
X365770Y139364D01*
X365739Y139345D01*
X365705Y139325D01*
X365663Y139306D01*
X365617Y139287D01*
X365567Y139268D01*
X365509Y139249D01*
X365452Y139233D01*
X365325Y139207D01*
X365256Y139203D01*
X365183Y139199D01*
X365144D01*
X365113Y139203D01*
X365079D01*
X365041Y139207D01*
X364995Y139214D01*
X364948Y139218D01*
X364841Y139241D01*
X364730Y139268D01*
X364622Y139310D01*
X364568Y139333D01*
X364518Y139364D01*
X364514Y139368D01*
X364507Y139372D01*
X364495Y139383D01*
X364476Y139395D01*
X364430Y139433D01*
X364376Y139487D01*
X364311Y139552D01*
X364249Y139637D01*
X364184Y139733D01*
X364130Y139844D01*
Y139848D01*
X364127Y139859D01*
X364119Y139875D01*
X364111Y139898D01*
X364100Y139928D01*
X364088Y139963D01*
X364077Y140001D01*
X364065Y140048D01*
X364054Y140094D01*
X364042Y140147D01*
X364019Y140262D01*
X364004Y140385D01*
X364000Y140520D01*
Y140524D01*
Y140539D01*
Y140558D01*
X364004Y140585D01*
Y140620D01*
X364008Y140662D01*
X364012Y140704D01*
X364019Y140754D01*
X364038Y140862D01*
X364061Y140977D01*
X364100Y141096D01*
X364150Y141207D01*
Y141211D01*
X364157Y141219D01*
X364165Y141234D01*
X364177Y141257D01*
X364192Y141280D01*
X364211Y141307D01*
X364261Y141372D01*
X364319Y141445D01*
X364392Y141518D01*
X364480Y141591D01*
X364576Y141653D01*
X364580D01*
X364587Y141660D01*
X364603Y141668D01*
X364626Y141676D01*
X364649Y141687D01*
X364680Y141702D01*
X364718Y141714D01*
X364756Y141729D01*
X364799Y141745D01*
X364845Y141756D01*
X364948Y141783D01*
X365064Y141798D01*
X365187Y141806D01*
X365225D01*
X365252Y141802D01*
D02*
G37*
G36*
X369361Y139210D02*
Y139207D01*
X369357Y139199D01*
X369349Y139183D01*
X369341Y139160D01*
X369334Y139137D01*
X369322Y139111D01*
X369299Y139045D01*
X369268Y138976D01*
X369242Y138911D01*
X369215Y138846D01*
X369199Y138819D01*
X369188Y138796D01*
X369184Y138788D01*
X369172Y138773D01*
X369157Y138746D01*
X369134Y138711D01*
X369103Y138677D01*
X369073Y138638D01*
X369034Y138604D01*
X368996Y138573D01*
X368992Y138569D01*
X368977Y138561D01*
X368953Y138550D01*
X368923Y138538D01*
X368888Y138523D01*
X368842Y138512D01*
X368796Y138504D01*
X368742Y138500D01*
X368727D01*
X368708Y138504D01*
X368685D01*
X368654Y138508D01*
X368619Y138515D01*
X368543Y138538D01*
X368508Y138826D01*
X368512D01*
X368524Y138822D01*
X368543Y138819D01*
X368569Y138811D01*
X368623Y138800D01*
X368685Y138796D01*
X368704D01*
X368719Y138800D01*
X368746D01*
X368800Y138811D01*
X368827Y138819D01*
X368850Y138830D01*
X368854D01*
X368861Y138838D01*
X368873Y138846D01*
X368884Y138857D01*
X368919Y138888D01*
X368953Y138930D01*
Y138934D01*
X368957Y138942D01*
X368965Y138953D01*
X368977Y138976D01*
X368988Y139007D01*
X369004Y139045D01*
X369023Y139099D01*
X369046Y139160D01*
X369050Y139164D01*
X369053Y139180D01*
X369065Y139203D01*
X369076Y139237D01*
X368381Y141069D01*
X368712D01*
X369092Y140017D01*
Y140013D01*
X369096Y140009D01*
X369099Y139998D01*
X369103Y139982D01*
X369119Y139940D01*
X369138Y139886D01*
X369157Y139825D01*
X369180Y139752D01*
X369203Y139675D01*
X369226Y139594D01*
Y139598D01*
X369230Y139602D01*
Y139614D01*
X369238Y139629D01*
X369245Y139671D01*
X369261Y139721D01*
X369280Y139783D01*
X369303Y139852D01*
X369326Y139925D01*
X369353Y140001D01*
X369745Y141069D01*
X370052D01*
X369361Y139210D01*
D02*
G37*
G36*
X371534Y140128D02*
X371876D01*
Y139844D01*
X371534D01*
Y139241D01*
X371223D01*
Y139844D01*
X370129D01*
Y140128D01*
X371281Y141760D01*
X371534D01*
Y140128D01*
D02*
G37*
G36*
X366903Y140865D02*
X366907Y140869D01*
X366911Y140877D01*
X366922Y140888D01*
X366938Y140904D01*
X366957Y140923D01*
X366980Y140942D01*
X367037Y140988D01*
X367107Y141034D01*
X367195Y141073D01*
X367241Y141088D01*
X367291Y141100D01*
X367345Y141107D01*
X367398Y141111D01*
X367429D01*
X367460Y141107D01*
X367502Y141103D01*
X367552Y141096D01*
X367606Y141080D01*
X367659Y141065D01*
X367717Y141042D01*
X367725Y141038D01*
X367744Y141031D01*
X367771Y141015D01*
X367805Y140992D01*
X367844Y140965D01*
X367882Y140931D01*
X367924Y140892D01*
X367963Y140850D01*
X367967Y140846D01*
X367978Y140827D01*
X367997Y140800D01*
X368020Y140766D01*
X368043Y140723D01*
X368070Y140673D01*
X368093Y140616D01*
X368116Y140550D01*
X368120Y140543D01*
X368124Y140520D01*
X368136Y140485D01*
X368147Y140439D01*
X368155Y140385D01*
X368166Y140324D01*
X368170Y140255D01*
X368174Y140182D01*
Y140178D01*
Y140163D01*
Y140136D01*
X368170Y140105D01*
X368166Y140063D01*
X368162Y140021D01*
X368155Y139967D01*
X368143Y139913D01*
X368116Y139798D01*
X368097Y139736D01*
X368074Y139675D01*
X368047Y139614D01*
X368017Y139556D01*
X367982Y139502D01*
X367940Y139452D01*
X367936Y139448D01*
X367928Y139441D01*
X367917Y139429D01*
X367898Y139414D01*
X367878Y139395D01*
X367851Y139372D01*
X367821Y139349D01*
X367782Y139325D01*
X367702Y139279D01*
X367610Y139237D01*
X367556Y139222D01*
X367502Y139210D01*
X367444Y139203D01*
X367383Y139199D01*
X367352D01*
X367329Y139203D01*
X367302Y139207D01*
X367272Y139214D01*
X367199Y139233D01*
X367160Y139245D01*
X367118Y139264D01*
X367076Y139287D01*
X367034Y139314D01*
X366995Y139345D01*
X366953Y139379D01*
X366915Y139422D01*
X366880Y139468D01*
Y139241D01*
X366592D01*
Y141764D01*
X366903D01*
Y140865D01*
D02*
G37*
G36*
X247454Y248181D02*
X247458Y248166D01*
X247462Y248143D01*
X247465Y248108D01*
X247473Y248074D01*
X247477Y248036D01*
X247481Y247955D01*
Y247928D01*
X247477Y247897D01*
X247473Y247859D01*
X247469Y247817D01*
X247458Y247771D01*
X247446Y247728D01*
X247431Y247690D01*
X247427Y247686D01*
X247419Y247674D01*
X247408Y247659D01*
X247393Y247640D01*
X247373Y247617D01*
X247350Y247598D01*
X247323Y247575D01*
X247293Y247559D01*
X247289D01*
X247273Y247555D01*
X247250Y247548D01*
X247212Y247544D01*
X247162Y247536D01*
X247135Y247532D01*
X247101Y247529D01*
X247062D01*
X247020Y247525D01*
X246974D01*
X246924D01*
X245872D01*
Y247294D01*
X245630D01*
Y247525D01*
X245181D01*
X244992Y247836D01*
X245630D01*
Y248147D01*
X245872D01*
Y247836D01*
X246943D01*
X246947D01*
X246962D01*
X246986D01*
X247012Y247840D01*
X247070Y247844D01*
X247093Y247847D01*
X247112Y247851D01*
X247120Y247855D01*
X247135Y247863D01*
X247154Y247878D01*
X247174Y247901D01*
X247178Y247909D01*
X247181Y247928D01*
X247189Y247962D01*
X247193Y248009D01*
Y248047D01*
X247189Y248066D01*
Y248089D01*
X247181Y248147D01*
X247454Y248189D01*
Y248181D01*
D02*
G37*
G36*
X246609Y247106D02*
X246644D01*
X246682Y247102D01*
X246724Y247098D01*
X246813Y247083D01*
X246905Y247064D01*
X246997Y247037D01*
X247078Y247003D01*
X247081D01*
X247085Y246999D01*
X247112Y246983D01*
X247147Y246956D01*
X247193Y246922D01*
X247243Y246880D01*
X247293Y246826D01*
X247343Y246764D01*
X247389Y246691D01*
Y246688D01*
X247393Y246684D01*
X247400Y246672D01*
X247404Y246657D01*
X247423Y246615D01*
X247442Y246561D01*
X247465Y246496D01*
X247481Y246423D01*
X247496Y246342D01*
X247500Y246254D01*
Y246215D01*
X247496Y246188D01*
X247492Y246158D01*
X247488Y246119D01*
X247481Y246077D01*
X247469Y246031D01*
X247439Y245935D01*
X247419Y245881D01*
X247396Y245831D01*
X247370Y245778D01*
X247335Y245728D01*
X247297Y245678D01*
X247254Y245632D01*
X247250Y245628D01*
X247243Y245620D01*
X247227Y245609D01*
X247208Y245597D01*
X247181Y245578D01*
X247151Y245559D01*
X247116Y245536D01*
X247074Y245516D01*
X247024Y245493D01*
X246974Y245470D01*
X246913Y245451D01*
X246851Y245436D01*
X246782Y245420D01*
X246709Y245409D01*
X246628Y245401D01*
X246544Y245397D01*
X246536D01*
X246521D01*
X246494Y245401D01*
X246459D01*
X246417Y245405D01*
X246371Y245413D01*
X246317Y245420D01*
X246260Y245432D01*
X246198Y245447D01*
X246137Y245466D01*
X246075Y245490D01*
X246014Y245516D01*
X245953Y245547D01*
X245895Y245586D01*
X245841Y245628D01*
X245791Y245678D01*
X245787Y245682D01*
X245784Y245689D01*
X245772Y245701D01*
X245760Y245720D01*
X245745Y245743D01*
X245726Y245770D01*
X245707Y245801D01*
X245688Y245839D01*
X245672Y245877D01*
X245653Y245920D01*
X245618Y246020D01*
X245595Y246131D01*
X245592Y246192D01*
X245588Y246254D01*
Y246288D01*
X245592Y246315D01*
X245595Y246350D01*
X245599Y246384D01*
X245607Y246427D01*
X245618Y246473D01*
X245649Y246569D01*
X245668Y246619D01*
X245691Y246672D01*
X245722Y246722D01*
X245757Y246772D01*
X245795Y246822D01*
X245837Y246868D01*
X245841Y246872D01*
X245849Y246880D01*
X245864Y246891D01*
X245883Y246906D01*
X245906Y246926D01*
X245937Y246945D01*
X245976Y246968D01*
X246014Y246991D01*
X246060Y247010D01*
X246114Y247033D01*
X246167Y247052D01*
X246229Y247072D01*
X246294Y247087D01*
X246367Y247098D01*
X246440Y247106D01*
X246521Y247110D01*
X246525D01*
X246536D01*
X246555D01*
X246578D01*
X246609Y247106D01*
D02*
G37*
G36*
Y245148D02*
X246644D01*
X246682Y245144D01*
X246724Y245140D01*
X246813Y245125D01*
X246905Y245106D01*
X246997Y245079D01*
X247078Y245044D01*
X247081D01*
X247085Y245040D01*
X247112Y245025D01*
X247147Y244998D01*
X247193Y244964D01*
X247243Y244921D01*
X247293Y244867D01*
X247343Y244806D01*
X247389Y244733D01*
Y244729D01*
X247393Y244725D01*
X247400Y244714D01*
X247404Y244699D01*
X247423Y244656D01*
X247442Y244602D01*
X247465Y244537D01*
X247481Y244464D01*
X247496Y244384D01*
X247500Y244295D01*
Y244257D01*
X247496Y244230D01*
X247492Y244199D01*
X247488Y244161D01*
X247481Y244119D01*
X247469Y244073D01*
X247439Y243977D01*
X247419Y243923D01*
X247396Y243873D01*
X247370Y243819D01*
X247335Y243769D01*
X247297Y243719D01*
X247254Y243673D01*
X247250Y243669D01*
X247243Y243662D01*
X247227Y243650D01*
X247208Y243639D01*
X247181Y243619D01*
X247151Y243600D01*
X247116Y243577D01*
X247074Y243558D01*
X247024Y243535D01*
X246974Y243512D01*
X246913Y243493D01*
X246851Y243477D01*
X246782Y243462D01*
X246709Y243450D01*
X246628Y243443D01*
X246544Y243439D01*
X246536D01*
X246521D01*
X246494Y243443D01*
X246459D01*
X246417Y243447D01*
X246371Y243454D01*
X246317Y243462D01*
X246260Y243474D01*
X246198Y243489D01*
X246137Y243508D01*
X246075Y243531D01*
X246014Y243558D01*
X245953Y243589D01*
X245895Y243627D01*
X245841Y243669D01*
X245791Y243719D01*
X245787Y243723D01*
X245784Y243731D01*
X245772Y243742D01*
X245760Y243761D01*
X245745Y243785D01*
X245726Y243811D01*
X245707Y243842D01*
X245688Y243881D01*
X245672Y243919D01*
X245653Y243961D01*
X245618Y244061D01*
X245595Y244172D01*
X245592Y244234D01*
X245588Y244295D01*
Y244330D01*
X245592Y244357D01*
X245595Y244391D01*
X245599Y244426D01*
X245607Y244468D01*
X245618Y244514D01*
X245649Y244610D01*
X245668Y244660D01*
X245691Y244714D01*
X245722Y244764D01*
X245757Y244814D01*
X245795Y244864D01*
X245837Y244910D01*
X245841Y244914D01*
X245849Y244921D01*
X245864Y244933D01*
X245883Y244948D01*
X245906Y244967D01*
X245937Y244987D01*
X245976Y245009D01*
X246014Y245033D01*
X246060Y245052D01*
X246114Y245075D01*
X246167Y245094D01*
X246229Y245113D01*
X246294Y245129D01*
X246367Y245140D01*
X246440Y245148D01*
X246521Y245152D01*
X246525D01*
X246536D01*
X246555D01*
X246578D01*
X246609Y245148D01*
D02*
G37*
G36*
X246594Y243170D02*
X246636Y243166D01*
X246678Y243162D01*
X246732Y243155D01*
X246786Y243143D01*
X246901Y243116D01*
X246962Y243097D01*
X247024Y243074D01*
X247085Y243047D01*
X247143Y243017D01*
X247197Y242982D01*
X247247Y242940D01*
X247250Y242936D01*
X247258Y242928D01*
X247270Y242917D01*
X247285Y242898D01*
X247304Y242878D01*
X247327Y242851D01*
X247350Y242821D01*
X247373Y242782D01*
X247419Y242702D01*
X247462Y242610D01*
X247477Y242556D01*
X247488Y242502D01*
X247496Y242444D01*
X247500Y242383D01*
Y242352D01*
X247496Y242329D01*
X247492Y242302D01*
X247485Y242272D01*
X247465Y242199D01*
X247454Y242160D01*
X247435Y242118D01*
X247412Y242076D01*
X247385Y242034D01*
X247354Y241995D01*
X247320Y241953D01*
X247277Y241915D01*
X247231Y241880D01*
X247458D01*
Y241592D01*
X244935D01*
Y241903D01*
X245833D01*
X245830Y241907D01*
X245822Y241911D01*
X245810Y241922D01*
X245795Y241938D01*
X245776Y241957D01*
X245757Y241980D01*
X245711Y242037D01*
X245665Y242107D01*
X245626Y242195D01*
X245611Y242241D01*
X245599Y242291D01*
X245592Y242345D01*
X245588Y242398D01*
Y242429D01*
X245592Y242460D01*
X245595Y242502D01*
X245603Y242552D01*
X245618Y242606D01*
X245634Y242659D01*
X245657Y242717D01*
X245661Y242725D01*
X245668Y242744D01*
X245684Y242771D01*
X245707Y242805D01*
X245734Y242844D01*
X245768Y242882D01*
X245807Y242924D01*
X245849Y242963D01*
X245853Y242967D01*
X245872Y242978D01*
X245899Y242997D01*
X245933Y243020D01*
X245976Y243043D01*
X246025Y243070D01*
X246083Y243093D01*
X246148Y243116D01*
X246156Y243120D01*
X246179Y243124D01*
X246214Y243136D01*
X246260Y243147D01*
X246314Y243155D01*
X246375Y243166D01*
X246444Y243170D01*
X246517Y243174D01*
X246521D01*
X246536D01*
X246563D01*
X246594Y243170D01*
D02*
G37*
G36*
X246678Y241223D02*
X246697Y241216D01*
X246728Y241208D01*
X246759Y241193D01*
X246801Y241177D01*
X246843Y241162D01*
X246889Y241139D01*
X246993Y241089D01*
X247097Y241020D01*
X247197Y240943D01*
X247243Y240897D01*
X247285Y240847D01*
X247289Y240843D01*
X247293Y240835D01*
X247304Y240820D01*
X247320Y240797D01*
X247335Y240770D01*
X247354Y240739D01*
X247373Y240705D01*
X247393Y240663D01*
X247412Y240617D01*
X247431Y240567D01*
X247450Y240509D01*
X247465Y240452D01*
X247492Y240325D01*
X247496Y240256D01*
X247500Y240183D01*
Y240144D01*
X247496Y240113D01*
Y240079D01*
X247492Y240041D01*
X247485Y239995D01*
X247481Y239948D01*
X247458Y239841D01*
X247431Y239730D01*
X247389Y239622D01*
X247366Y239568D01*
X247335Y239518D01*
X247331Y239514D01*
X247327Y239507D01*
X247316Y239495D01*
X247304Y239476D01*
X247266Y239430D01*
X247212Y239376D01*
X247147Y239311D01*
X247062Y239249D01*
X246966Y239184D01*
X246855Y239130D01*
X246851D01*
X246840Y239127D01*
X246824Y239119D01*
X246801Y239111D01*
X246770Y239100D01*
X246736Y239088D01*
X246697Y239077D01*
X246651Y239065D01*
X246605Y239054D01*
X246551Y239042D01*
X246436Y239019D01*
X246314Y239004D01*
X246179Y239000D01*
X246175D01*
X246160D01*
X246141D01*
X246114Y239004D01*
X246079D01*
X246037Y239008D01*
X245995Y239012D01*
X245945Y239019D01*
X245837Y239038D01*
X245722Y239061D01*
X245603Y239100D01*
X245492Y239150D01*
X245488D01*
X245480Y239157D01*
X245465Y239165D01*
X245442Y239177D01*
X245419Y239192D01*
X245392Y239211D01*
X245327Y239261D01*
X245254Y239319D01*
X245181Y239392D01*
X245108Y239480D01*
X245046Y239576D01*
Y239580D01*
X245039Y239587D01*
X245031Y239603D01*
X245023Y239626D01*
X245012Y239649D01*
X244996Y239680D01*
X244985Y239718D01*
X244970Y239756D01*
X244954Y239799D01*
X244943Y239845D01*
X244916Y239948D01*
X244900Y240064D01*
X244893Y240187D01*
Y240225D01*
X244897Y240252D01*
X244900Y240283D01*
X244904Y240321D01*
X244908Y240363D01*
X244916Y240409D01*
X244939Y240509D01*
X244973Y240617D01*
X244996Y240670D01*
X245023Y240724D01*
X245054Y240774D01*
X245089Y240824D01*
X245092Y240828D01*
X245096Y240835D01*
X245108Y240847D01*
X245123Y240866D01*
X245142Y240885D01*
X245169Y240912D01*
X245196Y240939D01*
X245227Y240966D01*
X245265Y240997D01*
X245304Y241024D01*
X245350Y241054D01*
X245399Y241085D01*
X245449Y241112D01*
X245507Y241139D01*
X245630Y241185D01*
X245707Y240855D01*
X245703D01*
X245695Y240851D01*
X245680Y240847D01*
X245661Y240839D01*
X245638Y240828D01*
X245611Y240816D01*
X245553Y240789D01*
X245488Y240755D01*
X245419Y240709D01*
X245357Y240659D01*
X245304Y240597D01*
X245300Y240590D01*
X245284Y240567D01*
X245265Y240532D01*
X245238Y240482D01*
X245215Y240425D01*
X245196Y240352D01*
X245181Y240271D01*
X245177Y240179D01*
Y240152D01*
X245181Y240133D01*
Y240106D01*
X245184Y240079D01*
X245196Y240010D01*
X245211Y239933D01*
X245238Y239852D01*
X245273Y239772D01*
X245319Y239695D01*
Y239691D01*
X245327Y239687D01*
X245346Y239664D01*
X245376Y239630D01*
X245419Y239587D01*
X245473Y239545D01*
X245534Y239499D01*
X245611Y239457D01*
X245695Y239422D01*
X245699D01*
X245707Y239419D01*
X245718Y239415D01*
X245738Y239411D01*
X245757Y239403D01*
X245784Y239399D01*
X245845Y239384D01*
X245918Y239369D01*
X245999Y239357D01*
X246087Y239349D01*
X246179Y239346D01*
X246183D01*
X246194D01*
X246210D01*
X246233D01*
X246260Y239349D01*
X246294D01*
X246329Y239353D01*
X246367Y239357D01*
X246456Y239369D01*
X246551Y239384D01*
X246648Y239407D01*
X246740Y239438D01*
X246744D01*
X246751Y239442D01*
X246763Y239449D01*
X246778Y239457D01*
X246824Y239476D01*
X246874Y239507D01*
X246936Y239549D01*
X246993Y239599D01*
X247051Y239657D01*
X247101Y239726D01*
Y239730D01*
X247105Y239733D01*
X247112Y239745D01*
X247120Y239760D01*
X247135Y239803D01*
X247158Y239856D01*
X247178Y239918D01*
X247197Y239991D01*
X247212Y240071D01*
X247216Y240156D01*
Y240183D01*
X247212Y240202D01*
Y240225D01*
X247208Y240256D01*
X247197Y240321D01*
X247178Y240394D01*
X247147Y240475D01*
X247108Y240551D01*
X247055Y240628D01*
X247051Y240632D01*
X247047Y240636D01*
X247024Y240659D01*
X246986Y240693D01*
X246936Y240736D01*
X246866Y240778D01*
X246786Y240824D01*
X246686Y240862D01*
X246575Y240893D01*
X246659Y241227D01*
X246663D01*
X246678Y241223D01*
D02*
G37*
%LPC*%
G36*
X371573Y166104D02*
X371554D01*
X371539Y166100D01*
X371500Y166097D01*
X371450Y166085D01*
X371397Y166066D01*
X371335Y166039D01*
X371278Y166001D01*
X371220Y165951D01*
X371212Y165943D01*
X371197Y165924D01*
X371174Y165889D01*
X371147Y165847D01*
X371120Y165789D01*
X371097Y165720D01*
X371082Y165644D01*
X371074Y165555D01*
Y165548D01*
Y165528D01*
X371078Y165498D01*
X371082Y165459D01*
X371089Y165409D01*
X371101Y165359D01*
X371116Y165305D01*
X371139Y165248D01*
X371143Y165240D01*
X371151Y165225D01*
X371166Y165198D01*
X371189Y165167D01*
X371216Y165129D01*
X371247Y165094D01*
X371285Y165056D01*
X371327Y165025D01*
X371331Y165021D01*
X371351Y165014D01*
X371374Y165002D01*
X371404Y164991D01*
X371443Y164975D01*
X371489Y164964D01*
X371535Y164956D01*
X371585Y164952D01*
X371604D01*
X371619Y164956D01*
X371654Y164960D01*
X371704Y164971D01*
X371754Y164991D01*
X371811Y165018D01*
X371869Y165056D01*
X371923Y165110D01*
X371930Y165117D01*
X371946Y165140D01*
X371969Y165175D01*
X371996Y165221D01*
X372019Y165282D01*
X372042Y165359D01*
X372057Y165444D01*
X372065Y165540D01*
Y165544D01*
Y165551D01*
Y165567D01*
X372061Y165582D01*
Y165605D01*
X372057Y165632D01*
X372049Y165690D01*
X372030Y165755D01*
X372007Y165824D01*
X371973Y165889D01*
X371926Y165951D01*
X371919Y165958D01*
X371903Y165974D01*
X371873Y166001D01*
X371831Y166027D01*
X371781Y166054D01*
X371719Y166081D01*
X371650Y166097D01*
X371573Y166104D01*
D02*
G37*
G36*
X367906Y166358D02*
X367848D01*
X367833Y166354D01*
X367795Y166350D01*
X367749Y166335D01*
X367695Y166315D01*
X367633Y166281D01*
X367576Y166239D01*
X367545Y166208D01*
X367518Y166177D01*
Y166173D01*
X367511Y166170D01*
X367507Y166158D01*
X367495Y166143D01*
X367484Y166127D01*
X367472Y166104D01*
X367461Y166077D01*
X367445Y166047D01*
X367430Y166012D01*
X367418Y165974D01*
X367407Y165931D01*
X367395Y165889D01*
X367380Y165786D01*
X367372Y165666D01*
Y165663D01*
Y165651D01*
Y165636D01*
Y165613D01*
X367376Y165586D01*
Y165555D01*
X367384Y165482D01*
X367395Y165405D01*
X367411Y165325D01*
X367430Y165252D01*
X367445Y165221D01*
X367461Y165190D01*
Y165187D01*
X367468Y165179D01*
X367476Y165167D01*
X367488Y165152D01*
X367518Y165114D01*
X367564Y165071D01*
X367622Y165029D01*
X367691Y164991D01*
X367726Y164975D01*
X367768Y164964D01*
X367810Y164956D01*
X367856Y164952D01*
X367875D01*
X367891Y164956D01*
X367929Y164960D01*
X367975Y164975D01*
X368033Y164995D01*
X368090Y165025D01*
X368148Y165071D01*
X368179Y165098D01*
X368205Y165129D01*
Y165133D01*
X368213Y165137D01*
X368221Y165148D01*
X368229Y165164D01*
X368240Y165179D01*
X368252Y165202D01*
X368267Y165229D01*
X368282Y165260D01*
X368294Y165298D01*
X368309Y165336D01*
X368321Y165378D01*
X368332Y165425D01*
X368340Y165478D01*
X368348Y165532D01*
X368355Y165590D01*
Y165655D01*
Y165659D01*
Y165670D01*
Y165690D01*
X368352Y165713D01*
Y165743D01*
X368348Y165778D01*
X368336Y165855D01*
X368321Y165943D01*
X368294Y166027D01*
X368259Y166112D01*
X368240Y166150D01*
X368213Y166185D01*
Y166189D01*
X368205Y166193D01*
X368186Y166212D01*
X368160Y166239D01*
X368117Y166273D01*
X368067Y166304D01*
X368006Y166331D01*
X367941Y166350D01*
X367906Y166358D01*
D02*
G37*
G36*
X136499Y168007D02*
X136383D01*
X136387Y168000D01*
X136391Y167988D01*
X136395Y167977D01*
X136403Y167957D01*
X136406Y167934D01*
X136414Y167911D01*
X136426Y167881D01*
X136433Y167846D01*
X136441Y167808D01*
X136452Y167769D01*
X136464Y167723D01*
X136472Y167673D01*
X136483Y167620D01*
X136491Y167562D01*
X136502Y167500D01*
Y167493D01*
X136506Y167470D01*
X136514Y167435D01*
X136522Y167393D01*
X136541Y167305D01*
X136552Y167262D01*
X136564Y167228D01*
Y167224D01*
X136572Y167216D01*
X136579Y167201D01*
X136591Y167186D01*
X136621Y167147D01*
X136668Y167109D01*
X136671D01*
X136679Y167101D01*
X136691Y167097D01*
X136710Y167090D01*
X136756Y167074D01*
X136783Y167070D01*
X136813Y167067D01*
X136817D01*
X136833D01*
X136856Y167070D01*
X136886Y167078D01*
X136917Y167090D01*
X136952Y167105D01*
X136986Y167128D01*
X137021Y167159D01*
X137025Y167163D01*
X137032Y167178D01*
X137048Y167197D01*
X137059Y167228D01*
X137075Y167266D01*
X137090Y167316D01*
X137098Y167370D01*
X137101Y167435D01*
Y167466D01*
X137098Y167497D01*
X137090Y167543D01*
X137082Y167589D01*
X137071Y167642D01*
X137052Y167696D01*
X137025Y167750D01*
X137021Y167758D01*
X137009Y167773D01*
X136994Y167800D01*
X136967Y167831D01*
X136940Y167861D01*
X136902Y167896D01*
X136860Y167930D01*
X136810Y167957D01*
X136806Y167961D01*
X136790Y167965D01*
X136767Y167973D01*
X136733Y167984D01*
X136687Y167992D01*
X136633Y168000D01*
X136572Y168003D01*
X136499Y168007D01*
D02*
G37*
G36*
X367601Y153745D02*
X367543D01*
X367528Y153741D01*
X367490Y153737D01*
X367443Y153722D01*
X367390Y153703D01*
X367328Y153668D01*
X367271Y153626D01*
X367240Y153595D01*
X367213Y153564D01*
Y153560D01*
X367205Y153557D01*
X367201Y153545D01*
X367190Y153530D01*
X367179Y153515D01*
X367167Y153491D01*
X367155Y153465D01*
X367140Y153434D01*
X367125Y153399D01*
X367113Y153361D01*
X367102Y153319D01*
X367090Y153276D01*
X367075Y153173D01*
X367067Y153054D01*
Y153050D01*
Y153038D01*
Y153023D01*
Y153000D01*
X367071Y152973D01*
Y152942D01*
X367079Y152869D01*
X367090Y152793D01*
X367106Y152712D01*
X367125Y152639D01*
X367140Y152608D01*
X367155Y152577D01*
Y152574D01*
X367163Y152566D01*
X367171Y152555D01*
X367182Y152539D01*
X367213Y152501D01*
X367259Y152459D01*
X367317Y152416D01*
X367386Y152378D01*
X367420Y152363D01*
X367463Y152351D01*
X367505Y152343D01*
X367551Y152339D01*
X367570D01*
X367585Y152343D01*
X367624Y152347D01*
X367670Y152363D01*
X367728Y152382D01*
X367785Y152412D01*
X367843Y152459D01*
X367874Y152485D01*
X367900Y152516D01*
Y152520D01*
X367908Y152524D01*
X367916Y152535D01*
X367923Y152551D01*
X367935Y152566D01*
X367947Y152589D01*
X367962Y152616D01*
X367977Y152647D01*
X367989Y152685D01*
X368004Y152723D01*
X368016Y152766D01*
X368027Y152812D01*
X368035Y152866D01*
X368042Y152919D01*
X368050Y152977D01*
Y153042D01*
Y153046D01*
Y153058D01*
Y153077D01*
X368046Y153100D01*
Y153130D01*
X368042Y153165D01*
X368031Y153242D01*
X368016Y153330D01*
X367989Y153415D01*
X367954Y153499D01*
X367935Y153537D01*
X367908Y153572D01*
Y153576D01*
X367900Y153580D01*
X367881Y153599D01*
X367854Y153626D01*
X367812Y153660D01*
X367762Y153691D01*
X367701Y153718D01*
X367635Y153737D01*
X367601Y153745D01*
D02*
G37*
G36*
X371223Y141257D02*
X370432Y140128D01*
X371223D01*
Y141257D01*
D02*
G37*
G36*
X367406Y140858D02*
X367348D01*
X367333Y140854D01*
X367295Y140850D01*
X367249Y140835D01*
X367195Y140815D01*
X367133Y140781D01*
X367076Y140739D01*
X367045Y140708D01*
X367018Y140677D01*
Y140673D01*
X367010Y140670D01*
X367007Y140658D01*
X366995Y140643D01*
X366984Y140627D01*
X366972Y140604D01*
X366961Y140577D01*
X366945Y140547D01*
X366930Y140512D01*
X366918Y140474D01*
X366907Y140431D01*
X366895Y140389D01*
X366880Y140286D01*
X366872Y140166D01*
Y140163D01*
Y140151D01*
Y140136D01*
Y140113D01*
X366876Y140086D01*
Y140055D01*
X366884Y139982D01*
X366895Y139905D01*
X366911Y139825D01*
X366930Y139752D01*
X366945Y139721D01*
X366961Y139690D01*
Y139687D01*
X366968Y139679D01*
X366976Y139667D01*
X366987Y139652D01*
X367018Y139614D01*
X367064Y139571D01*
X367122Y139529D01*
X367191Y139491D01*
X367226Y139475D01*
X367268Y139464D01*
X367310Y139456D01*
X367356Y139452D01*
X367375D01*
X367391Y139456D01*
X367429Y139460D01*
X367475Y139475D01*
X367533Y139495D01*
X367590Y139525D01*
X367648Y139571D01*
X367679Y139598D01*
X367705Y139629D01*
Y139633D01*
X367713Y139637D01*
X367721Y139648D01*
X367729Y139664D01*
X367740Y139679D01*
X367752Y139702D01*
X367767Y139729D01*
X367782Y139760D01*
X367794Y139798D01*
X367809Y139836D01*
X367821Y139878D01*
X367832Y139925D01*
X367840Y139978D01*
X367848Y140032D01*
X367855Y140090D01*
Y140155D01*
Y140159D01*
Y140170D01*
Y140190D01*
X367851Y140213D01*
Y140243D01*
X367848Y140278D01*
X367836Y140355D01*
X367821Y140443D01*
X367794Y140527D01*
X367759Y140612D01*
X367740Y140650D01*
X367713Y140685D01*
Y140689D01*
X367705Y140693D01*
X367686Y140712D01*
X367659Y140739D01*
X367617Y140773D01*
X367567Y140804D01*
X367506Y140831D01*
X367441Y140850D01*
X367406Y140858D01*
D02*
G37*
G36*
X246602Y246791D02*
X246536D01*
X246532D01*
X246521D01*
X246505D01*
X246479Y246788D01*
X246452D01*
X246421Y246784D01*
X246344Y246772D01*
X246264Y246753D01*
X246175Y246726D01*
X246095Y246688D01*
X246022Y246634D01*
X246018D01*
X246014Y246626D01*
X245995Y246607D01*
X245964Y246572D01*
X245933Y246530D01*
X245903Y246473D01*
X245872Y246407D01*
X245853Y246334D01*
X245845Y246296D01*
Y246231D01*
X245849Y246215D01*
X245853Y246173D01*
X245868Y246119D01*
X245887Y246058D01*
X245918Y245993D01*
X245964Y245927D01*
X245991Y245897D01*
X246022Y245866D01*
X246029Y245858D01*
X246041Y245850D01*
X246052Y245843D01*
X246072Y245831D01*
X246095Y245820D01*
X246122Y245804D01*
X246152Y245793D01*
X246187Y245778D01*
X246225Y245762D01*
X246267Y245751D01*
X246317Y245739D01*
X246367Y245731D01*
X246425Y245724D01*
X246482Y245716D01*
X246548D01*
X246551D01*
X246563D01*
X246582D01*
X246605Y245720D01*
X246632D01*
X246667Y245724D01*
X246744Y245735D01*
X246828Y245755D01*
X246916Y245778D01*
X247001Y245816D01*
X247039Y245839D01*
X247074Y245866D01*
X247081Y245873D01*
X247101Y245893D01*
X247128Y245927D01*
X247158Y245973D01*
X247193Y246027D01*
X247220Y246096D01*
X247239Y246169D01*
X247243Y246212D01*
X247247Y246254D01*
Y246277D01*
X247243Y246292D01*
X247239Y246334D01*
X247223Y246388D01*
X247204Y246449D01*
X247174Y246515D01*
X247131Y246576D01*
X247105Y246607D01*
X247074Y246638D01*
X247070D01*
X247066Y246645D01*
X247055Y246653D01*
X247039Y246661D01*
X247020Y246672D01*
X246997Y246688D01*
X246970Y246699D01*
X246939Y246714D01*
X246905Y246730D01*
X246866Y246741D01*
X246820Y246757D01*
X246770Y246768D01*
X246721Y246776D01*
X246663Y246784D01*
X246602Y246791D01*
D02*
G37*
G36*
Y244833D02*
X246536D01*
X246532D01*
X246521D01*
X246505D01*
X246479Y244829D01*
X246452D01*
X246421Y244825D01*
X246344Y244814D01*
X246264Y244795D01*
X246175Y244768D01*
X246095Y244729D01*
X246022Y244675D01*
X246018D01*
X246014Y244668D01*
X245995Y244649D01*
X245964Y244614D01*
X245933Y244572D01*
X245903Y244514D01*
X245872Y244449D01*
X245853Y244376D01*
X245845Y244338D01*
Y244272D01*
X245849Y244257D01*
X245853Y244215D01*
X245868Y244161D01*
X245887Y244099D01*
X245918Y244034D01*
X245964Y243969D01*
X245991Y243938D01*
X246022Y243907D01*
X246029Y243900D01*
X246041Y243892D01*
X246052Y243884D01*
X246072Y243873D01*
X246095Y243861D01*
X246122Y243846D01*
X246152Y243834D01*
X246187Y243819D01*
X246225Y243804D01*
X246267Y243792D01*
X246317Y243781D01*
X246367Y243773D01*
X246425Y243765D01*
X246482Y243758D01*
X246548D01*
X246551D01*
X246563D01*
X246582D01*
X246605Y243761D01*
X246632D01*
X246667Y243765D01*
X246744Y243777D01*
X246828Y243796D01*
X246916Y243819D01*
X247001Y243858D01*
X247039Y243881D01*
X247074Y243907D01*
X247081Y243915D01*
X247101Y243934D01*
X247128Y243969D01*
X247158Y244015D01*
X247193Y244069D01*
X247220Y244138D01*
X247239Y244211D01*
X247243Y244253D01*
X247247Y244295D01*
Y244318D01*
X247243Y244334D01*
X247239Y244376D01*
X247223Y244430D01*
X247204Y244491D01*
X247174Y244556D01*
X247131Y244618D01*
X247105Y244649D01*
X247074Y244679D01*
X247070D01*
X247066Y244687D01*
X247055Y244695D01*
X247039Y244702D01*
X247020Y244714D01*
X246997Y244729D01*
X246970Y244741D01*
X246939Y244756D01*
X246905Y244772D01*
X246866Y244783D01*
X246820Y244798D01*
X246770Y244810D01*
X246721Y244817D01*
X246663Y244825D01*
X246602Y244833D01*
D02*
G37*
G36*
X246609Y242855D02*
X246544D01*
X246540D01*
X246529D01*
X246509D01*
X246486Y242851D01*
X246456D01*
X246421Y242848D01*
X246344Y242836D01*
X246256Y242821D01*
X246171Y242794D01*
X246087Y242759D01*
X246048Y242740D01*
X246014Y242713D01*
X246010D01*
X246006Y242705D01*
X245987Y242686D01*
X245960Y242659D01*
X245926Y242617D01*
X245895Y242567D01*
X245868Y242506D01*
X245849Y242441D01*
X245841Y242406D01*
Y242348D01*
X245845Y242333D01*
X245849Y242295D01*
X245864Y242249D01*
X245883Y242195D01*
X245918Y242133D01*
X245960Y242076D01*
X245991Y242045D01*
X246022Y242018D01*
X246025D01*
X246029Y242010D01*
X246041Y242007D01*
X246056Y241995D01*
X246072Y241984D01*
X246095Y241972D01*
X246122Y241961D01*
X246152Y241945D01*
X246187Y241930D01*
X246225Y241918D01*
X246267Y241907D01*
X246310Y241895D01*
X246413Y241880D01*
X246532Y241872D01*
X246536D01*
X246548D01*
X246563D01*
X246586D01*
X246613Y241876D01*
X246644D01*
X246717Y241884D01*
X246794Y241895D01*
X246874Y241911D01*
X246947Y241930D01*
X246978Y241945D01*
X247008Y241961D01*
X247012D01*
X247020Y241968D01*
X247032Y241976D01*
X247047Y241987D01*
X247085Y242018D01*
X247128Y242064D01*
X247170Y242122D01*
X247208Y242191D01*
X247223Y242226D01*
X247235Y242268D01*
X247243Y242310D01*
X247247Y242356D01*
Y242375D01*
X247243Y242391D01*
X247239Y242429D01*
X247223Y242475D01*
X247204Y242533D01*
X247174Y242590D01*
X247128Y242648D01*
X247101Y242679D01*
X247070Y242705D01*
X247066D01*
X247062Y242713D01*
X247051Y242721D01*
X247035Y242729D01*
X247020Y242740D01*
X246997Y242752D01*
X246970Y242767D01*
X246939Y242782D01*
X246901Y242794D01*
X246863Y242809D01*
X246820Y242821D01*
X246774Y242832D01*
X246721Y242840D01*
X246667Y242848D01*
X246609Y242855D01*
D02*
G37*
%LPD*%
D10*
X355433Y168540D02*
X373567D01*
Y159460D02*
Y168540D01*
X355433Y159460D02*
X373567D01*
X355433D02*
Y168540D01*
X127961Y151680D02*
X148039D01*
Y178083D01*
X127961D02*
X148039D01*
X127961Y151680D02*
Y178083D01*
X355128Y155927D02*
X373262D01*
Y146847D02*
Y155927D01*
X355128Y146847D02*
X373262D01*
X355128D02*
Y155927D01*
X354933Y143040D02*
X373067D01*
Y133960D02*
Y143040D01*
X354933Y133960D02*
X373067D01*
X354933D02*
Y143040D01*
X242960Y229933D02*
Y248067D01*
X252040D01*
Y229933D02*
Y248067D01*
X242960Y229933D02*
X252040D01*
M02*
