G04*
G04 #@! TF.GenerationSoftware,Altium Limited,Altium Designer,21.2.2 (38)*
G04*
G04 Layer_Color=128*
%FSLAX25Y25*%
%MOIN*%
G70*
G04*
G04 #@! TF.SameCoordinates,0CC3C9D5-6B2F-423D-8AA3-22EEB0D6369A*
G04*
G04*
G04 #@! TF.FilePolarity,Positive*
G04*
G01*
G75*
%ADD18R,0.06905X0.07111*%
%ADD23R,0.03740X0.06693*%
%ADD86R,0.06299X0.11024*%
%ADD87R,0.07087X0.03937*%
%ADD88R,0.07378X0.02134*%
G04:AMPARAMS|DCode=89|XSize=73.78mil|YSize=21.34mil|CornerRadius=10.67mil|HoleSize=0mil|Usage=FLASHONLY|Rotation=0.000|XOffset=0mil|YOffset=0mil|HoleType=Round|Shape=RoundedRectangle|*
%AMROUNDEDRECTD89*
21,1,0.07378,0.00000,0,0,0.0*
21,1,0.05244,0.02134,0,0,0.0*
1,1,0.02134,0.02622,0.00000*
1,1,0.02134,-0.02622,0.00000*
1,1,0.02134,-0.02622,0.00000*
1,1,0.02134,0.02622,0.00000*
%
%ADD89ROUNDEDRECTD89*%
%ADD90R,0.06102X0.06102*%
%ADD91R,0.09843X0.13780*%
D18*
X283630Y141500D02*
D03*
X274370D02*
D03*
X283130Y154500D02*
D03*
X273870D02*
D03*
D23*
X351988Y221000D02*
D03*
X363012D02*
D03*
D86*
X451500Y80465D02*
D03*
Y63535D02*
D03*
X451000Y17535D02*
D03*
Y34465D02*
D03*
X450000Y106535D02*
D03*
Y123465D02*
D03*
D87*
X419500Y157905D02*
D03*
Y146095D02*
D03*
X519500Y39094D02*
D03*
Y50906D02*
D03*
X372000Y37405D02*
D03*
Y25594D02*
D03*
X385000Y116595D02*
D03*
Y128405D02*
D03*
X384500Y80094D02*
D03*
Y91905D02*
D03*
X386000Y45094D02*
D03*
Y56906D02*
D03*
X429500Y32405D02*
D03*
Y20595D02*
D03*
X430000Y78405D02*
D03*
Y66594D02*
D03*
X429500Y120905D02*
D03*
Y109095D02*
D03*
D88*
X527882Y103000D02*
D03*
X527382Y68000D02*
D03*
D89*
X527882Y108000D02*
D03*
Y113000D02*
D03*
Y118000D02*
D03*
X546118D02*
D03*
Y113000D02*
D03*
Y108000D02*
D03*
Y103000D02*
D03*
X527382Y73000D02*
D03*
Y78000D02*
D03*
Y83000D02*
D03*
X545618D02*
D03*
Y78000D02*
D03*
Y73000D02*
D03*
Y68000D02*
D03*
D90*
X409000Y226142D02*
D03*
Y218858D02*
D03*
X470500Y215642D02*
D03*
Y208358D02*
D03*
X478500Y224642D02*
D03*
Y217358D02*
D03*
X417500Y230858D02*
D03*
Y238142D02*
D03*
X401000Y209358D02*
D03*
Y216642D02*
D03*
X488000Y226358D02*
D03*
Y233642D02*
D03*
D91*
X326000Y53295D02*
D03*
Y27705D02*
D03*
M02*
