G04*
G04 #@! TF.GenerationSoftware,Altium Limited,Altium Designer,21.2.2 (38)*
G04*
G04 Layer_Color=65535*
%FSLAX25Y25*%
%MOIN*%
G70*
G04*
G04 #@! TF.SameCoordinates,0CC3C9D5-6B2F-423D-8AA3-22EEB0D6369A*
G04*
G04*
G04 #@! TF.FilePolarity,Positive*
G04*
G01*
G75*
%ADD10C,0.00787*%
%ADD11C,0.00394*%
%ADD12C,0.01181*%
%ADD13C,0.00984*%
%ADD14C,0.01000*%
%ADD15C,0.00700*%
D10*
X149685Y112500D02*
G03*
X149685Y112500I-19685J0D01*
G01*
X57606Y202831D02*
G03*
X57606Y203224I0J197D01*
G01*
D02*
G03*
X57606Y202831I0J-197D01*
G01*
X31000Y469205D02*
G03*
X31000Y468811I0J-197D01*
G01*
D02*
G03*
X31000Y469205I0J197D01*
G01*
D02*
G03*
X31000Y468811I0J-197D01*
G01*
X4539Y193500D02*
G03*
X5327Y193500I394J0D01*
G01*
D02*
G03*
X4539Y193500I-394J0D01*
G01*
X306185Y100842D02*
G03*
X306185Y100842I-19685J0D01*
G01*
X359000Y85228D02*
G03*
X359000Y84835I0J-197D01*
G01*
D02*
G03*
X359000Y85228I0J197D01*
G01*
D02*
G03*
X359000Y84835I0J-197D01*
G01*
X132343Y87756D02*
G03*
X132343Y87362I0J-197D01*
G01*
D02*
G03*
X132343Y87756I0J197D01*
G01*
D02*
G03*
X132343Y87362I0J-197D01*
G01*
X130000Y133760D02*
Y137697D01*
X128032Y135728D02*
X131968D01*
X526500Y22744D02*
Y28256D01*
X272500Y125244D02*
Y130756D01*
X114819Y402709D02*
X117181D01*
Y391291D02*
Y402709D01*
X114819Y391291D02*
X117181D01*
X114819D02*
Y402709D01*
X108716Y402906D02*
X113441D01*
X3441Y467000D02*
X56197D01*
X3441Y367000D02*
Y467000D01*
Y367000D02*
X56197D01*
Y467000D01*
X115319Y430709D02*
X117681D01*
Y419291D02*
Y430709D01*
X115319Y419291D02*
X117681D01*
X115319D02*
Y430709D01*
X109216Y430905D02*
X113941D01*
X212000Y457250D02*
X314000D01*
Y476750D01*
X212000D02*
X314000D01*
X212000Y457250D02*
Y476750D01*
Y287250D02*
X314000D01*
Y306750D01*
X212000D02*
X314000D01*
X212000Y287250D02*
Y306750D01*
X462000Y287250D02*
X564000D01*
Y306750D01*
X462000D02*
X564000D01*
X462000Y287250D02*
Y306750D01*
Y457250D02*
X564000D01*
Y476750D01*
X462000D02*
X564000D01*
X462000Y457250D02*
Y476750D01*
X272996Y167000D02*
Y179697D01*
X315004D01*
Y160681D02*
Y179697D01*
X182996Y167000D02*
Y179697D01*
X225004D01*
Y160681D02*
Y179697D01*
X356417Y158870D02*
X372583D01*
X356417Y169130D02*
X372583D01*
X77146Y202500D02*
X107992D01*
X82008Y162500D02*
X107992D01*
X114819Y417209D02*
X117181D01*
Y405791D02*
Y417209D01*
X114819Y405791D02*
X117181D01*
X114819D02*
Y417209D01*
X108716Y417406D02*
X113441D01*
X81000Y368000D02*
X84000D01*
X81000Y348000D02*
Y368000D01*
Y348000D02*
X87000D01*
Y368000D01*
X84000D02*
X87000D01*
X84000Y347100D02*
Y348000D01*
Y368000D02*
Y368900D01*
X81000Y331000D02*
X84000D01*
X81000Y311000D02*
Y331000D01*
Y311000D02*
X87000D01*
Y331000D01*
X84000D02*
X87000D01*
X84000Y310100D02*
Y311000D01*
Y331000D02*
Y331900D01*
X128354Y161421D02*
X147646D01*
Y168342D01*
X128354D02*
X147646D01*
X128354Y161421D02*
Y168342D01*
X355000Y229500D02*
X358000D01*
X355000Y209500D02*
Y229500D01*
Y209500D02*
X361000D01*
Y229500D01*
X358000D02*
X361000D01*
X358000Y208600D02*
Y209500D01*
Y229500D02*
Y230400D01*
X392850Y19992D02*
Y194008D01*
X499150D01*
Y19992D02*
Y194008D01*
X392850Y19992D02*
X499150D01*
X365500Y238500D02*
Y283500D01*
X350500D02*
X365500D01*
X350500Y238500D02*
Y283500D01*
Y238500D02*
X365500D01*
X356112Y146257D02*
X372278D01*
X356112Y156518D02*
X372278D01*
X355917Y133370D02*
X372083D01*
X355917Y143630D02*
X372083D01*
X217000Y4055D02*
X247000D01*
X217000D02*
Y35945D01*
X257000D01*
Y20000D02*
Y35945D01*
X252630Y230917D02*
Y247083D01*
X242370Y230917D02*
Y247083D01*
X185000Y241000D02*
X185900D01*
X164100D02*
X165000D01*
X185000Y238000D02*
Y241000D01*
X165000Y238000D02*
X185000D01*
X165000D02*
Y244000D01*
X185000D01*
Y241000D02*
Y244000D01*
X165709Y259500D02*
X199764D01*
X232638D02*
X266693D01*
X222697Y249559D02*
X232638Y259500D01*
Y249559D02*
Y269441D01*
X199764D02*
X232638D01*
X199764Y249559D02*
Y269441D01*
Y249559D02*
X232638D01*
X196409Y206410D02*
Y247590D01*
X237591Y206410D02*
Y247590D01*
X232000D02*
X237591D01*
X330500Y17784D02*
Y37713D01*
Y64091D02*
Y84020D01*
Y64091D02*
X336602Y57988D01*
X324398Y64091D02*
X336602D01*
X324398Y37713D02*
Y64091D01*
Y37713D02*
X336602D01*
Y64091D01*
X104000Y28980D02*
Y48909D01*
Y75287D02*
Y95217D01*
Y75287D02*
X110102Y69185D01*
X97898Y75287D02*
X110102D01*
X97898Y48909D02*
Y75287D01*
Y48909D02*
X110102D01*
Y75287D01*
X69000Y115100D02*
Y116000D01*
Y136000D02*
Y136900D01*
X66000Y116000D02*
X69000D01*
X66000D02*
Y136000D01*
X72000D01*
Y116000D02*
Y136000D01*
X69000Y116000D02*
X72000D01*
X69000Y155100D02*
Y156000D01*
Y176000D02*
Y176900D01*
X66000Y156000D02*
X69000D01*
X66000D02*
Y176000D01*
X72000D01*
Y156000D02*
Y176000D01*
X69000Y156000D02*
X72000D01*
X8055Y44500D02*
Y74500D01*
X39945D01*
Y34500D02*
Y74500D01*
X24000Y34500D02*
X39945D01*
X81335Y143547D02*
X85665D01*
X81335Y149453D02*
X85665D01*
D11*
X160449Y142228D02*
G03*
X160449Y142622I0J197D01*
G01*
D02*
G03*
X160449Y142228I0J-197D01*
G01*
X17398Y91189D02*
G03*
X17004Y91189I-197J0D01*
G01*
D02*
G03*
X17398Y91189I197J0D01*
G01*
X155528Y137898D02*
X257890D01*
X155528Y39472D02*
Y137898D01*
Y39472D02*
X257890D01*
Y137898D01*
X45402Y205587D02*
X81622D01*
Y291413D01*
X45402D02*
X81622D01*
X45402Y205587D02*
Y291413D01*
X165220Y204118D02*
X336087D01*
Y141126D02*
Y204118D01*
X165220Y141126D02*
X336087D01*
X165220D02*
Y204118D01*
X6902Y185626D02*
X43122D01*
Y271453D01*
X6902D02*
X43122D01*
X6902Y185626D02*
Y271453D01*
X4528Y303500D02*
X43110D01*
Y363500D01*
X4528D02*
X43110D01*
X4528Y303500D02*
Y363500D01*
X560390Y92000D02*
X598972D01*
X560390Y32000D02*
Y92000D01*
Y32000D02*
X598972D01*
Y92000D01*
X6768Y95087D02*
Y180913D01*
X42988D01*
Y95087D02*
Y180913D01*
X6768Y95087D02*
X42988D01*
X343055Y80701D02*
X365102D01*
X343055Y13772D02*
Y80701D01*
Y13772D02*
X365102D01*
Y80701D01*
X116398Y83228D02*
X138445D01*
X116398Y16299D02*
Y83228D01*
Y16299D02*
X138445D01*
Y83228D01*
X50496Y7468D02*
X61126D01*
X50496D02*
Y103532D01*
X61126D01*
X76874Y7468D02*
X87504D01*
Y103532D01*
X76874D02*
X87504D01*
D12*
X25000Y299248D02*
G03*
X25000Y300035I0J394D01*
G01*
D02*
G03*
X25000Y299248I0J-394D01*
G01*
X578500Y96252D02*
G03*
X578500Y95465I0J-394D01*
G01*
D02*
G03*
X578500Y96252I0J394D01*
G01*
D13*
X130992Y149724D02*
G03*
X130992Y149724I-492J0D01*
G01*
X377083Y187500D02*
G03*
X377083Y187500I-492J0D01*
G01*
D14*
X522999Y260999D02*
X522500Y261499D01*
X521500D01*
X521000Y260999D01*
Y259000D01*
X521500Y258500D01*
X522500D01*
X522999Y259000D01*
Y259999D01*
X522000D01*
X523999Y258500D02*
Y261499D01*
X525998Y258500D01*
Y261499D01*
X526998D02*
Y258500D01*
X528498D01*
X528997Y259000D01*
Y260999D01*
X528498Y261499D01*
X526998D01*
X532996Y258500D02*
Y261499D01*
X534496D01*
X534996Y260999D01*
Y259999D01*
X534496Y259500D01*
X532996D01*
X535995Y258500D02*
X536995D01*
X536495D01*
Y260499D01*
X535995D01*
X538494Y258500D02*
Y260499D01*
X539994D01*
X540494Y259999D01*
Y258500D01*
X296499Y261999D02*
X296000Y262499D01*
X295000D01*
X294500Y261999D01*
Y260000D01*
X295000Y259500D01*
X296000D01*
X296499Y260000D01*
Y260999D01*
X295500D01*
X297499Y259500D02*
Y262499D01*
X299498Y259500D01*
Y262499D01*
X300498D02*
Y259500D01*
X301998D01*
X302497Y260000D01*
Y261999D01*
X301998Y262499D01*
X300498D01*
X306496Y259500D02*
Y262499D01*
X307996D01*
X308495Y261999D01*
Y260999D01*
X307996Y260500D01*
X306496D01*
X309495Y259500D02*
X310495D01*
X309995D01*
Y261499D01*
X309495D01*
X311994Y259500D02*
Y261499D01*
X313494D01*
X313994Y260999D01*
Y259500D01*
X103999Y134499D02*
X103499Y134999D01*
X102500D01*
X102000Y134499D01*
Y132500D01*
X102500Y132000D01*
X103499D01*
X103999Y132500D01*
Y133500D01*
X103000D01*
X104999Y132000D02*
Y134999D01*
X106998Y132000D01*
Y134999D01*
X107998D02*
Y132000D01*
X109498D01*
X109997Y132500D01*
Y134499D01*
X109498Y134999D01*
X107998D01*
X113996Y132000D02*
Y134999D01*
X115496D01*
X115996Y134499D01*
Y133500D01*
X115496Y133000D01*
X113996D01*
X116995Y132000D02*
X117995D01*
X117495D01*
Y133999D01*
X116995D01*
X119494Y132000D02*
Y133999D01*
X120994D01*
X121494Y133500D01*
Y132000D01*
X132499Y257499D02*
X132000Y257999D01*
X131000D01*
X130500Y257499D01*
Y255500D01*
X131000Y255000D01*
X132000D01*
X132499Y255500D01*
Y256500D01*
X131500D01*
X133499Y255000D02*
Y257999D01*
X135498Y255000D01*
Y257999D01*
X136498D02*
Y255000D01*
X137998D01*
X138497Y255500D01*
Y257499D01*
X137998Y257999D01*
X136498D01*
X142496Y255000D02*
Y257999D01*
X143996D01*
X144495Y257499D01*
Y256500D01*
X143996Y256000D01*
X142496D01*
X145495Y255000D02*
X146495D01*
X145995D01*
Y256999D01*
X145495D01*
X147994Y255000D02*
Y256999D01*
X149494D01*
X149994Y256500D01*
Y255000D01*
X57499Y330999D02*
X56999Y331499D01*
X56000D01*
X55500Y330999D01*
Y329000D01*
X56000Y328500D01*
X56999D01*
X57499Y329000D01*
Y329999D01*
X56500D01*
X58499Y328500D02*
Y331499D01*
X60498Y328500D01*
Y331499D01*
X61498D02*
Y328500D01*
X62998D01*
X63497Y329000D01*
Y330999D01*
X62998Y331499D01*
X61498D01*
X67496Y328500D02*
Y331499D01*
X68996D01*
X69495Y330999D01*
Y329999D01*
X68996Y329500D01*
X67496D01*
X70495Y328500D02*
X71495D01*
X70995D01*
Y330499D01*
X70495D01*
X72994Y328500D02*
Y330499D01*
X74494D01*
X74994Y329999D01*
Y328500D01*
X284000Y272499D02*
X285999D01*
X285000D01*
Y269500D01*
X286999D02*
Y272499D01*
X288498D01*
X288998Y271999D01*
Y271000D01*
X288498Y270500D01*
X286999D01*
X289998Y272499D02*
X291997D01*
Y271999D01*
X289998Y270000D01*
Y269500D01*
X278500Y253499D02*
X280499D01*
X279500D01*
Y250500D01*
X281499D02*
Y253499D01*
X282998D01*
X283498Y252999D01*
Y251999D01*
X282998Y251500D01*
X281499D01*
X286497Y253499D02*
X284498D01*
Y251999D01*
X285498Y252499D01*
X285998D01*
X286497Y251999D01*
Y251000D01*
X285998Y250500D01*
X284998D01*
X284498Y251000D01*
X148500Y234999D02*
X150499D01*
X149500D01*
Y232000D01*
X151499D02*
Y234999D01*
X152999D01*
X153498Y234499D01*
Y233500D01*
X152999Y233000D01*
X151499D01*
X156497Y234999D02*
X155498Y234499D01*
X154498Y233500D01*
Y232500D01*
X154998Y232000D01*
X155998D01*
X156497Y232500D01*
Y233000D01*
X155998Y233500D01*
X154498D01*
X108000Y148999D02*
X109999D01*
X109000D01*
Y146000D01*
X110999D02*
Y148999D01*
X112499D01*
X112998Y148499D01*
Y147500D01*
X112499Y147000D01*
X110999D01*
X113998Y148499D02*
X114498Y148999D01*
X115498D01*
X115997Y148499D01*
Y147999D01*
X115498Y147500D01*
X114998D01*
X115498D01*
X115997Y147000D01*
Y146500D01*
X115498Y146000D01*
X114498D01*
X113998Y146500D01*
X105500Y269499D02*
X107499D01*
X106500D01*
Y266500D01*
X108499D02*
Y269499D01*
X109999D01*
X110498Y268999D01*
Y268000D01*
X109999Y267500D01*
X108499D01*
X113497Y266500D02*
X111498D01*
X113497Y268499D01*
Y268999D01*
X112998Y269499D01*
X111998D01*
X111498Y268999D01*
X59000Y343499D02*
X60999D01*
X60000D01*
Y340500D01*
X61999D02*
Y343499D01*
X63499D01*
X63998Y342999D01*
Y342000D01*
X63499Y341500D01*
X61999D01*
X66498Y340500D02*
Y343499D01*
X64998Y342000D01*
X66997D01*
X60000Y312499D02*
X61999D01*
X61000D01*
Y309500D01*
X62999D02*
Y312499D01*
X64499D01*
X64998Y311999D01*
Y310999D01*
X64499Y310500D01*
X62999D01*
X65998Y309500D02*
X66998D01*
X66498D01*
Y312499D01*
X65998Y311999D01*
X322500Y37999D02*
X326499D01*
X324499Y39999D02*
Y36000D01*
X333500Y67500D02*
X337499D01*
X97000Y44999D02*
X100999D01*
X98999Y46999D02*
Y43000D01*
X98000Y77500D02*
X101999D01*
X193500Y266999D02*
X197499D01*
X195499Y268999D02*
Y265000D01*
X235000Y266000D02*
X238999D01*
X209000Y7000D02*
X212999D01*
X261500Y6999D02*
X265499D01*
X263499Y8999D02*
Y5000D01*
X2000Y64499D02*
X5999D01*
X3999Y66499D02*
Y62500D01*
X339500Y136499D02*
X343499D01*
X341499Y138499D02*
Y134500D01*
X523299Y39798D02*
X522299Y40798D01*
X520300D01*
X519300Y39798D01*
Y35800D01*
X520300Y34800D01*
X522299D01*
X523299Y35800D01*
X525298Y40798D02*
Y34800D01*
X528297D01*
X529297Y35800D01*
Y36799D01*
Y37799D01*
X528297Y38799D01*
X525298D01*
X531296D02*
Y35800D01*
X532296Y34800D01*
X535295D01*
Y33800D01*
X534295Y32801D01*
X533295D01*
X535295Y34800D02*
Y38799D01*
X537294Y40798D02*
X541293D01*
Y39798D01*
X537294Y35800D01*
Y34800D01*
X269299Y142298D02*
X268299Y143298D01*
X266300D01*
X265300Y142298D01*
Y138300D01*
X266300Y137300D01*
X268299D01*
X269299Y138300D01*
X271298Y143298D02*
Y137300D01*
X274297D01*
X275297Y138300D01*
Y139299D01*
Y140299D01*
X274297Y141299D01*
X271298D01*
X277296D02*
Y138300D01*
X278296Y137300D01*
X281295D01*
Y136300D01*
X280295Y135301D01*
X279295D01*
X281295Y137300D02*
Y141299D01*
X283294Y142298D02*
X284294Y143298D01*
X286293D01*
X287293Y142298D01*
Y141299D01*
X286293Y140299D01*
X285294D01*
X286293D01*
X287293Y139299D01*
Y138300D01*
X286293Y137300D01*
X284294D01*
X283294Y138300D01*
X85504Y398999D02*
X86836D01*
X86170D01*
Y395001D01*
X85504D01*
X86836D01*
X91502Y398333D02*
X90835Y398999D01*
X89502D01*
X88836Y398333D01*
Y395667D01*
X89502Y395001D01*
X90835D01*
X91502Y395667D01*
X92835Y395001D02*
Y398999D01*
X94834D01*
X95500Y398333D01*
Y397000D01*
X94834Y396334D01*
X92835D01*
X98833Y398999D02*
X97500D01*
X96833Y398333D01*
Y395667D01*
X97500Y395001D01*
X98833D01*
X99499Y395667D01*
Y398333D01*
X98833Y398999D01*
X103498Y398333D02*
X102831Y398999D01*
X101498D01*
X100832Y398333D01*
Y397666D01*
X101498Y397000D01*
X102831D01*
X103498Y396334D01*
Y395667D01*
X102831Y395001D01*
X101498D01*
X100832Y395667D01*
X104831Y398333D02*
X105497Y398999D01*
X106830D01*
X107497Y398333D01*
Y397666D01*
X106830Y397000D01*
X106164D01*
X106830D01*
X107497Y396334D01*
Y395667D01*
X106830Y395001D01*
X105497D01*
X104831Y395667D01*
X62499Y430995D02*
Y433660D01*
X60500D01*
X61166Y432327D01*
Y431661D01*
X60500Y430995D01*
X59167D01*
X58501Y431661D01*
Y432994D01*
X59167Y433660D01*
X62499Y429662D02*
Y426996D01*
Y428329D01*
X58501D01*
Y423664D02*
Y424997D01*
X59167Y425663D01*
X60500D01*
X61166Y424997D01*
Y423664D01*
X60500Y422997D01*
X59834D01*
Y425663D01*
X61166Y421664D02*
X58501D01*
X59834D01*
X60500Y420998D01*
X61166Y420331D01*
Y419665D01*
X58501Y417665D02*
X61166D01*
Y416999D01*
X60500Y416333D01*
X58501D01*
X60500D01*
X61166Y415666D01*
X60500Y415000D01*
X58501D01*
Y413667D02*
Y412334D01*
Y413000D01*
X61166D01*
Y413667D01*
X58501Y410334D02*
X61166D01*
Y408335D01*
X60500Y407669D01*
X58501D01*
X61166Y405669D02*
Y404337D01*
X60500Y403670D01*
X58501D01*
Y405669D01*
X59167Y406336D01*
X59834Y405669D01*
Y403670D01*
X58501Y402337D02*
Y401004D01*
Y401671D01*
X62499D01*
Y402337D01*
X61166Y399005D02*
Y398338D01*
X60500D01*
Y399005D01*
X61166D01*
X59167D02*
Y398338D01*
X58501D01*
Y399005D01*
X59167D01*
X58501Y395673D02*
Y394340D01*
Y395006D01*
X62499D01*
X61833Y395673D01*
X85670Y427499D02*
X87003D01*
X86336D01*
Y423501D01*
X85670D01*
X87003D01*
X91668Y426833D02*
X91002Y427499D01*
X89669D01*
X89002Y426833D01*
Y424167D01*
X89669Y423501D01*
X91002D01*
X91668Y424167D01*
X93001Y423501D02*
Y427499D01*
X95000D01*
X95667Y426833D01*
Y425500D01*
X95000Y424834D01*
X93001D01*
X98999Y427499D02*
X97666D01*
X97000Y426833D01*
Y424167D01*
X97666Y423501D01*
X98999D01*
X99665Y424167D01*
Y426833D01*
X98999Y427499D01*
X103664Y426833D02*
X102998Y427499D01*
X101665D01*
X100998Y426833D01*
Y426166D01*
X101665Y425500D01*
X102998D01*
X103664Y424834D01*
Y424167D01*
X102998Y423501D01*
X101665D01*
X100998Y424167D01*
X104997Y423501D02*
X106330D01*
X105664D01*
Y427499D01*
X104997Y426833D01*
X359835Y131999D02*
X359168Y132666D01*
X357836D01*
X357169Y131999D01*
Y129333D01*
X357836Y128667D01*
X359168D01*
X359835Y129333D01*
X361168Y132666D02*
Y128667D01*
X363167D01*
X363834Y129333D01*
Y130000D01*
Y130666D01*
X363167Y131333D01*
X361168D01*
X365166D02*
Y129333D01*
X365833Y128667D01*
X367832D01*
Y128001D01*
X367166Y127334D01*
X366499D01*
X367832Y128667D02*
Y131333D01*
X371164Y128667D02*
Y132666D01*
X369165Y130666D01*
X371831D01*
X65501Y32508D02*
Y28509D01*
X68500D01*
Y30508D01*
Y28509D01*
X71499D01*
X67500Y34507D02*
X70499D01*
X71499Y35507D01*
Y38506D01*
X67500D01*
X71499Y40505D02*
Y43504D01*
X70499Y44504D01*
X69500Y43504D01*
Y41505D01*
X68500Y40505D01*
X67500Y41505D01*
Y44504D01*
X71499Y49502D02*
Y47503D01*
X70499Y46503D01*
X68500D01*
X67500Y47503D01*
Y49502D01*
X68500Y50502D01*
X69500D01*
Y46503D01*
X65501Y52501D02*
X71499D01*
X68500D01*
Y56500D01*
X65501D01*
X71499D01*
Y59499D02*
Y61498D01*
X70499Y62498D01*
X68500D01*
X67500Y61498D01*
Y59499D01*
X68500Y58499D01*
X70499D01*
X71499Y59499D01*
Y64497D02*
Y66497D01*
Y65497D01*
X65501D01*
Y64497D01*
Y73494D02*
X71499D01*
Y70495D01*
X70499Y69496D01*
X68500D01*
X67500Y70495D01*
Y73494D01*
X71499Y78493D02*
Y76494D01*
X70499Y75494D01*
X68500D01*
X67500Y76494D01*
Y78493D01*
X68500Y79493D01*
X69500D01*
Y75494D01*
X67500Y81492D02*
X71499D01*
X69500D01*
X68500Y82492D01*
X67500Y83491D01*
Y84491D01*
X303671Y202499D02*
Y198501D01*
Y200500D01*
X306337D01*
Y202499D01*
Y198501D01*
X309669D02*
X308336D01*
X307670Y199167D01*
Y200500D01*
X308336Y201167D01*
X309669D01*
X310336Y200500D01*
Y199834D01*
X307670D01*
X312335Y201167D02*
X313668D01*
X314335Y200500D01*
Y198501D01*
X312335D01*
X311669Y199167D01*
X312335Y199834D01*
X314335D01*
X316334Y201833D02*
Y201167D01*
X315667D01*
X317000D01*
X316334D01*
Y199167D01*
X317000Y198501D01*
X321666Y201833D02*
X320999Y202499D01*
X319666D01*
X319000Y201833D01*
Y201167D01*
X319666Y200500D01*
X320999D01*
X321666Y199834D01*
Y199167D01*
X320999Y198501D01*
X319666D01*
X319000Y199167D01*
X322998Y198501D02*
X324331D01*
X323665D01*
Y201167D01*
X322998D01*
X326331Y198501D02*
Y201167D01*
X328330D01*
X328996Y200500D01*
Y198501D01*
X330329D02*
Y202499D01*
Y199834D02*
X332329Y201167D01*
X330329Y199834D02*
X332329Y198501D01*
X84504Y413499D02*
X85836D01*
X85170D01*
Y409501D01*
X84504D01*
X85836D01*
X90502Y412833D02*
X89835Y413499D01*
X88502D01*
X87836Y412833D01*
Y410167D01*
X88502Y409501D01*
X89835D01*
X90502Y410167D01*
X91834Y409501D02*
Y413499D01*
X93834D01*
X94500Y412833D01*
Y411500D01*
X93834Y410834D01*
X91834D01*
X97833Y413499D02*
X96500D01*
X95833Y412833D01*
Y410167D01*
X96500Y409501D01*
X97833D01*
X98499Y410167D01*
Y412833D01*
X97833Y413499D01*
X102498Y412833D02*
X101831Y413499D01*
X100498D01*
X99832Y412833D01*
Y412166D01*
X100498Y411500D01*
X101831D01*
X102498Y410834D01*
Y410167D01*
X101831Y409501D01*
X100498D01*
X99832Y410167D01*
X106497Y409501D02*
X103831D01*
X106497Y412166D01*
Y412833D01*
X105830Y413499D01*
X104497D01*
X103831Y412833D01*
X199006Y228333D02*
X200339D01*
X199672D01*
Y224334D01*
X199006D01*
X200339D01*
X205004Y227666D02*
X204337Y228333D01*
X203005D01*
X202338Y227666D01*
Y225000D01*
X203005Y224334D01*
X204337D01*
X205004Y225000D01*
X206337Y224334D02*
X207670D01*
X207003D01*
Y228333D01*
X206337Y227666D01*
X209669Y223667D02*
X212335D01*
X216334Y227666D02*
X215667Y228333D01*
X214334D01*
X213668Y227666D01*
Y227000D01*
X214334Y226333D01*
X215667D01*
X216334Y225667D01*
Y225000D01*
X215667Y224334D01*
X214334D01*
X213668Y225000D01*
X218333Y224334D02*
X219666D01*
X220332Y225000D01*
Y226333D01*
X219666Y227000D01*
X218333D01*
X217667Y226333D01*
Y225000D01*
X218333Y224334D01*
X224331Y227000D02*
X222332D01*
X221665Y226333D01*
Y225000D01*
X222332Y224334D01*
X224331D01*
X225664D02*
Y228333D01*
Y225667D02*
X227663Y227000D01*
X225664Y225667D02*
X227663Y224334D01*
X231662D02*
X230329D01*
X229663Y225000D01*
Y226333D01*
X230329Y227000D01*
X231662D01*
X232328Y226333D01*
Y225667D01*
X229663D01*
X234328Y227666D02*
Y227000D01*
X233661D01*
X234994D01*
X234328D01*
Y225000D01*
X234994Y224334D01*
X187423Y91184D02*
Y85186D01*
X190422D01*
X191421Y86186D01*
Y87185D01*
X190422Y88185D01*
X187423D01*
X190422D01*
X191421Y89185D01*
Y90184D01*
X190422Y91184D01*
X187423D01*
X194420Y85186D02*
X196420D01*
X197419Y86186D01*
Y88185D01*
X196420Y89185D01*
X194420D01*
X193421Y88185D01*
Y86186D01*
X194420Y85186D01*
X199419Y91184D02*
Y85186D01*
X202418D01*
X203417Y86186D01*
Y87185D01*
Y88185D01*
X202418Y89185D01*
X199419D01*
X205417Y91184D02*
Y85186D01*
X208416D01*
X209416Y86186D01*
Y87185D01*
Y88185D01*
X208416Y89185D01*
X205417D01*
X211415Y85186D02*
X213414D01*
X212415D01*
Y89185D01*
X211415D01*
X216413Y85186D02*
Y89185D01*
X219412D01*
X220412Y88185D01*
Y85186D01*
X566255Y96000D02*
X566755Y96500D01*
X567755D01*
X568254Y96000D01*
Y95500D01*
X567755Y95000D01*
X567255D01*
X567755D01*
X568254Y94500D01*
Y94000D01*
X567755Y93501D01*
X566755D01*
X566255Y94000D01*
X569254Y96500D02*
X571253D01*
X570254D01*
Y93501D01*
X573752D02*
X572753D01*
X572253Y94000D01*
Y95000D01*
X572753Y95500D01*
X573752D01*
X574252Y95000D01*
Y94500D01*
X572253D01*
X575252Y95500D02*
Y93501D01*
Y94500D01*
X575752Y95000D01*
X576252Y95500D01*
X576752D01*
X578251Y93501D02*
Y95500D01*
X578751D01*
X579251Y95000D01*
Y93501D01*
Y95000D01*
X579751Y95500D01*
X580250Y95000D01*
Y93501D01*
X581250D02*
X582250D01*
X581750D01*
Y95500D01*
X581250D01*
X583749Y93501D02*
Y95500D01*
X585249D01*
X585749Y95000D01*
Y93501D01*
X587248Y95500D02*
X588248D01*
X588748Y95000D01*
Y93501D01*
X587248D01*
X586748Y94000D01*
X587248Y94500D01*
X588748D01*
X589747Y93501D02*
X590747D01*
X590247D01*
Y96500D01*
X589747D01*
X592246Y95500D02*
X592746D01*
Y95000D01*
X592246D01*
Y95500D01*
Y94000D02*
X592746D01*
Y93501D01*
X592246D01*
Y94000D01*
X596745Y93501D02*
X594746D01*
X596745Y95500D01*
Y96000D01*
X596245Y96500D01*
X595246D01*
X594746Y96000D01*
X50333Y356160D02*
X50999Y355494D01*
Y354161D01*
X50333Y353495D01*
X49666D01*
X49000Y354161D01*
Y354827D01*
Y354161D01*
X48334Y353495D01*
X47667D01*
X47001Y354161D01*
Y355494D01*
X47667Y356160D01*
X50999Y352162D02*
Y349496D01*
Y350829D01*
X47001D01*
Y346164D02*
Y347497D01*
X47667Y348163D01*
X49000D01*
X49666Y347497D01*
Y346164D01*
X49000Y345497D01*
X48334D01*
Y348163D01*
X49666Y344164D02*
X47001D01*
X48334D01*
X49000Y343498D01*
X49666Y342831D01*
Y342165D01*
X47001Y340165D02*
X49666D01*
Y339499D01*
X49000Y338833D01*
X47001D01*
X49000D01*
X49666Y338166D01*
X49000Y337500D01*
X47001D01*
Y336167D02*
Y334834D01*
Y335500D01*
X49666D01*
Y336167D01*
X47001Y332835D02*
X49666D01*
Y330835D01*
X49000Y330169D01*
X47001D01*
X49666Y328169D02*
Y326836D01*
X49000Y326170D01*
X47001D01*
Y328169D01*
X47667Y328836D01*
X48334Y328169D01*
Y326170D01*
X47001Y324837D02*
Y323504D01*
Y324171D01*
X50999D01*
Y324837D01*
X49666Y321505D02*
Y320838D01*
X49000D01*
Y321505D01*
X49666D01*
X47667D02*
Y320838D01*
X47001D01*
Y321505D01*
X47667D01*
X47001Y318173D02*
Y316840D01*
Y317506D01*
X50999D01*
X50333Y318173D01*
X368600Y193798D02*
Y188800D01*
X369600Y187800D01*
X371599D01*
X372599Y188800D01*
Y193798D01*
X143300Y506598D02*
Y501600D01*
X144300Y500600D01*
X146299D01*
X147299Y501600D01*
Y506598D01*
X149298D02*
Y500600D01*
X152297D01*
X153297Y501600D01*
Y505598D01*
X152297Y506598D01*
X149298D01*
X159295Y505598D02*
X158295Y506598D01*
X156296D01*
X155296Y505598D01*
Y504599D01*
X156296Y503599D01*
X158295D01*
X159295Y502599D01*
Y501600D01*
X158295Y500600D01*
X156296D01*
X155296Y501600D01*
X161294Y500600D02*
Y506598D01*
X164293D01*
X165293Y505598D01*
Y503599D01*
X164293Y502599D01*
X161294D01*
X323169Y74499D02*
X325835D01*
X324502D01*
Y70501D01*
X327168Y74499D02*
Y71834D01*
X328501Y70501D01*
X329834Y71834D01*
Y74499D01*
X333832Y73833D02*
X333166Y74499D01*
X331833D01*
X331167Y73833D01*
Y73166D01*
X331833Y72500D01*
X333166D01*
X333832Y71834D01*
Y71167D01*
X333166Y70501D01*
X331833D01*
X331167Y71167D01*
X337831Y70501D02*
X335165D01*
X337831Y73166D01*
Y73833D01*
X337164Y74499D01*
X335832D01*
X335165Y73833D01*
X92003Y17999D02*
X96002D01*
X94003D01*
Y12001D01*
X98001Y17999D02*
Y14000D01*
X100001Y12001D01*
X102000Y14000D01*
Y17999D01*
X107998Y16999D02*
X106998Y17999D01*
X104999D01*
X103999Y16999D01*
Y16000D01*
X104999Y15000D01*
X106998D01*
X107998Y14000D01*
Y13001D01*
X106998Y12001D01*
X104999D01*
X103999Y13001D01*
X109997Y12001D02*
X111997D01*
X110997D01*
Y17999D01*
X109997Y16999D01*
X274334Y165833D02*
X273667Y166499D01*
X272334D01*
X271668Y165833D01*
Y165166D01*
X272334Y164500D01*
X273667D01*
X274334Y163833D01*
Y163167D01*
X273667Y162501D01*
X272334D01*
X271668Y163167D01*
X278332Y162501D02*
X275666D01*
X278332Y165166D01*
Y165833D01*
X277666Y166499D01*
X276333D01*
X275666Y165833D01*
X185000Y164833D02*
X184334Y165499D01*
X183001D01*
X182334Y164833D01*
Y164166D01*
X183001Y163500D01*
X184334D01*
X185000Y162833D01*
Y162167D01*
X184334Y161501D01*
X183001D01*
X182334Y162167D01*
X186333Y161501D02*
X187666D01*
X186999D01*
Y165499D01*
X186333Y164833D01*
X89001Y367497D02*
X92999D01*
Y365498D01*
X92333Y364831D01*
X91000D01*
X90334Y365498D01*
Y367497D01*
Y366164D02*
X89001Y364831D01*
X92999Y360833D02*
X89001D01*
Y362832D01*
X89667Y363498D01*
X91000D01*
X91666Y362832D01*
Y360833D01*
X89001Y359500D02*
Y358167D01*
Y358833D01*
X91666D01*
Y359500D01*
Y356167D02*
X89001Y354835D01*
X91666Y353502D01*
X92999Y349503D02*
X92333Y350836D01*
X91000Y352169D01*
X89667D01*
X89001Y351502D01*
Y350169D01*
X89667Y349503D01*
X90334D01*
X91000Y350169D01*
Y352169D01*
X89501Y329997D02*
X93499D01*
Y327998D01*
X92833Y327331D01*
X91500D01*
X90834Y327998D01*
Y329997D01*
Y328664D02*
X89501Y327331D01*
X93499Y323333D02*
X89501D01*
Y325332D01*
X90167Y325998D01*
X91500D01*
X92166Y325332D01*
Y323333D01*
X89501Y322000D02*
Y320667D01*
Y321333D01*
X92166D01*
Y322000D01*
Y318667D02*
X89501Y317335D01*
X92166Y316002D01*
X93499Y312003D02*
Y314669D01*
X91500D01*
X92166Y313336D01*
Y312669D01*
X91500Y312003D01*
X90167D01*
X89501Y312669D01*
Y314002D01*
X90167Y314669D01*
X63999Y157503D02*
X60001D01*
Y159502D01*
X60667Y160169D01*
X62000D01*
X62666Y159502D01*
Y157503D01*
Y158836D02*
X63999Y160169D01*
X60001Y164167D02*
X63999D01*
Y162168D01*
X63333Y161502D01*
X62000D01*
X61334Y162168D01*
Y164167D01*
X63999Y165500D02*
Y166833D01*
Y166167D01*
X61334D01*
Y165500D01*
Y168833D02*
X63999Y170166D01*
X61334Y171498D01*
X63999Y175497D02*
Y172831D01*
X61334Y175497D01*
X60667D01*
X60001Y174831D01*
Y173498D01*
X60667Y172831D01*
X64999Y118669D02*
X61001D01*
Y120669D01*
X61667Y121335D01*
X63000D01*
X63666Y120669D01*
Y118669D01*
Y120002D02*
X64999Y121335D01*
X61001Y125334D02*
X64999D01*
Y123335D01*
X64333Y122668D01*
X63000D01*
X62334Y123335D01*
Y125334D01*
X64999Y126667D02*
Y128000D01*
Y127333D01*
X62334D01*
Y126667D01*
Y129999D02*
X64999Y131332D01*
X62334Y132665D01*
X64999Y133998D02*
Y135331D01*
Y134664D01*
X61001D01*
X61667Y133998D01*
X165836Y245501D02*
Y249499D01*
X167835D01*
X168502Y248833D01*
Y247500D01*
X167835Y246834D01*
X165836D01*
X167169D02*
X168502Y245501D01*
X169835Y249499D02*
Y245501D01*
X171834D01*
X172501Y246167D01*
Y246834D01*
Y247500D01*
X171834Y248166D01*
X169835D01*
X174500Y245501D02*
X175833D01*
X176499Y246167D01*
Y247500D01*
X175833Y248166D01*
X174500D01*
X173834Y247500D01*
Y246167D01*
X174500Y245501D01*
X178499D02*
X179832D01*
X180498Y246167D01*
Y247500D01*
X179832Y248166D01*
X178499D01*
X177832Y247500D01*
Y246167D01*
X178499Y245501D01*
X182497Y248833D02*
Y248166D01*
X181831D01*
X183164D01*
X182497D01*
Y246167D01*
X183164Y245501D01*
X351999Y212836D02*
X348001D01*
Y214835D01*
X348667Y215501D01*
X350000D01*
X350666Y214835D01*
Y212836D01*
Y214168D02*
X351999Y215501D01*
Y216834D02*
Y218167D01*
Y217501D01*
X348001D01*
X348667Y216834D01*
X349334Y220166D02*
Y220833D01*
X350000D01*
Y220166D01*
X349334D01*
X351333D02*
Y220833D01*
X351999D01*
Y220166D01*
X351333D01*
X348001Y223499D02*
Y226165D01*
X348667D01*
X351333Y223499D01*
X351999D01*
X81837Y207999D02*
X80504D01*
X79837Y207333D01*
Y204667D01*
X80504Y204001D01*
X81837D01*
X82503Y204667D01*
Y207333D01*
X81837Y207999D01*
X83836Y204001D02*
Y207999D01*
X85835D01*
X86502Y207333D01*
Y206000D01*
X85835Y205334D01*
X83836D01*
X87835Y206000D02*
X90501D01*
X91834Y204001D02*
Y206666D01*
X93166Y207999D01*
X94499Y206666D01*
Y204001D01*
Y206000D01*
X91834D01*
X95832Y204001D02*
Y207999D01*
X97165Y206666D01*
X98498Y207999D01*
Y204001D01*
X99831D02*
Y207999D01*
X101830D01*
X102497Y207333D01*
Y206000D01*
X101830Y205334D01*
X99831D01*
X103830Y204001D02*
X105163D01*
X104496D01*
Y207999D01*
X103830Y207333D01*
X366501Y55831D02*
X370499D01*
X369166Y54498D01*
X370499Y53165D01*
X366501D01*
X370499Y49833D02*
Y51166D01*
X369833Y51832D01*
X367167D01*
X366501Y51166D01*
Y49833D01*
X367167Y49166D01*
X369833D01*
X370499Y49833D01*
Y47833D02*
X367834D01*
X366501Y46501D01*
X367834Y45168D01*
X370499D01*
X366501Y41169D02*
Y43835D01*
X369166Y41169D01*
X369833D01*
X370499Y41835D01*
Y43168D01*
X369833Y43835D01*
X117503Y7001D02*
Y12999D01*
X119503Y11000D01*
X121502Y12999D01*
Y7001D01*
X126500Y12999D02*
X124501D01*
X123501Y11999D01*
Y8001D01*
X124501Y7001D01*
X126500D01*
X127500Y8001D01*
Y11999D01*
X126500Y12999D01*
X129499D02*
Y9000D01*
X131499Y7001D01*
X133498Y9000D01*
Y12999D01*
X135497Y7001D02*
X137497D01*
X136497D01*
Y12999D01*
X135497Y11999D01*
X120667Y160671D02*
X124666D01*
X122667D01*
X122000Y161337D01*
Y162670D01*
X122667Y163336D01*
X124666D01*
X122000Y165336D02*
Y166669D01*
X122667Y167335D01*
X124666D01*
Y165336D01*
X124000Y164669D01*
X123333Y165336D01*
Y167335D01*
X124666Y168668D02*
Y170001D01*
Y169334D01*
X120667D01*
Y168668D01*
X124666Y172000D02*
Y173333D01*
Y172667D01*
X120667D01*
Y172000D01*
X125333Y175333D02*
Y177998D01*
X120667Y179331D02*
Y180664D01*
Y179998D01*
X124666D01*
Y179331D01*
Y180664D01*
X120667Y182664D02*
X124666D01*
Y185329D01*
X205836Y262499D02*
Y258501D01*
X207836D01*
X208502Y259167D01*
Y261833D01*
X207836Y262499D01*
X205836D01*
X209835D02*
Y258501D01*
X211834D01*
X212501Y259167D01*
Y259834D01*
Y260500D01*
X211834Y261166D01*
X209835D01*
X214500Y258501D02*
X215833D01*
X216499Y259167D01*
Y260500D01*
X215833Y261166D01*
X214500D01*
X213834Y260500D01*
Y259167D01*
X214500Y258501D01*
X218499D02*
X219832D01*
X220498Y259167D01*
Y260500D01*
X219832Y261166D01*
X218499D01*
X217832Y260500D01*
Y259167D01*
X218499Y258501D01*
X222497Y261833D02*
Y261166D01*
X221831D01*
X223164D01*
X222497D01*
Y259167D01*
X223164Y258501D01*
X79166Y156632D02*
X78499Y157299D01*
X77166D01*
X76500Y156632D01*
Y153966D01*
X77166Y153300D01*
X78499D01*
X79166Y153966D01*
X81165Y153300D02*
Y156632D01*
Y155299D01*
X80499D01*
X81832D01*
X81165D01*
Y156632D01*
X81832Y157299D01*
X83831Y153300D02*
X85164D01*
X84497D01*
Y155966D01*
X83831D01*
X87163Y153300D02*
X88496D01*
X87830D01*
Y157299D01*
X87163D01*
X91162Y156632D02*
Y155966D01*
X90496D01*
X91828D01*
X91162D01*
Y153966D01*
X91828Y153300D01*
X95827D02*
X94494D01*
X93828Y153966D01*
Y155299D01*
X94494Y155966D01*
X95827D01*
X96494Y155299D01*
Y154633D01*
X93828D01*
X97826Y155966D02*
Y153300D01*
Y154633D01*
X98493Y155299D01*
X99159Y155966D01*
X99826D01*
X101825Y153300D02*
X103158D01*
X102492D01*
Y157299D01*
X101825Y156632D01*
X274004Y103499D02*
X273005Y104499D01*
X271005D01*
X270005Y103499D01*
Y99501D01*
X271005Y98501D01*
X273005D01*
X274004Y99501D01*
X280002Y104499D02*
Y98501D01*
X277003D01*
X276004Y99501D01*
Y101500D01*
X277003Y102500D01*
X280002D01*
X286000D02*
X283001D01*
X282002Y101500D01*
Y99501D01*
X283001Y98501D01*
X286000D01*
X290999D02*
Y104499D01*
X288000Y101500D01*
X291998D01*
X293998Y103499D02*
X294997Y104499D01*
X296997D01*
X297996Y103499D01*
Y102500D01*
X296997Y101500D01*
X297996Y100500D01*
Y99501D01*
X296997Y98501D01*
X294997D01*
X293998Y99501D01*
Y100500D01*
X294997Y101500D01*
X293998Y102500D01*
Y103499D01*
X294997Y101500D02*
X296997D01*
X299996Y104499D02*
Y100500D01*
X301995Y98501D01*
X303994Y100500D01*
Y104499D01*
X117005Y114499D02*
X116005Y115499D01*
X114005D01*
X113006Y114499D01*
Y110500D01*
X114005Y109501D01*
X116005D01*
X117005Y110500D01*
X123003Y115499D02*
Y109501D01*
X120004D01*
X119004Y110500D01*
Y112500D01*
X120004Y113499D01*
X123003D01*
X129001D02*
X126002D01*
X125002Y112500D01*
Y110500D01*
X126002Y109501D01*
X129001D01*
X134999D02*
X131000D01*
X134999Y113499D01*
Y114499D01*
X133999Y115499D01*
X132000D01*
X131000Y114499D01*
X139997Y109501D02*
Y115499D01*
X136998Y112500D01*
X140997D01*
X142996Y115499D02*
Y111500D01*
X144995Y109501D01*
X146995Y111500D01*
Y115499D01*
X182335Y219499D02*
X181668Y220166D01*
X180335D01*
X179669Y219499D01*
Y216834D01*
X180335Y216167D01*
X181668D01*
X182335Y216834D01*
X183668Y220166D02*
Y216167D01*
X185667D01*
X186334Y216834D01*
Y217500D01*
Y218166D01*
X185667Y218833D01*
X183668D01*
X187666D02*
Y216834D01*
X188333Y216167D01*
X190332D01*
Y215501D01*
X189666Y214834D01*
X188999D01*
X190332Y216167D02*
Y218833D01*
X191665Y219499D02*
X192332Y220166D01*
X193665D01*
X194331Y219499D01*
Y218833D01*
X193665Y218166D01*
X194331Y217500D01*
Y216834D01*
X193665Y216167D01*
X192332D01*
X191665Y216834D01*
Y217500D01*
X192332Y218166D01*
X191665Y218833D01*
Y219499D01*
X192332Y218166D02*
X193665D01*
X355835Y174499D02*
X355168Y175166D01*
X353836D01*
X353169Y174499D01*
Y171834D01*
X353836Y171167D01*
X355168D01*
X355835Y171834D01*
X357168Y175166D02*
Y171167D01*
X359167D01*
X359834Y171834D01*
Y172500D01*
Y173167D01*
X359167Y173833D01*
X357168D01*
X361167D02*
Y171834D01*
X361833Y171167D01*
X363832D01*
Y170501D01*
X363166Y169834D01*
X362499D01*
X363832Y171167D02*
Y173833D01*
X367831Y175166D02*
X366498Y174499D01*
X365165Y173167D01*
Y171834D01*
X365832Y171167D01*
X367164D01*
X367831Y171834D01*
Y172500D01*
X367164Y173167D01*
X365165D01*
X349501Y146835D02*
X348834Y146168D01*
Y144835D01*
X349501Y144169D01*
X352166D01*
X352833Y144835D01*
Y146168D01*
X352166Y146835D01*
X348834Y148168D02*
X352833D01*
Y150167D01*
X352166Y150833D01*
X351500D01*
X350834D01*
X350167Y150167D01*
Y148168D01*
Y152166D02*
X352166D01*
X352833Y152833D01*
Y154832D01*
X353499D01*
X354166Y154166D01*
Y153499D01*
X352833Y154832D02*
X350167D01*
X348834Y158831D02*
Y156165D01*
X350834D01*
X350167Y157498D01*
Y158165D01*
X350834Y158831D01*
X352166D01*
X352833Y158165D01*
Y156832D01*
X352166Y156165D01*
X242502Y254333D02*
X241835Y254999D01*
X240503D01*
X239836Y254333D01*
Y251667D01*
X240503Y251001D01*
X241835D01*
X242502Y251667D01*
X243835Y254999D02*
Y251001D01*
X245834D01*
X246501Y251667D01*
Y252334D01*
Y253000D01*
X245834Y253666D01*
X243835D01*
X248500Y251001D02*
X249833D01*
X250499Y251667D01*
Y253000D01*
X249833Y253666D01*
X248500D01*
X247834Y253000D01*
Y251667D01*
X248500Y251001D01*
X252499D02*
X253832D01*
X254498Y251667D01*
Y253000D01*
X253832Y253666D01*
X252499D01*
X251832Y253000D01*
Y251667D01*
X252499Y251001D01*
X256497Y254333D02*
Y253666D01*
X255831D01*
X257164D01*
X256497D01*
Y251667D01*
X257164Y251001D01*
X355099Y291898D02*
X354099Y292898D01*
X352100D01*
X351100Y291898D01*
Y287900D01*
X352100Y286900D01*
X354099D01*
X355099Y287900D01*
X357098Y286900D02*
X359097D01*
X358098D01*
Y292898D01*
X357098Y291898D01*
X362096Y290899D02*
X363096D01*
Y289899D01*
X362096D01*
Y290899D01*
Y287900D02*
X363096D01*
Y286900D01*
X362096D01*
Y287900D01*
X367095Y292898D02*
X371094D01*
Y291898D01*
X367095Y287900D01*
Y286900D01*
X172006Y18501D02*
Y24499D01*
X169007Y21500D01*
X173006D01*
X175005Y23499D02*
X176005Y24499D01*
X178004D01*
X179004Y23499D01*
Y22500D01*
X178004Y21500D01*
X179004Y20500D01*
Y19501D01*
X178004Y18501D01*
X176005D01*
X175005Y19501D01*
Y20500D01*
X176005Y21500D01*
X175005Y22500D01*
Y23499D01*
X176005Y21500D02*
X178004D01*
X181003Y24499D02*
Y20500D01*
X183002Y18501D01*
X185002Y20500D01*
Y24499D01*
X193999Y23499D02*
Y22500D01*
X192999D01*
X194999D01*
X193999D01*
Y19501D01*
X194999Y18501D01*
X200997D02*
X198997D01*
X197998Y19501D01*
Y21500D01*
X198997Y22500D01*
X200997D01*
X201996Y21500D01*
Y20500D01*
X197998D01*
X203996Y18501D02*
X206995D01*
X207994Y19501D01*
X206995Y20500D01*
X204995D01*
X203996Y21500D01*
X204995Y22500D01*
X207994D01*
X210993Y23499D02*
Y22500D01*
X209994D01*
X211993D01*
X210993D01*
Y19501D01*
X211993Y18501D01*
X19501Y77501D02*
X15503D01*
X19501Y81500D01*
Y82499D01*
X18502Y83499D01*
X16502D01*
X15503Y82499D01*
X24500Y77501D02*
Y83499D01*
X21501Y80500D01*
X25499D01*
X27499Y83499D02*
Y79500D01*
X29498Y77501D01*
X31497Y79500D01*
Y83499D01*
X44500Y148500D02*
X48499D01*
Y146501D01*
X47832Y145834D01*
X46499D01*
X45833Y146501D01*
Y148500D01*
X47832Y141835D02*
X48499Y142502D01*
Y143835D01*
X47832Y144501D01*
X47166D01*
X46499Y143835D01*
Y142502D01*
X45833Y141835D01*
X45166D01*
X44500Y142502D01*
Y143835D01*
X45166Y144501D01*
X47832Y140503D02*
X48499Y139836D01*
Y138503D01*
X47832Y137837D01*
X47166D01*
X46499Y138503D01*
Y139170D01*
Y138503D01*
X45833Y137837D01*
X45166D01*
X44500Y138503D01*
Y139836D01*
X45166Y140503D01*
X44000Y294000D02*
Y297999D01*
X45999D01*
X46666Y297332D01*
Y295999D01*
X45999Y295333D01*
X44000D01*
X50665Y297332D02*
X49998Y297999D01*
X48665D01*
X47999Y297332D01*
Y296666D01*
X48665Y295999D01*
X49998D01*
X50665Y295333D01*
Y294666D01*
X49998Y294000D01*
X48665D01*
X47999Y294666D01*
X54663Y294000D02*
X51997D01*
X54663Y296666D01*
Y297332D01*
X53997Y297999D01*
X52664D01*
X51997Y297332D01*
X9634Y273000D02*
Y276999D01*
X11633D01*
X12300Y276332D01*
Y274999D01*
X11633Y274333D01*
X9634D01*
X16298Y276332D02*
X15632Y276999D01*
X14299D01*
X13633Y276332D01*
Y275666D01*
X14299Y274999D01*
X15632D01*
X16298Y274333D01*
Y273666D01*
X15632Y273000D01*
X14299D01*
X13633Y273666D01*
X17631Y273000D02*
X18964D01*
X18298D01*
Y276999D01*
X17631Y276332D01*
D15*
X208499Y291186D02*
Y293185D01*
X206999D01*
X207499Y292186D01*
Y291686D01*
X206999Y291186D01*
X206000D01*
X205500Y291686D01*
Y292686D01*
X206000Y293185D01*
X205500Y290186D02*
Y289187D01*
Y289686D01*
X208499D01*
X207999Y290186D01*
X208345Y304238D02*
Y302238D01*
X207845D01*
X205845Y304238D01*
X205346D01*
Y301238D02*
Y300239D01*
Y300739D01*
X208345D01*
X207845Y301238D01*
X556000Y317515D02*
X558999D01*
X557500Y319015D01*
Y317016D01*
X558499Y316016D02*
X558999Y315516D01*
Y314516D01*
X558499Y314017D01*
X556500D01*
X556000Y314516D01*
Y315516D01*
X556500Y316016D01*
X558499D01*
X308999Y278686D02*
X309499Y279186D01*
Y280186D01*
X308999Y280685D01*
X307000D01*
X306500Y280186D01*
Y279186D01*
X307000Y278686D01*
X307999D01*
Y279686D01*
X306500Y277686D02*
X309499D01*
X306500Y275687D01*
X309499D01*
Y274687D02*
X306500D01*
Y273188D01*
X307000Y272688D01*
X308999D01*
X309499Y273188D01*
Y274687D01*
X309304Y490494D02*
X309804Y489995D01*
Y488995D01*
X309304Y488495D01*
X308805D01*
X308305Y488995D01*
Y489495D01*
Y488995D01*
X307805Y488495D01*
X307305D01*
X306805Y488995D01*
Y489995D01*
X307305Y490494D01*
X309804Y487496D02*
X307805D01*
X306805Y486496D01*
X307805Y485496D01*
X309804D01*
X309304Y484496D02*
X309804Y483997D01*
Y482997D01*
X309304Y482497D01*
X308805D01*
X308305Y482997D01*
Y483497D01*
Y482997D01*
X307805Y482497D01*
X307305D01*
X306805Y482997D01*
Y483997D01*
X307305Y484496D01*
X299144Y449158D02*
X299644Y449658D01*
Y450658D01*
X299144Y451158D01*
X297145D01*
X296645Y450658D01*
Y449658D01*
X297145Y449158D01*
X298144D01*
Y450158D01*
X296645Y448158D02*
X299644D01*
X296645Y446159D01*
X299644D01*
Y445159D02*
X296645D01*
Y443660D01*
X297145Y443160D01*
X299144D01*
X299644Y443660D01*
Y445159D01*
X309304Y449158D02*
Y451158D01*
X307805D01*
X308305Y450158D01*
Y449658D01*
X307805Y449158D01*
X306805D01*
X306305Y449658D01*
Y450658D01*
X306805Y451158D01*
X309304Y448158D02*
X307305D01*
X306305Y447159D01*
X307305Y446159D01*
X309304D01*
X559804Y490494D02*
X560304Y489995D01*
Y488995D01*
X559804Y488495D01*
X559305D01*
X558805Y488995D01*
Y489495D01*
Y488995D01*
X558305Y488495D01*
X557805D01*
X557305Y488995D01*
Y489995D01*
X557805Y490494D01*
X560304Y487496D02*
X558305D01*
X557305Y486496D01*
X558305Y485496D01*
X560304D01*
X559804Y484496D02*
X560304Y483997D01*
Y482997D01*
X559804Y482497D01*
X559305D01*
X558805Y482997D01*
Y483497D01*
Y482997D01*
X558305Y482497D01*
X557805D01*
X557305Y482997D01*
Y483997D01*
X557805Y484496D01*
X559304Y449158D02*
Y451158D01*
X557805D01*
X558305Y450158D01*
Y449658D01*
X557805Y449158D01*
X556805D01*
X556305Y449658D01*
Y450658D01*
X556805Y451158D01*
X559304Y448158D02*
X557305D01*
X556305Y447159D01*
X557305Y446159D01*
X559304D01*
X549144Y449158D02*
X549644Y449658D01*
Y450658D01*
X549144Y451158D01*
X547145D01*
X546645Y450658D01*
Y449658D01*
X547145Y449158D01*
X548144D01*
Y450158D01*
X546645Y448158D02*
X549644D01*
X546645Y446159D01*
X549644D01*
Y445159D02*
X546645D01*
Y443660D01*
X547145Y443160D01*
X549144D01*
X549644Y443660D01*
Y445159D01*
X558999Y278686D02*
X559499Y279186D01*
Y280186D01*
X558999Y280685D01*
X557000D01*
X556500Y280186D01*
Y279186D01*
X557000Y278686D01*
X558000D01*
Y279686D01*
X556500Y277686D02*
X559499D01*
X556500Y275687D01*
X559499D01*
Y274687D02*
X556500D01*
Y273188D01*
X557000Y272688D01*
X558999D01*
X559499Y273188D01*
Y274687D01*
X568305Y303000D02*
X571304D01*
X569805Y304500D01*
Y302501D01*
X570804Y301501D02*
X571304Y301001D01*
Y300002D01*
X570804Y299502D01*
X568805D01*
X568305Y300002D01*
Y301001D01*
X568805Y301501D01*
X570804D01*
X459499Y304000D02*
X459999Y303500D01*
Y302501D01*
X459499Y302001D01*
X458999D01*
X458499Y302501D01*
Y303000D01*
Y302501D01*
X458000Y302001D01*
X457500D01*
X457000Y302501D01*
Y303500D01*
X457500Y304000D01*
X457000Y301001D02*
Y300001D01*
Y300501D01*
X459999D01*
X459499Y301001D01*
X457000Y293700D02*
Y292700D01*
Y293200D01*
X459999D01*
X459499Y293700D01*
X457000Y291201D02*
Y290201D01*
Y290701D01*
X459999D01*
X459499Y291201D01*
X568305Y292501D02*
Y294500D01*
X570305Y292501D01*
X570804D01*
X571304Y293001D01*
Y294000D01*
X570804Y294500D01*
Y291501D02*
X571304Y291001D01*
Y290002D01*
X570804Y289502D01*
X568805D01*
X568305Y290002D01*
Y291001D01*
X568805Y291501D01*
X570804D01*
X567500Y462501D02*
Y464500D01*
X569499Y462501D01*
X569999D01*
X570499Y463000D01*
Y464000D01*
X569999Y464500D01*
X567500Y461501D02*
Y460501D01*
Y461001D01*
X570499D01*
X569999Y461501D01*
X458999Y464500D02*
X459499Y464000D01*
Y463000D01*
X458999Y462501D01*
X458499D01*
X458000Y463000D01*
Y463500D01*
Y463000D01*
X457500Y462501D01*
X457000D01*
X456500Y463000D01*
Y464000D01*
X457000Y464500D01*
X458999Y461501D02*
X459499Y461001D01*
Y460002D01*
X458999Y459502D01*
X457000D01*
X456500Y460002D01*
Y461001D01*
X457000Y461501D01*
X458999D01*
X567500Y473000D02*
Y472000D01*
Y472500D01*
X570499D01*
X569999Y473000D01*
X456500Y474200D02*
Y473200D01*
Y473700D01*
X459499D01*
X458999Y474200D01*
Y471701D02*
X459499Y471201D01*
Y470201D01*
X458999Y469701D01*
X457000D01*
X456500Y470201D01*
Y471201D01*
X457000Y471701D01*
X458999D01*
X219999Y319015D02*
Y317016D01*
X219499D01*
X217500Y319015D01*
X217000D01*
Y316016D02*
Y315016D01*
Y315516D01*
X219999D01*
X219499Y316016D01*
X320499Y304500D02*
X320999Y304000D01*
Y303000D01*
X320499Y302501D01*
X319999D01*
X319499Y303000D01*
X319000Y302501D01*
X318500D01*
X318000Y303000D01*
Y304000D01*
X318500Y304500D01*
X319000D01*
X319499Y304000D01*
X319999Y304500D01*
X320499D01*
X319499Y304000D02*
Y303000D01*
X320499Y301501D02*
X320999Y301001D01*
Y300002D01*
X320499Y299502D01*
X318500D01*
X318000Y300002D01*
Y301001D01*
X318500Y301501D01*
X320499D01*
X320999Y292501D02*
X320499Y293500D01*
X319499Y294500D01*
X318500D01*
X318000Y294000D01*
Y293001D01*
X318500Y292501D01*
X319000D01*
X319499Y293001D01*
Y294500D01*
X320499Y291501D02*
X320999Y291001D01*
Y290002D01*
X320499Y289502D01*
X318500D01*
X318000Y290002D01*
Y291001D01*
X318500Y291501D01*
X320499D01*
X209999Y464500D02*
Y462501D01*
X209499D01*
X207500Y464500D01*
X207000D01*
X209499Y461501D02*
X209999Y461001D01*
Y460002D01*
X209499Y459502D01*
X207500D01*
X207000Y460002D01*
Y461001D01*
X207500Y461501D01*
X209499D01*
X209999Y472201D02*
Y474200D01*
X208500D01*
X208999Y473200D01*
Y472701D01*
X208500Y472201D01*
X207500D01*
X207000Y472701D01*
Y473700D01*
X207500Y474200D01*
X209499Y471201D02*
X209999Y470701D01*
Y469701D01*
X209499Y469202D01*
X207500D01*
X207000Y469701D01*
Y470701D01*
X207500Y471201D01*
X209499D01*
X320999Y462001D02*
X320499Y463000D01*
X319499Y464000D01*
X318500D01*
X318000Y463500D01*
Y462500D01*
X318500Y462001D01*
X319000D01*
X319499Y462500D01*
Y464000D01*
X318000Y461001D02*
Y460001D01*
Y460501D01*
X320999D01*
X320499Y461001D01*
X318000Y473000D02*
X320999D01*
X319499Y474500D01*
Y472501D01*
X318000Y471501D02*
Y470501D01*
Y471001D01*
X320999D01*
X320499Y471501D01*
X546500Y488495D02*
Y490494D01*
X548499Y488495D01*
X548999D01*
X549499Y488995D01*
Y489995D01*
X548999Y490494D01*
X538999D02*
X539499Y489995D01*
Y488995D01*
X538999Y488495D01*
X538499D01*
X537999Y488995D01*
Y489495D01*
Y488995D01*
X537500Y488495D01*
X537000D01*
X536500Y488995D01*
Y489995D01*
X537000Y490494D01*
X526500Y488995D02*
X529499D01*
X527999Y490494D01*
Y488495D01*
X519499D02*
Y490494D01*
X518000D01*
X518499Y489495D01*
Y488995D01*
X518000Y488495D01*
X517000D01*
X516500Y488995D01*
Y489995D01*
X517000Y490494D01*
X509499Y488495D02*
X508999Y489495D01*
X508000Y490494D01*
X507000D01*
X506500Y489995D01*
Y488995D01*
X507000Y488495D01*
X507500D01*
X508000Y488995D01*
Y490494D01*
X499499D02*
Y488495D01*
X498999D01*
X497000Y490494D01*
X496500D01*
X488999D02*
X489499Y489995D01*
Y488995D01*
X488999Y488495D01*
X488499D01*
X487999Y488995D01*
X487500Y488495D01*
X487000D01*
X486500Y488995D01*
Y489995D01*
X487000Y490494D01*
X487500D01*
X487999Y489995D01*
X488499Y490494D01*
X488999D01*
X487999Y489995D02*
Y488995D01*
X477000Y490494D02*
X476500Y489995D01*
Y488995D01*
X477000Y488495D01*
X478999D01*
X479499Y488995D01*
Y489995D01*
X478999Y490494D01*
X478499D01*
X477999Y489995D01*
Y488495D01*
X466500Y490494D02*
Y489495D01*
Y489995D01*
X469499D01*
X468999Y490494D01*
Y487995D02*
X469499Y487496D01*
Y486496D01*
X468999Y485996D01*
X467000D01*
X466500Y486496D01*
Y487496D01*
X467000Y487995D01*
X468999D01*
X536000Y449158D02*
Y451158D01*
X537999Y449158D01*
X538499D01*
X538999Y449658D01*
Y450658D01*
X538499Y451158D01*
Y448158D02*
X538999Y447659D01*
Y446659D01*
X538499Y446159D01*
X537999D01*
X537500Y446659D01*
Y447159D01*
Y446659D01*
X537000Y446159D01*
X536500D01*
X536000Y446659D01*
Y447659D01*
X536500Y448158D01*
X526000Y449158D02*
Y451158D01*
X527999Y449158D01*
X528499D01*
X528999Y449658D01*
Y450658D01*
X528499Y451158D01*
X526000Y446659D02*
X528999D01*
X527499Y448158D01*
Y446159D01*
X516000Y449158D02*
Y451158D01*
X517999Y449158D01*
X518499D01*
X518999Y449658D01*
Y450658D01*
X518499Y451158D01*
X518999Y446159D02*
Y448158D01*
X517499D01*
X517999Y447159D01*
Y446659D01*
X517499Y446159D01*
X516500D01*
X516000Y446659D01*
Y447659D01*
X516500Y448158D01*
X506000Y449158D02*
Y451158D01*
X507999Y449158D01*
X508499D01*
X508999Y449658D01*
Y450658D01*
X508499Y451158D01*
X508999Y446159D02*
X508499Y447159D01*
X507500Y448158D01*
X506500D01*
X506000Y447659D01*
Y446659D01*
X506500Y446159D01*
X507000D01*
X507500Y446659D01*
Y448158D01*
X486000Y449158D02*
Y451158D01*
X487999Y449158D01*
X488499D01*
X488999Y449658D01*
Y450658D01*
X488499Y451158D01*
Y448158D02*
X488999Y447659D01*
Y446659D01*
X488499Y446159D01*
X487999D01*
X487500Y446659D01*
X487000Y446159D01*
X486500D01*
X486000Y446659D01*
Y447659D01*
X486500Y448158D01*
X487000D01*
X487500Y447659D01*
X487999Y448158D01*
X488499D01*
X487500Y447659D02*
Y446659D01*
X476000Y449158D02*
Y451158D01*
X477999Y449158D01*
X478499D01*
X478999Y449658D01*
Y450658D01*
X478499Y451158D01*
X476500Y448158D02*
X476000Y447659D01*
Y446659D01*
X476500Y446159D01*
X478499D01*
X478999Y446659D01*
Y447659D01*
X478499Y448158D01*
X477999D01*
X477499Y447659D01*
Y446159D01*
X469499Y451158D02*
X469999Y450658D01*
Y449658D01*
X469499Y449158D01*
X468999D01*
X468500Y449658D01*
Y450158D01*
Y449658D01*
X468000Y449158D01*
X467500D01*
X467000Y449658D01*
Y450658D01*
X467500Y451158D01*
X469499Y448158D02*
X469999Y447659D01*
Y446659D01*
X469499Y446159D01*
X467500D01*
X467000Y446659D01*
Y447659D01*
X467500Y448158D01*
X469499D01*
X218999Y451158D02*
Y449158D01*
X218499D01*
X216500Y451158D01*
X216000D01*
X218499Y448158D02*
X218999Y447659D01*
Y446659D01*
X218499Y446159D01*
X216500D01*
X216000Y446659D01*
Y447659D01*
X216500Y448158D01*
X218499D01*
X228999Y449158D02*
X228499Y450158D01*
X227500Y451158D01*
X226500D01*
X226000Y450658D01*
Y449658D01*
X226500Y449158D01*
X227000D01*
X227500Y449658D01*
Y451158D01*
X226500Y448158D02*
X226000Y447659D01*
Y446659D01*
X226500Y446159D01*
X228499D01*
X228999Y446659D01*
Y447659D01*
X228499Y448158D01*
X227999D01*
X227500Y447659D01*
Y446159D01*
X238999Y449158D02*
X238499Y450158D01*
X237499Y451158D01*
X236500D01*
X236000Y450658D01*
Y449658D01*
X236500Y449158D01*
X237000D01*
X237499Y449658D01*
Y451158D01*
X238499Y448158D02*
X238999Y447659D01*
Y446659D01*
X238499Y446159D01*
X237999D01*
X237499Y446659D01*
X237000Y446159D01*
X236500D01*
X236000Y446659D01*
Y447659D01*
X236500Y448158D01*
X237000D01*
X237499Y447659D01*
X237999Y448158D01*
X238499D01*
X237499Y447659D02*
Y446659D01*
X258999Y449158D02*
X258499Y450158D01*
X257500Y451158D01*
X256500D01*
X256000Y450658D01*
Y449658D01*
X256500Y449158D01*
X257000D01*
X257500Y449658D01*
Y451158D01*
X258999Y446159D02*
X258499Y447159D01*
X257500Y448158D01*
X256500D01*
X256000Y447659D01*
Y446659D01*
X256500Y446159D01*
X257000D01*
X257500Y446659D01*
Y448158D01*
X268999Y449158D02*
X268499Y450158D01*
X267499Y451158D01*
X266500D01*
X266000Y450658D01*
Y449658D01*
X266500Y449158D01*
X267000D01*
X267499Y449658D01*
Y451158D01*
X268999Y446159D02*
Y448158D01*
X267499D01*
X267999Y447159D01*
Y446659D01*
X267499Y446159D01*
X266500D01*
X266000Y446659D01*
Y447659D01*
X266500Y448158D01*
X278999Y449158D02*
X278499Y450158D01*
X277500Y451158D01*
X276500D01*
X276000Y450658D01*
Y449658D01*
X276500Y449158D01*
X277000D01*
X277500Y449658D01*
Y451158D01*
X276000Y446659D02*
X278999D01*
X277500Y448158D01*
Y446159D01*
X288999Y449158D02*
X288499Y450158D01*
X287499Y451158D01*
X286500D01*
X286000Y450658D01*
Y449658D01*
X286500Y449158D01*
X287000D01*
X287499Y449658D01*
Y451158D01*
X288499Y448158D02*
X288999Y447659D01*
Y446659D01*
X288499Y446159D01*
X287999D01*
X287499Y446659D01*
Y447159D01*
Y446659D01*
X287000Y446159D01*
X286500D01*
X286000Y446659D01*
Y447659D01*
X286500Y448158D01*
X219499Y488495D02*
Y490494D01*
X218000D01*
X218499Y489495D01*
Y488995D01*
X218000Y488495D01*
X217000D01*
X216500Y488995D01*
Y489995D01*
X217000Y490494D01*
X218999Y487496D02*
X219499Y486996D01*
Y485996D01*
X218999Y485496D01*
X217000D01*
X216500Y485996D01*
Y486996D01*
X217000Y487496D01*
X218999D01*
X226500Y488995D02*
X229499D01*
X227999Y490494D01*
Y488495D01*
X227000Y487496D02*
X226500Y486996D01*
Y485996D01*
X227000Y485496D01*
X228999D01*
X229499Y485996D01*
Y486996D01*
X228999Y487496D01*
X228499D01*
X227999Y486996D01*
Y485496D01*
X236500Y488995D02*
X239499D01*
X238000Y490494D01*
Y488495D01*
X238999Y487496D02*
X239499Y486996D01*
Y485996D01*
X238999Y485496D01*
X238499D01*
X238000Y485996D01*
X237500Y485496D01*
X237000D01*
X236500Y485996D01*
Y486996D01*
X237000Y487496D01*
X237500D01*
X238000Y486996D01*
X238499Y487496D01*
X238999D01*
X238000Y486996D02*
Y485996D01*
X246500Y488995D02*
X249499D01*
X248000Y490494D01*
Y488495D01*
X249499Y487496D02*
Y485496D01*
X248999D01*
X247000Y487496D01*
X246500D01*
X256500Y488995D02*
X259499D01*
X257999Y490494D01*
Y488495D01*
X259499Y485496D02*
X258999Y486496D01*
X257999Y487496D01*
X257000D01*
X256500Y486996D01*
Y485996D01*
X257000Y485496D01*
X257500D01*
X257999Y485996D01*
Y487496D01*
X266500Y488995D02*
X269499D01*
X268000Y490494D01*
Y488495D01*
X269499Y485496D02*
Y487496D01*
X268000D01*
X268499Y486496D01*
Y485996D01*
X268000Y485496D01*
X267000D01*
X266500Y485996D01*
Y486996D01*
X267000Y487496D01*
X276500Y488995D02*
X279499D01*
X277999Y490494D01*
Y488495D01*
X276500Y485996D02*
X279499D01*
X277999Y487496D01*
Y485496D01*
X286500Y488995D02*
X289499D01*
X288000Y490494D01*
Y488495D01*
X288999Y487496D02*
X289499Y486996D01*
Y485996D01*
X288999Y485496D01*
X288499D01*
X288000Y485996D01*
Y486496D01*
Y485996D01*
X287500Y485496D01*
X287000D01*
X286500Y485996D01*
Y486996D01*
X287000Y487496D01*
X296500Y488995D02*
X299499D01*
X298000Y490494D01*
Y488495D01*
X296500Y485496D02*
Y487496D01*
X298499Y485496D01*
X298999D01*
X299499Y485996D01*
Y486996D01*
X298999Y487496D01*
X248999Y449158D02*
X248499Y450158D01*
X247499Y451158D01*
X246500D01*
X246000Y450658D01*
Y449658D01*
X246500Y449158D01*
X247000D01*
X247499Y449658D01*
Y451158D01*
X248999Y448158D02*
Y446159D01*
X248499D01*
X246500Y448158D01*
X246000D01*
X248999Y278686D02*
Y280685D01*
X247499D01*
X247999Y279686D01*
Y279186D01*
X247499Y278686D01*
X246500D01*
X246000Y279186D01*
Y280186D01*
X246500Y280685D01*
X246000Y276187D02*
X248999D01*
X247499Y277686D01*
Y275687D01*
X279365Y319015D02*
Y317016D01*
X278865D01*
X276865Y319015D01*
X276366D01*
X279365Y316016D02*
Y314017D01*
X278865D01*
X276865Y316016D01*
X276366D01*
X269365Y319015D02*
Y317016D01*
X268865D01*
X266865Y319015D01*
X266366D01*
X269365Y314017D02*
X268865Y315016D01*
X267865Y316016D01*
X266865D01*
X266366Y315516D01*
Y314516D01*
X266865Y314017D01*
X267365D01*
X267865Y314516D01*
Y316016D01*
X258999Y319015D02*
Y317016D01*
X258499D01*
X256500Y319015D01*
X256000D01*
X258999Y314017D02*
Y316016D01*
X257500D01*
X257999Y315016D01*
Y314516D01*
X257500Y314017D01*
X256500D01*
X256000Y314516D01*
Y315516D01*
X256500Y316016D01*
X248999Y319015D02*
Y317016D01*
X248499D01*
X246500Y319015D01*
X246000D01*
Y314516D02*
X248999D01*
X247499Y316016D01*
Y314017D01*
X239365Y319015D02*
Y317016D01*
X238865D01*
X236865Y319015D01*
X236366D01*
X238865Y316016D02*
X239365Y315516D01*
Y314516D01*
X238865Y314017D01*
X238365D01*
X237865Y314516D01*
Y315016D01*
Y314516D01*
X237365Y314017D01*
X236865D01*
X236366Y314516D01*
Y315516D01*
X236865Y316016D01*
X229365Y319015D02*
Y317016D01*
X228865D01*
X226865Y319015D01*
X226366D01*
Y314017D02*
Y316016D01*
X228365Y314017D01*
X228865D01*
X229365Y314516D01*
Y315516D01*
X228865Y316016D01*
X309365Y319015D02*
X309865Y318515D01*
Y317515D01*
X309365Y317016D01*
X308865D01*
X308365Y317515D01*
X307865Y317016D01*
X307365D01*
X306866Y317515D01*
Y318515D01*
X307365Y319015D01*
X307865D01*
X308365Y318515D01*
X308865Y319015D01*
X309365D01*
X308365Y318515D02*
Y317515D01*
X309365Y316016D02*
X309865Y315516D01*
Y314516D01*
X309365Y314017D01*
X307365D01*
X306866Y314516D01*
Y315516D01*
X307365Y316016D01*
X309365D01*
X288999Y278686D02*
Y280685D01*
X287499D01*
X287999Y279686D01*
Y279186D01*
X287499Y278686D01*
X286500D01*
X286000Y279186D01*
Y280186D01*
X286500Y280685D01*
X288499Y277686D02*
X288999Y277186D01*
Y276187D01*
X288499Y275687D01*
X287999D01*
X287499Y276187D01*
X287000Y275687D01*
X286500D01*
X286000Y276187D01*
Y277186D01*
X286500Y277686D01*
X287000D01*
X287499Y277186D01*
X287999Y277686D01*
X288499D01*
X287499Y277186D02*
Y276187D01*
X278999Y278686D02*
Y280685D01*
X277500D01*
X277999Y279686D01*
Y279186D01*
X277500Y278686D01*
X276500D01*
X276000Y279186D01*
Y280186D01*
X276500Y280685D01*
X278999Y277686D02*
Y275687D01*
X278499D01*
X276500Y277686D01*
X276000D01*
X268999Y278686D02*
Y280685D01*
X267499D01*
X267999Y279686D01*
Y279186D01*
X267499Y278686D01*
X266500D01*
X266000Y279186D01*
Y280186D01*
X266500Y280685D01*
X268999Y275687D02*
X268499Y276687D01*
X267499Y277686D01*
X266500D01*
X266000Y277186D01*
Y276187D01*
X266500Y275687D01*
X267000D01*
X267499Y276187D01*
Y277686D01*
X258999Y278686D02*
Y280685D01*
X257500D01*
X257999Y279686D01*
Y279186D01*
X257500Y278686D01*
X256500D01*
X256000Y279186D01*
Y280186D01*
X256500Y280685D01*
X258999Y275687D02*
Y277686D01*
X257500D01*
X257999Y276687D01*
Y276187D01*
X257500Y275687D01*
X256500D01*
X256000Y276187D01*
Y277186D01*
X256500Y277686D01*
X238999Y278686D02*
Y280685D01*
X237499D01*
X237999Y279686D01*
Y279186D01*
X237499Y278686D01*
X236500D01*
X236000Y279186D01*
Y280186D01*
X236500Y280685D01*
X238499Y277686D02*
X238999Y277186D01*
Y276187D01*
X238499Y275687D01*
X237999D01*
X237499Y276187D01*
Y276687D01*
Y276187D01*
X237000Y275687D01*
X236500D01*
X236000Y276187D01*
Y277186D01*
X236500Y277686D01*
X228999Y278686D02*
Y280685D01*
X227500D01*
X227999Y279686D01*
Y279186D01*
X227500Y278686D01*
X226500D01*
X226000Y279186D01*
Y280186D01*
X226500Y280685D01*
X226000Y275687D02*
Y277686D01*
X227999Y275687D01*
X228499D01*
X228999Y276187D01*
Y277186D01*
X228499Y277686D01*
X218999Y278686D02*
Y280685D01*
X217499D01*
X217999Y279686D01*
Y279186D01*
X217499Y278686D01*
X216500D01*
X216000Y279186D01*
Y280186D01*
X216500Y280685D01*
X216000Y277686D02*
Y276687D01*
Y277186D01*
X218999D01*
X218499Y277686D01*
X496000Y280685D02*
Y279686D01*
Y280186D01*
X498999D01*
X498499Y280685D01*
X496000Y276687D02*
X498999D01*
X497500Y278186D01*
Y276187D01*
X528499Y319015D02*
X528999Y318515D01*
Y317515D01*
X528499Y317016D01*
X527999D01*
X527499Y317515D01*
Y318015D01*
Y317515D01*
X527000Y317016D01*
X526500D01*
X526000Y317515D01*
Y318515D01*
X526500Y319015D01*
X528999Y316016D02*
Y314017D01*
X528499D01*
X526500Y316016D01*
X526000D01*
X518499Y319015D02*
X518999Y318515D01*
Y317515D01*
X518499Y317016D01*
X517999D01*
X517499Y317515D01*
Y318015D01*
Y317515D01*
X517000Y317016D01*
X516500D01*
X516000Y317515D01*
Y318515D01*
X516500Y319015D01*
X518999Y314017D02*
X518499Y315016D01*
X517499Y316016D01*
X516500D01*
X516000Y315516D01*
Y314516D01*
X516500Y314017D01*
X517000D01*
X517499Y314516D01*
Y316016D01*
X508499Y319015D02*
X508999Y318515D01*
Y317515D01*
X508499Y317016D01*
X507999D01*
X507500Y317515D01*
Y318015D01*
Y317515D01*
X507000Y317016D01*
X506500D01*
X506000Y317515D01*
Y318515D01*
X506500Y319015D01*
X508999Y314017D02*
Y316016D01*
X507500D01*
X507999Y315016D01*
Y314516D01*
X507500Y314017D01*
X506500D01*
X506000Y314516D01*
Y315516D01*
X506500Y316016D01*
X498499Y319015D02*
X498999Y318515D01*
Y317515D01*
X498499Y317016D01*
X497999D01*
X497500Y317515D01*
Y318015D01*
Y317515D01*
X497000Y317016D01*
X496500D01*
X496000Y317515D01*
Y318515D01*
X496500Y319015D01*
X496000Y314516D02*
X498999D01*
X497500Y316016D01*
Y314017D01*
X488499Y319015D02*
X488999Y318515D01*
Y317515D01*
X488499Y317016D01*
X487999D01*
X487500Y317515D01*
Y318015D01*
Y317515D01*
X487000Y317016D01*
X486500D01*
X486000Y317515D01*
Y318515D01*
X486500Y319015D01*
X488499Y316016D02*
X488999Y315516D01*
Y314516D01*
X488499Y314017D01*
X487999D01*
X487500Y314516D01*
Y315016D01*
Y314516D01*
X487000Y314017D01*
X486500D01*
X486000Y314516D01*
Y315516D01*
X486500Y316016D01*
X478499Y319015D02*
X478999Y318515D01*
Y317515D01*
X478499Y317016D01*
X477999D01*
X477499Y317515D01*
Y318015D01*
Y317515D01*
X477000Y317016D01*
X476500D01*
X476000Y317515D01*
Y318515D01*
X476500Y319015D01*
X476000Y314017D02*
Y316016D01*
X477999Y314017D01*
X478499D01*
X478999Y314516D01*
Y315516D01*
X478499Y316016D01*
X468499Y319015D02*
X468999Y318515D01*
Y317515D01*
X468499Y317016D01*
X467999D01*
X467499Y317515D01*
Y318015D01*
Y317515D01*
X467000Y317016D01*
X466500D01*
X466000Y317515D01*
Y318515D01*
X466500Y319015D01*
X466000Y316016D02*
Y315016D01*
Y315516D01*
X468999D01*
X468499Y316016D01*
X536000Y280685D02*
Y279686D01*
Y280186D01*
X538999D01*
X538499Y280685D01*
Y278186D02*
X538999Y277686D01*
Y276687D01*
X538499Y276187D01*
X537999D01*
X537500Y276687D01*
X537000Y276187D01*
X536500D01*
X536000Y276687D01*
Y277686D01*
X536500Y278186D01*
X537000D01*
X537500Y277686D01*
X537999Y278186D01*
X538499D01*
X537500Y277686D02*
Y276687D01*
X526000Y280685D02*
Y279686D01*
Y280186D01*
X528999D01*
X528499Y280685D01*
X528999Y278186D02*
Y276187D01*
X528499D01*
X526500Y278186D01*
X526000D01*
X516000Y280685D02*
Y279686D01*
Y280186D01*
X518999D01*
X518499Y280685D01*
X518999Y276187D02*
X518499Y277186D01*
X517499Y278186D01*
X516500D01*
X516000Y277686D01*
Y276687D01*
X516500Y276187D01*
X517000D01*
X517499Y276687D01*
Y278186D01*
X506000Y280685D02*
Y279686D01*
Y280186D01*
X508999D01*
X508499Y280685D01*
X508999Y276187D02*
Y278186D01*
X507500D01*
X507999Y277186D01*
Y276687D01*
X507500Y276187D01*
X506500D01*
X506000Y276687D01*
Y277686D01*
X506500Y278186D01*
X486000Y280685D02*
Y279686D01*
Y280186D01*
X488999D01*
X488499Y280685D01*
Y278186D02*
X488999Y277686D01*
Y276687D01*
X488499Y276187D01*
X487999D01*
X487500Y276687D01*
Y277186D01*
Y276687D01*
X487000Y276187D01*
X486500D01*
X486000Y276687D01*
Y277686D01*
X486500Y278186D01*
X476000Y280685D02*
Y279686D01*
Y280186D01*
X478999D01*
X478499Y280685D01*
X476000Y276187D02*
Y278186D01*
X477999Y276187D01*
X478499D01*
X478999Y276687D01*
Y277686D01*
X478499Y278186D01*
X466000Y280685D02*
Y279686D01*
Y280186D01*
X468999D01*
X468499Y280685D01*
X466000Y278186D02*
Y277186D01*
Y277686D01*
X468999D01*
X468499Y278186D01*
X298999Y278686D02*
Y280685D01*
X297499D01*
X297999Y279686D01*
Y279186D01*
X297499Y278686D01*
X296500D01*
X296000Y279186D01*
Y280186D01*
X296500Y280685D01*
Y277686D02*
X296000Y277186D01*
Y276187D01*
X296500Y275687D01*
X298499D01*
X298999Y276187D01*
Y277186D01*
X298499Y277686D01*
X297999D01*
X297499Y277186D01*
Y275687D01*
X546000Y280685D02*
Y279686D01*
Y280186D01*
X548999D01*
X548499Y280685D01*
X546500Y278186D02*
X546000Y277686D01*
Y276687D01*
X546500Y276187D01*
X548499D01*
X548999Y276687D01*
Y277686D01*
X548499Y278186D01*
X547999D01*
X547500Y277686D01*
Y276187D01*
X496000Y449158D02*
Y451158D01*
X497999Y449158D01*
X498499D01*
X498999Y449658D01*
Y450658D01*
X498499Y451158D01*
X498999Y448158D02*
Y446159D01*
X498499D01*
X496500Y448158D01*
X496000D01*
X538999Y319015D02*
X539499Y318515D01*
Y317515D01*
X538999Y317016D01*
X538499D01*
X537999Y317515D01*
Y318015D01*
Y317515D01*
X537500Y317016D01*
X537000D01*
X536500Y317515D01*
Y318515D01*
X537000Y319015D01*
X538999Y316016D02*
X539499Y315516D01*
Y314516D01*
X538999Y314017D01*
X538499D01*
X537999Y314516D01*
X537500Y314017D01*
X537000D01*
X536500Y314516D01*
Y315516D01*
X537000Y316016D01*
X537500D01*
X537999Y315516D01*
X538499Y316016D01*
X538999D01*
X537999Y315516D02*
Y314516D01*
X548999Y319015D02*
X549499Y318515D01*
Y317515D01*
X548999Y317016D01*
X548499D01*
X547999Y317515D01*
Y318015D01*
Y317515D01*
X547500Y317016D01*
X547000D01*
X546500Y317515D01*
Y318515D01*
X547000Y319015D01*
Y316016D02*
X546500Y315516D01*
Y314516D01*
X547000Y314017D01*
X548999D01*
X549499Y314516D01*
Y315516D01*
X548999Y316016D01*
X548499D01*
X547999Y315516D01*
Y314017D01*
X299365Y319015D02*
Y317016D01*
X298865D01*
X296865Y319015D01*
X296366D01*
X296865Y316016D02*
X296366Y315516D01*
Y314516D01*
X296865Y314017D01*
X298865D01*
X299365Y314516D01*
Y315516D01*
X298865Y316016D01*
X298365D01*
X297865Y315516D01*
Y314017D01*
X289365Y319015D02*
Y317016D01*
X288865D01*
X286865Y319015D01*
X286366D01*
X288865Y316016D02*
X289365Y315516D01*
Y314516D01*
X288865Y314017D01*
X288365D01*
X287865Y314516D01*
X287365Y314017D01*
X286865D01*
X286366Y314516D01*
Y315516D01*
X286865Y316016D01*
X287365D01*
X287865Y315516D01*
X288365Y316016D01*
X288865D01*
X287865Y315516D02*
Y314516D01*
M02*
